<?xml version="1.0" encoding="utf-8"?>
<!-- Generator: Adobe Illustrator 16.0.0, SVG Export Plug-In . SVG Version: 6.00 Build 0)  -->
<!DOCTYPE svg PUBLIC "-//W3C//DTD SVG 1.1//EN" "http://www.w3.org/Graphics/SVG/1.1/DTD/svg11.dtd">
<svg version="1.1" id="concordia-logo_x28_blue_x29__xA0_Image_1_"
	 xmlns="http://www.w3.org/2000/svg" xmlns:xlink="http://www.w3.org/1999/xlink" x="0px" y="0px" width="512px" height="511px"
	 viewBox="0 0 512 511" enable-background="new 0 0 512 511" xml:space="preserve">
<g>
	<path fill-rule="evenodd" clip-rule="evenodd" fill="#F9F9F9" d="M761.262,367.762c1.288,3.09-0.129,4.16-2.868,4.971
		c-1.399,0.414-3.464,2.074-3.469,3.178c-0.053,12.449-0.078,24.916,0.546,37.346c0.398,7.922,6.328,10.768,14.574,10.75
		c7.771-0.016,13.338-4.729,13.664-12.119c0.52-11.799,0.424-23.633,0.198-35.445c-0.026-1.375-2.499-2.723-3.868-4.051
		c-1.195-1.158-2.435-2.273-3.654-3.406c0.307-0.412,0.615-0.824,0.922-1.236c6.551,0,13.102,0,19.838,0
		c1.293,2.641,0.627,4.557-2.412,4.775c-3.81,0.275-4.031,2.73-4.034,5.531c-0.009,9.992-0.117,19.986,0.017,29.977
		c0.258,19.203-11.388,26.199-28.778,24.363c-4.747-0.5-9.511-2.506-13.858-4.648c-4.48-2.209-6.326-6.518-6.303-11.59
		c0.053-11.658,0.1-23.316-0.03-34.973c-0.046-4.09,0.081-8.494-5.772-9.324c-0.898-0.127-1.525-2.168-2.781-4.098
		C743.254,367.762,752.059,367.762,761.262,367.762z"/>
	<path fill-rule="evenodd" clip-rule="evenodd" fill="#F9F9F9" d="M1069.468,351.742c6.648-5.605,4-12.902,4.255-19.598
		c0.303-7.971,0.076-15.961,0.066-23.943c-0.004-2.768-0.084-5.289-3.998-5.521c-0.909-0.053-1.692-2.244-2.533-3.451
		c0.302-0.508,0.604-1.016,0.905-1.523c13.38,0.508,26.808,0.492,40.123,1.713c8.363,0.766,13.936,8.373,15.192,18.408
		c2.582,20.623-10.636,36.201-30.751,35.215c-7.402-0.363-14.837-0.059-22.257-0.059
		C1070.137,352.568,1069.802,352.156,1069.468,351.742z M1085.896,304.348c0,14.365,0,28.412,0,42.779
		c6.891,0.244,13.222,0.721,18.928-4.168c7.022-6.016,7.709-20.039,4.962-27.852
		C1106.482,305.715,1098.258,302.334,1085.896,304.348z"/>
	<path fill-rule="evenodd" clip-rule="evenodd" fill="#F9F9F9" d="M1005.651,382.49c0,13.535-0.069,27.156,0.135,40.773
		c0.017,1.061,1.947,2.096,2.996,3.135c1.118,1.107,2.245,2.205,3.368,3.309c-0.291,0.361-0.582,0.723-0.873,1.084
		c-7.632,0-15.264,0-24.613,0c1.756-2.006,2.596-3.889,3.781-4.141c3.105-0.658,3.406-2.523,3.394-5.088
		c-0.062-11.662-0.019-23.326-0.03-34.99c-0.003-2.895,0.131-5.752-4.184-5.84c-0.777-0.016-1.506-2.322-2.771-4.426
		c11.643,0,21.79-0.283,31.911,0.127c4.59,0.188,9.125,1.477,10.893,6.988c1.855,5.787,0.846,10.771-3.225,15.121
		c-1.563,1.67-3.471,3.018-5.949,5.133c5.664,8.666,11.498,17.594,17.641,26.99c-5.545,0-10.451,0-15.703,0
		c-4.765-7.951-9.643-16.135-14.569-24.291c-1.659-2.746-1.641-4.396,2.089-5.242c6.113-1.385,9.836-6.727,8.659-11.742
		C1017.195,383.395,1013.337,381.232,1005.651,382.49z"/>
	<path fill-rule="evenodd" clip-rule="evenodd" fill="#F9F9F9" d="M821.191,353.982c-18.326,1.072-26.818-10.635-27.05-27.273
		c-0.263-18.83,10.435-29.652,28.8-29.588c17.26,0.062,26.602,10.176,26.772,28.465
		C849.875,342.938,839.232,355.324,821.191,353.982z M838.564,326.625c-2.118-6.123-3.363-12.553-6.432-17.941
		c-4.785-8.4-17.528-7.596-21.943,1.006c-5.537,10.791-4.98,21.648,0.711,32.234c4.543,8.449,17.146,9.174,21.992,0.865
		C835.598,338.148,836.576,332.502,838.564,326.625z"/>
	<path fill-rule="evenodd" clip-rule="evenodd" fill="#F9F9F9" d="M1015.695,324.914c0.295,10.145-2.059,18.619-10.381,24.76
		c-10.108,7.459-30.893,5.844-38.761-3.828c-7.597-9.338-7.032-20.361-4.224-31.215c2.299-8.883,8.465-14.459,17.428-16.402
		c10.562-2.291,20.92-2.121,29.258,6.033C1014.852,309.969,1016.104,317.482,1015.695,324.914z M1004.174,325.256
		c-0.835-3.25-1.715-7.771-3.174-12.098c-2.271-6.736-6.846-10.264-12.445-10.188c-6.293,0.086-11.962,4.367-14.027,10.646
		c-2.739,8.324-2.114,16.613,0.774,24.711c2.194,6.15,8.62,11.344,13.059,10.504c7.742-1.463,12.165-4.164,14.254-12.396
		C1003.42,333.258,1003.551,329.908,1004.174,325.256z"/>
	<path fill-rule="evenodd" clip-rule="evenodd" fill="#F9F9F9" d="M1042.086,352.973c-8.498,0-15.479,0.057-22.455-0.078
		c-0.812-0.016-1.604-1.102-2.405-1.691c0.682-0.729,1.284-1.98,2.06-2.1c3.375-0.518,4.148-2.664,4.156-5.596
		c0.032-11.811,0.178-23.623,0.107-35.434c-0.017-2.643-0.414-5.406-4.301-5.467c-0.682-0.012-1.336-1.76-2.004-2.705
		c0.843-0.578,1.683-1.654,2.529-1.662c9.491-0.068,18.996-0.254,28.47,0.176c6.358,0.287,10.216,3.533,11.253,8.105
		c1.508,6.648-0.795,12.791-6.057,16.172c-1.078,0.693-2.146,1.4-3.911,2.555c6.084,9.139,12.017,18.047,18.461,27.727
		c-5.157,0-9.298,0.156-13.413-0.098c-1.207-0.074-2.8-1.037-3.439-2.07c-4.615-7.477-8.862-15.186-13.584-22.592
		c-2.408-3.777-1.547-4.701,2.595-5.174c5.593-0.641,8.684-5.689,7.841-11.844c-0.68-4.977-4.24-7.762-9.412-7.59
		c-2.649,0.086-3.93,1.029-3.91,3.875c0.085,11.785,0.009,23.568,0.055,35.354c0.012,2.961,0.721,5.438,4.283,6.23
		C1039.962,349.279,1040.586,350.994,1042.086,352.973z"/>
	<path fill-rule="evenodd" clip-rule="evenodd" fill="#F9F9F9" d="M902.695,353.539c-6.881,1.863-9.661-2.705-12.697-6.57
		c-8.506-10.832-16.908-21.746-26.223-33.752c0,11.512-0.143,21.719,0.172,31.912c0.041,1.34,2.436,2.592,3.707,3.918
		c0.885,0.922,1.712,1.9,3.339,3.719c-7.146,0-12.764,0-20.271,0c1.727-1.816,2.511-3.402,3.527-3.57
		c3.251-0.533,3.83-2.41,3.807-5.262c-0.096-11.984-0.078-23.971-0.037-35.957c0.01-2.943-0.274-5.24-4.155-5.34
		c-0.845-0.021-1.634-2.205-3.187-4.471c6.451,0,11.248-0.123,16.028,0.102c1.014,0.047,2.182,1.205,2.915,2.137
		c8.753,11.119,17.438,22.291,27.312,33.359c0-2.33,0-4.662,0-6.992c0-5.494,0.041-10.986-0.013-16.48
		c-0.034-3.469,1.249-7.768-4.782-7.742c-0.512,0.002-1.033-2.266-1.935-4.383c6.169,0,11.426-0.061,16.677,0.078
		c0.648,0.018,1.836,1.168,1.777,1.678c-0.109,0.943-0.826,2.451-1.518,2.592c-4.425,0.893-4.496,4.021-4.479,7.535
		C902.74,324.506,902.695,338.965,902.695,353.539z"/>
	<path fill-rule="evenodd" clip-rule="evenodd" fill="#F9F9F9" d="M857.544,380.115c-5.81-0.184-5.997,3.08-5.956,7.029
		c0.137,13.148,0.053,26.301,0.054,39.451c0,1.633,0,3.264,0,5.02c-4.717,0.76-7.92,0.225-10.941-3.926
		c-8.325-11.436-17.324-22.383-26.076-33.506c-0.277-0.354-0.77-0.535-1.901-1.291c0,10.732-0.102,20.926,0.151,31.113
		c0.026,1.045,2.171,2.033,3.323,3.061c0.984,0.879,1.955,1.773,2.931,2.66c-0.308,0.357-0.614,0.715-0.921,1.072
		c-5.623,0-11.246,0-16.868,0c-0.314-0.32-0.628-0.641-0.942-0.961c0.925-0.922,1.939-1.771,2.755-2.783
		c1.29-1.598,3.458-3.277,3.501-4.969c0.303-11.977,0.102-23.967,0.195-35.951c0.029-3.904-1.332-6.082-6.174-5.096
		c-0.107-0.551-0.215-1.102-0.322-1.652c1.229-1.033,2.373-2.805,3.705-2.959c3.613-0.418,7.337-0.42,10.953-0.018
		c1.434,0.158,3.021,1.57,3.992,2.832c7.801,10.15,15.449,20.42,23.223,30.594c0.643,0.842,1.855,1.25,3.522,2.32
		c0-9.719,0.222-18.92-0.22-28.088c-0.073-1.516-3.05-2.889-5.025-4.062c-1.413-2.896,0.342-4.256,3.11-3.609
		C848.243,377.477,854.422,373.262,857.544,380.115z"/>
	<path fill-rule="evenodd" clip-rule="evenodd" fill="#F9F9F9" d="M792.402,344.213c-1.436,2.209-2.357,5.438-4.391,6.463
		c-13.209,6.65-35.023,5.539-45.127-7.344c-8.196-10.453-8.941-22.387-5.575-34.373c3.229-11.5,12.195-17.479,23.675-19.887
		c9.673-2.029,19.083-1.174,28.336,2.162c2.51,0.904,3.822,1.916,2.718,5.094c-1.011,2.904-0.771,6.221-1.446,9.275
		c-0.256,1.15-1.533,2.076-2.345,3.105c-0.815-1.008-2.192-1.932-2.354-3.035c-0.902-6.131-4.301-9.67-10.76-10.727
		c-11.599-1.896-20.666,3.695-24,14.922c-2.726,9.176-1.806,18.086,3.042,26.299c6.263,10.607,18.962,13.779,31.923,8.41
		c1.59-0.66,3.262-1.121,4.896-1.672C791.463,343.342,791.933,343.777,792.402,344.213z"/>
	<path fill-rule="evenodd" clip-rule="evenodd" fill="#F9F9F9" d="M945.908,431.111c6.121-14.816,2.002-29.57,3.072-43.961
		c0.422-5.689,0.027-5.719-6.867-6.969c1.518-1.627,2.521-3.654,3.562-3.674c12.123-0.221,24.252-0.141,37.308-0.141
		c-0.457,4.197-0.75,7.914-1.359,11.578c-0.119,0.719-1.47,1.232-2.252,1.84c-0.516-0.707-1.561-1.504-1.459-2.107
		c0.73-4.361-2.266-4.9-5.305-5.447c-0.813-0.146-1.648-0.201-2.475-0.24c-9.437-0.445-9.437-0.443-9.437,8.812
		c0,2.824,0,5.648,0,8.412c9.062,2.551,12.659,1.328,13.474-4.666c2.98-1.043,4.531-0.482,4.271,3.221
		c-0.238,3.404-0.215,6.846-0.033,10.258c0.152,2.867-0.314,4.707-4.104,3.639c-0.592-3.172-1.038-6.586-5.83-6.75
		c-7.68-0.264-7.777-0.367-7.778,7.365c-0.001,4.127,0,8.254,0,12.801c5.075,0,9.734,0.398,14.253-0.229
		c1.475-0.203,2.54-3.109,3.866-4.719c1.058-1.283,2.226-2.475,3.346-3.707c0.546,0.32,1.093,0.643,1.64,0.963
		c-0.338,4.381-0.674,8.764-1.055,13.721C970.25,431.111,958.27,431.111,945.908,431.111z"/>
	<path fill-rule="evenodd" clip-rule="evenodd" fill="#F9F9F9" d="M1072.072,391.41c-0.78-1.188-2.021-2.291-2.254-3.578
		c-0.777-4.289-3.676-6.123-7.461-6.82c-4.234-0.777-7.946,0.309-10.416,4.148c-2.393,3.721-1.473,7.713,2.604,9.492
		c3.612,1.576,7.513,2.49,11.279,3.719c9.491,3.094,12.525,7.561,11.835,17.393c-0.567,8.094-6.787,15.254-15.072,15.9
		c-6.039,0.473-12.223-0.307-18.287-1.004c-3.254-0.375-5.248-1.928-3.866-6.207c0.966-2.988,0.187-6.543,0.187-9.766
		c4.713-1.492,4.776,1.15,5.046,4.023c0.413,4.41,6.371,8.594,11.452,8.293c5.194-0.309,9.547-4.137,9.944-8.688
		c0.275-3.146-0.665-5.576-3.796-6.783c-3.08-1.188-6.109-2.549-9.266-3.484c-11.264-3.332-14.662-8.301-13.164-19.613
		c1.021-7.715,7.656-12.781,17.246-13.164c0.166-0.006,0.336-0.023,0.499,0c4.729,0.664,10.099,0.15,14.03,2.285
		c5.404,2.934-1.091,8.457,1.501,12.656C1073.434,390.611,1072.753,391.012,1072.072,391.41z"/>
	<path fill-rule="evenodd" clip-rule="evenodd" fill="#F9F9F9" d="M1152.59,352.631c0.426-1.256,0.628-3.17,1.182-3.279
		c4.361-0.85,4.935-4.602,6.129-7.725c5.137-13.438,10.04-26.965,15.314-40.346c0.568-1.441,2.938-2.848,4.576-2.979
		c1.305-0.105,3.489,1.461,4.048,2.799c5.595,13.416,10.807,26.99,16.447,40.387c1.194,2.836,3.741,5.088,5.572,7.676
		c0.641,0.906,1.002,2.012,1.748,3.562c-8.331,0-15.756,0-24.908,0c1.592-1.729,2.337-3.283,3.387-3.527
		c2.389-0.557,2.838-1.342,2.181-3.777c-2.278-8.436-2.158-8.467-10.97-8.465c-0.998,0-1.997,0-2.995,0
		c-6.156-0.002-9.696,3.32-9.44,9.291c0.041,0.965,1.703,1.951,2.749,2.756c1.073,0.824,2.31,1.438,3.475,2.143
		c-0.225,0.494-0.45,0.99-0.675,1.484C1164.687,352.631,1158.965,352.631,1152.59,352.631z M1176.188,315.018
		c-2.107,5.9-3.839,10.748-5.653,15.828c4.34,0,8.052,0,12.202,0c-1.595-4.344-3.031-8.336-4.541-12.303
		C1177.861,317.666,1177.267,316.889,1176.188,315.018z"/>
	<path fill-rule="evenodd" clip-rule="evenodd" fill="#F9F9F9" d="M883.736,376.5c9.43,0,17.375,0,25.353,0
		c2.022,4.66-1.448,4.424-5.316,4.682c4.196,11.25,8.178,21.922,12.718,34.094c4.388-11.941,8.318-22.641,11.919-32.441
		c-3.074-2.133-4.985-3.461-6.897-4.787c0.264-0.578,0.525-1.156,0.788-1.736c5.253,0,10.511-0.109,15.755,0.107
		c0.89,0.037,1.94,1.371,2.451,2.35c0.162,0.309-1.146,1.457-1.861,2.139c-1.219,1.162-3.106,2.018-3.662,3.418
		c-5.637,14.236-11.145,28.525-16.475,42.879c-1.043,2.809-2.614,4.961-5.416,4.391c-1.822-0.369-4.028-2.338-4.743-4.121
		c-5.337-13.295-10.181-26.787-15.595-40.051c-1.043-2.557-3.955-4.326-5.91-6.545C885.889,379.793,885.152,378.516,883.736,376.5z"
		/>
	<path fill-rule="evenodd" clip-rule="evenodd" fill="#F9F9F9" d="M939.545,353.883c-6.885,0.73-13.16-0.844-18.848-4.777
		c-10.254-7.09-14.027-24.5-8.107-37.166c4.142-8.861,11.75-13.24,20.785-14.105c6.926-0.662,14.093,0.635,21.09,1.539
		c3.525,0.455,4.764,3.1,3.928,6.707c-0.518,2.236-0.445,4.613-0.986,6.842c-0.195,0.805-1.405,1.887-2.156,1.891
		c-0.801,0.002-2.355-1.207-2.295-1.74c0.698-6.168-3.5-7.939-8.115-9.354c-6.013-1.84-11.646-0.756-16.085,3.555
		c-7.637,7.414-7.857,16.668-4.987,26.131c2.664,8.785,8.909,13.977,18.078,14.459c3.783,0.199,7.654-1.666,11.52-2.418
		c1.552-0.303,3.194-0.135,4.795-0.18c-0.764,1.834-1.096,4.822-2.369,5.301c-5.162,1.936-10.613,3.098-15.958,4.547
		C939.736,354.703,939.641,354.293,939.545,353.883z"/>
	<path fill-rule="evenodd" clip-rule="evenodd" fill="#F9F9F9" d="M1121.058,429.574c1.132-1.098,2.279-2.178,3.391-3.295
		c1.126-1.133,3.156-2.283,3.177-3.455c0.228-13.125,0.144-26.254,0.144-39.709c-4.145,0-7.881,0-10.893,0
		c-1.492,2.871-2.999,7.451-3.966,7.34c-4.118-0.473-1.629-4.359-2.14-6.742c-1.586-7.4-1.438-7.43,6.023-7.43
		c13.465,0.002,26.93,0,40.424,0c-0.225,4.412-0.308,8.352-0.719,12.254c-0.087,0.82-1.272,1.865-2.158,2.139
		c-0.556,0.17-1.91-0.742-2.185-1.449c-0.746-1.924-0.723-5.48-1.692-5.732c-3.115-0.807-6.541-0.418-9.847-0.473
		c-0.132-0.002-0.267,0.162-0.706,0.447c0,13.885,0,27.971,0,42.039c5.312,1.66,5.312,1.66,5.402,5.236c-7.781,0-15.557,0-23.333,0
		C1121.673,430.354,1121.365,429.963,1121.058,429.574z"/>
	<path fill-rule="evenodd" clip-rule="evenodd" fill="#F9F9F9" d="M1188.723,400.498c3.886-7.393,7.162-13.617,10.431-19.846
		c2.462-4.695,2.527-4.73,8.984-3.691c-0.712,2.346-1.028,4.799-2.151,6.799c-2.253,4.012-4.641,8.021-7.519,11.592
		c-6.384,7.926-7.791,16.996-6.629,26.645c0.195,1.629,2.129,3.084,3.358,4.537c0.943,1.115,2.042,2.102,3.071,3.145
		c-0.273,0.354-0.546,0.709-0.819,1.064c-7.763,0-15.526,0-23.29,0c-0.298-0.465-0.595-0.932-0.892-1.398
		c1.835-1.361,3.671-2.723,6.313-4.684c1.982-10.018-0.1-20.311-7.064-29.533c-3.488-4.621-5.015-10.977-11.525-13.033
		c-0.239-0.074-0.048-3.768,0.591-4.002c3.383-1.236,7.344-3.238,10.389-2.395c3.084,0.854,5.934,4.344,7.815,7.348
		C1182.999,388.176,1185.376,393.83,1188.723,400.498z"/>
	<path fill-rule="evenodd" clip-rule="evenodd" fill="#F9F9F9" d="M1151.108,299.48c-1.058,1.156-2.02,3.172-3.19,3.303
		c-3.062,0.338-3.4,2.066-3.398,4.436c0.014,13.311,0.007,26.619,0.007,39.357c1.232,3.168,7.301,0.756,5.791,5.994
		c-13.549,1.645-22.669,0.746-24.161-2.344c6.636-3.701,6.637-3.701,6.637-11.912c0-9.822-0.037-19.643,0.021-29.465
		c0.019-3.07-0.218-5.648-4.193-6.045c-0.785-0.078-1.77-1.641-1.967-2.654c-0.098-0.502,1.37-1.879,2.15-1.895
		c7.123-0.15,14.251-0.088,21.377-0.088C1150.49,298.605,1150.8,299.043,1151.108,299.48z"/>
	<path fill-rule="evenodd" clip-rule="evenodd" fill="#F9F9F9" d="M883.42,430.785c-7.624,0-15.248,0-22.862,0
		c-0.513-3.664-0.513-3.664,5.284-5.061c0-13.828,0.064-27.779-0.132-41.729c-0.015-1.02-1.897-2.027-2.94-3.012
		c-1.143-1.08-2.318-2.127-3.48-3.189c0.334-0.422,0.666-0.846,0.999-1.27c7.606,0,15.212,0,22.819,0
		c0.357,0.369,0.715,0.738,1.072,1.107c-1.076,1.125-2.215,2.199-3.213,3.391c-1.154,1.375-3.098,2.836-3.127,4.291
		c-0.249,12.48-0.229,24.969-0.006,37.449c0.021,1.221,1.885,2.451,2.973,3.6s2.275,2.203,3.42,3.299
		C883.957,430.035,883.688,430.41,883.42,430.785z"/>
	<path fill-rule="evenodd" clip-rule="evenodd" fill="#F9F9F9" d="M1083.455,377.26c7.609,0,15.219,0,22.827,0
		c0.278,0.379,0.557,0.758,0.834,1.137c-1.023,0.857-1.951,2.262-3.09,2.461c-2.769,0.484-3.389,1.943-3.37,4.486
		c0.089,12.471,0.093,24.941-0.002,37.412c-0.02,2.604,0.764,3.936,3.461,4.416c1.124,0.199,2.039,1.57,3.05,2.408
		c-0.276,0.396-0.553,0.791-0.829,1.188c-7.602,0-15.203,0-24.21,0c1.31-1.678,2.107-3.535,2.854-3.516
		c3.937,0.107,4.312-2.408,4.323-5.236c0.045-11.971,0.054-23.943,0.02-35.916c-0.007-2.756-0.171-5.406-4.173-5.328
		c-0.841,0.018-1.713-1.574-2.57-2.424C1082.871,377.984,1083.163,377.621,1083.455,377.26z"/>
</g>
<g>
	<path fill="#F9F9F9" d="M745.996,450.77h5.382l3.081,20.592h0.078l3.275-20.592h5.383l3.275,20.592h0.078l3.082-20.592h5.382
		l-5.07,27.846h-6.279l-3.12-20.203h-0.078l-3.119,20.203h-6.279L745.996,450.77z"/>
	<path fill="#F9F9F9" d="M811.789,478.615V450.77h5.615v27.846H811.789z"/>
	<path fill="#F9F9F9" d="M860.344,469.918v0.82c0,2.611,0.74,4.289,3.705,4.289c1.716,0,3.354-1.092,3.354-3.432
		c0-2.535-1.287-3.471-4.992-4.758c-4.992-1.717-7.293-3.783-7.293-8.426c0-5.42,3.314-8.189,8.619-8.189
		c4.992,0,8.619,2.145,8.619,7.488v0.779h-5.382c0-2.613-0.897-4.133-3.042-4.133c-2.535,0-3.198,1.598-3.198,3.236
		c0,1.717,0.507,2.77,2.886,3.783l4.33,1.873c4.211,1.832,5.304,3.977,5.304,7.371c0,5.889-3.589,8.541-9.673,8.541
		c-6.357,0-8.854-2.965-8.854-8.113v-1.131H860.344z"/>
	<path fill="#F9F9F9" d="M922.198,460.168c0-4.057-0.819-5.811-3.354-5.811c-2.847,0-3.51,2.846-3.51,10.725
		c0,8.424,1.17,9.945,3.588,9.945c2.028,0,3.51-1.053,3.51-7.059h5.616c0,6.006-1.481,11.193-8.853,11.193
		c-8.425,0-9.478-6.006-9.478-14.471c0-8.463,1.053-14.469,9.478-14.469c8.034,0,8.619,5.889,8.619,9.945H922.198z"/>
	<path fill="#F9F9F9" d="M974.379,450.223c8.424,0,9.477,6.006,9.477,14.469c0,8.465-1.053,14.471-9.477,14.471
		c-8.425,0-9.478-6.006-9.478-14.471C964.901,456.229,965.954,450.223,974.379,450.223z M974.379,475.027
		c3.314,0,3.86-2.848,3.86-10.336c0-7.449-0.546-10.334-3.86-10.334c-3.315,0-3.861,2.885-3.861,10.334
		C970.518,472.18,971.063,475.027,974.379,475.027z"/>
	<path fill="#F9F9F9" d="M1027.887,450.77l6.787,19.07h0.078v-19.07h5.147v27.846h-6.396l-6.865-19.5h-0.077v19.5h-5.148V450.77
		H1027.887z"/>
	<path fill="#F9F9F9" d="M1082.564,469.918v0.82c0,2.611,0.74,4.289,3.705,4.289c1.716,0,3.354-1.092,3.354-3.432
		c0-2.535-1.287-3.471-4.992-4.758c-4.992-1.717-7.293-3.783-7.293-8.426c0-5.42,3.315-8.189,8.619-8.189
		c4.992,0,8.619,2.145,8.619,7.488v0.779h-5.382c0-2.613-0.897-4.133-3.042-4.133c-2.535,0-3.198,1.598-3.198,3.236
		c0,1.717,0.507,2.77,2.886,3.783l4.329,1.873c4.213,1.832,5.305,3.977,5.305,7.371c0,5.889-3.588,8.541-9.673,8.541
		c-6.356,0-8.853-2.965-8.853-8.113v-1.131H1082.564z"/>
	<path fill="#F9F9F9" d="M1132.796,478.615V450.77h5.616v27.846H1132.796z"/>
	<path fill="#F9F9F9" d="M1183.301,450.77l6.787,19.07h0.078v-19.07h5.147v27.846h-6.396l-6.865-19.5h-0.077v19.5h-5.148V450.77
		H1183.301z"/>
</g>
<g>
	<path fill-rule="evenodd" clip-rule="evenodd" fill="#F9F9F9" d="M957.611,168.282c-7.389-19.306-17.332-37.534-25.545-56.853
		c4.32-1.273,6.737-0.839,8.342,3.876c4.368,12.837,9.355,25.464,14.131,38.161c0.391,1.035,1.041,1.974,2.762,2.74
		c-0.371-2.767-0.397-5.635-1.175-8.282c-3.074-10.477-6.399-20.88-9.589-31.322c-0.515-1.684-0.814-3.432-1.294-5.501
		c2.154,0,3.746,0,5.667,0c1.656,6.295,3.309,12.581,4.961,18.867c0.471-0.022,0.941-0.045,1.412-0.067c0-6.856,0-13.713,0-20.998
		c-22.801,0-46.629,0-70.457,0c-0.256-0.535-0.512-1.071-0.769-1.606c1.946-1.146,3.884-3.271,5.842-3.291
		c22.816-0.232,45.636-0.148,69.631-0.148c0,44.007,0,87.705,0,131.403c0.629,0.026,1.257,0.054,1.886,0.08
		c0.119-1.817,0.341-3.635,0.342-5.452c0.02-39.665,0.117-79.33-0.102-118.994c-0.031-5.526,1.533-9.637,6.644-13.479
		c0,48.011,0,95.418,0,142.825c0.583,0.05,1.166,0.099,1.749,0.148c0.241-1.932,0.692-3.864,0.694-5.797
		c0.039-44.331,0.243-88.664-0.164-132.992c-0.074-8.061,4.44-12.194,9.705-17.942c0,8.105-0.084,15.029,0.051,21.949
		c0.04,2.04-1.199,4.689,2.321,5.76c0.595,0.181,0.409,3.64,0.226,5.55c-0.793,8.214-1.743,16.413-2.567,24.624
		c-0.109,1.088,0.175,2.216,1.099,3.461c2.113-8.566,4.229-17.133,6.339-25.701c0.354-1.441,0.678-2.891,1.037-4.332
		c1.04-4.173,1.044-4.172,6.526-3.408c-5.252,17.296-10.479,34.507-15.706,51.717c0.725,0.247,1.45,0.493,2.175,0.74
		c2.004-5.205,4.062-10.391,6.003-15.618c4.087-11.008,8.335-21.965,12.056-33.096c1.479-4.427,3.816-5.145,8.447-3.739
		c-9.007,20.24-17.908,40.241-26.809,60.242c0.348,0.2,0.695,0.4,1.043,0.602c0.835-1.397,1.74-2.758,2.495-4.197
		c9.252-17.645,18.483-35.301,27.716-52.955c1.998-3.82,6.908-6,10.68-4.166c1.078,0.524,1.725,2.936,1.74,4.489
		c0.127,13.498,0.061,26.998,0.059,40.497c-0.002,14.833,0.133,29.668-0.138,44.496c-0.042,2.253-1.354,5.303-3.103,6.576
		c-16.398,11.935-33.061,23.505-49.537,35.332c-2.905,2.086-5.019,2.036-7.945-0.033c-16.571-11.711-33.252-23.27-49.987-34.746
		c-2.633-1.806-3.655-3.796-3.644-6.989c0.103-28.33,0.029-56.66,0.092-84.99c0.004-1.655,0.733-3.309,1.224-5.38
		c1.211,0.92,1.701,1.136,1.686,1.302c-0.957,9.611,5.574,15.907,10.315,22.892c8.665,12.765,17.601,25.345,26.47,37.971
		c0.981,1.397,2.258,2.587,3.398,3.873c0.392-0.288,0.783-0.576,1.176-0.864c-13.028-21.195-26.057-42.391-39.146-63.686
		c6.628-1.937,7.203-1.688,10.012,3.741c9.212,17.8,18.438,35.594,27.656,53.39C956.365,168.733,956.988,168.507,957.611,168.282z
		 M957.77,231.375c0-7.185-0.144-13.188,0.053-19.18c0.12-3.705-1.354-5.237-4.978-4.839c-7.308,0.804-14.638,1.52-21.45,5.733
		C940.06,219.097,948.496,224.946,957.77,231.375z M1022.382,114.861c-12.111,19.95-24.222,39.9-36.332,59.85
		c0.514,0.323,1.027,0.646,1.541,0.97c11.08-15.909,21.997-31.935,33.345-47.649
		C1023.994,123.794,1024.065,119.724,1022.382,114.861z M956.055,178.75c-0.16,0.201-0.32,0.402-0.479,0.604
		c-12.744-15.887-25.487-31.773-38.644-48.173c-1.213,7.426-1.158,7.375,2.709,11.569c6.195,6.716,12.062,13.753,18.531,20.191
		C943.801,168.544,950.068,173.505,956.055,178.75z M992.31,172.75c0.305,0.285,0.609,0.57,0.914,0.855
		c1.237-1.183,2.52-2.322,3.706-3.554c7.91-8.214,15.671-16.576,23.764-24.604c2.971-2.947,3.756-5.909,2.345-10.901
		C1012.44,147.721,1002.375,160.236,992.31,172.75z M990.034,181.248c1.344,0.271,1.798,0.502,1.949,0.374
		c10.145-8.545,20.342-17.028,30.284-25.803c1.243-1.098,1.12-3.742,1.631-5.67c-0.427-0.124-0.853-0.249-1.278-0.373
		C1011.909,160.121,1001.197,170.465,990.034,181.248z M953.547,182.231c-12.08-11.373-24.16-22.746-36.855-34.697
		C916.682,152.452,945.045,179.41,953.547,182.231z M917.628,159.973c-0.667,0.438-1.335,0.874-2.002,1.312
		c1.22,1.711,2.089,3.934,3.718,5.044c7.82,5.333,15.83,10.39,23.815,15.477c1.29,0.822,2.796,1.305,4.202,1.944
		c0.223-0.369,0.446-0.738,0.67-1.107C937.896,175.085,927.762,167.53,917.628,159.973z M983.764,217.01c0,4.619,0,8.916,0,14.062
		c5.339-3.965,9.944-7.384,15.065-11.188C993.243,218.819,988.6,217.933,983.764,217.01z M991.262,185.071
		c0.341,0.467,0.683,0.934,1.023,1.4c10.075-6.643,20.187-13.229,30.16-20.02c0.892-0.606,0.889-2.527,1.301-3.837
		c-0.388-0.229-0.774-0.456-1.162-0.685C1012.144,169.644,1001.702,177.357,991.262,185.071z M1024.056,171.561
		c-0.365-0.393-0.732-0.785-1.098-1.178c-8.85,5.357-17.697,10.716-26.547,16.073c0.298,0.525,0.596,1.05,0.893,1.575
		c8.469-4.38,16.967-8.704,25.355-13.23C1023.471,174.364,1023.606,172.671,1024.056,171.561z M916.104,168.478
		c0.359,2.737,0.129,4.502,0.704,4.823c7.103,3.967,14.321,7.724,21.511,11.534c0.331-0.554,0.662-1.107,0.992-1.66
		C931.985,178.536,924.66,173.896,916.104,168.478z M1023.96,180.861c-0.334-0.727-0.669-1.453-1.004-2.18
		c-8.34,3.858-16.681,7.717-25.021,11.575c0.195,0.422,0.389,0.844,0.584,1.267C1006.889,187.73,1016.175,185.927,1023.96,180.861z
		 M1022.855,194.445c-0.107-0.664-0.215-1.329-0.322-1.993c-6.469,1.04-12.937,2.08-19.405,3.12
		c0.104,0.638,0.206,1.276,0.309,1.914C1009.909,196.472,1016.383,195.458,1022.855,194.445z M1023.822,187.631
		c-0.218-0.681-0.435-1.362-0.652-2.044c-6.236,2.042-12.473,4.083-18.71,6.124c0.145,0.469,0.289,0.938,0.433,1.406
		C1011.202,191.289,1017.513,189.46,1023.822,187.631z M916.613,184.333c0,2.809,0,4.821,0,7.262
		c2.682-1.238,4.904-2.263,7.877-3.636C921.496,186.582,919.324,185.582,916.613,184.333z M931.193,185.953
		c0.129-0.498,0.258-0.996,0.388-1.495c-4.815-1.802-9.63-3.604-14.444-5.407c-0.152,0.452-0.307,0.903-0.459,1.355
		C921.571,182.098,925.779,185.729,931.193,185.953z"/>
	<path fill-rule="evenodd" clip-rule="evenodd" fill="#F9F9F9" d="M902.309,111.079c2.102,0,4.051,0,6.485,0
		c0.135,2.302,0.363,4.408,0.365,6.515c0.026,28.481,0.067,56.963-0.038,85.444c-0.014,3.323,0.941,5.409,3.766,7.377
		c18.371,12.803,36.561,25.866,54.932,38.668c1.19,0.829,3.929,0.929,5.063,0.124c18.544-13.146,36.998-26.421,55.283-39.924
		c1.575-1.163,2.549-4.132,2.562-6.269c0.167-28.48,0.112-56.962,0.114-85.443c0-1.972,0-3.944,0-6.312c2.519,0,4.58,0,7.422,0
		c0,1.689-0.001,3.454,0,5.218c0.006,30.146-0.057,60.294,0.105,90.44c0.02,3.797-1.26,5.968-4.323,8.129
		c-20.05,14.142-40.021,28.402-59.803,42.914c-3.073,2.256-4.985,2.076-7.764,0.09c-20.643-14.758-41.377-29.388-61.974-44.209
		c-1.366-0.982-2.605-3.203-2.612-4.853c-0.127-32.145-0.063-64.289-0.025-96.434C901.867,112.243,902.047,111.931,902.309,111.079z
		"/>
	<path fill-rule="evenodd" clip-rule="evenodd" fill="#F9F9F9" d="M1063.168,80.828c-5.054,7.233-9.563,12.21-19.147,11.675
		c-17.764-0.993-35.623-0.229-53.443-0.335c-2.15-0.013-5.498,1.387-5.746-2.73c-0.226-3.759,0.095-7.479,4.355-9.05
		c1.357-0.5,2.945-0.518,4.428-0.515c21.483,0.05,42.967,0.127,64.449,0.247C1059.585,80.128,1061.105,80.531,1063.168,80.828z"/>
	<path fill-rule="evenodd" clip-rule="evenodd" fill="#F9F9F9" d="M900.45,91.816c4.959-7.118,8.921-12.602,18.712-12.139
		c20.407,0.967,40.893,0.293,61.238,0.293c-3.025,8.18-8.572,12.242-17.128,12.249c-18.971,0.017-37.942,0.016-56.913-0.01
		C904.615,92.208,902.87,91.984,900.45,91.816z"/>
	<path fill-rule="evenodd" clip-rule="evenodd" fill="#F9F9F9" d="M969.238,94.453c-2.62,4.125-5.103,7.076-10.544,7.009
		c-20.135-0.25-40.274-0.06-60.413-0.059c-1.607,0-3.216-0.187-5.32-0.317c2.104-4.849,5.208-6.774,10.133-6.734
		c19.637,0.163,39.275,0.088,58.914,0.101C964.26,94.454,966.512,94.453,969.238,94.453z"/>
	<path fill-rule="evenodd" clip-rule="evenodd" fill="#F9F9F9" d="M1049.382,94.937c-1.99,4.787-4.819,6.684-9.979,6.572
		c-16.598-0.358-33.208-0.156-49.813-0.059c-2.803,0.017-4.401-0.589-4.343-3.799c0.052-2.792,1.209-3.784,3.938-3.754
		c19.422,0.22,38.846,0.353,58.269,0.533C1047.927,94.435,1048.399,94.671,1049.382,94.937z"/>
	<path fill-rule="evenodd" clip-rule="evenodd" fill="#F9F9F9" d="M982.515,28.63c0.273,2.052,0.576,3.28,0.58,4.51
		c0.035,12.132,0.152,24.266-0.098,36.393c-0.047,2.252-1.094,5.014-2.656,6.547c-1.386,1.36-4.127,1.341-6.27,1.931
		c-0.432-1.649-1.214-3.293-1.238-4.948c-0.127-8.474,0.641-17.025-0.254-25.406C971.653,38.981,976.757,34.388,982.515,28.63z"/>
	<path fill-rule="evenodd" clip-rule="evenodd" fill="#F9F9F9" d="M1041.591,105.513c-1.887,0.944-3.762,2.683-5.661,2.709
		c-15.777,0.221-31.56,0.167-47.339,0.039c-1.084-0.009-2.158-1.272-3.237-1.952c0.946-0.812,1.888-2.324,2.841-2.331
		c17.586-0.143,35.173-0.104,52.76-0.104C1041.166,104.42,1041.378,104.966,1041.591,105.513z"/>
	<path fill-rule="evenodd" clip-rule="evenodd" fill="#F9F9F9" d="M970.479,44.392c0,10.391,0.084,20.783-0.147,31.169
		c-0.021,0.904-2.11,2.437-3.252,2.448c-1.086,0.011-3.112-1.56-3.141-2.483c-0.244-8.139-0.525-16.317,0.096-24.416
		c0.196-2.552,3.092-4.896,4.751-7.334C969.351,43.982,969.915,44.187,970.479,44.392z"/>
	<path fill-rule="evenodd" clip-rule="evenodd" fill="#F9F9F9" d="M961.326,54.296c0,6.766,0.075,13.533-0.084,20.296
		c-0.023,0.958-1.187,1.89-1.822,2.833c-0.546-1.017-1.531-2.02-1.564-3.053c-0.164-5.129-0.236-10.272,0.012-15.394
		c0.083-1.732,1.199-3.415,1.844-5.121C960.25,54.004,960.788,54.15,961.326,54.296z"/>
</g>
<rect x="-341.428" fill="#B0C19F" width="57.143" height="57.143"/>
<rect x="-284.285" fill="#A0B091" width="57.143" height="57.143"/>
<rect x="-227.143" fill="#909F84" width="57.143" height="57.143"/>
<rect x="-341.428" y="57.143" fill="#D5E7BF" width="57.143" height="57.143"/>
<rect x="-341.428" y="376.082" fill="#C1D2AF" width="57.143" height="57.143"/>
<rect x="-284.285" y="57.143" fill="#C2D3AE" width="57.143" height="57.143"/>
<rect x="-227.143" y="57.142" fill="#808E76" width="57.143" height="57.143"/>
<rect x="-170" y="57.142" fill="#707D68" width="57.143" height="57.143"/>
<rect x="-341.428" y="138.596" fill="#F9F9F9" width="57.143" height="57.142"/>
<rect x="-341.428" y="296.215" fill="#E1E2E3" width="57.143" height="57.143"/>
<rect x="-284.285" y="138.596" fill="#DCDEDC" width="57.143" height="57.142"/>
<rect x="-227.143" y="138.596" fill="#DFEBEE" width="57.143" height="57.142"/>
<rect x="-227.143" y="195.738" fill="#A6B0B4" width="57.143" height="57.143"/>
<rect x="-170" y="195.738" fill="#939DA1" width="57.143" height="57.143"/>
<rect x="-227.143" y="253.27" fill="#173139" width="57.143" height="57.143"/>
<rect x="-341.428" y="195.738" fill="#496F7C" width="57.143" height="57.143"/>
<rect x="-284.285" y="195.738" fill="#2A4751" width="57.143" height="57.143"/>
<g>
	<path fill-rule="evenodd" clip-rule="evenodd" fill="#F9F9F9" d="M139.455,238.27c12.703-31.996,25.952-63.789,37.857-96.075
		c5.082-13.784,16.095-20.734,26.656-28.565c1.859-1.381,6.504-1.065,8.6,0.345c5.225,3.505,9.617,8.229,14.575,12.172
		c1.552,1.234,3.851,1.529,5.808,2.255c0.18-2.289,1.051-4.795,0.403-6.816c-1.608-5.03-3.74-9.917-5.973-14.715
		c-2.92-6.276-0.804-10.901,4.521-14.304c4.453-2.846,9.321-5.042,13.777-7.885c1.475-0.938,2.243-2.989,3.333-4.531
		c-1.711-0.811-3.44-2.354-5.13-2.315c-11.7,0.284-23.394,0.948-35.09,1.35c-1.777,0.063-3.578-0.576-5.261-1.419
		c14.663-2.893,18.214-12.006,9.926-26.534c5.628-7.153,12.621-11.606,22.212-11.391c7.193,0.163,14.404,0.248,21.592-0.032
		c6.264-0.245,7.564,2.519,5.514,7.815c-2.197,5.672-4.688,11.238-6.623,16.993c-0.629,1.872,0.078,4.197,0.174,6.316
		c1.961-0.609,4.533-0.622,5.793-1.914c18.428-18.889,19.721-18.885,39.274,0.058c1.311,1.27,3.871,1.257,5.846,1.839
		c0.104-2.119,0.824-4.446,0.191-6.321c-1.936-5.758-4.326-11.374-6.666-16.991c-2.281-5.475-0.875-7.825,5.352-7.799
		c35.454,0.144,70.913-0.025,106.37,0.15c10.186,0.049,14.443,6.52,10.74,16.078c-13.127,33.85-26.435,67.631-39.678,101.436
		c-3.383,8.633-7.119,17.143-10.042,25.918c-1.374,4.128-3.4,5.391-7.449,5.209c-14.089-0.638-28.188-1.197-42.287-1.445
		c-2.529-0.046-5.085,1.531-7.628,2.356c1.872,1.863,3.737,3.724,5.625,5.574c0.177,0.17,0.486,0.203,0.724,0.319
		c18.608,9.271,19.577,12.233,11.654,31.253c-1.422,3.418-1.109,7.558-1.596,11.36c3.104-2.062,6.306-4.005,9.287-6.231
		c4.56-3.405,8.966-7.005,14.201-11.126c1.623,22.496-14.936,34.156-43.489,31.064c3.138-1.693,5.229-2.495,6.89-3.824
		c1.447-1.164,2.408-2.93,3.587-4.428c-1.668-0.871-3.327-2.498-5.001-2.512c-24.188-0.15-48.382-0.13-72.57,0.051
		c-1.689,0.014-3.366,1.609-5.049,2.477c1.188,1.496,2.165,3.26,3.621,4.434c1.582,1.268,3.61,1.998,7.468,4.022
		c-4.544,0.267-6.973,0.527-9.405,0.527c-29.057,0.026-58.119,0.233-87.17-0.202c-5.176-0.076-10.31-2.865-15.463-4.402
		C139.455,244.668,139.455,241.465,139.455,238.27z M180.48,236.9c0.842,0.801,1.685,1.602,2.528,2.402
		c2.66-1.888,5.531-3.528,7.94-5.69c16.821-15.092,17.068-15.34,34.346,0.494c0.386,0.358,0.595,1.036,1.028,1.199
		c2.392,0.911,4.833,1.712,7.255,2.552c-0.245-2.318,0.105-4.908-0.823-6.907c-10.586-22.711-10.173-23.915,12.279-35.928
		c1.709-0.911,2.63-3.295,3.92-4.993c-2.171-0.912-4.343-2.573-6.521-2.58c-5.019-0.02-10.052,1.205-15.065,1.134
		c-18.286-0.275-36.562-0.964-54.844-1.218c-1.912-0.033-3.849,1.765-5.769,2.708c1.322,1.68,2.344,3.796,4.03,4.936
		c3.28,2.201,7.087,3.621,10.405,5.781c9.499,6.193,10.146,8.171,6.254,18.757C185.293,225.397,182.814,231.12,180.48,236.9z
		 M399.978,79.377c-2.708-1.002-3.201-1.344-3.696-1.348c-25.242-0.152-50.485-0.321-75.727-0.293c-1.481,0-2.966,1.641-4.447,2.517
		c1.38,1.563,2.454,3.74,4.184,4.597c21.588,10.674,22.66,13.907,12.221,35.894c-0.99,2.083-0.121,5.049-0.115,7.601
		c2.331-1.068,5.243-1.578,6.904-3.294c16.109-16.608,20.595-16.632,36.481-0.14c1.677,1.742,4.521,2.357,6.826,3.497
		c-0.006-2.598,0.829-5.576-0.146-7.729c-10.42-22.977-10.043-24.165,12.24-35.845C396.561,83.86,397.793,81.692,399.978,79.377z
		 M254.351,179.371c0.489,0.678,0.978,1.354,1.468,2.03c2.41-1.08,5.125-1.77,7.162-3.338c4.203-3.23,8.066-6.909,12.033-10.444
		c4.58-4.083,9.142-3.73,13.624,0.064c3.844,3.269,7.43,6.869,11.459,9.877c1.982,1.484,4.718,1.966,7.109,2.903
		c-0.07-2.304,0.388-4.792-0.322-6.888c-1.523-4.505-3.542-8.855-5.544-13.178c-3.128-6.765-1.179-11.847,4.96-15.555
		c5.618-3.399,11.314-6.667,18.936-11.14c-3.523-1.793-5.791-4.034-7.783-3.803c-23.882,2.741-47.716,2.79-71.583-0.116
		c-1.648-0.201-3.537,1.565-5.311,2.422c1.158,1.757,1.943,4.075,3.555,5.163c3.494,2.359,7.602,3.802,11.114,6.136
		c9.31,6.192,9.804,7.836,6,18.363C259.102,167.769,256.652,173.543,254.351,179.371z M366.807,63.384
		c0.049-7.845-3.641-13.383-9.148-13.725c-5.529-0.348-10.315,6-10.279,13.637c0.033,7.377,4.3,13.175,9.766,13.269
		C362.696,76.657,366.754,71.116,366.807,63.384z M366.794,172.691c0.037-7.917-3.731-13.138-9.517-13.191
		c-5.855-0.052-9.854,5.183-9.898,12.97c-0.05,7.917,3.767,13.061,9.678,13.054C363.235,185.524,366.758,180.881,366.794,172.691z
		 M271.729,226.333c0,7.592,4.111,13.341,9.607,13.432c5.31,0.084,10.101-6.1,10.128-13.08c0.026-7.613-4.717-14.045-10.19-13.811
		C275.768,213.116,271.729,218.806,271.729,226.333z M291.456,115.282c-0.08-6.979-4.963-13.135-10.247-12.924
		c-5.564,0.222-9.504,5.883-9.426,13.542c0.078,7.583,4.199,13.315,9.617,13.372C286.851,129.33,291.544,122.795,291.456,115.282z
		 M217.835,173.53c0.163-6.94-4.313-13.197-9.721-13.6c-5.462-0.397-10.045,5.266-10.339,12.781
		c-0.279,7.245,4.574,14.142,9.946,14.114C212.812,186.812,217.67,180.419,217.835,173.53z"/>
	<g>
		<path fill-rule="evenodd" clip-rule="evenodd" fill="#F9F9F9" d="M472.126,388.378c-1.924,2.889-3.966,5.705-5.752,8.676
			c-6.264,10.439-12.501,20.896-18.589,31.44c-0.967,1.674-1.523,3.819-1.553,5.756c-0.149,10.434-0.067,20.869-0.067,31.309
			c0,0.961,0,1.918,0,3.02c-4.679,0-9.064,0-13.719,0c-0.078-1.442-0.217-2.799-0.217-4.15c-0.02-10.039,0.114-20.084-0.105-30.124
			c-0.053-2.4-0.803-5.03-2.001-7.112c-5.442-9.473-11.314-18.7-16.715-28.193c-2.816-4.945-6.664-7.657-12.49-7.859
			c0,4.825,0,9.67,0,14.736c-1.291,0-2.693,0-4.425,0c0-1.167,0.058-2.322-0.01-3.471c-0.274-4.635-3.785-8.056-8.371-8.107
			c-3.795-0.045-7.595-0.01-11.604-0.01c0,24.844,0,49.427,0,74.426c-4.396,0-8.588,0.092-12.772-0.114
			c-0.533-0.03-1.403-1.64-1.413-2.521c-0.101-9.55-0.062-19.1-0.062-28.648c0-14.271,0-28.537,0-43.542
			c-4.804,0.309-9.491,0.218-14.025,1.015c-3.747,0.664-5.127,4.147-5.343,7.541c-0.223,3.516-2.055,3.351-4.41,2.918
			c0-6.021,0-11.89,0-18.165c1.414,0,2.554,0,3.693,0c25.696,0,51.393,0.057,77.091-0.079c2.875-0.018,4.352,0.902,5.697,3.328
			c5.352,9.622,10.901,19.128,16.397,28.673c0.462,0.809,1.043,1.554,1.701,2.523c5.709-9.639,11.57-18.839,16.682-28.441
			c2.486-4.672,5.332-7.044,10.612-6.019c0.572,0.11,1.18,0.015,1.77,0.015C472.126,387.589,472.126,387.983,472.126,388.378z"/>
		<path fill-rule="evenodd" clip-rule="evenodd" fill="#F9F9F9" d="M140.65,386.017c3.274,1.121,6.631,2.062,9.814,3.404
			c6.817,2.862,10.891,8.44,13.093,15.144c3.693,11.248,4.016,22.853,2.641,34.577c-0.861,7.352-2.438,14.362-7.069,20.387
			c-4.034,5.237-9.434,7.839-15.781,9.349c-6.915,1.644-13.723,1.356-20.397-0.278c-9.916-2.424-16.638-8.881-19.417-18.687
			c-4.149-14.629-4.179-29.496,0.019-44.08c2.919-10.158,9.732-16.85,20.586-18.719c1.004-0.174,1.947-0.726,2.918-1.097
			C131.586,386.017,136.115,386.017,140.65,386.017z M153.109,430.667c-0.51-7.63-0.812-13.112-1.25-18.583
			c-0.899-11.067-6.136-17.503-16.363-19.201c-5.525-0.916-10.603,0.818-14.325,5.392c-3.924,4.82-5.356,10.688-5.79,16.569
			c-0.774,10.44-1.01,20.902,0.962,31.342c1.914,10.121,7.987,16.296,17.21,16.797c10.194,0.548,15.334-5.724,17.013-13.493
			C152.041,442.651,152.474,435.588,153.109,430.667z"/>
		<path fill-rule="evenodd" clip-rule="evenodd" fill="#F9F9F9" d="M75.061,386.017c2.675,0.447,5.357,0.836,8.012,1.37
			c1.231,0.246,2.409,0.764,3.654,1.179c0,3.08,0,6.097,0,9.425c-2.904-1.049-5.582-2.08-8.309-2.986
			c-5.217-1.731-10.517-2.789-16.075-1.947c-5.703,0.863-9.56,6.562-8.257,12.313c1.256,5.53,5.241,8.687,9.776,11.317
			c6.241,3.625,12.81,6.749,18.778,10.774c12.574,8.486,12.786,24.147,4.779,33.519c-3.856,4.517-9.151,6.473-14.853,7.839
			c-7.574,1.812-15.018,0.933-22.5-0.115c-2.308-0.323-4.568-0.985-6.852-1.481c-1.794-0.386-2.573-1.327-2.434-3.293
			c0.188-2.616,0.049-5.257,0.049-7.623c5.462,2.029,10.654,4.402,16.099,5.857c5.198,1.39,10.747,1.737,15.762-0.869
			c6.66-3.468,7.958-13.7,2.77-19.669c-3.852-4.428-9.141-6.688-14.046-9.572c-4.996-2.94-10.126-5.814-14.579-9.466
			c-5.938-4.869-7.833-11.653-6.606-19.217c1.245-7.665,5.789-12.542,13.016-15.047c2.337-0.808,4.693-1.544,7.045-2.308
			C65.214,386.017,70.138,386.017,75.061,386.017z"/>
		<path fill-rule="evenodd" clip-rule="evenodd" fill="#F9F9F9" d="M216.87,386.017c3.438,1.174,7.049,1.989,10.271,3.602
			c6.02,3.018,9.737,7.848,10.006,15.29c-4.673,0-9.169,0.059-13.661-0.071c-0.591-0.02-1.553-0.934-1.674-1.562
			c-0.995-5.282-3.827-8.968-9.15-10.117c-7.006-1.508-12.997,0.33-16.989,6.602c-3.034,4.77-4.227,10.156-4.861,15.761
			c-0.914,8.067-0.625,16.076,0.644,24.044c1.024,6.411,2.914,12.527,7.501,17.465c4.463,4.805,10.084,6.093,16.412,5.972
			c6.944-0.134,13.166-2.139,18.877-5.981c0.212-0.139,0.554-0.087,1.247-0.183c0,2.577,0.148,5.072-0.097,7.529
			c-0.067,0.656-1.274,1.502-2.097,1.723c-10.222,2.697-20.373,4.924-31.192,2.975c-14.618-2.633-21.792-13.163-24.292-25.199
			c-1.942-9.333-2.227-18.738-1.005-28.096c1.216-9.285,3.885-18.264,12.243-23.872c3.202-2.152,7.155-3.191,10.771-4.729
			c0.948-0.401,1.909-0.77,2.866-1.149C207.416,386.017,212.143,386.017,216.87,386.017z"/>
		<path fill-rule="evenodd" clip-rule="evenodd" fill="#F9F9F9" d="M264.729,386.017c-0.066,2.438-0.188,4.879-0.192,7.317
			c-0.015,23.52-0.006,47.038-0.019,70.562c0,1.543-0.164,3.093-0.26,4.729c-4.685,0-9.089,0-13.72,0
			c-0.097-1.141-0.26-2.194-0.26-3.252c-0.015-20.566-0.004-41.138-0.024-61.706c0-1.665-0.125-3.336-0.269-4.998
			c-0.336-3.832-1.76-5.185-5.698-5.559c-1.159-0.111-2.313-0.353-3.477-0.437c-1.611-0.117-2.577-0.679-2.385-2.532
			c0.198-1.858,1.481-1.663,2.785-1.786c6.048-0.563,12.088-1.208,18.129-1.847c0.234-0.025,0.442-0.324,0.663-0.491
			C261.581,386.017,263.157,386.017,264.729,386.017z"/>
		<path fill-rule="evenodd" clip-rule="evenodd" fill="#F9F9F9" d="M329.386,450.187c1.317,0,2.452,0,3.511,0
			c0,6.236,0,12.272,0,18.547c-4.593,0-8.814,0-13.038,0c-10.727,0-21.46-0.098-32.188,0.067c-2.755,0.038-3.482-0.794-3.471-3.472
			c0.085-22.346,0.048-44.691,0.022-67.037c-0.004-4.267-1.558-5.885-5.86-6.388c-0.861-0.1-1.713-0.368-2.554-0.599
			c-2.779-0.764-2.779-0.771-2.091-4.109c0.898,0,1.855,0,2.816,0c17.129,0,34.257,0.075,51.384-0.069
			c2.985-0.027,3.684,1.02,3.592,3.735c-0.163,4.992-0.044,9.998-0.044,15.119c-1.475,0-2.711,0-3.837,0
			c-0.695-2.587-1.071-5.22-2.12-7.546c-1.192-2.643-3.669-4.058-6.596-4.113c-5.503-0.111-11.013,0.053-16.519-0.083
			c-2.232-0.053-3.259,0.929-3.674,2.922c-0.097,0.479-0.254,0.963-0.254,1.445c-0.02,7.865-0.016,15.728-0.016,23.976
			c5.834,0,11.521,0.359,17.144-0.135c3.39-0.3,5.241-3.268,5.73-6.582c0.308-2.084,1.361-2.597,3.174-2.497
			c2.294,0.122,1.602,1.867,1.611,3.085c0.058,6.89,0.005,13.782,0.048,20.673c0.01,1.549-0.096,2.611-2.135,2.636
			c-1.866,0.023-2.295-0.77-2.49-2.404c-0.688-5.66-2.544-7.425-8.295-7.633c-4.79-0.171-9.593-0.032-14.781-0.032
			c0,3.025,0,5.843,0,8.665c0,5.804-0.034,11.611,0.01,17.422c0.037,4.93,1,5.866,5.755,5.871c5.313,0,10.628,0.004,15.944-0.005
			c4.65-0.007,6.594-1.512,7.886-6.146C328.529,453.802,328.913,452.085,329.386,450.187z"/>
	</g>
	<g>
		<path fill-rule="evenodd" clip-rule="evenodd" fill="#F9F9F9" d="M150.985,285.263c-0.092,1.657-0.259,3.314-0.262,4.972
			c-0.02,15.649-0.094,31.3,0.036,46.949c0.039,4.486,0.355,9.026,1.137,13.436c1.328,7.513,6.227,11.913,15.666,11.668
			c6.028-0.157,11.802-1.092,14.578-7.128c1.54-3.348,2.375-7.299,2.441-10.996c0.325-18.104,0.283-36.21,0.384-54.314
			c0.006-1.063,0.113-2.125,0.177-3.25c3.212,0,6.222,0,9.543,0c0,1.206,0,2.264,0,3.317c-0.002,15.061,0.214,30.125-0.11,45.176
			c-0.137,6.304-0.85,12.719-2.321,18.841c-1.975,8.227-8.508,12.386-16.458,14.096c-6.84,1.474-13.577,1.46-20.417,0.002
			c-8.57-1.827-14.745-6.338-17.288-15.312c-1.021-3.605-1.236-7.523-1.279-11.306c-0.147-12.694-0.054-25.394-0.054-38.09
			c0-0.493,0.008-0.983-0.017-1.476c-0.409-7.969-0.697-8.286-8.555-9.571c-0.481-0.078-0.942-0.359-1.42-0.379
			c-1.658-0.072-2.472-1.044-1.954-2.475c0.28-0.775,1.465-1.622,2.327-1.728c5.93-0.726,11.883-1.251,17.824-1.878
			c0.447-0.047,0.864-0.362,1.294-0.554C147.833,285.263,149.408,285.263,150.985,285.263z"/>
		<path fill-rule="evenodd" clip-rule="evenodd" fill="#F9F9F9" d="M340.654,285.263c2.443,0.426,4.899,0.794,7.325,1.298
			c1.241,0.258,2.428,0.764,3.765,1.196c0,3.021,0,6.04,0,9.445c-2.9-1.058-5.622-2.156-8.411-3.046
			c-4.938-1.574-9.942-2.339-15.203-2.009c-8.288,0.521-11.459,10.737-7.106,16.663c2.094,2.855,5.176,5.187,8.219,7.105
			c6.018,3.795,12.561,6.781,18.446,10.754c10.769,7.268,13.363,20.595,6.521,31.485c-3.604,5.742-9.416,8.153-15.609,9.805
			c-7.866,2.1-15.773,1.138-23.65-0.02c-2.208-0.323-4.375-0.941-6.56-1.439c-1.656-0.38-2.437-1.29-2.326-3.133
			c0.158-2.622,0.041-5.265,0.041-8.089c4.068,1.75,7.765,3.545,11.605,4.942c5.979,2.173,12.073,2.756,18.366,1.026
			c7.905-2.177,10.013-14.543,4.443-20.489c-4.556-4.864-10.471-7.446-16.097-10.537c-5.718-3.146-11.286-6.354-15.464-11.608
			c-6.584-8.277-5.745-26.276,9.463-31.041c2.484-0.778,4.973-1.539,7.46-2.31C330.807,285.263,335.731,285.263,340.654,285.263z"/>
		<path fill-rule="evenodd" clip-rule="evenodd" fill="#F9F9F9" d="M296.338,285.263c0,27.437,0,54.872,0,82.513
			c-4.517,0-8.889,0-13.619,0c-0.095-1.283-0.275-2.607-0.275-3.931c-0.021-17.51,0.001-35.021-0.024-52.534
			c-0.009-4.225-0.313-8.455-0.192-12.675c0.112-3.931-1.312-5.45-6.044-6.271c-1.151-0.201-2.432-0.077-3.442-0.551
			c-0.929-0.435-1.578-1.473-2.353-2.245c0.898-0.647,1.739-1.747,2.701-1.867c5.927-0.744,11.88-1.258,17.82-1.883
			c0.446-0.048,0.864-0.364,1.295-0.557C293.581,285.263,294.961,285.263,296.338,285.263z"/>
		<path fill-rule="evenodd" clip-rule="evenodd" fill="#F9F9F9" d="M410.138,351.015c3.131-8.911,6.095-17.353,9.065-25.793
			c4.333-12.294,8.646-24.596,13.057-36.86c0.278-0.778,1.306-1.809,2.011-1.829c5.099-0.157,10.2-0.084,15.673-0.084
			c0,1.482,0,2.728,0,3.974c0,24.616-0.048,49.236,0.063,73.853c0.014,2.963-0.722,4.062-3.786,3.765
			c-2.918-0.281-5.885-0.06-9.256-0.06c0-22.47,0-44.809,0-67.146c-0.254-0.043-0.515-0.085-0.768-0.127
			c-1.648,4.491-3.347,8.965-4.938,13.476c-4.21,11.925-8.379,23.864-12.55,35.802c-1.826,5.232-3.655,10.46-5.398,15.719
			c-0.537,1.618-1.345,2.311-3.165,2.325c-6.759,0.044-6.78,0.123-9.058-6.33c-7.06-20.014-14.098-40.032-21.151-60.047
			c-0.062-0.175-0.228-0.313-0.678-0.905c0,22.548,0,44.661,0,67.004c-2.917,0-5.51,0-8.378,0c-0.042-0.89-0.127-1.835-0.129-2.78
			c-0.005-20.78-0.003-41.556-0.005-62.335c0-0.982,0.089-1.987-0.072-2.948c-0.911-5.446-0.036-7.476-7.94-8.601
			c-1.232-0.174-2.406-0.78-3.653-1.204c0-1.113,0-2.15,0-3.431c8.896,0,17.642-0.03,26.388,0.068
			c0.615,0.006,1.541,0.854,1.778,1.507c2.839,7.771,5.566,15.586,8.338,23.38c4.466,12.555,8.938,25.102,13.427,37.648
			C409.203,349.586,409.576,350.051,410.138,351.015z"/>
		<path fill-rule="evenodd" clip-rule="evenodd" fill="#F9F9F9" d="M130.759,367.977c-3.901,0-7.738,0.147-11.546-0.114
			c-0.839-0.058-1.931-1.448-2.304-2.448c-2.521-6.748-4.841-13.573-7.349-20.33c-0.291-0.785-1.336-1.825-2.044-1.833
			c-9.44-0.12-18.88-0.083-28.302-0.083c-3.001,8.312-5.943,16.457-8.917,24.692c-2.586,0-5.12,0-8.303,0
			c1.066-3.194,1.984-6.177,3.052-9.107c7.135-19.569,14.306-39.124,21.441-58.692c0.469-1.283,0.789-2.629,1.093-3.966
			c0.562-2.474-0.699-4.332-3.251-4.924c-1.787-0.414-3.567-0.856-5.383-1.295c0-1.165,0-2.128,0-3.42
			c7.317,0,14.575-0.038,21.831,0.072c0.585,0.008,1.441,0.937,1.687,1.609c4.021,11.067,7.936,22.17,11.931,33.245
			c3.732,10.337,7.523,20.654,11.3,30.977c1.672,4.571,3.394,9.122,5.041,13.699C130.917,366.561,130.759,367.187,130.759,367.977z
			 M106.281,336.009c-4.236-10.863-8.325-21.352-12.641-32.418c-4.1,11.245-7.929,21.741-11.822,32.418
			C90.031,336.009,97.894,336.009,106.281,336.009z"/>
		<path fill-rule="evenodd" clip-rule="evenodd" fill="#F9F9F9" d="M265.702,305.253c-1.22,0-2.38,0-3.519,0
			c-0.448-2.182-0.746-4.304-1.334-6.343c-0.937-3.253-3.453-4.821-6.597-5.328c-1.831-0.293-3.73-0.194-5.599-0.221
			c-2.062-0.03-4.125-0.008-6.699-0.008c0,1.248,0,2.37,0,3.492c0,22.447,0.001,44.893,0,67.34
			c-0.002,3.791-0.007,3.794-3.902,3.794c-3.323,0.002-6.646,0-10.181,0c0-24.846,0-49.422,0-74.799
			c-4.958,0.267-9.751,0.09-14.37,0.903c-4.203,0.744-5.012,4.745-5.759,8.353c-0.135,0.649-0.121,1.334-0.188,2.164
			c-1.455,0-2.77,0-3.892,0c0-6.098,0-12.017,0-18.033c20.879,0,41.227,0,62.04,0C265.702,292.76,265.702,298.885,265.702,305.253z"
			/>
	</g>
</g>
</svg>
