<?xml version="1.0" encoding="utf-8"?>
<!-- Generator: Adobe Illustrator 16.0.0, SVG Export Plug-In . SVG Version: 6.00 Build 0)  -->
<!DOCTYPE svg PUBLIC "-//W3C//DTD SVG 1.1//EN" "http://www.w3.org/Graphics/SVG/1.1/DTD/svg11.dtd">
<svg version="1.1" id="concordia-logo_x28_blue_x29__xA0_Image_1_"
	 xmlns="http://www.w3.org/2000/svg" xmlns:xlink="http://www.w3.org/1999/xlink" x="0px" y="0px" width="512px" height="511px"
	 viewBox="0 0 512 511" enable-background="new 0 0 512 511" xml:space="preserve">
<rect x="-341.428" fill="#B0C19F" width="57.143" height="57.143"/>
<rect x="-284.285" fill="#A0B091" width="57.143" height="57.143"/>
<rect x="-227.143" fill="#909F84" width="57.143" height="57.143"/>
<rect x="-341.428" y="57.143" fill="#D5E7BF" width="57.143" height="57.143"/>
<rect x="-341.428" y="376.082" fill="#C1D2AF" width="57.143" height="57.143"/>
<rect x="-284.285" y="57.143" fill="#C2D3AE" width="57.143" height="57.143"/>
<rect x="-227.143" y="57.142" fill="#808E76" width="57.143" height="57.143"/>
<rect x="-170" y="57.142" fill="#707D68" width="57.143" height="57.143"/>
<rect x="-341.428" y="138.596" fill="#F9F9F9" width="57.143" height="57.142"/>
<rect x="-341.428" y="296.215" fill="#E1E2E3" width="57.143" height="57.143"/>
<rect x="-284.285" y="138.596" fill="#DCDEDC" width="57.143" height="57.142"/>
<rect x="-227.143" y="138.596" fill="#DFEBEE" width="57.143" height="57.142"/>
<rect x="-227.143" y="195.738" fill="#A6B0B4" width="57.143" height="57.143"/>
<rect x="-170" y="195.738" fill="#939DA1" width="57.143" height="57.143"/>
<rect x="-227.143" y="253.27" fill="#173139" width="57.143" height="57.143"/>
<rect x="-341.428" y="195.738" fill="#496F7C" width="57.143" height="57.143"/>
<rect x="-284.285" y="195.738" fill="#2A4751" width="57.143" height="57.143"/>
<g>
	<path fill-rule="evenodd" clip-rule="evenodd" fill="#F9F9F9" d="M-751.527,133.696c12.703-31.996,25.952-63.789,37.857-96.075
		c5.082-13.784,16.095-20.734,26.656-28.565c1.859-1.381,6.504-1.065,8.6,0.345c5.225,3.505,9.617,8.229,14.575,12.172
		c1.552,1.234,3.851,1.529,5.808,2.255c0.18-2.289,1.051-4.795,0.403-6.816c-1.608-5.03-3.74-9.917-5.973-14.715
		c-2.92-6.276-0.804-10.901,4.521-14.304c4.453-2.846,9.321-5.042,13.777-7.885c1.475-0.938,2.243-2.989,3.333-4.531
		c-1.711-0.811-3.44-2.354-5.13-2.315c-11.7,0.284-23.394,0.948-35.09,1.35c-1.777,0.063-3.578-0.576-5.261-1.419
		c14.663-2.893,18.214-12.006,9.926-26.534c5.628-7.153,12.621-11.606,22.212-11.391c7.193,0.163,14.404,0.248,21.592-0.032
		c6.264-0.245,7.564,2.519,5.514,7.815c-2.197,5.672-4.688,11.238-6.623,16.993c-0.629,1.872,0.078,4.197,0.174,6.316
		c1.961-0.609,4.533-0.622,5.793-1.914c18.428-18.889,19.721-18.885,39.274,0.058c1.311,1.27,3.871,1.257,5.846,1.839
		c0.104-2.119,0.824-4.446,0.191-6.321c-1.936-5.758-4.326-11.374-6.666-16.991c-2.281-5.475-0.875-7.825,5.352-7.799
		c35.454,0.144,70.913-0.025,106.37,0.15c10.186,0.049,14.443,6.52,10.74,16.078c-13.127,33.85-26.435,67.631-39.678,101.436
		c-3.383,8.633-7.119,17.143-10.042,25.918c-1.374,4.128-3.4,5.391-7.449,5.209c-14.089-0.638-28.188-1.197-42.287-1.445
		c-2.529-0.046-5.085,1.531-7.628,2.356c1.872,1.863,3.737,3.724,5.625,5.574c0.177,0.17,0.486,0.203,0.724,0.319
		c18.608,9.271,19.577,12.233,11.654,31.253c-1.422,3.418-1.109,7.558-1.596,11.36c3.104-2.062,6.306-4.005,9.287-6.231
		c4.56-3.405,8.966-7.005,14.201-11.126c1.623,22.496-14.936,34.156-43.489,31.064c3.138-1.693,5.229-2.495,6.89-3.824
		c1.447-1.164,2.408-2.93,3.587-4.428c-1.668-0.871-3.327-2.498-5.001-2.512c-24.188-0.15-48.382-0.13-72.57,0.051
		c-1.689,0.014-3.366,1.609-5.049,2.477c1.188,1.496,2.165,3.26,3.621,4.434c1.582,1.268,3.61,1.998,7.468,4.022
		c-4.544,0.267-6.973,0.527-9.405,0.527c-29.057,0.026-58.119,0.233-87.17-0.202c-5.176-0.076-10.31-2.865-15.463-4.402
		C-751.527,140.094-751.527,136.891-751.527,133.696z M-710.502,132.327c0.842,0.801,1.685,1.602,2.528,2.402
		c2.66-1.888,5.531-3.528,7.94-5.69c16.821-15.092,17.068-15.34,34.346,0.494c0.386,0.358,0.595,1.036,1.028,1.199
		c2.392,0.911,4.833,1.712,7.255,2.552c-0.245-2.318,0.105-4.908-0.823-6.907c-10.586-22.711-10.173-23.915,12.279-35.928
		c1.709-0.911,2.63-3.295,3.92-4.993c-2.171-0.912-4.343-2.573-6.521-2.58c-5.019-0.02-10.052,1.205-15.065,1.134
		c-18.286-0.275-36.562-0.964-54.844-1.218c-1.912-0.033-3.849,1.765-5.769,2.708c1.322,1.68,2.344,3.796,4.03,4.936
		c3.28,2.201,7.087,3.621,10.405,5.781c9.499,6.193,10.146,8.171,6.254,18.757C-705.689,120.823-708.168,126.546-710.502,132.327z
		 M-491.005-25.196c-2.708-1.002-3.201-1.344-3.696-1.348c-25.242-0.152-50.485-0.321-75.727-0.293
		c-1.481,0-2.966,1.641-4.447,2.517c1.38,1.563,2.454,3.74,4.184,4.597c21.588,10.674,22.66,13.907,12.221,35.894
		c-0.99,2.083-0.121,5.049-0.115,7.601c2.331-1.068,5.243-1.578,6.904-3.294c16.109-16.608,20.595-16.632,36.481-0.14
		c1.677,1.742,4.521,2.357,6.826,3.497c-0.006-2.598,0.829-5.576-0.146-7.729c-10.42-22.977-10.043-24.165,12.24-35.845
		C-494.422-20.713-493.189-22.881-491.005-25.196z M-636.631,74.797c0.489,0.678,0.978,1.354,1.468,2.03
		c2.41-1.08,5.125-1.77,7.162-3.338c4.203-3.23,8.066-6.909,12.033-10.444c4.58-4.083,9.142-3.73,13.624,0.064
		c3.844,3.269,7.43,6.869,11.459,9.877c1.982,1.484,4.718,1.966,7.109,2.903c-0.07-2.304,0.388-4.792-0.322-6.888
		c-1.523-4.505-3.542-8.855-5.544-13.178c-3.128-6.765-1.179-11.847,4.96-15.555c5.618-3.399,11.314-6.667,18.936-11.14
		c-3.523-1.793-5.791-4.034-7.783-3.803c-23.882,2.741-47.716,2.79-71.583-0.116c-1.648-0.201-3.537,1.565-5.311,2.422
		c1.158,1.757,1.943,4.075,3.555,5.163c3.494,2.359,7.602,3.802,11.114,6.136c9.31,6.192,9.804,7.836,6,18.363
		C-631.881,63.195-634.33,68.97-636.631,74.797z M-524.176-41.19c0.049-7.845-3.641-13.383-9.148-13.725
		c-5.529-0.348-10.315,6-10.279,13.637c0.033,7.377,4.3,13.175,9.766,13.269C-528.286-27.917-524.229-33.458-524.176-41.19z
		 M-524.188,68.117c0.037-7.917-3.731-13.138-9.517-13.191c-5.855-0.052-9.854,5.183-9.898,12.97
		c-0.05,7.917,3.767,13.061,9.678,13.054C-527.747,80.95-524.225,76.308-524.188,68.117z M-619.254,121.76
		c0,7.592,4.111,13.341,9.607,13.432c5.31,0.084,10.101-6.1,10.128-13.08c0.026-7.613-4.717-14.045-10.19-13.811
		C-615.215,108.542-619.254,114.232-619.254,121.76z M-599.526,10.708c-0.08-6.979-4.963-13.135-10.247-12.924
		c-5.564,0.222-9.504,5.883-9.426,13.542c0.078,7.583,4.199,13.315,9.617,13.372C-604.132,24.756-599.438,18.222-599.526,10.708z
		 M-673.147,68.957c0.163-6.94-4.313-13.197-9.721-13.6c-5.462-0.397-10.045,5.266-10.339,12.781
		c-0.279,7.245,4.574,14.142,9.946,14.114C-678.17,82.239-673.312,75.845-673.147,68.957z"/>
	<g>
		<path fill-rule="evenodd" clip-rule="evenodd" fill="#F9F9F9" d="M-418.856,283.805c-1.924,2.889-3.966,5.705-5.752,8.676
			c-6.264,10.439-12.501,20.895-18.589,31.439c-0.967,1.674-1.523,3.82-1.553,5.756c-0.149,10.434-0.067,20.869-0.067,31.309
			c0,0.961,0,1.918,0,3.02c-4.679,0-9.064,0-13.719,0c-0.078-1.441-0.217-2.799-0.217-4.15c-0.02-10.039,0.114-20.084-0.105-30.123
			c-0.053-2.4-0.803-5.031-2.001-7.113c-5.442-9.473-11.314-18.699-16.715-28.193c-2.816-4.945-6.664-7.656-12.49-7.859
			c0,4.826,0,9.67,0,14.736c-1.291,0-2.693,0-4.425,0c0-1.166,0.058-2.322-0.01-3.471c-0.274-4.635-3.785-8.055-8.371-8.107
			c-3.795-0.045-7.595-0.01-11.604-0.01c0,24.844,0,49.428,0,74.426c-4.396,0-8.588,0.092-12.772-0.113
			c-0.533-0.031-1.403-1.641-1.413-2.521c-0.101-9.549-0.062-19.1-0.062-28.648c0-14.271,0-28.537,0-43.541
			c-4.804,0.309-9.491,0.217-14.025,1.014c-3.747,0.664-5.127,4.148-5.343,7.541c-0.223,3.516-2.055,3.352-4.41,2.918
			c0-6.021,0-11.889,0-18.164c1.414,0,2.554,0,3.693,0c25.696,0,51.393,0.057,77.091-0.08c2.875-0.018,4.352,0.902,5.697,3.328
			c5.352,9.623,10.901,19.129,16.397,28.674c0.462,0.809,1.043,1.553,1.701,2.523c5.709-9.639,11.57-18.84,16.682-28.441
			c2.486-4.672,5.332-7.045,10.612-6.02c0.572,0.111,1.18,0.016,1.77,0.016C-418.856,283.016-418.856,283.41-418.856,283.805z"/>
		<path fill-rule="evenodd" clip-rule="evenodd" fill="#F9F9F9" d="M-750.333,281.443c3.274,1.121,6.631,2.062,9.814,3.404
			c6.817,2.861,10.891,8.439,13.093,15.143c3.693,11.248,4.016,22.854,2.641,34.578c-0.861,7.352-2.438,14.361-7.069,20.387
			c-4.034,5.236-9.434,7.838-15.781,9.348c-6.915,1.645-13.723,1.357-20.397-0.277c-9.916-2.424-16.638-8.881-19.417-18.688
			c-4.149-14.629-4.179-29.496,0.019-44.08c2.919-10.158,9.732-16.85,20.586-18.719c1.004-0.174,1.947-0.725,2.918-1.096
			C-759.396,281.443-754.868,281.443-750.333,281.443z M-737.874,326.094c-0.51-7.631-0.812-13.113-1.25-18.584
			c-0.899-11.066-6.136-17.502-16.363-19.201c-5.525-0.916-10.603,0.818-14.325,5.393c-3.924,4.82-5.356,10.688-5.79,16.568
			c-0.774,10.441-1.01,20.902,0.962,31.342c1.914,10.121,7.987,16.297,17.21,16.797c10.194,0.549,15.334-5.723,17.013-13.492
			C-738.942,338.078-738.508,331.014-737.874,326.094z"/>
		<path fill-rule="evenodd" clip-rule="evenodd" fill="#F9F9F9" d="M-815.921,281.443c2.675,0.447,5.357,0.836,8.012,1.369
			c1.231,0.246,2.409,0.764,3.654,1.18c0,3.08,0,6.096,0,9.424c-2.904-1.049-5.582-2.08-8.309-2.986
			c-5.217-1.73-10.517-2.789-16.075-1.947c-5.703,0.863-9.56,6.562-8.257,12.314c1.256,5.529,5.241,8.686,9.776,11.316
			c6.241,3.625,12.81,6.75,18.778,10.775c12.574,8.486,12.786,24.146,4.779,33.518c-3.856,4.518-9.151,6.473-14.853,7.84
			c-7.574,1.812-15.018,0.932-22.5-0.115c-2.308-0.324-4.568-0.986-6.852-1.482c-1.794-0.385-2.573-1.326-2.434-3.293
			c0.188-2.615,0.049-5.256,0.049-7.623c5.462,2.029,10.654,4.402,16.099,5.857c5.198,1.391,10.747,1.738,15.762-0.869
			c6.66-3.467,7.958-13.699,2.77-19.668c-3.852-4.428-9.141-6.688-14.046-9.572c-4.996-2.941-10.126-5.814-14.579-9.467
			c-5.938-4.869-7.833-11.652-6.606-19.217c1.245-7.664,5.789-12.541,13.016-15.047c2.337-0.807,4.693-1.543,7.045-2.307
			C-825.769,281.443-820.844,281.443-815.921,281.443z"/>
		<path fill-rule="evenodd" clip-rule="evenodd" fill="#F9F9F9" d="M-674.112,281.443c3.438,1.174,7.049,1.988,10.271,3.602
			c6.02,3.018,9.737,7.848,10.006,15.289c-4.673,0-9.169,0.059-13.661-0.07c-0.591-0.02-1.553-0.934-1.674-1.562
			c-0.995-5.283-3.827-8.969-9.15-10.117c-7.006-1.508-12.997,0.33-16.989,6.602c-3.034,4.77-4.227,10.156-4.861,15.76
			c-0.914,8.068-0.625,16.076,0.644,24.045c1.024,6.41,2.914,12.527,7.501,17.465c4.463,4.805,10.084,6.092,16.412,5.971
			c6.944-0.133,13.166-2.139,18.877-5.98c0.212-0.139,0.554-0.088,1.247-0.184c0,2.578,0.148,5.072-0.097,7.529
			c-0.067,0.656-1.274,1.502-2.097,1.723c-10.222,2.697-20.373,4.924-31.192,2.975c-14.618-2.633-21.792-13.162-24.292-25.199
			c-1.942-9.332-2.227-18.738-1.005-28.096c1.216-9.285,3.885-18.264,12.243-23.871c3.202-2.152,7.155-3.191,10.771-4.73
			c0.948-0.4,1.909-0.77,2.866-1.148C-683.566,281.443-678.84,281.443-674.112,281.443z"/>
		<path fill-rule="evenodd" clip-rule="evenodd" fill="#F9F9F9" d="M-626.253,281.443c-0.066,2.438-0.188,4.879-0.192,7.316
			c-0.015,23.52-0.006,47.039-0.019,70.562c0,1.543-0.164,3.092-0.26,4.729c-4.685,0-9.089,0-13.72,0
			c-0.097-1.141-0.26-2.195-0.26-3.252c-0.015-20.566-0.004-41.139-0.024-61.707c0-1.664-0.125-3.336-0.269-4.998
			c-0.336-3.832-1.76-5.184-5.698-5.559c-1.159-0.111-2.313-0.352-3.477-0.436c-1.611-0.117-2.577-0.68-2.385-2.533
			c0.198-1.857,1.481-1.662,2.785-1.785c6.048-0.564,12.088-1.209,18.129-1.848c0.234-0.025,0.442-0.324,0.663-0.49
			C-629.401,281.443-627.825,281.443-626.253,281.443z"/>
		<path fill-rule="evenodd" clip-rule="evenodd" fill="#F9F9F9" d="M-561.597,345.613c1.317,0,2.452,0,3.511,0
			c0,6.236,0,12.271,0,18.547c-4.593,0-8.814,0-13.038,0c-10.727,0-21.46-0.098-32.188,0.066c-2.755,0.039-3.482-0.793-3.471-3.471
			c0.085-22.346,0.048-44.691,0.022-67.037c-0.004-4.268-1.558-5.885-5.86-6.389c-0.861-0.1-1.713-0.367-2.554-0.598
			c-2.779-0.764-2.779-0.771-2.091-4.109c0.898,0,1.855,0,2.816,0c17.129,0,34.257,0.074,51.384-0.07
			c2.985-0.027,3.684,1.02,3.592,3.736c-0.163,4.992-0.044,9.998-0.044,15.119c-1.475,0-2.711,0-3.837,0
			c-0.695-2.588-1.071-5.221-2.12-7.547c-1.192-2.643-3.669-4.057-6.596-4.113c-5.503-0.111-11.013,0.053-16.519-0.082
			c-2.232-0.053-3.259,0.928-3.674,2.922c-0.097,0.479-0.254,0.963-0.254,1.445c-0.02,7.865-0.016,15.727-0.016,23.975
			c5.834,0,11.521,0.359,17.144-0.135c3.39-0.299,5.241-3.268,5.73-6.582c0.308-2.084,1.361-2.596,3.174-2.496
			c2.294,0.121,1.602,1.867,1.611,3.084c0.058,6.891,0.005,13.783,0.048,20.674c0.01,1.549-0.096,2.611-2.135,2.635
			c-1.866,0.023-2.295-0.77-2.49-2.404c-0.688-5.66-2.544-7.424-8.295-7.633c-4.79-0.17-9.593-0.031-14.781-0.031
			c0,3.025,0,5.842,0,8.664c0,5.805-0.034,11.611,0.01,17.422c0.037,4.93,1,5.867,5.755,5.871c5.313,0,10.628,0.004,15.944-0.004
			c4.65-0.008,6.594-1.512,7.886-6.146C-562.453,349.229-562.069,347.512-561.597,345.613z"/>
	</g>
	<g>
		<path fill-rule="evenodd" clip-rule="evenodd" fill="#F9F9F9" d="M-739.998,180.689c-0.092,1.657-0.259,3.314-0.262,4.972
			c-0.02,15.649-0.094,31.3,0.036,46.949c0.039,4.486,0.355,9.026,1.137,13.436c1.328,7.513,6.227,11.914,15.666,11.667
			c6.028-0.156,11.802-1.092,14.578-7.127c1.54-3.348,2.375-7.299,2.441-10.996c0.325-18.104,0.283-36.21,0.384-54.314
			c0.006-1.063,0.113-2.125,0.177-3.25c3.212,0,6.222,0,9.543,0c0,1.206,0,2.264,0,3.317c-0.002,15.061,0.214,30.125-0.11,45.176
			c-0.137,6.304-0.85,12.719-2.321,18.841c-1.975,8.227-8.508,12.385-16.458,14.096c-6.84,1.473-13.577,1.459-20.417,0.002
			c-8.57-1.828-14.745-6.338-17.288-15.313c-1.021-3.605-1.236-7.523-1.279-11.306c-0.147-12.694-0.054-25.394-0.054-38.09
			c0-0.493,0.008-0.983-0.017-1.476c-0.409-7.969-0.697-8.286-8.555-9.571c-0.481-0.078-0.942-0.359-1.42-0.379
			c-1.658-0.072-2.472-1.044-1.954-2.475c0.28-0.775,1.465-1.622,2.327-1.728c5.93-0.726,11.883-1.251,17.824-1.878
			c0.447-0.047,0.864-0.362,1.294-0.554C-743.15,180.689-741.574,180.689-739.998,180.689z"/>
		<path fill-rule="evenodd" clip-rule="evenodd" fill="#F9F9F9" d="M-550.328,180.689c2.443,0.426,4.899,0.794,7.325,1.298
			c1.241,0.258,2.428,0.764,3.765,1.196c0,3.021,0,6.04,0,9.445c-2.9-1.058-5.622-2.156-8.411-3.046
			c-4.938-1.574-9.942-2.339-15.203-2.009c-8.288,0.521-11.459,10.737-7.106,16.663c2.094,2.855,5.176,5.187,8.219,7.105
			c6.018,3.795,12.561,6.781,18.446,10.754c10.769,7.268,13.363,20.595,6.521,31.485c-3.604,5.743-9.416,8.153-15.609,9.805
			c-7.866,2.1-15.773,1.137-23.65-0.02c-2.208-0.324-4.375-0.941-6.56-1.439c-1.656-0.381-2.437-1.291-2.326-3.133
			c0.158-2.623,0.041-5.265,0.041-8.089c4.068,1.75,7.765,3.545,11.605,4.942c5.979,2.172,12.073,2.756,18.366,1.026
			c7.905-2.176,10.013-14.542,4.443-20.489c-4.556-4.864-10.471-7.446-16.097-10.537c-5.718-3.146-11.286-6.354-15.464-11.608
			c-6.584-8.277-5.745-26.276,9.463-31.041c2.484-0.778,4.973-1.539,7.46-2.31C-560.176,180.689-555.251,180.689-550.328,180.689z"
			/>
		<path fill-rule="evenodd" clip-rule="evenodd" fill="#F9F9F9" d="M-594.645,180.689c0,27.437,0,54.872,0,82.512
			c-4.517,0-8.889,0-13.619,0c-0.095-1.283-0.275-2.607-0.275-3.93c-0.021-17.51,0.001-35.022-0.024-52.535
			c-0.009-4.225-0.313-8.455-0.192-12.675c0.112-3.931-1.312-5.45-6.044-6.271c-1.151-0.201-2.432-0.077-3.442-0.551
			c-0.929-0.435-1.578-1.473-2.353-2.245c0.898-0.647,1.739-1.747,2.701-1.867c5.927-0.744,11.88-1.258,17.82-1.883
			c0.446-0.048,0.864-0.364,1.295-0.557C-597.401,180.689-596.021,180.689-594.645,180.689z"/>
		<path fill-rule="evenodd" clip-rule="evenodd" fill="#F9F9F9" d="M-480.845,246.441c3.131-8.911,6.095-17.353,9.065-25.793
			c4.333-12.294,8.646-24.596,13.057-36.86c0.278-0.778,1.306-1.809,2.011-1.829c5.099-0.157,10.2-0.084,15.673-0.084
			c0,1.482,0,2.728,0,3.974c0,24.616-0.048,49.236,0.063,73.853c0.014,2.963-0.722,4.061-3.786,3.764
			c-2.918-0.281-5.885-0.059-9.256-0.059c0-22.47,0-44.809,0-67.147c-0.254-0.043-0.515-0.085-0.768-0.127
			c-1.648,4.491-3.347,8.965-4.938,13.476c-4.21,11.925-8.379,23.864-12.55,35.802c-1.826,5.232-3.655,10.46-5.398,15.719
			c-0.537,1.617-1.345,2.311-3.165,2.324c-6.759,0.045-6.78,0.123-9.058-6.33c-7.06-20.013-14.098-40.032-21.151-60.046
			c-0.062-0.175-0.228-0.313-0.678-0.905c0,22.548,0,44.661,0,67.004c-2.917,0-5.51,0-8.378,0c-0.042-0.891-0.127-1.836-0.129-2.781
			c-0.005-20.78-0.003-41.555-0.005-62.334c0-0.982,0.089-1.987-0.072-2.948c-0.911-5.446-0.036-7.476-7.94-8.601
			c-1.232-0.174-2.406-0.78-3.653-1.204c0-1.113,0-2.15,0-3.431c8.896,0,17.642-0.03,26.388,0.068
			c0.615,0.006,1.541,0.854,1.778,1.507c2.839,7.771,5.566,15.586,8.338,23.38c4.466,12.555,8.938,25.102,13.427,37.648
			C-481.779,245.012-481.406,245.477-480.845,246.441z"/>
		<path fill-rule="evenodd" clip-rule="evenodd" fill="#F9F9F9" d="M-760.223,263.402c-3.901,0-7.738,0.148-11.546-0.113
			c-0.839-0.059-1.931-1.449-2.304-2.449c-2.521-6.748-4.841-13.573-7.349-20.33c-0.291-0.785-1.336-1.825-2.044-1.833
			c-9.44-0.12-18.88-0.083-28.302-0.083c-3.001,8.312-5.943,16.457-8.917,24.693c-2.586,0-5.12,0-8.303,0
			c1.066-3.195,1.984-6.178,3.052-9.108c7.135-19.569,14.306-39.124,21.441-58.692c0.469-1.283,0.789-2.629,1.093-3.966
			c0.562-2.474-0.699-4.332-3.251-4.924c-1.787-0.414-3.567-0.856-5.383-1.295c0-1.165,0-2.128,0-3.42
			c7.317,0,14.575-0.038,21.831,0.072c0.585,0.008,1.441,0.937,1.687,1.609c4.021,11.067,7.936,22.17,11.931,33.245
			c3.732,10.337,7.523,20.654,11.3,30.977c1.672,4.571,3.394,9.123,5.041,13.699C-760.066,261.986-760.223,262.613-760.223,263.402z
			 M-784.702,231.435c-4.236-10.863-8.325-21.352-12.641-32.418c-4.1,11.245-7.929,21.741-11.822,32.418
			C-800.952,231.435-793.089,231.435-784.702,231.435z"/>
		<path fill-rule="evenodd" clip-rule="evenodd" fill="#F9F9F9" d="M-625.28,200.679c-1.22,0-2.38,0-3.519,0
			c-0.448-2.182-0.746-4.304-1.334-6.343c-0.937-3.253-3.453-4.821-6.597-5.328c-1.831-0.293-3.73-0.194-5.599-0.221
			c-2.062-0.03-4.125-0.008-6.699-0.008c0,1.248,0,2.37,0,3.492c0,22.447,0.001,44.893,0,67.339
			c-0.002,3.791-0.007,3.795-3.902,3.795c-3.323,0.002-6.646,0-10.181,0c0-24.846,0-49.422,0-74.799
			c-4.958,0.267-9.751,0.09-14.37,0.903c-4.203,0.744-5.012,4.745-5.759,8.353c-0.135,0.649-0.121,1.334-0.188,2.164
			c-1.455,0-2.77,0-3.892,0c0-6.098,0-12.017,0-18.033c20.879,0,41.227,0,62.04,0C-625.28,188.186-625.28,194.311-625.28,200.679z"
			/>
	</g>
</g>
<g>
	<path fill="#F9F9F9" d="M486.841,42.641l-1.42-15.768l-15.1,4.78c-0.378,0.119-38.256,11.921-90.855,11.921
		c-42.428,0-82.353-7.476-118.681-22.218l-4.788-1.939l-4.778,1.939c-36.333,14.742-76.263,22.218-118.683,22.218
		c-52.598,0-90.48-11.802-90.846-11.918l-15.117-4.823l-1.413,15.808C15.083,155.497,24.2,311.71,124.862,415.018
		c60.947,62.549,126.006,75.587,128.748,76.108l2.387,0.457l2.395-0.457c2.741-0.521,67.799-13.56,128.743-76.108
		C487.805,311.71,496.914,155.497,486.841,42.641z M404.419,48.002c3.914,0,7.094,3.174,7.094,7.091c0,3.916-3.18,7.09-7.094,7.09
		s-7.082-3.174-7.082-7.09C397.337,51.176,400.505,48.002,404.419,48.002z M329.984,43.771c3.914,0,7.093,3.174,7.093,7.09
		c0,3.917-3.179,7.091-7.093,7.091c-3.913,0-7.093-3.174-7.093-7.091C322.892,46.944,326.071,43.771,329.984,43.771z
		 M255.997,26.048c3.914,0,7.093,3.174,7.093,7.091c0,3.916-3.179,7.09-7.093,7.09c-3.912,0-7.088-3.174-7.088-7.09
		C248.909,29.222,252.085,26.048,255.997,26.048z M182.017,43.771c3.914,0,7.088,3.174,7.088,7.09c0,3.917-3.174,7.091-7.088,7.091
		c-3.914,0-7.093-3.174-7.093-7.091C174.924,46.944,178.103,43.771,182.017,43.771z M107.577,48.002
		c3.914,0,7.088,3.174,7.088,7.091c0,3.916-3.174,7.09-7.088,7.09s-7.093-3.174-7.093-7.09
		C100.484,51.176,103.663,48.002,107.577,48.002z M26.164,108.716c0-3.917,3.179-7.091,7.093-7.091s7.088,3.174,7.088,7.091
		c0,3.916-3.174,7.09-7.088,7.09S26.164,112.632,26.164,108.716z M37.483,190.7c-3.914,0-7.093-3.174-7.093-7.091
		c0-3.916,3.179-7.09,7.093-7.09c3.914,0,7.088,3.174,7.088,7.09C44.571,187.526,41.397,190.7,37.483,190.7z M37.826,50.86
		c-3.914,0-7.093-3.174-7.093-7.09c0-3.917,3.179-7.091,7.093-7.091c3.914,0,7.088,3.174,7.088,7.091
		C44.914,47.687,41.74,50.86,37.826,50.86z M52.578,269.446c-3.914,0-7.093-3.179-7.093-7.093s3.179-7.093,7.093-7.093
		s7.088,3.179,7.088,7.093S56.492,269.446,52.578,269.446z M81.392,342.281c-3.914,0-7.093-3.179-7.093-7.093
		s3.179-7.093,7.093-7.093s7.088,3.179,7.088,7.093S85.306,342.281,81.392,342.281z M124.957,404.597
		c-3.914,0-7.093-3.179-7.093-7.093s3.179-7.093,7.093-7.093s7.088,3.179,7.088,7.093S128.871,404.597,124.957,404.597z
		 M182.245,452.851c-3.914,0-7.093-3.179-7.093-7.093s3.179-7.093,7.093-7.093c3.914,0,7.088,3.179,7.088,7.093
		S186.159,452.851,182.245,452.851z M255.997,485.731c-3.912,0-7.085-3.179-7.085-7.093s3.174-7.093,7.085-7.093
		c3.914,0,7.093,3.179,7.093,7.093S259.911,485.731,255.997,485.731z M329.756,452.851c-3.913,0-7.093-3.179-7.093-7.093
		s3.18-7.093,7.093-7.093c3.914,0,7.093,3.179,7.093,7.093S333.67,452.851,329.756,452.851z M255.997,465.596
		c-11.821-2.95-64.883-18.477-113.981-69.423C70.852,322.334,38.912,206.278,49.288,59.905c16.91,3.862,46.603,9.1,83.249,9.1
		c43.873,0,85.377-7.463,123.461-22.189c38.087,14.727,79.59,22.189,123.469,22.189c36.646,0,66.338-5.237,83.246-9.1
		c10.371,146.373-21.566,262.429-92.724,336.268C320.886,447.119,267.828,462.646,255.997,465.596z M387.045,404.597
		c-3.914,0-7.093-3.179-7.093-7.093s3.179-7.093,7.093-7.093s7.093,3.179,7.093,7.093S390.959,404.597,387.045,404.597z
		 M430.605,342.281c-3.914,0-7.083-3.179-7.083-7.093s3.169-7.093,7.083-7.093c3.913,0,7.093,3.179,7.093,7.093
		S434.519,342.281,430.605,342.281z M459.423,269.446c-3.913,0-7.092-3.179-7.092-7.093s3.179-7.093,7.092-7.093
		c3.914,0,7.094,3.179,7.094,7.093S463.337,269.446,459.423,269.446z M474.175,36.68c3.914,0,7.093,3.174,7.093,7.091
		c0,3.916-3.179,7.09-7.093,7.09s-7.093-3.174-7.093-7.09C467.082,39.854,470.261,36.68,474.175,36.68z M474.513,190.7
		c-3.914,0-7.083-3.174-7.083-7.091c0-3.916,3.169-7.09,7.083-7.09s7.093,3.174,7.093,7.09
		C481.605,187.526,478.427,190.7,474.513,190.7z M478.745,115.806c-3.914,0-7.093-3.174-7.093-7.09c0-3.917,3.179-7.091,7.093-7.091
		s7.093,3.174,7.093,7.091C485.838,112.632,482.659,115.806,478.745,115.806z"/>
	<g>
		<rect x="255.262" y="142.147" fill="#F9F9F9" width="11.95" height="36.919"/>
		<rect x="122.649" y="142.147" fill="#F9F9F9" width="11.101" height="13.043"/>
		<polygon fill="#F9F9F9" points="212.819,166.028 219.823,166.028 216.321,148.52 		"/>
		<rect x="122.649" y="166.028" fill="#F9F9F9" width="11.101" height="13.038"/>
		<rect x="164.232" y="142.112" fill="#F9F9F9" width="11.213" height="13.078"/>
		<path fill="#F9F9F9" d="M446.46,85.581c0,0-93.816,19.767-190.463-19.453c-96.645,39.22-190.46,19.453-190.46,19.453
			C55,389,255.997,444.15,255.997,444.15S462,397,446.46,85.581z M286.822,131.35h10.838v47.717h15.943v10.804h-26.781V131.35z
			 M244.419,131.35h26.598l7.004,6.179v46.192l-7.004,6.149h-26.598V131.35z M144.591,155.488l-4.172,5.066l4.172,5.176v18.03
			l-6.929,6.109h-25.816V131.35h25.816l6.929,6.144V155.488z M167.437,166.028h-3.204v23.842h-10.84V131.35h25.964l6.892,6.144
			v21.492l-7.375,6.895l9.35,23.99h-11.585L167.437,166.028z M209.481,223.525h-10.729v47.717h-10.84v-47.717h-10.729v-10.798
			h32.297V223.525z M208.051,189.87h-11.027l11.697-58.521h15.199l11.697,58.521h-11.027l-2.607-13.038h-11.325L208.051,189.87z
			 M246.476,271.242h-28.2v-58.515h27.977v10.798h-17.173v13.044h14.789v10.838h-14.789v13.037h17.397V271.242z M288.501,227.927
			h-10.809v-4.401H266.07v36.919h11.622v-4.732h10.809v9.421l-7.083,6.109h-19.262l-6.884-6.109v-46.261l6.884-6.145h19.262
			l7.083,6.179V227.927z M331.147,271.242h-10.799v-23.835h-12.258v23.835h-10.799v-58.515h10.799v23.842h12.258v-23.842h10.799
			V271.242z M350.607,189.87h-28.202V131.35h27.974v10.798h-17.176v13.043h14.792v10.838h-14.792v13.038h17.404V189.87z
			 M383.19,168.304v21.566h-10.947v-21.646L359.28,131.35h11.096l7.381,21.79l7.262-21.79h11.474L383.19,168.304z"/>
	</g>
</g>
</svg>
