<?xml version="1.0" encoding="utf-8"?>
<!-- Generator: Adobe Illustrator 16.0.0, SVG Export Plug-In . SVG Version: 6.00 Build 0)  -->
<!DOCTYPE svg PUBLIC "-//W3C//DTD SVG 1.1//EN" "http://www.w3.org/Graphics/SVG/1.1/DTD/svg11.dtd">
<svg version="1.1" id="concordia-logo_x28_blue_x29__xA0_Image_1_"
	 xmlns="http://www.w3.org/2000/svg" xmlns:xlink="http://www.w3.org/1999/xlink" x="0px" y="0px" width="512px" height="511px"
	 viewBox="0 0 512 511" enable-background="new 0 0 512 511" xml:space="preserve">
<g>
	<path fill-rule="evenodd" clip-rule="evenodd" fill="#F9F9F9" d="M47.518,367.762c1.288,3.09-0.128,4.16-2.868,4.971
		c-1.4,0.414-3.464,2.074-3.469,3.178c-0.053,12.449-0.078,24.916,0.546,37.346c0.398,7.922,6.328,10.768,14.575,10.75
		c7.771-0.016,13.337-4.729,13.663-12.119c0.52-11.799,0.424-23.633,0.199-35.445c-0.026-1.375-2.499-2.723-3.868-4.051
		c-1.195-1.158-2.435-2.273-3.655-3.406c0.307-0.412,0.615-0.824,0.922-1.236c6.551,0,13.102,0,19.837,0
		c1.293,2.641,0.627,4.557-2.412,4.775c-3.81,0.275-4.031,2.73-4.034,5.531c-0.009,9.992-0.117,19.986,0.017,29.977
		c0.257,19.203-11.388,26.199-28.779,24.363c-4.747-0.5-9.511-2.506-13.858-4.648c-4.48-2.209-6.326-6.518-6.303-11.59
		c0.053-11.658,0.1-23.316-0.03-34.973c-0.045-4.09,0.081-8.494-5.772-9.324c-0.898-0.127-1.526-2.168-2.782-4.098
		C29.51,367.762,38.314,367.762,47.518,367.762z"/>
	<path fill-rule="evenodd" clip-rule="evenodd" fill="#F9F9F9" d="M355.724,351.742c6.648-5.605,4-12.902,4.255-19.598
		c0.303-7.971,0.076-15.961,0.066-23.943c-0.004-2.768-0.084-5.289-3.998-5.521c-0.909-0.053-1.692-2.244-2.533-3.451
		c0.302-0.508,0.604-1.016,0.905-1.523c13.38,0.508,26.808,0.492,40.123,1.713c8.363,0.766,13.936,8.373,15.192,18.408
		c2.582,20.623-10.636,36.201-30.751,35.215c-7.402-0.363-14.837-0.059-22.257-0.059
		C356.393,352.568,356.058,352.156,355.724,351.742z M372.152,304.348c0,14.365,0,28.412,0,42.779
		c6.891,0.244,13.222,0.721,18.928-4.168c7.022-6.016,7.709-20.039,4.962-27.852C392.738,305.715,384.514,302.334,372.152,304.348z"
		/>
	<path fill-rule="evenodd" clip-rule="evenodd" fill="#F9F9F9" d="M291.907,382.49c0,13.535-0.069,27.156,0.135,40.773
		c0.017,1.061,1.947,2.096,2.996,3.135c1.118,1.107,2.245,2.205,3.368,3.309c-0.291,0.361-0.582,0.723-0.873,1.084
		c-7.632,0-15.264,0-24.613,0c1.756-2.006,2.596-3.889,3.781-4.141c3.105-0.658,3.406-2.523,3.394-5.088
		c-0.062-11.662-0.019-23.326-0.03-34.99c-0.003-2.895,0.131-5.752-4.184-5.84c-0.777-0.016-1.506-2.322-2.771-4.426
		c11.643,0,21.79-0.283,31.911,0.127c4.59,0.188,9.125,1.477,10.893,6.988c1.855,5.787,0.846,10.771-3.225,15.121
		c-1.563,1.67-3.471,3.018-5.949,5.133c5.664,8.666,11.498,17.594,17.641,26.99c-5.545,0-10.451,0-15.703,0
		c-4.765-7.951-9.643-16.135-14.569-24.291c-1.659-2.746-1.641-4.396,2.089-5.242c6.113-1.385,9.836-6.727,8.659-11.742
		C303.451,383.395,299.593,381.232,291.907,382.49z"/>
	<path fill-rule="evenodd" clip-rule="evenodd" fill="#F9F9F9" d="M107.447,353.982c-18.326,1.072-26.817-10.635-27.049-27.273
		c-0.262-18.83,10.434-29.652,28.8-29.588c17.26,0.062,26.602,10.176,26.772,28.465
		C136.131,342.938,125.489,355.324,107.447,353.982z M124.821,326.625c-2.119-6.123-3.363-12.553-6.433-17.941
		c-4.784-8.4-17.528-7.596-21.942,1.006c-5.538,10.791-4.981,21.648,0.71,32.234c4.543,8.449,17.147,9.174,21.992,0.865
		C121.854,338.148,122.833,332.502,124.821,326.625z"/>
	<path fill-rule="evenodd" clip-rule="evenodd" fill="#F9F9F9" d="M301.951,324.914c0.295,10.145-2.059,18.619-10.381,24.76
		c-10.108,7.459-30.893,5.844-38.761-3.828c-7.596-9.338-7.033-20.361-4.224-31.215c2.299-8.883,8.465-14.459,17.428-16.402
		c10.562-2.291,20.92-2.121,29.258,6.033C301.107,309.969,302.359,317.482,301.951,324.914z M290.43,325.256
		c-0.835-3.25-1.715-7.771-3.174-12.098c-2.271-6.736-6.846-10.264-12.445-10.188c-6.293,0.086-11.962,4.367-14.027,10.646
		c-2.739,8.324-2.114,16.613,0.774,24.711c2.194,6.15,8.62,11.344,13.059,10.504c7.742-1.463,12.165-4.164,14.254-12.396
		C289.676,333.258,289.807,329.908,290.43,325.256z"/>
	<path fill-rule="evenodd" clip-rule="evenodd" fill="#F9F9F9" d="M328.342,352.973c-8.498,0-15.479,0.057-22.455-0.078
		c-0.812-0.016-1.604-1.102-2.405-1.691c0.682-0.729,1.284-1.98,2.06-2.1c3.375-0.518,4.148-2.664,4.156-5.596
		c0.032-11.811,0.178-23.623,0.107-35.434c-0.017-2.643-0.414-5.406-4.301-5.467c-0.682-0.012-1.336-1.76-2.004-2.705
		c0.843-0.578,1.683-1.654,2.529-1.662c9.491-0.068,18.996-0.254,28.47,0.176c6.358,0.287,10.216,3.533,11.253,8.105
		c1.508,6.648-0.795,12.791-6.057,16.172c-1.078,0.693-2.146,1.4-3.911,2.555c6.084,9.139,12.017,18.047,18.461,27.727
		c-5.157,0-9.298,0.156-13.413-0.098c-1.207-0.074-2.8-1.037-3.439-2.07c-4.615-7.477-8.862-15.186-13.584-22.592
		c-2.408-3.777-1.547-4.701,2.595-5.174c5.593-0.641,8.684-5.689,7.841-11.844c-0.68-4.977-4.24-7.762-9.412-7.59
		c-2.649,0.086-3.93,1.029-3.91,3.875c0.085,11.785,0.009,23.568,0.055,35.354c0.012,2.961,0.721,5.438,4.283,6.23
		C326.218,349.279,326.842,350.994,328.342,352.973z"/>
	<path fill-rule="evenodd" clip-rule="evenodd" fill="#F9F9F9" d="M188.951,353.539c-6.881,1.863-9.661-2.705-12.697-6.57
		c-8.506-10.832-16.908-21.746-26.223-33.752c0,11.512-0.143,21.719,0.172,31.912c0.042,1.34,2.437,2.592,3.708,3.918
		c0.885,0.922,1.712,1.9,3.339,3.719c-7.146,0-12.764,0-20.27,0c1.727-1.816,2.51-3.402,3.527-3.57
		c3.251-0.533,3.83-2.41,3.807-5.262c-0.096-11.984-0.079-23.971-0.037-35.957c0.01-2.943-0.274-5.24-4.155-5.34
		c-0.845-0.021-1.633-2.205-3.187-4.471c6.452,0,11.249-0.123,16.029,0.102c1.014,0.047,2.182,1.205,2.915,2.137
		c8.753,11.119,17.437,22.291,27.312,33.359c0-2.33,0-4.662,0-6.992c0-5.494,0.041-10.986-0.012-16.48
		c-0.034-3.469,1.25-7.768-4.782-7.742c-0.512,0.002-1.034-2.266-1.935-4.383c6.169,0,11.426-0.061,16.677,0.078
		c0.648,0.018,1.836,1.168,1.777,1.678c-0.109,0.943-0.825,2.451-1.517,2.592c-4.425,0.893-4.497,4.021-4.478,7.535
		C188.996,324.506,188.951,338.965,188.951,353.539z"/>
	<path fill-rule="evenodd" clip-rule="evenodd" fill="#F9F9F9" d="M143.8,380.115c-5.81-0.184-5.997,3.08-5.956,7.029
		c0.137,13.148,0.053,26.301,0.054,39.451c0,1.633,0,3.264,0,5.02c-4.717,0.76-7.92,0.225-10.941-3.926
		c-8.325-11.436-17.324-22.383-26.076-33.506c-0.277-0.354-0.77-0.535-1.902-1.291c0,10.732-0.101,20.926,0.152,31.113
		c0.026,1.045,2.171,2.033,3.323,3.061c0.985,0.879,1.955,1.773,2.931,2.66c-0.307,0.357-0.614,0.715-0.921,1.072
		c-5.623,0-11.245,0-16.868,0c-0.314-0.32-0.628-0.641-0.943-0.961c0.925-0.922,1.939-1.771,2.755-2.783
		c1.291-1.598,3.458-3.277,3.5-4.969c0.304-11.977,0.102-23.967,0.195-35.951c0.03-3.904-1.332-6.082-6.174-5.096
		c-0.107-0.551-0.215-1.102-0.322-1.652c1.229-1.033,2.374-2.805,3.705-2.959c3.614-0.418,7.337-0.42,10.954-0.018
		c1.433,0.158,3.021,1.57,3.991,2.832c7.801,10.15,15.45,20.42,23.223,30.594c0.643,0.842,1.856,1.25,3.522,2.32
		c0-9.719,0.221-18.92-0.22-28.088c-0.073-1.516-3.049-2.889-5.024-4.062c-1.414-2.896,0.341-4.256,3.11-3.609
		C134.499,377.477,140.678,373.262,143.8,380.115z"/>
	<path fill-rule="evenodd" clip-rule="evenodd" fill="#F9F9F9" d="M78.658,344.213c-1.436,2.209-2.357,5.438-4.39,6.463
		c-13.209,6.65-35.023,5.539-45.126-7.344c-8.197-10.453-8.941-22.387-5.576-34.373c3.23-11.5,12.195-17.479,23.675-19.887
		c9.672-2.029,19.083-1.174,28.335,2.162c2.51,0.904,3.822,1.916,2.718,5.094c-1.01,2.904-0.771,6.221-1.447,9.275
		c-0.255,1.15-1.533,2.076-2.344,3.105c-0.816-1.008-2.192-1.932-2.354-3.035c-0.902-6.131-4.301-9.67-10.76-10.727
		c-11.598-1.896-20.666,3.695-24,14.922c-2.725,9.176-1.805,18.086,3.042,26.299c6.262,10.607,18.962,13.779,31.922,8.41
		c1.59-0.66,3.262-1.121,4.896-1.672C77.719,343.342,78.188,343.777,78.658,344.213z"/>
	<path fill-rule="evenodd" clip-rule="evenodd" fill="#F9F9F9" d="M232.164,431.111c6.122-14.816,2.003-29.57,3.072-43.961
		c0.423-5.689,0.027-5.719-6.867-6.969c1.518-1.627,2.521-3.654,3.562-3.674c12.123-0.221,24.252-0.141,37.308-0.141
		c-0.457,4.197-0.75,7.914-1.359,11.578c-0.119,0.719-1.47,1.232-2.252,1.84c-0.516-0.707-1.561-1.504-1.459-2.107
		c0.73-4.361-2.266-4.9-5.305-5.447c-0.813-0.146-1.648-0.201-2.475-0.24c-9.437-0.445-9.437-0.443-9.437,8.812
		c0,2.824,0,5.648,0,8.412c9.062,2.551,12.659,1.328,13.474-4.666c2.98-1.043,4.531-0.482,4.271,3.221
		c-0.238,3.404-0.215,6.846-0.033,10.258c0.152,2.867-0.314,4.707-4.104,3.639c-0.592-3.172-1.038-6.586-5.831-6.75
		c-7.68-0.264-7.776-0.367-7.778,7.365c0,4.127,0,8.254,0,12.801c5.075,0,9.734,0.398,14.253-0.229
		c1.475-0.203,2.54-3.109,3.866-4.719c1.058-1.283,2.226-2.475,3.346-3.707c0.546,0.32,1.093,0.643,1.64,0.963
		c-0.338,4.381-0.674,8.764-1.055,13.721C256.506,431.111,244.526,431.111,232.164,431.111z"/>
	<path fill-rule="evenodd" clip-rule="evenodd" fill="#F9F9F9" d="M358.328,391.41c-0.78-1.188-2.021-2.291-2.254-3.578
		c-0.777-4.289-3.676-6.123-7.461-6.82c-4.234-0.777-7.946,0.309-10.416,4.148c-2.393,3.721-1.473,7.713,2.604,9.492
		c3.612,1.576,7.513,2.49,11.279,3.719c9.491,3.094,12.525,7.561,11.835,17.393c-0.567,8.094-6.787,15.254-15.072,15.9
		c-6.039,0.473-12.223-0.307-18.287-1.004c-3.254-0.375-5.248-1.928-3.866-6.207c0.966-2.988,0.187-6.543,0.187-9.766
		c4.713-1.492,4.776,1.15,5.046,4.023c0.413,4.41,6.371,8.594,11.452,8.293c5.194-0.309,9.547-4.137,9.944-8.688
		c0.275-3.146-0.665-5.576-3.796-6.783c-3.08-1.188-6.109-2.549-9.266-3.484c-11.264-3.332-14.662-8.301-13.164-19.613
		c1.021-7.715,7.656-12.781,17.246-13.164c0.166-0.006,0.336-0.023,0.499,0c4.729,0.664,10.099,0.15,14.03,2.285
		c5.404,2.934-1.091,8.457,1.501,12.656C359.689,390.611,359.009,391.012,358.328,391.41z"/>
	<path fill-rule="evenodd" clip-rule="evenodd" fill="#F9F9F9" d="M438.846,352.631c0.426-1.256,0.628-3.17,1.182-3.279
		c4.361-0.85,4.935-4.602,6.129-7.725c5.137-13.438,10.04-26.965,15.314-40.346c0.568-1.441,2.938-2.848,4.576-2.979
		c1.305-0.105,3.489,1.461,4.048,2.799c5.595,13.416,10.807,26.99,16.447,40.387c1.194,2.836,3.741,5.088,5.572,7.676
		c0.641,0.906,1.002,2.012,1.748,3.562c-8.331,0-15.756,0-24.908,0c1.592-1.729,2.337-3.283,3.387-3.527
		c2.389-0.557,2.838-1.342,2.181-3.777c-2.278-8.436-2.158-8.467-10.97-8.465c-0.998,0-1.997,0-2.995,0
		c-6.156-0.002-9.696,3.32-9.44,9.291c0.041,0.965,1.703,1.951,2.749,2.756c1.073,0.824,2.31,1.438,3.475,2.143
		c-0.225,0.494-0.45,0.99-0.675,1.484C450.942,352.631,445.221,352.631,438.846,352.631z M462.443,315.018
		c-2.107,5.9-3.839,10.748-5.653,15.828c4.34,0,8.052,0,12.202,0c-1.595-4.344-3.031-8.336-4.541-12.303
		C464.117,317.666,463.522,316.889,462.443,315.018z"/>
	<path fill-rule="evenodd" clip-rule="evenodd" fill="#F9F9F9" d="M169.992,376.5c9.43,0,17.376,0,25.353,0
		c2.023,4.66-1.449,4.424-5.316,4.682c4.196,11.25,8.178,21.922,12.718,34.094c4.387-11.941,8.318-22.641,11.918-32.441
		c-3.074-2.133-4.985-3.461-6.897-4.787c0.263-0.578,0.525-1.156,0.788-1.736c5.253,0,10.51-0.109,15.754,0.107
		c0.89,0.037,1.941,1.371,2.452,2.35c0.162,0.309-1.147,1.457-1.862,2.139c-1.219,1.162-3.106,2.018-3.661,3.418
		c-5.638,14.236-11.145,28.525-16.475,42.879c-1.043,2.809-2.614,4.961-5.417,4.391c-1.822-0.369-4.028-2.338-4.743-4.121
		c-5.336-13.295-10.181-26.787-15.594-40.051c-1.043-2.557-3.955-4.326-5.91-6.545C172.145,379.793,171.408,378.516,169.992,376.5z"
		/>
	<path fill-rule="evenodd" clip-rule="evenodd" fill="#F9F9F9" d="M225.8,353.883c-6.885,0.73-13.159-0.844-18.848-4.777
		c-10.253-7.09-14.027-24.5-8.107-37.166c4.142-8.861,11.75-13.24,20.786-14.105c6.925-0.662,14.092,0.635,21.09,1.539
		c3.524,0.455,4.764,3.1,3.928,6.707c-0.519,2.236-0.445,4.613-0.986,6.842c-0.195,0.805-1.406,1.887-2.157,1.891
		c-0.801,0.002-2.355-1.207-2.294-1.74c0.698-6.168-3.5-7.939-8.115-9.354c-6.013-1.84-11.646-0.756-16.085,3.555
		c-7.637,7.414-7.857,16.668-4.988,26.131c2.665,8.785,8.91,13.977,18.079,14.459c3.783,0.199,7.654-1.666,11.52-2.418
		c1.551-0.303,3.194-0.135,4.795-0.18c-0.765,1.834-1.097,4.822-2.37,5.301c-5.162,1.936-10.613,3.098-15.958,4.547
		C225.993,354.703,225.896,354.293,225.8,353.883z"/>
	<path fill-rule="evenodd" clip-rule="evenodd" fill="#F9F9F9" d="M407.313,429.574c1.132-1.098,2.279-2.178,3.391-3.295
		c1.126-1.133,3.156-2.283,3.177-3.455c0.228-13.125,0.144-26.254,0.144-39.709c-4.145,0-7.881,0-10.893,0
		c-1.492,2.871-2.999,7.451-3.966,7.34c-4.118-0.473-1.629-4.359-2.14-6.742c-1.586-7.4-1.438-7.43,6.023-7.43
		c13.465,0.002,26.93,0,40.424,0c-0.225,4.412-0.308,8.352-0.719,12.254c-0.087,0.82-1.272,1.865-2.158,2.139
		c-0.556,0.17-1.91-0.742-2.185-1.449c-0.746-1.924-0.723-5.48-1.692-5.732c-3.115-0.807-6.541-0.418-9.847-0.473
		c-0.132-0.002-0.267,0.162-0.706,0.447c0,13.885,0,27.971,0,42.039c5.312,1.66,5.312,1.66,5.402,5.236c-7.781,0-15.557,0-23.333,0
		C407.929,430.354,407.621,429.963,407.313,429.574z"/>
	<path fill-rule="evenodd" clip-rule="evenodd" fill="#F9F9F9" d="M474.979,400.498c3.886-7.393,7.162-13.617,10.431-19.846
		c2.462-4.695,2.527-4.73,8.984-3.691c-0.712,2.346-1.028,4.799-2.151,6.799c-2.253,4.012-4.641,8.021-7.519,11.592
		c-6.384,7.926-7.791,16.996-6.629,26.645c0.195,1.629,2.129,3.084,3.358,4.537c0.943,1.115,2.042,2.102,3.071,3.145
		c-0.273,0.354-0.546,0.709-0.819,1.064c-7.763,0-15.526,0-23.29,0c-0.298-0.465-0.595-0.932-0.892-1.398
		c1.835-1.361,3.671-2.723,6.313-4.684c1.982-10.018-0.1-20.311-7.064-29.533c-3.488-4.621-5.015-10.977-11.525-13.033
		c-0.239-0.074-0.048-3.768,0.591-4.002c3.383-1.236,7.344-3.238,10.389-2.395c3.084,0.854,5.934,4.344,7.815,7.348
		C469.255,388.176,471.632,393.83,474.979,400.498z"/>
	<path fill-rule="evenodd" clip-rule="evenodd" fill="#F9F9F9" d="M437.364,299.48c-1.058,1.156-2.02,3.172-3.19,3.303
		c-3.062,0.338-3.4,2.066-3.398,4.436c0.014,13.311,0.007,26.619,0.007,39.357c1.232,3.168,7.301,0.756,5.791,5.994
		c-13.549,1.645-22.669,0.746-24.161-2.344c6.636-3.701,6.637-3.701,6.637-11.912c0-9.822-0.037-19.643,0.021-29.465
		c0.019-3.07-0.218-5.648-4.193-6.045c-0.785-0.078-1.77-1.641-1.967-2.654c-0.098-0.502,1.37-1.879,2.15-1.895
		c7.123-0.15,14.251-0.088,21.377-0.088C436.746,298.605,437.056,299.043,437.364,299.48z"/>
	<path fill-rule="evenodd" clip-rule="evenodd" fill="#F9F9F9" d="M169.675,430.785c-7.624,0-15.247,0-22.862,0
		c-0.513-3.664-0.513-3.664,5.285-5.061c0-13.828,0.064-27.779-0.132-41.729c-0.014-1.02-1.898-2.027-2.94-3.012
		c-1.144-1.08-2.319-2.127-3.48-3.189c0.333-0.422,0.666-0.846,0.999-1.27c7.606,0,15.212,0,22.819,0
		c0.357,0.369,0.715,0.738,1.073,1.107c-1.077,1.125-2.214,2.199-3.213,3.391c-1.154,1.375-3.098,2.836-3.126,4.291
		c-0.249,12.48-0.228,24.969-0.006,37.449c0.021,1.221,1.885,2.451,2.973,3.6c1.087,1.148,2.275,2.203,3.419,3.299
		C170.213,430.035,169.944,430.41,169.675,430.785z"/>
	<path fill-rule="evenodd" clip-rule="evenodd" fill="#F9F9F9" d="M369.711,377.26c7.609,0,15.219,0,22.827,0
		c0.278,0.379,0.557,0.758,0.834,1.137c-1.023,0.857-1.951,2.262-3.09,2.461c-2.769,0.484-3.389,1.943-3.37,4.486
		c0.089,12.471,0.093,24.941-0.002,37.412c-0.02,2.604,0.764,3.936,3.461,4.416c1.124,0.199,2.039,1.57,3.05,2.408
		c-0.276,0.396-0.553,0.791-0.829,1.188c-7.602,0-15.203,0-24.21,0c1.31-1.678,2.107-3.535,2.854-3.516
		c3.937,0.107,4.312-2.408,4.323-5.236c0.045-11.971,0.054-23.943,0.02-35.916c-0.007-2.756-0.171-5.406-4.173-5.328
		c-0.841,0.018-1.713-1.574-2.57-2.424C369.127,377.984,369.419,377.621,369.711,377.26z"/>
</g>
<g>
	<path fill="#F9F9F9" d="M32.251,450.77h5.382l3.081,20.592h0.078l3.276-20.592h5.382l3.276,20.592h0.078l3.081-20.592h5.382
		l-5.07,27.846h-6.279l-3.12-20.203h-0.078l-3.12,20.203h-6.279L32.251,450.77z"/>
	<path fill="#F9F9F9" d="M98.044,478.615V450.77h5.616v27.846H98.044z"/>
	<path fill="#F9F9F9" d="M146.599,469.918v0.82c0,2.611,0.741,4.289,3.705,4.289c1.716,0,3.354-1.092,3.354-3.432
		c0-2.535-1.287-3.471-4.992-4.758c-4.992-1.717-7.293-3.783-7.293-8.426c0-5.42,3.315-8.189,8.619-8.189
		c4.992,0,8.62,2.145,8.62,7.488v0.779h-5.382c0-2.613-0.897-4.133-3.042-4.133c-2.535,0-3.198,1.598-3.198,3.236
		c0,1.717,0.507,2.77,2.886,3.783l4.329,1.873c4.212,1.832,5.304,3.977,5.304,7.371c0,5.889-3.588,8.541-9.672,8.541
		c-6.357,0-8.854-2.965-8.854-8.113v-1.131H146.599z"/>
	<path fill="#F9F9F9" d="M208.454,460.168c0-4.057-0.819-5.811-3.354-5.811c-2.847,0-3.51,2.846-3.51,10.725
		c0,8.424,1.17,9.945,3.588,9.945c2.028,0,3.51-1.053,3.51-7.059h5.616c0,6.006-1.481,11.193-8.853,11.193
		c-8.425,0-9.478-6.006-9.478-14.471c0-8.463,1.053-14.469,9.478-14.469c8.034,0,8.619,5.889,8.619,9.945H208.454z"/>
	<path fill="#F9F9F9" d="M260.635,450.223c8.424,0,9.477,6.006,9.477,14.469c0,8.465-1.053,14.471-9.477,14.471
		c-8.425,0-9.478-6.006-9.478-14.471C251.157,456.229,252.21,450.223,260.635,450.223z M260.635,475.027
		c3.314,0,3.86-2.848,3.86-10.336c0-7.449-0.546-10.334-3.86-10.334c-3.315,0-3.861,2.885-3.861,10.334
		C256.773,472.18,257.319,475.027,260.635,475.027z"/>
	<path fill="#F9F9F9" d="M314.143,450.77l6.787,19.07h0.078v-19.07h5.147v27.846h-6.396l-6.865-19.5h-0.077v19.5h-5.148V450.77
		H314.143z"/>
	<path fill="#F9F9F9" d="M368.82,469.918v0.82c0,2.611,0.74,4.289,3.705,4.289c1.716,0,3.354-1.092,3.354-3.432
		c0-2.535-1.287-3.471-4.992-4.758c-4.992-1.717-7.293-3.783-7.293-8.426c0-5.42,3.315-8.189,8.619-8.189
		c4.992,0,8.619,2.145,8.619,7.488v0.779h-5.382c0-2.613-0.897-4.133-3.042-4.133c-2.535,0-3.198,1.598-3.198,3.236
		c0,1.717,0.507,2.77,2.886,3.783l4.329,1.873c4.213,1.832,5.305,3.977,5.305,7.371c0,5.889-3.588,8.541-9.673,8.541
		c-6.356,0-8.853-2.965-8.853-8.113v-1.131H368.82z"/>
	<path fill="#F9F9F9" d="M419.052,478.615V450.77h5.616v27.846H419.052z"/>
	<path fill="#F9F9F9" d="M469.557,450.77l6.787,19.07h0.078v-19.07h5.147v27.846h-6.396l-6.865-19.5h-0.077v19.5h-5.148V450.77
		H469.557z"/>
</g>
<g>
	<path fill-rule="evenodd" clip-rule="evenodd" fill="#F9F9F9" d="M243.868,168.282c-7.389-19.306-17.332-37.534-25.546-56.853
		c4.321-1.273,6.738-0.839,8.342,3.876c4.368,12.837,9.355,25.464,14.131,38.161c0.39,1.035,1.041,1.974,2.762,2.74
		c-0.372-2.767-0.398-5.635-1.175-8.282c-3.074-10.477-6.399-20.88-9.589-31.322c-0.514-1.684-0.813-3.432-1.293-5.501
		c2.154,0,3.746,0,5.667,0c1.655,6.295,3.308,12.581,4.961,18.867c0.47-0.022,0.94-0.045,1.411-0.067c0-6.856,0-13.713,0-20.998
		c-22.8,0-46.628,0-70.456,0c-0.256-0.535-0.513-1.071-0.769-1.606c1.947-1.146,3.884-3.271,5.842-3.291
		c22.816-0.232,45.636-0.148,69.631-0.148c0,44.007,0,87.705,0,131.403c0.629,0.026,1.257,0.054,1.885,0.08
		c0.119-1.817,0.341-3.635,0.342-5.452c0.02-39.665,0.117-79.33-0.102-118.994c-0.031-5.526,1.533-9.637,6.644-13.479
		c0,48.011,0,95.418,0,142.825c0.583,0.05,1.166,0.099,1.749,0.148c0.241-1.932,0.692-3.864,0.694-5.797
		c0.039-44.331,0.243-88.664-0.164-132.992c-0.074-8.061,4.44-12.194,9.705-17.942c0,8.105-0.084,15.029,0.051,21.949
		c0.04,2.04-1.199,4.689,2.321,5.76c0.595,0.181,0.409,3.64,0.226,5.55c-0.793,8.214-1.743,16.413-2.567,24.624
		c-0.109,1.088,0.175,2.216,1.099,3.461c2.113-8.566,4.229-17.133,6.339-25.701c0.354-1.441,0.678-2.891,1.037-4.332
		c1.04-4.173,1.044-4.172,6.526-3.408c-5.252,17.296-10.479,34.507-15.706,51.717c0.725,0.247,1.45,0.493,2.175,0.74
		c2.004-5.205,4.062-10.391,6.003-15.618c4.087-11.008,8.335-21.965,12.056-33.096c1.479-4.427,3.816-5.145,8.447-3.739
		c-9.007,20.24-17.908,40.241-26.809,60.242c0.348,0.2,0.695,0.4,1.043,0.602c0.835-1.397,1.74-2.758,2.495-4.197
		c9.252-17.645,18.483-35.301,27.716-52.955c1.998-3.82,6.908-6,10.68-4.166c1.078,0.524,1.725,2.936,1.74,4.489
		c0.127,13.498,0.061,26.998,0.059,40.497c-0.002,14.833,0.133,29.668-0.138,44.496c-0.042,2.253-1.354,5.303-3.103,6.576
		c-16.398,11.935-33.061,23.505-49.537,35.332c-2.905,2.086-5.019,2.036-7.945-0.033c-16.572-11.711-33.252-23.27-49.988-34.746
		c-2.632-1.806-3.655-3.796-3.643-6.989c0.102-28.33,0.029-56.66,0.092-84.99c0.004-1.655,0.733-3.309,1.223-5.38
		c1.211,0.92,1.702,1.136,1.686,1.302c-0.956,9.611,5.575,15.907,10.316,22.892c8.665,12.765,17.601,25.345,26.469,37.971
		c0.982,1.397,2.259,2.587,3.399,3.873c0.392-0.288,0.784-0.576,1.176-0.864c-13.028-21.195-26.057-42.391-39.146-63.686
		c6.627-1.937,7.203-1.688,10.012,3.741c9.211,17.8,18.437,35.594,27.656,53.39C242.622,168.733,243.245,168.507,243.868,168.282z
		 M244.025,231.375c0-7.185-0.143-13.188,0.053-19.18c0.121-3.705-1.353-5.237-4.977-4.839c-7.308,0.804-14.637,1.52-21.45,5.733
		C226.315,219.097,234.752,224.946,244.025,231.375z M308.638,114.861c-12.111,19.95-24.222,39.9-36.332,59.85
		c0.514,0.323,1.027,0.646,1.541,0.97c11.08-15.909,21.997-31.935,33.345-47.649C310.25,123.794,310.321,119.724,308.638,114.861z
		 M242.31,178.75c-0.16,0.201-0.319,0.402-0.479,0.604c-12.744-15.887-25.488-31.773-38.643-48.173
		c-1.213,7.426-1.159,7.375,2.709,11.569c6.194,6.716,12.062,13.753,18.531,20.191C230.057,168.544,236.324,173.505,242.31,178.75z
		 M278.565,172.75c0.305,0.285,0.609,0.57,0.914,0.855c1.237-1.183,2.52-2.322,3.706-3.554c7.91-8.214,15.671-16.576,23.764-24.604
		c2.971-2.947,3.756-5.909,2.345-10.901C298.696,147.721,288.631,160.236,278.565,172.75z M276.29,181.248
		c1.344,0.271,1.798,0.502,1.949,0.374c10.145-8.545,20.342-17.028,30.284-25.803c1.243-1.098,1.12-3.742,1.631-5.67
		c-0.427-0.124-0.853-0.249-1.278-0.373C298.165,160.121,287.453,170.465,276.29,181.248z M239.803,182.231
		c-12.081-11.373-24.161-22.746-36.855-34.697C202.938,152.452,231.3,179.41,239.803,182.231z M203.884,159.973
		c-0.667,0.438-1.334,0.874-2.002,1.312c1.219,1.711,2.089,3.934,3.717,5.044c7.821,5.333,15.831,10.39,23.816,15.477
		c1.29,0.822,2.796,1.305,4.202,1.944c0.223-0.369,0.446-0.738,0.669-1.107C224.152,175.085,214.018,167.53,203.884,159.973z
		 M270.02,217.01c0,4.619,0,8.916,0,14.062c5.339-3.965,9.944-7.384,15.065-11.188C279.499,218.819,274.855,217.933,270.02,217.01z
		 M277.518,185.071c0.341,0.467,0.683,0.934,1.023,1.4c10.075-6.643,20.187-13.229,30.16-20.02c0.892-0.606,0.889-2.527,1.301-3.837
		c-0.388-0.229-0.774-0.456-1.162-0.685C298.399,169.644,287.958,177.357,277.518,185.071z M310.312,171.561
		c-0.365-0.393-0.732-0.785-1.098-1.178c-8.85,5.357-17.697,10.716-26.547,16.073c0.298,0.525,0.596,1.05,0.893,1.575
		c8.469-4.38,16.967-8.704,25.355-13.23C309.727,174.364,309.862,172.671,310.312,171.561z M202.36,168.478
		c0.359,2.737,0.128,4.502,0.704,4.823c7.102,3.967,14.322,7.724,21.511,11.534c0.331-0.554,0.662-1.107,0.992-1.66
		C218.241,178.536,210.916,173.896,202.36,168.478z M310.216,180.861c-0.334-0.727-0.669-1.453-1.004-2.18
		c-8.34,3.858-16.681,7.717-25.021,11.575c0.195,0.422,0.389,0.844,0.584,1.267C293.145,187.73,302.431,185.927,310.216,180.861z
		 M309.111,194.445c-0.107-0.664-0.215-1.329-0.322-1.993c-6.469,1.04-12.937,2.08-19.405,3.12c0.104,0.638,0.206,1.276,0.309,1.914
		C296.165,196.472,302.639,195.458,309.111,194.445z M310.078,187.631c-0.218-0.681-0.435-1.362-0.652-2.044
		c-6.236,2.042-12.473,4.083-18.71,6.124c0.145,0.469,0.289,0.938,0.433,1.406C297.458,191.289,303.769,189.46,310.078,187.631z
		 M202.87,184.333c0,2.809,0,4.821,0,7.262c2.682-1.238,4.903-2.263,7.877-3.636C207.752,186.582,205.581,185.582,202.87,184.333z
		 M217.449,185.953c0.129-0.498,0.259-0.996,0.388-1.495c-4.815-1.802-9.63-3.604-14.444-5.407
		c-0.153,0.452-0.306,0.903-0.459,1.355C207.827,182.098,212.036,185.729,217.449,185.953z"/>
	<path fill-rule="evenodd" clip-rule="evenodd" fill="#F9F9F9" d="M188.564,111.079c2.101,0,4.051,0,6.485,0
		c0.135,2.302,0.363,4.408,0.365,6.515c0.026,28.481,0.068,56.963-0.039,85.444c-0.013,3.323,0.942,5.409,3.766,7.377
		c18.371,12.803,36.56,25.866,54.932,38.668c1.19,0.829,3.929,0.929,5.063,0.124c18.544-13.146,36.998-26.421,55.283-39.924
		c1.575-1.163,2.549-4.132,2.562-6.269c0.167-28.48,0.112-56.962,0.114-85.443c0-1.972,0-3.944,0-6.312c2.519,0,4.58,0,7.422,0
		c0,1.689-0.001,3.454,0,5.218c0.006,30.146-0.057,60.294,0.105,90.44c0.02,3.797-1.26,5.968-4.323,8.129
		c-20.05,14.142-40.021,28.402-59.803,42.914c-3.073,2.256-4.985,2.076-7.763,0.09c-20.643-14.758-41.377-29.388-61.974-44.209
		c-1.366-0.982-2.605-3.203-2.612-4.853c-0.127-32.145-0.063-64.289-0.025-96.434C188.124,112.243,188.302,111.931,188.564,111.079z
		"/>
	<path fill-rule="evenodd" clip-rule="evenodd" fill="#F9F9F9" d="M349.424,80.828c-5.054,7.233-9.563,12.21-19.147,11.675
		c-17.764-0.993-35.623-0.229-53.443-0.335c-2.15-0.013-5.498,1.387-5.746-2.73c-0.226-3.759,0.095-7.479,4.355-9.05
		c1.357-0.5,2.945-0.518,4.428-0.515c21.483,0.05,42.967,0.127,64.449,0.247C345.841,80.128,347.361,80.531,349.424,80.828z"/>
	<path fill-rule="evenodd" clip-rule="evenodd" fill="#F9F9F9" d="M186.706,91.816c4.959-7.118,8.921-12.602,18.711-12.139
		c20.408,0.967,40.894,0.293,61.239,0.293c-3.025,8.18-8.572,12.242-17.128,12.249c-18.971,0.017-37.942,0.016-56.913-0.01
		C190.871,92.208,189.126,91.984,186.706,91.816z"/>
	<path fill-rule="evenodd" clip-rule="evenodd" fill="#F9F9F9" d="M255.494,94.453c-2.62,4.125-5.103,7.076-10.544,7.009
		c-20.135-0.25-40.274-0.06-60.413-0.059c-1.608,0-3.216-0.187-5.32-0.317c2.104-4.849,5.208-6.774,10.133-6.734
		c19.637,0.163,39.275,0.088,58.914,0.101C250.516,94.454,252.768,94.453,255.494,94.453z"/>
	<path fill-rule="evenodd" clip-rule="evenodd" fill="#F9F9F9" d="M335.638,94.937c-1.99,4.787-4.819,6.684-9.979,6.572
		c-16.598-0.358-33.208-0.156-49.813-0.059c-2.803,0.017-4.401-0.589-4.343-3.799c0.052-2.792,1.209-3.784,3.938-3.754
		c19.422,0.22,38.846,0.353,58.269,0.533C334.183,94.435,334.655,94.671,335.638,94.937z"/>
	<path fill-rule="evenodd" clip-rule="evenodd" fill="#F9F9F9" d="M268.771,28.63c0.273,2.052,0.576,3.28,0.58,4.51
		c0.035,12.132,0.152,24.266-0.098,36.393c-0.047,2.252-1.094,5.014-2.656,6.547c-1.386,1.36-4.127,1.341-6.27,1.931
		c-0.432-1.649-1.214-3.293-1.238-4.948c-0.127-8.474,0.641-17.025-0.254-25.406C257.909,38.981,263.013,34.388,268.771,28.63z"/>
	<path fill-rule="evenodd" clip-rule="evenodd" fill="#F9F9F9" d="M327.847,105.513c-1.887,0.944-3.762,2.683-5.661,2.709
		c-15.777,0.221-31.56,0.167-47.339,0.039c-1.084-0.009-2.158-1.272-3.237-1.952c0.946-0.812,1.888-2.324,2.841-2.331
		c17.586-0.143,35.173-0.104,52.76-0.104C327.422,104.42,327.634,104.966,327.847,105.513z"/>
	<path fill-rule="evenodd" clip-rule="evenodd" fill="#F9F9F9" d="M256.735,44.392c0,10.391,0.084,20.783-0.147,31.169
		c-0.021,0.904-2.11,2.437-3.252,2.448c-1.086,0.011-3.112-1.56-3.14-2.483c-0.245-8.139-0.526-16.317,0.096-24.416
		c0.196-2.552,3.091-4.896,4.75-7.334C255.606,43.982,256.171,44.187,256.735,44.392z"/>
	<path fill-rule="evenodd" clip-rule="evenodd" fill="#F9F9F9" d="M247.583,54.296c0,6.766,0.075,13.533-0.085,20.296
		c-0.022,0.958-1.186,1.89-1.822,2.833c-0.546-1.017-1.531-2.02-1.564-3.053c-0.164-5.129-0.236-10.272,0.011-15.394
		c0.083-1.732,1.2-3.415,1.845-5.121C246.506,54.004,247.044,54.15,247.583,54.296z"/>
</g>
<rect x="-341.428" fill="#B0C19F" width="57.143" height="57.143"/>
<rect x="-284.285" fill="#A0B091" width="57.143" height="57.143"/>
<rect x="-227.143" fill="#909F84" width="57.143" height="57.143"/>
<rect x="-341.428" y="57.143" fill="#D5E7BF" width="57.143" height="57.143"/>
<rect x="-341.428" y="376.082" fill="#C1D2AF" width="57.143" height="57.143"/>
<rect x="-284.285" y="57.143" fill="#C2D3AE" width="57.143" height="57.143"/>
<rect x="-227.143" y="57.142" fill="#808E76" width="57.143" height="57.143"/>
<rect x="-170" y="57.142" fill="#707D68" width="57.143" height="57.143"/>
<rect x="-341.428" y="138.596" fill="#F9F9F9" width="57.143" height="57.142"/>
<rect x="-341.428" y="296.215" fill="#E1E2E3" width="57.143" height="57.143"/>
<rect x="-284.285" y="138.596" fill="#DCDEDC" width="57.143" height="57.142"/>
<rect x="-227.143" y="138.596" fill="#DFEBEE" width="57.143" height="57.142"/>
<rect x="-227.143" y="195.738" fill="#A6B0B4" width="57.143" height="57.143"/>
<rect x="-170" y="195.738" fill="#939DA1" width="57.143" height="57.143"/>
<rect x="-227.143" y="253.27" fill="#173139" width="57.143" height="57.143"/>
<rect x="-341.428" y="195.738" fill="#496F7C" width="57.143" height="57.143"/>
<rect x="-284.285" y="195.738" fill="#2A4751" width="57.143" height="57.143"/>
</svg>
