<?xml version="1.0" encoding="utf-8"?>
<!-- Generator: Adobe Illustrator 16.0.0, SVG Export Plug-In . SVG Version: 6.00 Build 0)  -->
<!DOCTYPE svg PUBLIC "-//W3C//DTD SVG 1.1//EN" "http://www.w3.org/Graphics/SVG/1.1/DTD/svg11.dtd">
<svg version="1.1" id="icon-facebook_xA0_Image_1_" xmlns="http://www.w3.org/2000/svg" xmlns:xlink="http://www.w3.org/1999/xlink"
	 x="0px" y="0px" width="512px" height="512px" viewBox="0 0 512 512" enable-background="new 0 0 512 512" xml:space="preserve">
<path fill="#FAFBFC" d="M256,4.216C116.944,4.216,4.217,116.943,4.217,256S116.944,507.784,256,507.784
	c139.057,0,251.783-112.729,251.783-251.785S395.057,4.216,256,4.216z M336.965,142.446c-0.001,1.141-0.105,2.282-0.194,4.119
	c-10.654,0-20.805-0.052-30.954,0.03c-3.15,0.025-6.333,0.191-9.44,0.679c-8.192,1.283-11.601,4.536-11.937,12.601
	c-0.429,10.313-0.149,20.656-0.174,30.987c-0.004,1.643,0,3.286,0,5.437c17.41,0,34.482,0,52.528,0
	c-3.204,21.107-6.312,41.568-9.454,62.262c-14.568,0-28.518,0-42.902,0c0,55.739,0,111.149,0,167.056c-24.604,0-48.772,0-73.44,0
	c0-55.569,0-110.993,0-166.949c-12.215,0-23.953,0-35.997,0c0-20.94,0-41.346,0-62.155c11.902,0,23.52,0,35.648,0
	c0.125-2.314,0.313-4.255,0.323-6.195c0.077-15.328-0.321-30.673,0.272-45.979c0.989-25.533,15.996-44.79,39.389-52.552
	c9.426-3.127,19.697-4.574,29.663-5.017c17.293-0.768,34.647-0.156,51.976-0.128c2.354,0.004,4.744-0.362,4.729,3.319
	C336.924,107.455,336.973,124.95,336.965,142.446z"/>
<rect x="679.572" y="242.596" fill="#FAFBFC" width="57.143" height="57.142"/>
</svg>
