<?xml version="1.0" encoding="utf-8"?>
<!-- Generator: Adobe Illustrator 16.0.0, SVG Export Plug-In . SVG Version: 6.00 Build 0)  -->
<!DOCTYPE svg PUBLIC "-//W3C//DTD SVG 1.1//EN" "http://www.w3.org/Graphics/SVG/1.1/DTD/svg11.dtd">
<svg version="1.1" id="Layer_1" xmlns="http://www.w3.org/2000/svg" xmlns:xlink="http://www.w3.org/1999/xlink" x="0px" y="0px"
	 width="517.777px" height="531.111px" viewBox="0 0 517.777 531.111" enable-background="new 0 0 517.777 531.111"
	 xml:space="preserve">
<g>
	<path fill="#FAFBFC" d="M237.488,317.457c-10.679-8.464-23.091-12.064-40.803-12.864c-15.899,0.04-34.313,4.755-48.358,20.369
		c-12.849,14.284-12.013,33.073,1.816,46.352c10.594,10.172,23.725,14.52,38.025,15.272c19.888,1.048,38.023-3.828,52.476-18.306
		C256.235,352.661,254.77,331.153,237.488,317.457z"/>
	<path fill="#FAFBFC" d="M223.363,229.241c3.318-7.032,4.495-15.075,6.646-22.658c-0.418-0.132-0.837-0.264-1.255-0.395
		c-0.403-16.739-5.645-31.613-17.291-43.902c-18.841-19.881-44.233-13.778-52.029,12.437c-2.669,8.978-2.863,18.094-0.98,27.181
		c3.209,15.492,10.059,28.926,23.464,38.119C197.452,250.676,215.321,246.287,223.363,229.241z"/>
	<path fill="#FAFBFC" d="M258.889,13.772C119.833,13.772,7.105,126.5,7.105,265.556c0,139.056,112.728,251.784,251.783,251.784
		c139.057,0,251.783-112.729,251.783-251.784C510.672,126.5,397.945,13.772,258.889,13.772z M243.299,392.426
		c-14.051,7.244-28.943,10.646-44.602,12.059c-17.452,1.574-34.489,0.101-51.047-5.348c-17.5-5.758-31.792-15.698-36.638-34.637
		c-5.917-23.121,0.832-43.883,22.705-56.237c14.119-7.975,29.552-11.521,45.502-13.121c6.931-0.695,13.901-0.991,22.35-1.57
		c-1.809-3.538-2.65-7.431-5.062-9.426c-4.806-3.976-6.313-8.566-5.763-14.428c0.275-2.933,0.048-5.915,0.048-8.803
		c-7.801-0.69-15.186-0.633-22.256-2.092c-32.728-6.756-44.872-29.143-43.601-59.307c1.393-33.066,24.143-50.991,52.229-58.138
		c10.321-2.626,21.247-3.576,31.938-3.891c20.145-0.594,40.32-0.171,60.483-0.171c1.639,0,3.276,0,5.385,0
		c-0.312,5.055-3.718,6.199-6.8,6.873c-7.409,1.622-14.936,2.7-22.395,4.109c-1.488,0.281-2.883,1.06-5.021,1.877
		c1.923,1.237,2.986,1.993,4.115,2.634c8.372,4.76,14.526,11.55,15.56,21.239c1.208,11.323,2.263,22.859,1.412,34.155
		c-1.1,14.582-10.466,24.976-21.251,34.107c-4.672,3.956-9.335,8.051-13.29,12.69c-4.242,4.978-4.412,9.479,0.05,14.352
		c5.799,6.335,12.655,11.689,18.892,17.639c6.01,5.733,12.391,11.214,17.599,17.627
		C284.562,330.126,276.949,375.076,243.299,392.426z M415.17,204.812c-17.144,0-34.067,0-51.694,0c0,2.288,0,4.053,0,5.818
		c0,13.665-0.205,27.333,0.114,40.989c0.107,4.593-1.404,5.891-5.687,5.423c-2.932-0.32-5.928-0.062-9.421-0.062
		c0-17.325,0-34.227,0-51.841c-17.539,0-34.574,0-51.873,0c0-5.48,0-10.246,0-15.673c17.061,0,34.112,0,51.594,0
		c0-17.576,0-34.503,0-52.118c4.534,0,8.669-0.281,12.714,0.199c1.003,0.119,2.427,2.696,2.446,4.16
		c0.188,13.829,0.112,27.66,0.112,41.491c0,1.809,0,3.617,0,6.347c17.57,0,34.488,0,51.694,0
		C415.17,194.817,415.17,199.55,415.17,204.812z"/>
</g>
<rect x="771.175" y="265.556" fill="#FAFBFC" width="57.143" height="57.143"/>
</svg>
