<?xml version="1.0" encoding="utf-8"?>
<!-- Generator: Adobe Illustrator 16.0.0, SVG Export Plug-In . SVG Version: 6.00 Build 0)  -->
<!DOCTYPE svg PUBLIC "-//W3C//DTD SVG 1.1//EN" "http://www.w3.org/Graphics/SVG/1.1/DTD/svg11.dtd">
<svg version="1.1" id="Layer_1" xmlns="http://www.w3.org/2000/svg" xmlns:xlink="http://www.w3.org/1999/xlink" x="0px" y="0px"
	 width="150px" height="150px" viewBox="0 0 150 150" enable-background="new 0 0 150 150" xml:space="preserve">
<circle fill="#F9F9FA" cx="75" cy="75" r="72.5"/>
<g>
	<g>
		<path fill="#314752" d="M75.944,71.065c11.673-6.549,25.373-6.091,36.249,0.014C97.841,49.436,69.005,42.207,45.996,55.124
			C29.653,64.299,20.452,80.98,20.433,98.476c9.972-9.062,24.493-14.779,40.671-14.779c16.285,0,30.894,5.795,40.871,14.964h18.596
			c0-0.022,0-0.044,0.001-0.063c-0.01-0.039,5.942,0.034,9.454,0.063h2.514C127.783,78.789,95.816,66.312,75.944,71.065z"/>
		<path fill="#526E7D" d="M124.284,85.106c-11.968-11.544-33.519-17.587-48.34-14.041c11.673-6.549,25.373-6.091,36.249,0.014
			c-1.496-2.255-3.157-4.345-4.945-6.282c-11.746-3.695-25.247-4.033-35.328-0.661c-15.832,5.297-44.636,19.875-51.33,34.191
			c9.967-8.978,24.422-14.631,40.513-14.631c10.077,0,19.505,2.224,27.603,6.083l31.028-4.033c-0.004-0.023-0.009-0.046-0.01-0.063
			C119.718,85.66,121.836,85.401,124.284,85.106z"/>
	</g>
</g>
<rect x="175.738" y="2.5" fill="#F9F9FA" width="57.143" height="57.143"/>
<rect x="232.881" y="2.5" fill="#DCDEDD" width="57.143" height="57.143"/>
<rect x="290.023" y="2.5" fill="#E3EBEF" width="57.143" height="57.143"/>
<rect x="290.023" y="59.643" fill="#A9B0B5" width="57.143" height="57.143"/>
<rect x="290.023" y="117.174" fill="#1E303A" width="57.143" height="57.143"/>
<rect x="175.738" y="59.643" fill="#526E7D" width="57.143" height="57.143"/>
<rect x="232.881" y="59.643" fill="#314752" width="57.143" height="57.143"/>
</svg>
