<?xml version="1.0" encoding="utf-8"?>
<!-- Generator: Adobe Illustrator 16.0.0, SVG Export Plug-In . SVG Version: 6.00 Build 0)  -->
<!DOCTYPE svg PUBLIC "-//W3C//DTD SVG 1.1//EN" "http://www.w3.org/Graphics/SVG/1.1/DTD/svg11.dtd">
<svg version="1.1" id="concordia-logo_x28_blue_x29__xA0_Image_1_"
	 xmlns="http://www.w3.org/2000/svg" xmlns:xlink="http://www.w3.org/1999/xlink" x="0px" y="0px" width="512px" height="511px"
	 viewBox="0 0 512 511" enable-background="new 0 0 512 511" xml:space="preserve">
<rect x="-341.428" fill="#B0C19F" width="57.143" height="57.143"/>
<rect x="-284.285" fill="#A0B091" width="57.143" height="57.143"/>
<rect x="-227.143" fill="#909F84" width="57.143" height="57.143"/>
<rect x="-341.428" y="57.143" fill="#D5E7BF" width="57.143" height="57.143"/>
<rect x="-341.428" y="376.082" fill="#C1D2AF" width="57.143" height="57.143"/>
<rect x="-284.285" y="57.143" fill="#C2D3AE" width="57.143" height="57.143"/>
<rect x="-227.143" y="57.142" fill="#808E76" width="57.143" height="57.143"/>
<rect x="-170" y="57.142" fill="#707D68" width="57.143" height="57.143"/>
<rect x="-341.428" y="138.596" fill="#F9F9F9" width="57.143" height="57.142"/>
<rect x="-341.428" y="296.215" fill="#E1E2E3" width="57.143" height="57.143"/>
<rect x="-284.285" y="138.596" fill="#DCDEDC" width="57.143" height="57.142"/>
<rect x="-227.143" y="138.596" fill="#DFEBEE" width="57.143" height="57.142"/>
<rect x="-227.143" y="195.738" fill="#A6B0B4" width="57.143" height="57.143"/>
<rect x="-170" y="195.738" fill="#939DA1" width="57.143" height="57.143"/>
<rect x="-227.143" y="253.27" fill="#173139" width="57.143" height="57.143"/>
<rect x="-341.428" y="195.738" fill="#496F7C" width="57.143" height="57.143"/>
<rect x="-284.285" y="195.738" fill="#2A4751" width="57.143" height="57.143"/>
<g>
	<path fill-rule="evenodd" clip-rule="evenodd" fill="#F9F9F9" d="M-751.527,133.696c12.703-31.996,25.952-63.789,37.857-96.075
		c5.082-13.784,16.095-20.734,26.656-28.565c1.859-1.381,6.504-1.065,8.6,0.345c5.225,3.505,9.617,8.229,14.575,12.172
		c1.552,1.234,3.851,1.529,5.808,2.255c0.18-2.289,1.051-4.795,0.403-6.816c-1.608-5.03-3.74-9.917-5.973-14.715
		c-2.92-6.276-0.804-10.901,4.521-14.304c4.453-2.846,9.321-5.042,13.777-7.885c1.475-0.938,2.243-2.989,3.333-4.531
		c-1.711-0.811-3.44-2.354-5.13-2.315c-11.7,0.284-23.394,0.948-35.09,1.35c-1.777,0.063-3.578-0.576-5.261-1.419
		c14.663-2.893,18.214-12.006,9.926-26.534c5.628-7.153,12.621-11.606,22.212-11.391c7.193,0.163,14.404,0.248,21.592-0.032
		c6.264-0.245,7.564,2.519,5.514,7.815c-2.197,5.672-4.688,11.238-6.623,16.993c-0.629,1.872,0.078,4.197,0.174,6.316
		c1.961-0.609,4.533-0.622,5.793-1.914c18.428-18.889,19.721-18.885,39.274,0.058c1.311,1.27,3.871,1.257,5.846,1.839
		c0.104-2.119,0.824-4.446,0.191-6.321c-1.936-5.758-4.326-11.374-6.666-16.991c-2.281-5.475-0.875-7.825,5.352-7.799
		c35.454,0.144,70.913-0.025,106.37,0.15c10.186,0.049,14.443,6.52,10.74,16.078c-13.127,33.85-26.435,67.631-39.678,101.436
		c-3.383,8.633-7.119,17.143-10.042,25.918c-1.374,4.128-3.4,5.391-7.449,5.209c-14.089-0.638-28.188-1.197-42.287-1.445
		c-2.529-0.046-5.085,1.531-7.628,2.356c1.872,1.863,3.737,3.724,5.625,5.574c0.177,0.17,0.486,0.203,0.724,0.319
		c18.608,9.271,19.577,12.233,11.654,31.253c-1.422,3.418-1.109,7.558-1.596,11.36c3.104-2.062,6.306-4.005,9.287-6.231
		c4.56-3.405,8.966-7.005,14.201-11.126c1.623,22.496-14.936,34.156-43.489,31.064c3.138-1.693,5.229-2.495,6.89-3.824
		c1.447-1.164,2.408-2.93,3.587-4.428c-1.668-0.871-3.327-2.498-5.001-2.512c-24.188-0.15-48.382-0.13-72.57,0.051
		c-1.689,0.014-3.366,1.609-5.049,2.477c1.188,1.496,2.165,3.26,3.621,4.434c1.582,1.268,3.61,1.998,7.468,4.022
		c-4.544,0.267-6.973,0.527-9.405,0.527c-29.057,0.026-58.119,0.233-87.17-0.202c-5.176-0.076-10.31-2.865-15.463-4.402
		C-751.527,140.094-751.527,136.891-751.527,133.696z M-710.502,132.327c0.842,0.801,1.685,1.602,2.528,2.402
		c2.66-1.888,5.531-3.528,7.94-5.69c16.821-15.092,17.068-15.34,34.346,0.494c0.386,0.358,0.595,1.036,1.028,1.199
		c2.392,0.911,4.833,1.712,7.255,2.552c-0.245-2.318,0.105-4.908-0.823-6.907c-10.586-22.711-10.173-23.915,12.279-35.928
		c1.709-0.911,2.63-3.295,3.92-4.993c-2.171-0.912-4.343-2.573-6.521-2.58c-5.019-0.02-10.052,1.205-15.065,1.134
		c-18.286-0.275-36.562-0.964-54.844-1.218c-1.912-0.033-3.849,1.765-5.769,2.708c1.322,1.68,2.344,3.796,4.03,4.936
		c3.28,2.201,7.087,3.621,10.405,5.781c9.499,6.193,10.146,8.171,6.254,18.757C-705.689,120.823-708.168,126.546-710.502,132.327z
		 M-491.005-25.196c-2.708-1.002-3.201-1.344-3.696-1.348c-25.242-0.152-50.485-0.321-75.727-0.293
		c-1.481,0-2.966,1.641-4.447,2.517c1.38,1.563,2.454,3.74,4.184,4.597c21.588,10.674,22.66,13.907,12.221,35.894
		c-0.99,2.083-0.121,5.049-0.115,7.601c2.331-1.068,5.243-1.578,6.904-3.294c16.109-16.608,20.595-16.632,36.481-0.14
		c1.677,1.742,4.521,2.357,6.826,3.497c-0.006-2.598,0.829-5.576-0.146-7.729c-10.42-22.977-10.043-24.165,12.24-35.845
		C-494.422-20.713-493.189-22.881-491.005-25.196z M-636.631,74.797c0.489,0.678,0.978,1.354,1.468,2.03
		c2.41-1.08,5.125-1.77,7.162-3.338c4.203-3.23,8.066-6.909,12.033-10.444c4.58-4.083,9.142-3.73,13.624,0.064
		c3.844,3.269,7.43,6.869,11.459,9.877c1.982,1.484,4.718,1.966,7.109,2.903c-0.07-2.304,0.388-4.792-0.322-6.888
		c-1.523-4.505-3.542-8.855-5.544-13.178c-3.128-6.765-1.179-11.847,4.96-15.555c5.618-3.399,11.314-6.667,18.936-11.14
		c-3.523-1.793-5.791-4.034-7.783-3.803c-23.882,2.741-47.716,2.79-71.583-0.116c-1.648-0.201-3.537,1.565-5.311,2.422
		c1.158,1.757,1.943,4.075,3.555,5.163c3.494,2.359,7.602,3.802,11.114,6.136c9.31,6.192,9.804,7.836,6,18.363
		C-631.881,63.195-634.33,68.97-636.631,74.797z M-524.176-41.19c0.049-7.845-3.641-13.383-9.148-13.725
		c-5.529-0.348-10.315,6-10.279,13.637c0.033,7.377,4.3,13.175,9.766,13.269C-528.286-27.917-524.229-33.458-524.176-41.19z
		 M-524.188,68.117c0.037-7.917-3.731-13.138-9.517-13.191c-5.855-0.052-9.854,5.183-9.898,12.97
		c-0.05,7.917,3.767,13.061,9.678,13.054C-527.747,80.95-524.225,76.308-524.188,68.117z M-619.254,121.76
		c0,7.592,4.111,13.341,9.607,13.432c5.31,0.084,10.101-6.1,10.128-13.08c0.026-7.613-4.717-14.045-10.19-13.811
		C-615.215,108.542-619.254,114.232-619.254,121.76z M-599.526,10.708c-0.08-6.979-4.963-13.135-10.247-12.924
		c-5.564,0.222-9.504,5.883-9.426,13.542c0.078,7.583,4.199,13.315,9.617,13.372C-604.132,24.756-599.438,18.222-599.526,10.708z
		 M-673.147,68.957c0.163-6.94-4.313-13.197-9.721-13.6c-5.462-0.397-10.045,5.266-10.339,12.781
		c-0.279,7.245,4.574,14.142,9.946,14.114C-678.17,82.239-673.312,75.845-673.147,68.957z"/>
	<g>
		<path fill-rule="evenodd" clip-rule="evenodd" fill="#F9F9F9" d="M-418.856,283.805c-1.924,2.889-3.966,5.705-5.752,8.676
			c-6.264,10.439-12.501,20.895-18.589,31.439c-0.967,1.674-1.523,3.82-1.553,5.756c-0.149,10.434-0.067,20.869-0.067,31.309
			c0,0.961,0,1.918,0,3.02c-4.679,0-9.064,0-13.719,0c-0.078-1.441-0.217-2.799-0.217-4.15c-0.02-10.039,0.114-20.084-0.105-30.123
			c-0.053-2.4-0.803-5.031-2.001-7.113c-5.442-9.473-11.314-18.699-16.715-28.193c-2.816-4.945-6.664-7.656-12.49-7.859
			c0,4.826,0,9.67,0,14.736c-1.291,0-2.693,0-4.425,0c0-1.166,0.058-2.322-0.01-3.471c-0.274-4.635-3.785-8.055-8.371-8.107
			c-3.795-0.045-7.595-0.01-11.604-0.01c0,24.844,0,49.428,0,74.426c-4.396,0-8.588,0.092-12.772-0.113
			c-0.533-0.031-1.403-1.641-1.413-2.521c-0.101-9.549-0.062-19.1-0.062-28.648c0-14.271,0-28.537,0-43.541
			c-4.804,0.309-9.491,0.217-14.025,1.014c-3.747,0.664-5.127,4.148-5.343,7.541c-0.223,3.516-2.055,3.352-4.41,2.918
			c0-6.021,0-11.889,0-18.164c1.414,0,2.554,0,3.693,0c25.696,0,51.393,0.057,77.091-0.08c2.875-0.018,4.352,0.902,5.697,3.328
			c5.352,9.623,10.901,19.129,16.397,28.674c0.462,0.809,1.043,1.553,1.701,2.523c5.709-9.639,11.57-18.84,16.682-28.441
			c2.486-4.672,5.332-7.045,10.612-6.02c0.572,0.111,1.18,0.016,1.77,0.016C-418.856,283.016-418.856,283.41-418.856,283.805z"/>
		<path fill-rule="evenodd" clip-rule="evenodd" fill="#F9F9F9" d="M-750.333,281.443c3.274,1.121,6.631,2.062,9.814,3.404
			c6.817,2.861,10.891,8.439,13.093,15.143c3.693,11.248,4.016,22.854,2.641,34.578c-0.861,7.352-2.438,14.361-7.069,20.387
			c-4.034,5.236-9.434,7.838-15.781,9.348c-6.915,1.645-13.723,1.357-20.397-0.277c-9.916-2.424-16.638-8.881-19.417-18.688
			c-4.149-14.629-4.179-29.496,0.019-44.08c2.919-10.158,9.732-16.85,20.586-18.719c1.004-0.174,1.947-0.725,2.918-1.096
			C-759.396,281.443-754.868,281.443-750.333,281.443z M-737.874,326.094c-0.51-7.631-0.812-13.113-1.25-18.584
			c-0.899-11.066-6.136-17.502-16.363-19.201c-5.525-0.916-10.603,0.818-14.325,5.393c-3.924,4.82-5.356,10.688-5.79,16.568
			c-0.774,10.441-1.01,20.902,0.962,31.342c1.914,10.121,7.987,16.297,17.21,16.797c10.194,0.549,15.334-5.723,17.013-13.492
			C-738.942,338.078-738.508,331.014-737.874,326.094z"/>
		<path fill-rule="evenodd" clip-rule="evenodd" fill="#F9F9F9" d="M-815.921,281.443c2.675,0.447,5.357,0.836,8.012,1.369
			c1.231,0.246,2.409,0.764,3.654,1.18c0,3.08,0,6.096,0,9.424c-2.904-1.049-5.582-2.08-8.309-2.986
			c-5.217-1.73-10.517-2.789-16.075-1.947c-5.703,0.863-9.56,6.562-8.257,12.314c1.256,5.529,5.241,8.686,9.776,11.316
			c6.241,3.625,12.81,6.75,18.778,10.775c12.574,8.486,12.786,24.146,4.779,33.518c-3.856,4.518-9.151,6.473-14.853,7.84
			c-7.574,1.812-15.018,0.932-22.5-0.115c-2.308-0.324-4.568-0.986-6.852-1.482c-1.794-0.385-2.573-1.326-2.434-3.293
			c0.188-2.615,0.049-5.256,0.049-7.623c5.462,2.029,10.654,4.402,16.099,5.857c5.198,1.391,10.747,1.738,15.762-0.869
			c6.66-3.467,7.958-13.699,2.77-19.668c-3.852-4.428-9.141-6.688-14.046-9.572c-4.996-2.941-10.126-5.814-14.579-9.467
			c-5.938-4.869-7.833-11.652-6.606-19.217c1.245-7.664,5.789-12.541,13.016-15.047c2.337-0.807,4.693-1.543,7.045-2.307
			C-825.769,281.443-820.844,281.443-815.921,281.443z"/>
		<path fill-rule="evenodd" clip-rule="evenodd" fill="#F9F9F9" d="M-674.112,281.443c3.438,1.174,7.049,1.988,10.271,3.602
			c6.02,3.018,9.737,7.848,10.006,15.289c-4.673,0-9.169,0.059-13.661-0.07c-0.591-0.02-1.553-0.934-1.674-1.562
			c-0.995-5.283-3.827-8.969-9.15-10.117c-7.006-1.508-12.997,0.33-16.989,6.602c-3.034,4.77-4.227,10.156-4.861,15.76
			c-0.914,8.068-0.625,16.076,0.644,24.045c1.024,6.41,2.914,12.527,7.501,17.465c4.463,4.805,10.084,6.092,16.412,5.971
			c6.944-0.133,13.166-2.139,18.877-5.98c0.212-0.139,0.554-0.088,1.247-0.184c0,2.578,0.148,5.072-0.097,7.529
			c-0.067,0.656-1.274,1.502-2.097,1.723c-10.222,2.697-20.373,4.924-31.192,2.975c-14.618-2.633-21.792-13.162-24.292-25.199
			c-1.942-9.332-2.227-18.738-1.005-28.096c1.216-9.285,3.885-18.264,12.243-23.871c3.202-2.152,7.155-3.191,10.771-4.73
			c0.948-0.4,1.909-0.77,2.866-1.148C-683.566,281.443-678.84,281.443-674.112,281.443z"/>
		<path fill-rule="evenodd" clip-rule="evenodd" fill="#F9F9F9" d="M-626.253,281.443c-0.066,2.438-0.188,4.879-0.192,7.316
			c-0.015,23.52-0.006,47.039-0.019,70.562c0,1.543-0.164,3.092-0.26,4.729c-4.685,0-9.089,0-13.72,0
			c-0.097-1.141-0.26-2.195-0.26-3.252c-0.015-20.566-0.004-41.139-0.024-61.707c0-1.664-0.125-3.336-0.269-4.998
			c-0.336-3.832-1.76-5.184-5.698-5.559c-1.159-0.111-2.313-0.352-3.477-0.436c-1.611-0.117-2.577-0.68-2.385-2.533
			c0.198-1.857,1.481-1.662,2.785-1.785c6.048-0.564,12.088-1.209,18.129-1.848c0.234-0.025,0.442-0.324,0.663-0.49
			C-629.401,281.443-627.825,281.443-626.253,281.443z"/>
		<path fill-rule="evenodd" clip-rule="evenodd" fill="#F9F9F9" d="M-561.597,345.613c1.317,0,2.452,0,3.511,0
			c0,6.236,0,12.271,0,18.547c-4.593,0-8.814,0-13.038,0c-10.727,0-21.46-0.098-32.188,0.066c-2.755,0.039-3.482-0.793-3.471-3.471
			c0.085-22.346,0.048-44.691,0.022-67.037c-0.004-4.268-1.558-5.885-5.86-6.389c-0.861-0.1-1.713-0.367-2.554-0.598
			c-2.779-0.764-2.779-0.771-2.091-4.109c0.898,0,1.855,0,2.816,0c17.129,0,34.257,0.074,51.384-0.07
			c2.985-0.027,3.684,1.02,3.592,3.736c-0.163,4.992-0.044,9.998-0.044,15.119c-1.475,0-2.711,0-3.837,0
			c-0.695-2.588-1.071-5.221-2.12-7.547c-1.192-2.643-3.669-4.057-6.596-4.113c-5.503-0.111-11.013,0.053-16.519-0.082
			c-2.232-0.053-3.259,0.928-3.674,2.922c-0.097,0.479-0.254,0.963-0.254,1.445c-0.02,7.865-0.016,15.727-0.016,23.975
			c5.834,0,11.521,0.359,17.144-0.135c3.39-0.299,5.241-3.268,5.73-6.582c0.308-2.084,1.361-2.596,3.174-2.496
			c2.294,0.121,1.602,1.867,1.611,3.084c0.058,6.891,0.005,13.783,0.048,20.674c0.01,1.549-0.096,2.611-2.135,2.635
			c-1.866,0.023-2.295-0.77-2.49-2.404c-0.688-5.66-2.544-7.424-8.295-7.633c-4.79-0.17-9.593-0.031-14.781-0.031
			c0,3.025,0,5.842,0,8.664c0,5.805-0.034,11.611,0.01,17.422c0.037,4.93,1,5.867,5.755,5.871c5.313,0,10.628,0.004,15.944-0.004
			c4.65-0.008,6.594-1.512,7.886-6.146C-562.453,349.229-562.069,347.512-561.597,345.613z"/>
	</g>
	<g>
		<path fill-rule="evenodd" clip-rule="evenodd" fill="#F9F9F9" d="M-739.998,180.689c-0.092,1.657-0.259,3.314-0.262,4.972
			c-0.02,15.649-0.094,31.3,0.036,46.949c0.039,4.486,0.355,9.026,1.137,13.436c1.328,7.513,6.227,11.914,15.666,11.667
			c6.028-0.156,11.802-1.092,14.578-7.127c1.54-3.348,2.375-7.299,2.441-10.996c0.325-18.104,0.283-36.21,0.384-54.314
			c0.006-1.063,0.113-2.125,0.177-3.25c3.212,0,6.222,0,9.543,0c0,1.206,0,2.264,0,3.317c-0.002,15.061,0.214,30.125-0.11,45.176
			c-0.137,6.304-0.85,12.719-2.321,18.841c-1.975,8.227-8.508,12.385-16.458,14.096c-6.84,1.473-13.577,1.459-20.417,0.002
			c-8.57-1.828-14.745-6.338-17.288-15.313c-1.021-3.605-1.236-7.523-1.279-11.306c-0.147-12.694-0.054-25.394-0.054-38.09
			c0-0.493,0.008-0.983-0.017-1.476c-0.409-7.969-0.697-8.286-8.555-9.571c-0.481-0.078-0.942-0.359-1.42-0.379
			c-1.658-0.072-2.472-1.044-1.954-2.475c0.28-0.775,1.465-1.622,2.327-1.728c5.93-0.726,11.883-1.251,17.824-1.878
			c0.447-0.047,0.864-0.362,1.294-0.554C-743.15,180.689-741.574,180.689-739.998,180.689z"/>
		<path fill-rule="evenodd" clip-rule="evenodd" fill="#F9F9F9" d="M-550.328,180.689c2.443,0.426,4.899,0.794,7.325,1.298
			c1.241,0.258,2.428,0.764,3.765,1.196c0,3.021,0,6.04,0,9.445c-2.9-1.058-5.622-2.156-8.411-3.046
			c-4.938-1.574-9.942-2.339-15.203-2.009c-8.288,0.521-11.459,10.737-7.106,16.663c2.094,2.855,5.176,5.187,8.219,7.105
			c6.018,3.795,12.561,6.781,18.446,10.754c10.769,7.268,13.363,20.595,6.521,31.485c-3.604,5.743-9.416,8.153-15.609,9.805
			c-7.866,2.1-15.773,1.137-23.65-0.02c-2.208-0.324-4.375-0.941-6.56-1.439c-1.656-0.381-2.437-1.291-2.326-3.133
			c0.158-2.623,0.041-5.265,0.041-8.089c4.068,1.75,7.765,3.545,11.605,4.942c5.979,2.172,12.073,2.756,18.366,1.026
			c7.905-2.176,10.013-14.542,4.443-20.489c-4.556-4.864-10.471-7.446-16.097-10.537c-5.718-3.146-11.286-6.354-15.464-11.608
			c-6.584-8.277-5.745-26.276,9.463-31.041c2.484-0.778,4.973-1.539,7.46-2.31C-560.176,180.689-555.251,180.689-550.328,180.689z"
			/>
		<path fill-rule="evenodd" clip-rule="evenodd" fill="#F9F9F9" d="M-594.645,180.689c0,27.437,0,54.872,0,82.512
			c-4.517,0-8.889,0-13.619,0c-0.095-1.283-0.275-2.607-0.275-3.93c-0.021-17.51,0.001-35.022-0.024-52.535
			c-0.009-4.225-0.313-8.455-0.192-12.675c0.112-3.931-1.312-5.45-6.044-6.271c-1.151-0.201-2.432-0.077-3.442-0.551
			c-0.929-0.435-1.578-1.473-2.353-2.245c0.898-0.647,1.739-1.747,2.701-1.867c5.927-0.744,11.88-1.258,17.82-1.883
			c0.446-0.048,0.864-0.364,1.295-0.557C-597.401,180.689-596.021,180.689-594.645,180.689z"/>
		<path fill-rule="evenodd" clip-rule="evenodd" fill="#F9F9F9" d="M-480.845,246.441c3.131-8.911,6.095-17.353,9.065-25.793
			c4.333-12.294,8.646-24.596,13.057-36.86c0.278-0.778,1.306-1.809,2.011-1.829c5.099-0.157,10.2-0.084,15.673-0.084
			c0,1.482,0,2.728,0,3.974c0,24.616-0.048,49.236,0.063,73.853c0.014,2.963-0.722,4.061-3.786,3.764
			c-2.918-0.281-5.885-0.059-9.256-0.059c0-22.47,0-44.809,0-67.147c-0.254-0.043-0.515-0.085-0.768-0.127
			c-1.648,4.491-3.347,8.965-4.938,13.476c-4.21,11.925-8.379,23.864-12.55,35.802c-1.826,5.232-3.655,10.46-5.398,15.719
			c-0.537,1.617-1.345,2.311-3.165,2.324c-6.759,0.045-6.78,0.123-9.058-6.33c-7.06-20.013-14.098-40.032-21.151-60.046
			c-0.062-0.175-0.228-0.313-0.678-0.905c0,22.548,0,44.661,0,67.004c-2.917,0-5.51,0-8.378,0c-0.042-0.891-0.127-1.836-0.129-2.781
			c-0.005-20.78-0.003-41.555-0.005-62.334c0-0.982,0.089-1.987-0.072-2.948c-0.911-5.446-0.036-7.476-7.94-8.601
			c-1.232-0.174-2.406-0.78-3.653-1.204c0-1.113,0-2.15,0-3.431c8.896,0,17.642-0.03,26.388,0.068
			c0.615,0.006,1.541,0.854,1.778,1.507c2.839,7.771,5.566,15.586,8.338,23.38c4.466,12.555,8.938,25.102,13.427,37.648
			C-481.779,245.012-481.406,245.477-480.845,246.441z"/>
		<path fill-rule="evenodd" clip-rule="evenodd" fill="#F9F9F9" d="M-760.223,263.402c-3.901,0-7.738,0.148-11.546-0.113
			c-0.839-0.059-1.931-1.449-2.304-2.449c-2.521-6.748-4.841-13.573-7.349-20.33c-0.291-0.785-1.336-1.825-2.044-1.833
			c-9.44-0.12-18.88-0.083-28.302-0.083c-3.001,8.312-5.943,16.457-8.917,24.693c-2.586,0-5.12,0-8.303,0
			c1.066-3.195,1.984-6.178,3.052-9.108c7.135-19.569,14.306-39.124,21.441-58.692c0.469-1.283,0.789-2.629,1.093-3.966
			c0.562-2.474-0.699-4.332-3.251-4.924c-1.787-0.414-3.567-0.856-5.383-1.295c0-1.165,0-2.128,0-3.42
			c7.317,0,14.575-0.038,21.831,0.072c0.585,0.008,1.441,0.937,1.687,1.609c4.021,11.067,7.936,22.17,11.931,33.245
			c3.732,10.337,7.523,20.654,11.3,30.977c1.672,4.571,3.394,9.123,5.041,13.699C-760.066,261.986-760.223,262.613-760.223,263.402z
			 M-784.702,231.435c-4.236-10.863-8.325-21.352-12.641-32.418c-4.1,11.245-7.929,21.741-11.822,32.418
			C-800.952,231.435-793.089,231.435-784.702,231.435z"/>
		<path fill-rule="evenodd" clip-rule="evenodd" fill="#F9F9F9" d="M-625.28,200.679c-1.22,0-2.38,0-3.519,0
			c-0.448-2.182-0.746-4.304-1.334-6.343c-0.937-3.253-3.453-4.821-6.597-5.328c-1.831-0.293-3.73-0.194-5.599-0.221
			c-2.062-0.03-4.125-0.008-6.699-0.008c0,1.248,0,2.37,0,3.492c0,22.447,0.001,44.893,0,67.339
			c-0.002,3.791-0.007,3.795-3.902,3.795c-3.323,0.002-6.646,0-10.181,0c0-24.846,0-49.422,0-74.799
			c-4.958,0.267-9.751,0.09-14.37,0.903c-4.203,0.744-5.012,4.745-5.759,8.353c-0.135,0.649-0.121,1.334-0.188,2.164
			c-1.455,0-2.77,0-3.892,0c0-6.098,0-12.017,0-18.033c20.879,0,41.227,0,62.04,0C-625.28,188.186-625.28,194.311-625.28,200.679z"
			/>
	</g>
</g>
<g>
	<g>
		<path fill-rule="evenodd" clip-rule="evenodd" fill="#F9F9F9" d="M189.431,310.711c0.994,1.66,1.833,3.071,2.682,4.476
			c1.718,2.844,3.875,5.489,4.119,8.997c0.047,0.683-0.086,1.377-0.133,2.036c-13.734-4.99-22.792-14.664-28.696-27.674
			c-0.226,0.152-0.452,0.305-0.679,0.457c0.113,0.729,0.226,1.459,0.395,2.549c-1.388-0.574-2.631-1.086-3.872-1.603
			c-5.93-2.463-11.732-5.104-16.813-9.18c-5.397-4.33-10.03-9.212-12.964-15.562c-0.995-2.156-0.632-2.573,1.699-2.896
			c2.688-0.371,5.394-0.912,7.969-1.754c5.886-1.924,11.754-1.611,17.583-0.081c4.189,1.1,8.223,2.8,12.418,3.875
			c5.278,1.353,10.627,1.271,15.766-0.751c5.798-2.28,8.875-6.821,10.062-12.784c0.234-1.18,0.345-2.386,0.619-3.554
			c0.109-0.465,0.51-0.861,0.777-1.29c0.405,0.375,0.983,0.672,1.191,1.135c2.878,6.384,1.586,14.982-7.049,18.412
			c-1.511,0.601-3.001,1.253-4.5,1.882c0.002,0.203,0.004,0.407,0.006,0.61c0.867,0.382,1.702,0.882,2.606,1.124
			c4.962,1.329,9.436,3.706,13.742,6.405c4.354,2.729,8.656,5.504,12.095,9.469c4.286,4.942,7.687,10.416,10.539,16.26
			c1.521,3.119,2.953,6.281,4.434,9.42c1.676,3.552,6.329,5.264,9.844,3.676c2.347-1.061,4.78-1.684,7.398-1.238
			c1.546,0.263,2.277,1.029,1.262,2.424c-1.602,2.201-3.23,4.418-5.117,6.367c-3.382,3.494-4.187,4.033-0.618,8.984
			c1.635,2.268,3.683,4.235,5.506,6.371c0.592,0.692,1.064,1.485,1.666,2.339c-1.99,1.625-4.045,2.126-6.322,1.694
			c-5.164-0.979-8.751-4.346-11.518-8.428c-2.305-3.398-4.396-7.089-5.764-10.941c-2.604-7.336-8.103-11.673-14.521-15.048
			c-7.689-4.043-16.254-5.096-24.706-6.399C190.355,310.464,190.156,310.562,189.431,310.711z"/>
		<path fill-rule="evenodd" clip-rule="evenodd" fill="#F9F9F9" d="M227.254,250.527c-1.083-0.773-1.607-1.147-2.656-1.896
			c0.366,2.43,0.625,4.417,0.978,6.388c0.199,1.116,0.553,2.204,0.836,3.304c0.067,0.259,0.244,0.546,0.186,0.771
			c-0.606,2.29-0.975,4.714-2.036,6.776c-0.366,0.711-2.488,0.518-4.105,0.555c4.673-6.887,2.24-13.377-0.136-20.306
			c-0.467,1.843-0.851,3.153-1.125,4.486c-0.512,2.48-0.883,4.991-1.467,7.454c-0.306,1.292-0.932,2.509-1.426,3.755
			c-0.072,0.183-0.243,0.324-0.319,0.506c-1.32,3.15-1.318,3.15-5.104,2.619c0.325-0.57,0.498-1.171,0.893-1.517
			c2.844-2.495,3.319-5.995,4-9.381c1.365-6.787-0.396-13.08-3.289-19.139c-0.841-1.761-2.058-3.195-4.381-2.656
			c-0.127,0.029-0.315,0.058-0.394-0.009c-2.262-1.941-3.794,0.273-5.64,0.925c-5.866,2.068-11.747,4.146-18.153,3.142
			c-0.176-0.027-0.371,0.068-0.919,0.18c2.356,0.981,2.044,2.922,2.362,4.682c0.947,5.237,2.049,10.447,3.041,15.677
			c0.167,0.883,0.104,1.812,0.128,2.72c0.024,0.901-0.066,1.815,0.056,2.702c0.164,1.191-0.85,2.782-2.042,2.936
			c-0.528,0.067-1.07,0.049-1.604,0.034c-0.374-0.01-0.746-0.08-1.07-0.117c-0.051-0.194-0.104-0.284-0.08-0.32
			c3.333-4.844,1.79-9.614-0.15-14.417c-0.849-2.1-1.473-4.289-2.256-6.416c-0.449-1.218-1.017-2.392-1.53-3.586
			c-0.22,0.037-0.439,0.075-0.66,0.112c0,4.024-0.046,8.05,0.021,12.073c0.032,1.936,0.414,3.87,0.378,5.8
			c-0.022,1.179-0.544,2.347-0.831,3.521c-0.092,0.372-0.243,0.758-0.214,1.125c0.184,2.298-0.951,3.641-3.183,3.692
			c-0.732,0.017-1.465,0.003-2.606,0.003c0.493-0.892,0.754-1.633,1.233-2.183c3.193-3.661,2.865-7.836,2.346-12.298
			c-0.722-6.192-2.815-11.898-5.057-17.605c-0.12-0.309-0.217-0.669-0.44-0.887c-2.36-2.291-2.827-5.341-3.538-8.345
			c-0.357-1.51-0.975-3.096-1.916-4.303c-2.175-2.787-4.629-5.354-6.947-8.029c-0.773-0.892-1.553-0.973-2.657-0.521
			c-2.004,0.82-4.104,1.406-6.133,2.174c-0.532,0.201-1.103,0.615-1.391,1.092c-1.059,1.753-2.692,1.797-4.11,1.025
			c-1.126-0.612-1.957-1.871-2.726-2.977c-0.233-0.335,0.026-1.211,0.318-1.68c2.386-3.838,4.863-7.62,7.228-11.471
			c0.314-0.511,0.281-1.33,0.189-1.975c-0.147-1.03-0.479-2.033-0.851-3.514c1.017,1.129,1.681,1.867,2.346,2.606
			c0.135-0.1,0.27-0.199,0.404-0.299c-0.117-0.805-0.234-1.609-0.387-2.657c3.034,3.755,7.206,4.362,11.266,5.323
			c6.839,1.619,13.041,4.693,18.845,8.613c0.498,0.336,1.029,0.62,1.534,0.947c5.618,3.639,11.31,3.635,17.304,0.778
			c4.719-2.249,9.778-3.458,14.986-1.92c2.323,0.686,4.459,2.016,6.669,3.075c0.356,0.171,0.627,0.535,0.989,0.678
			c5.783,2.273,7.641,7.234,8.8,12.716c1.082,5.113,0.122,9.956-1.782,14.696C227.96,243.044,226.449,246.279,227.254,250.527z
			 M224.577,224.897c-1.204,2.77-2.218,5.227-3.334,7.635c-1.46,3.148-0.426,6.173,3.26,8.152
			c-0.723-4.992-1.049-9.732,0.413-14.369C225.014,226,224.749,225.57,224.577,224.897z"/>
		<path fill-rule="evenodd" clip-rule="evenodd" fill="#F9F9F9" d="M184.028,99.645c2.604,0.818,5.471,1.131,6.899,4.09
			c0.222,0.458,0.891,0.8,1.426,0.992c5.329,1.916,10.558,4.126,16.516,2.869c2.004-0.423,4.221,0.253,6.342,0.279
			c3.868,0.049,7.737-0.019,11.607-0.027c4.141-0.009,8.283,0.068,12.422-0.047c1.648-0.046,3.278-0.591,4.932-0.754
			c2.572-0.252,5.16-0.541,7.736-0.498c2.527,0.043,5.045,0.52,7.575,0.732c1.619,0.136,2.66,0.885,2.916,2.5
			c0.219,1.375,0.383,2.767,0.441,4.157c0.256,6.144,0.377,12.294,0.727,18.432c0.229,3.981,0.771,7.944,1.16,11.917
			c0.037,0.375-0.029,0.761-0.057,1.345c-0.707-0.331-1.256-0.588-2.195-1.028c0.158,1.692,0.283,3.119,0.434,4.543
			c0.027,0.259,0.297,0.562,0.223,0.753c-0.764,1.961-1.557,3.91-2.406,5.835c-0.08,0.179-0.604,0.219-0.924,0.225
			c-1.332,0.023-2.664,0.01-4.334,0.01c4.098-4.444,4.833-9.663,3.407-15.155c-0.385-1.486-1.898-2.681-3.059-3.867
			c-0.172,3.189-1.17,5.928-2.405,8.602c-0.278,0.603-0.97,1.196-0.917,1.74c0.279,2.825-2.127,4.212-3.232,6.275
			c-0.2,0.374-1.014,0.536-1.562,0.583c-1.058,0.089-2.127,0.025-3.704,0.025c0.68-1.116,1.078-2.162,1.799-2.888
			c2.407-2.425,3.338-5.596,4.414-8.649c0.393-1.113-0.062-2.526-0.13-3.802c-0.226-0.021-0.451-0.04-0.678-0.061
			c-0.354,1.122-0.707,2.244-1.061,3.366c-0.136,0.012-0.272,0.023-0.408,0.035c-0.322-1.173-0.646-2.346-0.968-3.519
			c-0.148,0.018-0.296,0.035-0.444,0.054c-0.168,1.119-0.336,2.238-0.505,3.357c-0.141,0.025-0.281,0.05-0.422,0.075
			c-0.22-0.499-0.407-1.016-0.665-1.494c-0.679-1.256-1.369-2.507-2.089-3.739c-1.095-1.875-2.694-1.98-4.5-1.203
			c-3.049,1.313-6.171,2.223-9.537,1.704c-1.516-0.233-3.051-0.447-4.518-0.874c-1.766-0.515-2.515,0.264-2.836,1.827
			c-0.081,0.393-0.151,0.8-0.135,1.196c0.16,3.783,0.296,7.568,0.535,11.347c0.094,1.48-1.929,3.739-3.617,3.835
			c-1.35,0.076-2.544,0.042-3.831,1.104c-0.95,0.785-2.906,0.354-4.864,0.497c0.548-0.965,0.763-1.713,1.254-2.15
			c3.62-3.22,2.816-7.183,1.965-11.161c-0.125-0.586-0.468-1.136-0.529-1.721c-0.323-3.047-1.447-5.116-5-5.258
			c-0.977-0.039-2.315-1.128-2.784-2.081c-2.396-4.874-6.007-8.794-9.537-12.795c-0.218-0.247-0.366-0.557-0.535-0.844
			c-2.333-3.966-4.005-4.644-8.513-3.562c-0.76,0.182-1.586,0.065-2.377,0.134c-0.946,0.083-1.938,0.065-2.82,0.358
			c-1.694,0.562-3.726-0.075-4.322-1.677c-0.146-0.389,0.187-1.123,0.522-1.498c3.021-3.37,6.124-6.669,9.104-10.076
			c0.311-0.355,0.221-1.434-0.097-1.886c-0.557-0.79-1.434-1.354-2.176-2.013C183.802,99.958,183.916,99.801,184.028,99.645z
			 M261.357,133.727c0-5.746,0-11.031,0-16.316c-0.785,2.635-0.945,5.349-1.791,7.826
			C258.498,128.365,259.133,130.898,261.357,133.727z M216.979,141.826c-0.165,3.407-0.318,6.576-0.489,10.1
			C219.05,149.466,219.257,144.199,216.979,141.826z"/>
		<path fill-rule="evenodd" clip-rule="evenodd" fill="#F9F9F9" d="M253.057,212.414c-2.132,0-4.259,0.061-6.381-0.021
			c-1.583-0.06-3.226-2.69-3.025-4.775c0.279-2.919,0.452-5.864,1.013-8.731c0.229-1.167,1.16-2.39,2.108-3.188
			c3.403-2.868,4.232-6.676,4.269-10.805c0.006-0.665-0.445-1.334-0.686-2.002c-0.617,0.286-1.331,0.455-1.834,0.876
			c-2.907,2.431-5.589,5.07-9.174,6.673c-3.54,1.583-7.032,2.443-10.839,1.573c-0.527-0.12-0.98-0.562-1.468-0.855
			c0.399-0.466,0.707-1.129,1.214-1.365c2.832-1.322,6.149-2.006,8.481-3.911c4.475-3.654,8.762-7.68,12.45-12.114
			c3.926-4.72,8.843-6.905,14.58-7.264c3.611-0.226,7.283,0.63,10.934,0.942c6.883,0.591,13.725,2.036,20.613-0.518
			c4.344-1.61,7.609-4.489,9.926-8.097c2.984-4.646,7.045-4.372,11.447-3.865c2.055,0.237,3.875,0.878,5.029,2.827
			c0.301,0.506,1.029,0.813,1.621,1.081c0.971,0.44,2.037,0.686,2.979,1.175c1.242,0.646,3.516,1.845,3.418,2.117
			c-0.678,1.896-1.51,4.022-3.742,4.608c-1.846,0.485-3.803,0.778-5.707,0.757c-2.184-0.025-3.504,0.784-4.377,2.751
			c-0.533,1.198-1.369,2.27-2.117,3.363c-1.979,2.894-2.766,6.158-3.277,9.57c-0.172,1.15-0.879,2.31-1.598,3.272
			c-2.061,2.756-4.43,5.285-4.947,8.921c-0.486,3.406-1.787,6.694-1.111,10.261c0.232,1.219,0.539,2.031,1.662,2.707
			c0.924,0.556,1.561,1.59,2.326,2.411c-0.111,0.22-0.221,0.44-0.33,0.66c-2.152,0-4.305,0.012-6.457-0.016
			c-0.234-0.003-0.574-0.172-0.68-0.364c-0.988-1.816-1.938-3.654-2.893-5.489c-0.059-0.115-0.037-0.272-0.098-0.387
			c-1.586-3.014-1.986-6.229-2.008-9.606c-0.012-1.942-2.447-3.543-4.447-3.816c-1.383-0.189-2.705-0.83-4.047-1.294
			c-0.504-0.174-0.963-0.529-1.473-0.613c-4.318-0.715-8.484-2.092-12.791-2.924c-4.104-0.794-5.607,1.147-7.717,3.571
			c-1.592,1.83-3.639,3.308-5.639,4.725c-1.84,1.306-3.9,2.3-5.838,3.471c-2.42,1.46-4.174,6.255-3.109,8.819
			c0.257,0.618,1.095,1.073,1.758,1.431C252.322,209.625,253.319,210.375,253.057,212.414z"/>
		<path fill-rule="evenodd" clip-rule="evenodd" fill="#F9F9F9" d="M380.092,318.997c1.496,0.599,2.994,1.198,4.49,1.798
			c0.078-0.136,0.154-0.271,0.23-0.406c-0.209-0.305-0.357-0.694-0.639-0.9c-6.41-4.688-11.26-10.804-15.855-17.171
			c-1.09-1.511-2.285-3.011-3.688-4.221c-4.652-4.014-9.4-7.917-14.164-11.8c-0.764-0.624-1.793-0.924-2.699-1.374
			c-0.119,0.17-0.238,0.34-0.359,0.509c1.447,1.349,2.893,2.697,4.338,4.046c-0.148,0.222-0.295,0.442-0.443,0.664
			c-0.547-0.12-1.09-0.29-1.645-0.353c-2.045-0.23-4.102-0.38-6.143-0.648c-1.543-0.202-3.064-0.567-4.604-0.806
			c-0.559-0.087-1.146-0.064-1.711-0.004c-1.385,0.146-2.795,0.624-4.135,0.465c-2.943-0.351-5.711-0.215-8.217,1.659
			c-0.127-0.144-0.256-0.287-0.381-0.43c0.527-0.662,0.984-1.4,1.598-1.973c3.523-3.284,8.004-4.391,12.498-5.533
			c1.135-0.289,2.303-0.962,3.152-1.776c3.463-3.319,7.643-4.158,12.084-3.241c3.572,0.739,7.027,2.077,10.51,3.226
			c7.674,2.529,15.322,5.134,23,7.649c2.184,0.716,3.988,0.009,4.748-2.13c0.701-1.973,0.861-4.134,1.301-6.203
			c0.141-0.657,0.418-1.285,0.633-1.928c0.652,0.271,1.5,0.367,1.926,0.842c2.691,2.992,4.1,6.579,4.201,10.576
			c0.068,2.667-0.092,5.356-0.385,8.01c-0.256,2.306,0.889,4.012,2.037,5.706c4.785,7.062,8.018,14.795,9.859,23.086
			c0.936,4.219,0.912,8.468-0.635,12.645c-0.688,1.858-0.93,3.879-1.475,5.796c-0.162,0.564-0.672,1.029-1.021,1.541
			c-0.508-0.366-1.342-0.641-1.475-1.112c-1.754-6.189-7.391-9.557-10.623-14.668c-0.482-0.763-1.734-1.282-2.709-1.448
			c-5.252-0.892-9.465-3.54-12.967-7.417c-0.557-0.617-0.791-1.524-1.176-2.298C379.73,319.248,379.912,319.122,380.092,318.997z"/>
		<path fill-rule="evenodd" clip-rule="evenodd" fill="#F9F9F9" d="M71.892,162.967c0.16-1.109,0.301-2.092,0.462-3.208
			c-0.517-0.167-1.053-0.341-1.715-0.555c0.069-0.317,0.06-0.665,0.211-0.915c2.56-4.228,2.418-8.825,1.646-13.422
			c-0.225-1.336-1.141-2.615-1.946-3.777c-0.677-0.973-1.756-1.661-2.465-2.618c-0.53-0.717-0.757-1.659-1.081-2.416
			c-2.185,0.917-4.899,2.005-7.55,3.23c-0.393,0.182-0.609,0.996-0.695,1.551c-0.58,3.75-1.47,7.473-0.631,11.327
			c0.217,0.995-0.048,2.131-0.244,3.174c-0.51,2.705,0.038,5.226,0.657,7.878c0.45,1.924-0.105,4.219-0.692,6.207
			c-0.491,1.666-2.165,1.377-3.516,1.162c0.345-3.264,0.815-6.405,0.961-9.562c0.089-1.957-0.311-3.938-0.499-5.907
			c-0.382-3.973-0.772-7.943-1.147-11.916c-0.062-0.646-0.068-1.298-0.098-1.911c-2.559-0.361-2.823-0.168-2.795,2.069
			c0.077,6.065-0.202,12.17,0.436,18.178c0.299,2.816-0.184,5.214-0.913,7.724c-0.432,1.486-1.147,1.688-3.539,1.229
			c0.541-2.252,1.246-4.477,1.568-6.755c0.258-1.827,0.241-3.742,0.019-5.578c-0.784-6.429-1.524-12.899-5.184-18.524
			c-0.869-1.334-1.787-2.671-2.879-3.817c-2.329-2.443-2.71-5.363-2.608-8.543c0.103-3.189-0.066-6.387-0.04-9.58
			c0.016-1.859,0.247-3.718,0.25-5.576c0.001-0.872-0.31-1.744-0.479-2.616c-0.73,0.187-1.524,0.247-2.18,0.581
			c-2.036,1.039-2.625-1.305-4.033-1.743c-0.188-0.06-0.201-1.752,0.195-2.378c0.811-1.279,1.889-2.416,2.979-3.485
			c1.028-1.007,0.928-2.056,0.646-3.303c-0.379-1.68-0.861-3.419-0.77-5.104c0.17-3.128,3.211-4.516,5.633-2.796
			c1.02,0.724,1.294,1.391,0.347,2.417c-0.448,0.486-0.637,1.213-0.942,1.831c0.17,0.112,0.34,0.225,0.51,0.338
			c0.42-0.593,0.867-1.167,1.256-1.779c2.27-3.574,5.709-4.467,9.59-3.96c3.891,0.508,6.877,2.735,8.021,6.4
			c1.186,3.799,0.486,7.612-2.196,10.848c-1.644,1.981-4.855,1.887-6.672,1.317c-0.417-0.131-0.805-0.354-1.205-0.535
			c-0.096,0.226-0.192,0.452-0.288,0.678c1.042,0.393,2.105,1.165,3.119,1.104c2.767-0.168,5.459-0.55,8.164,0.616
			c0.732,0.315,1.921-0.186,2.814-0.532c3.121-1.209,6.188-2.655,9.664-1.552c5.138,1.631,8.837,7.967,7.84,13.426
			c-0.204,1.116-0.49,2.218-0.729,3.329c-1.108,5.131-2.224,10.26-3.301,15.397c-0.104,0.495,0.036,1.043,0.077,1.566
			c0.148,1.895,0.478,3.794,0.42,5.681c-0.121,3.934-0.496,7.857-0.669,11.79C75.572,162.017,74.327,163.303,71.892,162.967z
			 M47.068,99.083c1.115,0,1.997,0,2.879,0c-0.174,0.938-0.453,1.871-0.483,2.812c-0.019,0.58,0.18,1.465,0.573,1.683
			c0.448,0.248,1.627,0.103,1.782-0.217c0.53-1.087,1.042-2.331,1.021-3.506c-0.031-1.641-1.848-3.243-3.316-3.24
			C47.989,96.619,47.335,97.62,47.068,99.083z"/>
		<path fill-rule="evenodd" clip-rule="evenodd" fill="#F9F9F9" d="M287.715,280.015c-1.418-0.939-2.77-2.151-4.35-2.809
			c-2.686-1.117-3.559-0.708-5.4,1.545c-0.23,0.283-0.766,0.318-1.16,0.468c-0.121-0.409-0.303-0.812-0.34-1.229
			c-0.021-0.23,0.186-0.489,0.307-0.725c1.381-2.669,1.328-3.021-0.803-5.305c-0.635,2.854-5.322,5.881-8.486,5.452
			c-0.984-0.134-1.953-0.464-2.938-0.503c-0.584-0.022-1.312,0.195-1.758,0.567c-3.303,2.756-6.553,5.575-9.809,8.388
			c-0.127,0.11-0.142,0.353-0.205,0.522c2.292,1.357,4.518,2.747,6.811,4.016c2.176,1.203,3.293,2.925,3.543,5.434
			c0.102,1.002,1.023,1.91,1.521,2.887c0.344,0.676,0.602,1.396,0.898,2.098c-0.66-0.296-1.324-0.586-1.98-0.891
			c-0.176-0.082-0.328-0.212-0.477-0.312c-3.449,2.681,0.602,3.379,1.566,4.933c-2.74,1.195-4.258-0.849-5.891-1.885
			c-0.568-0.361-0.164-2.285-0.154-3.494c0.002-0.318,0.199-0.634,0.301-0.952c0.834-2.611,0.516-3.03-2.174-3.251
			c-4.102-0.337-7.444-2.192-10.107-5.297c-0.81-0.943-2.18-1.896-2.226-2.894c-0.084-1.78,0.458-3.663,1.069-5.387
			c1.426-4.019,2.936-8.024,6.606-10.704c0.309-0.227,0.392-1.165,0.2-1.609c-1.407-3.269-2.911-6.496-4.455-9.891
			c-0.474,2.261-1.178,4.404-1.315,6.584c-0.197,3.125-2.242,5.216-3.781,7.557c-1.035,1.575-2.521,2.911-3.984,4.138
			c-3.044,2.553-3.791,6.371-5.21,9.713c-0.786,1.852-1.924,4.561,0.409,6.616c0.17,0.15,0.221,0.479,0.249,0.734
			c0.019,0.177-0.096,0.369-0.148,0.545c-2.928-0.059-4.676-1.726-4.612-4.482c0.07-3.104,0.071-6.08,1.978-8.977
			c1.683-2.557,2.24-5.828,3.528-8.679c0.813-1.801,1.796-3.666,3.166-5.041c1.991-1.998,1.754-4.414,2.203-6.799
			c0.816-4.322,1.902-8.598,3-12.862c0.188-0.73,0.994-1.302,1.445-1.86c1.254,0.852,2.275,1.544,3.296,2.238
			c0.11-0.14,0.221-0.279,0.331-0.419c-2.893-2.138-3.821-5.26-4.453-8.548c-0.097-0.505-0.479-0.947-0.656-1.446
			c-0.805-2.262,0.512-4.065,2.884-4.007c0.306,0.008,0.685-0.046,0.913-0.223c2.655-2.052,5.454-2.555,8.523-0.948
			c0.291,0.152,0.764,0.009,1.139-0.061c2.725-0.505,3.791,0.485,3.447,3.222c-0.064,0.513-0.131,1.026,0.139,1.681
			c0.209-0.325,0.51-0.623,0.615-0.979c1.064-3.633,2.219-7.246,3.084-10.927c0.418-1.782,0.156-3.711,0.402-5.547
			c0.469-3.488,0.898-7,1.684-10.424c0.832-3.629,1.971-7.197,3.143-10.736c0.822-2.484,4.242-3.542,7.137-1.873
			c-4.221,0.12-4.197,3.195-4.824,5.829c0.527-0.6,1.055-1.199,1.582-1.798c0.244,0.108,0.488,0.216,0.732,0.323
			c-0.393,0.985-0.529,2.235-1.225,2.905c-2.006,1.932-1.947,4.163-1.691,6.643c0.496,4.817,1.449,9.651-0.545,14.433
			c-0.475,1.139,0.121,2.684-0.199,3.933c-1.055,4.098-2.332,8.137-3.467,12.215c-0.826,2.972-0.82,5.696,1.809,8.023
			c2.215,1.959,2.381,4.866,2.277,7.566c-0.102,2.63-0.74,5.239-1.076,7.422c1.945-0.228,4.082-0.723,6.209-0.675
			c4.232,0.094,7.559,3.642,7.588,7.851c0.01,1.507,0.729,2.311,2.064,2.813C287.625,275.618,288.51,278.078,287.715,280.015z"/>
		<path fill-rule="evenodd" clip-rule="evenodd" fill="#F9F9F9" d="M128.122,262.237c0.616-0.74,1.192-1.241,1.526-1.871
			c0.844-1.595,1.168-2.952,0.19-4.958c-1.711-3.508-3.69-4.413-7.233-2.852c-1.333,0.587-3.022,0.487-4.548,0.477
			c-1.454-0.01-2.906-0.312-4.648-0.52c-0.261,1.981-0.672,3.992-0.737,6.013c-0.046,1.387-1.571,4.017-2.894,4.221
			c-0.524,0.081-1.069,0.063-1.603,0.045c-0.645-0.023-1.286-0.095-2.424-0.185c0.766-0.921,1.372-1.488,1.768-2.177
			c0.323-0.562,0.753-1.485,0.518-1.874c-1.299-2.148-2.787-4.182-4.401-6.533c-0.896,0.482-2.239,1.293-3.655,1.945
			c-2.345,1.081-4.745,2.041-7.102,3.099c-0.519,0.233-1.147,0.562-1.384,1.022c-1.098,2.131-3.173,2.64-5.427,3.694
			c0.238-2.536,0.486-4.544,2.606-5.842c1.274-0.78,2.421-1.77,3.625-2.665c-0.093-0.194-0.186-0.389-0.279-0.583
			c-0.615,0.203-1.237,0.388-1.847,0.61c-3.031,1.108-6.013,1.707-9.064-0.093c-0.708-0.417-1.804-0.331-2.7-0.248
			c-2.438,0.226-3.159-0.171-3.927-2.394c-0.386-1.119-0.316-1.988,1.093-2.209c2.178-0.342,2.624-2.264,3.37-3.843
			c0.132-0.28-0.354-1.15-0.745-1.326c-1.43-0.645-2.939-1.109-5.055-1.871c1.555-0.574,2.692-1.294,3.874-1.374
			c3.3-0.224,5.646-1.604,7.703-4.283c2.35-3.061,6.135-4.138,9.688-5.335c5.106-1.721,10.366-2.463,15.748-2.688
			c2.369-0.1,4.783-0.62,7.053-1.34c6.479-2.058,12.777-2.153,18.736,1.437c1.907,1.149,3.495,2.828,5.336,4.354
			c0.943-0.896,2.081-2.35,3.79-0.839c1.265,1.117,1.062,2.359-0.677,4.517c0.763,0.267,1.451,0.508,2.139,0.749
			c0.011,0.162,0.021,0.324,0.032,0.486c-1.072,0.096-2.144,0.19-3.397,0.302c-0.079,1.006-0.151,2.236-0.275,3.461
			c-0.246,2.436-1.328,4.432-3.144,6.082c-1.282,1.164-1.066,1.808,0.433,2.694c0.605,0.357,1.18,1.134,1.334,1.817
			c0.537,2.369,0.925,4.775,1.282,7.18c0.132,0.89,0.021,1.814,0.021,2.933c-2.366-0.779-3.408-2.478-3.719-4.451
			c-0.482-3.07-3.279-2.66-4.847-4.055c-0.125,0.156-0.249,0.312-0.373,0.468c0.63,0.543,1.259,1.087,1.986,1.715
			c-0.874,1.93-1.619,4-2.713,5.869C132.096,262.827,130.532,263.099,128.122,262.237z"/>
		<path fill-rule="evenodd" clip-rule="evenodd" fill="#F9F9F9" d="M284.596,130.18c0.645,0.98,1.289,1.962,1.934,2.942
			c-1.607-0.696-1.986-3.066-4.369-2.923c0.135,1.189,0.256,2.247,0.395,3.472c-1.27-0.914-0.277-3.465-2.873-3.15
			c0.098,1.092,0.184,2.058,0.27,3.024c-0.191-2.938-2.492-3.437-5.01-3.73c0.551-0.921,0.844-1.411,1.205-2.015
			c-0.645-0.564-1.281-1.124-1.92-1.685c0.051-0.091,0.1-0.183,0.15-0.274c0.762,0.476,1.521,0.951,2.404,1.503
			c1.617-1.798-0.738-2.001-1.305-3.346c1.125,0.663,1.959,1.153,3.062,1.804c0.127-0.762,0.182-1.319,0.316-1.856
			c0.658-2.606,1.564-5.201-0.111-7.794c-0.15-0.231,0.115-0.73,0.225-1.306c0.953,0.464,1.756,0.854,2.564,1.247
			c0.182-0.847,0.344-1.6,0.557-2.594c0.611,0.418,1.021,0.62,1.33,0.923c1.332,1.302,2.773,1.896,4.719,1.436
			c1.045-0.247,2.23,0.151,3.355,0.185c1.566,0.045,3.221,0.348,4.686-0.036c4.174-1.097,8.23-2.646,12.408-3.725
			c9.041-2.333,17.689-1.766,24.939,4.828c2.006,1.825,3.488,4.395,4.725,6.865c2.119,4.229,4.812,7.954,8.176,11.246
			c3.559,3.483,5.928,7.745,6.891,12.551c0.443,2.207-0.258,4.692-0.684,7.006c-0.254,1.377-1.217,1.349-2.234,0.495
			c-2.684-2.256-5.5-4.368-8.059-6.755c-1.389-1.293-2.451-2.972-3.5-4.58c-1.477-2.266-2.805-4.628-4.52-7.489
			c-0.814,1.266-1.57,2.025-1.83,2.928c-0.506,1.753-1.295,2.938-3.012,3.911c-3.18,1.805-6.361,2.85-10.002,2.12
			c-0.539-0.107-1.07-0.262-1.605-0.395c-0.051-0.232-0.104-0.464-0.156-0.696c2.053-0.779,4.064-1.706,6.17-2.304
			c2.725-0.773,3.203-1.951,1.283-4.245c-1.514,3.142-4.469,4.199-7.461,4.907c-1.594,0.377-3.373-0.04-5.068-0.099
			c-0.047-0.316-0.094-0.634-0.139-0.95c1.691-0.626,3.357-1.347,5.086-1.842c1.113-0.319,2.375-0.752,2.094-1.911
			c-0.242-1.003-1.279-2.042-2.236-2.576c-0.861-0.479-1.898-0.319-2.58,1.027c-0.639,1.262-2.008,2.133-2.908,3.29
			c-0.748,0.959-1.373,2.041-1.885,3.146c-0.762,1.643-3.18,3.229-4.984,3.16c-1.217-0.045-2.436-0.008-3.652-0.008
			c-0.08-0.172-0.162-0.343-0.242-0.515c0.648-0.621,1.191-1.502,1.965-1.819c4.047-1.658,4.828-6.292,1.441-9.157
			c-0.65-0.552-1.404-0.981-2.328-1.616c0.547,3.037-2.188,3.801-3.326,5.583c-1.123,1.758-2.896,3.115-3.936,4.909
			c-1.656,2.859-4.361,2.615-6.93,2.807c-1.137,0.085-2.307-0.253-3.588-0.414c0.797-2.14,2.51-2.348,4.041-2.447
			c1.611-0.104,2.426-0.777,2.857-2.24c0.641-2.171,1.502-4.289,1.98-6.492c0.236-1.086-0.064-2.338-0.322-3.47
			c-0.33-1.458-1.357-1.729-2.777-1.475C288.482,129.887,286.65,129.97,284.596,130.18z"/>
		<path fill-rule="evenodd" clip-rule="evenodd" fill="#F9F9F9" d="M368.918,217.925c-2.066,0.381-2.873-0.759-2.875-2.804
			c-0.004-1.891-1.453-1.685-3.199-1.571c0.592-0.847,0.914-1.346,1.275-1.812c0.279-0.36,0.789-0.636,0.889-1.026
			c0.689-2.703,2.264-4.131,5.16-3.837c0.18,0.018,0.371-0.149,0.564-0.175c0.854-0.11,1.711-0.201,2.566-0.3
			c0,0.862,0,1.724,0,2.903c4.852,1.907,6.006,6.508,6.953,11.25c0.545,2.732,4.275,6.31,7.025,6.181
			c3.709-0.173,7.426-0.69,11.076-1.392c2.66-0.512,3.865-2.926,5.113-5.067c0.738-1.268,1.232-2.683,2.008-3.923
			c1.166-1.862,2.617-3.438,5.092-3.353c1.986,0.068,3.109,1.339,3.352,3.278c0.166,1.329,0.555,2.691,1.145,3.891
			c0.855,1.736,1.156,3.271,0.162,5.112c-0.525,0.975-0.312,2.326-0.562,3.479c-0.271,1.268-0.641,2.521-1.064,3.746
			c-0.369,1.062-1.016,2.041-1.289,3.12c-0.607,2.382-1.518,4.518-3.373,6.25c-0.613,0.573-0.773,1.629-1.146,2.461
			c-0.592,1.318-0.934,2.856-1.84,3.905c-1.865,2.158-3.982,4.111-6.094,6.042c-1.572,1.437-2.906,6.659-1.846,8.355
			c0.316,0.509,1.131,0.706,1.535,0.94c-0.492,0.875-1.494,2.122-1.283,2.382c0.625,0.768,1.729,1.149,2.648,1.674
			c0.561,0.32,1.131,0.627,1.613,1.265c-8.586-0.408-17.059,0.49-25.629,0.463c0.201-1.552,1.344-1.689,2.486-1.729
			c4.996-0.172,7.756-2.89,7.818-7.905c0.01-0.68-0.504-1.468-0.98-2.032c-1.111-1.32-2.305-2.582-3.557-3.772
			c-0.553-0.525-1.275-0.988-2.002-1.193c-6.961-1.972-11.082-6.979-13.939-13.2c-1.463-3.185-0.754-6.564-0.092-9.868
			C367.404,225.786,368.145,221.899,368.918,217.925z M387.914,263.63c0.945,0.536,1.455,0.826,2.248,1.277
			c-1.133,0.44-1.928,0.748-2.723,1.057c0.006,0.229,0.01,0.457,0.016,0.685c0.877,0.105,1.752,0.276,2.631,0.298
			c1.098,0.027,2.246-0.282,3.289-0.059c1.52,0.324,2.256-0.329,2.396-1.61c0.248-2.241,0.451-4.516,0.322-6.756
			c-0.049-0.859-0.914-2.131-1.668-2.362c-0.758-0.233-2.221,0.325-2.711,1.01C390.279,259.184,389.172,261.434,387.914,263.63z"/>
		<path fill-rule="evenodd" clip-rule="evenodd" fill="#F9F9F9" d="M455.021,134.117c-2.295,2.644-4.488,5.172-6.84,7.881
			c0.857,0.081,1.887-0.049,2.697,0.312c0.99,0.443,2.123,1.125,2.602,2.021c0.545,1.021,0.041,2.152-1.459,2.165
			c-6.086,0.049-12.172,0.074-18.258,0.108c-3.338-2.227-6.834-0.225-10.25-0.336c-5.088-0.165-10.092-0.701-14.236-3.874
			c-4.568-3.499-5.984-8.38-4.879-13.947c0.211-1.056,0.928-2.064,1.602-2.948c0.311-0.408,1.205-0.767,1.613-0.602
			c0.48,0.194,0.832,0.944,1.023,1.525c0.131,0.393-0.072,0.918-0.189,1.367c-1.436,5.469,1.104,10.469,6.471,12.473
			c3.377,1.26,6.818,1.806,10.379,0.522c1.932-0.695,2.975-1.99,3.783-3.826c2.008-4.565,4.066-9.123,6.412-13.521
			c0.979-1.835,2.502-3.569,4.176-4.812c8.508-6.312,15.412-14.204,22.332-22.098c0.703-0.803,1.416-1.649,2.283-2.249
			c2.246-1.554,4.133-3.275,4.285-6.258c0.014-0.269,0.598-0.783,0.729-0.729c1.125,0.465,2.229,0.996,3.295,1.584
			c0.926,0.51,1.785,1.142,2.695,1.681c1.057,0.625,2.217,1.104,3.193,1.833c1.434,1.072,2.668,2.423,4.135,3.44
			c1.16,0.807,1.521,1.691,0.879,2.862c-0.666,1.21-1.398,2.417-2.309,3.44c-0.383,0.432-1.332,0.619-1.967,0.527
			c-4.85-0.696-5.078-0.436-7.416,3.679c-1.465,2.575-1.99,4.932-1.502,7.945c0.6,3.711-1.584,6.93-3.365,10.066
			c-1.484,2.613-3.391,5.028-4.564,7.766c-1.113,2.589-1.629,5.462-2.146,8.259c-0.115,0.614,0.836,1.456,1.354,2.151
			c0.533,0.715,1.369,1.293,1.652,2.081c0.469,1.311-0.006,2.219-1.646,2.095c-0.932-0.071-1.877,0.02-2.807-0.059
			c-0.51-0.043-1.299-0.141-1.455-0.461c-0.977-1.999-2.932-3.645-2.1-6.338c0.297-0.961-0.137-2.14-0.195-3.222
			C454.988,135.875,455.021,135.122,455.021,134.117z"/>
		<path fill-rule="evenodd" clip-rule="evenodd" fill="#F9F9F9" d="M325.48,218.661c0-2.016-0.287-3.591,0.08-4.996
			c0.367-1.4,1.389-2.631,1.93-4.244c-3.621,3.378-8.082,4.555-13.188,5.521c0.49-1.23,0.744-2.295,1.293-3.178
			c3.158-5.094,8.064-7.862,13.473-9.922c5.664-2.156,9.943-5.871,12.912-11.169c3.697-6.597,7.338-13.319,12.969-18.475
			c4.07-3.725,8.637-6.933,13.158-10.122c2.311-1.63,4.203-3.425,5.467-5.962c0.891-1.785,1.787-3.669,3.117-5.103
			c1.074-1.157,2.713-2.061,4.26-2.444c2.398-0.597,4.85-0.873,6.914-2.415c0.283-0.211,0.934-0.361,1.123-0.199
			c1.967,1.676,3.783,0.121,5.65-0.188c0.305-0.05,0.613-0.078,1.037,0.283c-1.531,0.515-3.061,1.028-4.592,1.543
			c0.002,0.088,0.002,0.176,0.004,0.265c1.512,0,3.023,0,4.535,0c0.021,0.154,0.043,0.31,0.066,0.465
			c-1.439,0.219-2.877,0.437-4.314,0.655c-0.002,0.161-0.002,0.323-0.002,0.484c1.379,0.28,2.76,0.561,4.139,0.841
			c-0.014,0.148-0.027,0.296-0.041,0.444c-1.301-0.077-2.602-0.154-4.188-0.248c-1.223,4.873-4.598,8.965-4.498,14.569
			c0.066,3.788-0.562,7.886-2.766,11.335c-0.379,0.593-1.088,0.977-1.947,1.72c0.701,7.956-0.846,12.089-5.441,13.032
			c0.334-1.154,0.727-2.126,0.875-3.134c0.105-0.729-0.113-1.505-0.188-2.26c-0.678,0.278-1.537,0.378-2.004,0.86
			c-7.803,8.081-17.57,12.442-28.266,15.074c-0.777,0.19-1.57,0.318-2.361,0.447c-4.215,0.686-7.328,3.023-9.885,6.345
			c-2.314,3.005-4.766,5.904-7.217,8.799C327.152,217.797,326.424,218.059,325.48,218.661z"/>
		<path fill-rule="evenodd" clip-rule="evenodd" fill="#F9F9F9" d="M140.211,198.308c-4.104,0.435-3.7,0.227-5.124-2.974
			c-1.474-3.31-1.442-6.643-1.813-10.04c-0.309-2.822-1.157-5.582-1.666-8.389c-0.169-0.934-0.026-1.925-0.447-3.112
			c-0.317,0.604-0.909,1.208-0.909,1.812c-0.007,5.27,0.072,10.54,0.173,15.81c0.027,1.419,0.211,2.802,1.882,3.4
			c0.346,0.124,0.526,0.71,0.797,1.104c-3.01,1.185-3.988,0.44-4.421-2.511c-0.843-5.742-1.904-11.454-3.001-17.153
			c-0.133-0.692-0.938-1.593-1.609-1.789c-4.325-1.267-7.639-4.021-10.884-6.949c-0.869-0.784-1.92-1.539-3.019-1.863
			c-3.748-1.105-5.581,0.433-5.736,4.269c-0.231,5.701-1.959,10.888-5.859,15.211c-0.761,0.843-1.695,1.637-2.133,2.637
			c-0.525,1.198-1.031,2.683-0.782,3.885c0.466,2.239,0.574,4.888,3.387,5.9c0.314,0.113,0.446,0.731,0.68,1.146
			c-3.027,0.84-3.492,0.566-4.527-1.939c-0.962-2.328-2.044-4.612-3.179-6.862c-0.651-1.29-0.105-2.122,0.699-3.029
			c2.948-3.323,3.879-7.094,2.349-11.345c-0.225-0.624-0.631-1.185-1.118-2.076c-0.936,4.416-2.938,7.344-6.671,9.318
			c-4.117,2.179-6.366,5.995-7.211,10.545c-0.115,0.623,0.509,1.405,0.849,2.085c0.219,0.436,0.544,0.817,0.822,1.225
			c-0.084,0.194-0.168,0.389-0.251,0.583c-1.088-0.194-2.52-0.045-3.16-0.686c-0.567-0.568-0.354-2.02-0.305-3.072
			c0.039-0.855,0.448-1.69,0.514-2.548c0.217-2.827,0.479-5.597,3.279-7.255c0.174-0.103,0.199-0.453,0.532-1.28
			c-3.38,0.483-6.386,0.914-9.491,1.358c3.967-3.118,9.188-1.554,13.415-3.415c-0.042-0.194-0.084-0.389-0.125-0.583
			c-0.6,0.062-1.199,0.125-1.953,0.203c0.098-0.474,0.107-0.938,0.287-1.323c1.481-3.163,1.357-6.328,0.994-9.801
			c-0.605-5.785,4.677-13.294,11.703-14.866c5.997-1.342,11.893-1.154,17.907-0.263c4.433,0.657,9.011,0.933,13-1.775
			c1.268-0.861,2.619-2.079,3.159-3.441c1.568-3.958,4.375-6.835,7.454-9.524c2.211-1.931,7.682-2.029,9.513,0.29
			c2.03,2.573,4.83,3.406,7.472,4.727c0.505,0.253,0.983,0.561,1.777,1.017c-2.045,1.253-3.815,1.908-5.913,1.6
			c-1.847-0.272-3.719-0.595-5.572-0.557c-2.897,0.059-4.451,1.254-4.873,4.08c-0.694,4.664-1.014,9.382-1.581,14.066
			c-0.295,2.442-0.534,4.934-1.228,7.276c-2.006,6.779-2.054,13.72-1.969,20.668c0.021,1.72,0.241,3.644,2.498,4.341
			C139.343,196.603,139.636,197.5,140.211,198.308z"/>
		<path fill-rule="evenodd" clip-rule="evenodd" fill="#F9F9F9" d="M179.698,177.173c-0.657,4.033-1.447,7.949-1.865,11.903
			c-0.169,1.591,0.309,3.316,0.782,4.894c1.382,4.601,1.683,5.517-4.037,5.365c-1.206-0.032-1.709-0.526-1.711-1.678
			c-0.016-6.325-0.037-12.65-0.056-18.975c-0.003-0.735,0.156-1.517-0.037-2.198c-1.528-5.381-0.296-10.434,1.706-15.412
			c0.954-2.371-0.466-4.724-2.95-4.901c-4.463-0.319-5.162-1.546-3.986-5.899c0.681-2.521,0.741-5.207,1.192-7.798
			c0.283-1.628,0.774-3.219,1.183-4.867c0.037-0.007,0.261-0.081,0.279-0.046c1.09,2.083,2.883,1.747,4.705,1.419
			c0.517-0.093,1.069-0.048,1.598,0.008c1.883,0.196,4.082,1.228,4.354-2.791c1.768,3.401,3.936,5.269,4.188,8.677
			c0.228,3.075,2.122,6.043,3.395,9.009c0.222,0.516,0.957,0.969,1.546,1.145c3.872,1.157,7.788,2.171,11.649,3.361
			c1.502,0.463,2.889,1.293,4.353,1.896c0.508,0.209,1.16,0.453,1.626,0.305c1.781-0.566,2.202,0.475,1.828,1.732
			c-0.467,1.567,0.081,2.621,0.87,3.858c0.776,1.218,1.517,2.607,1.736,4.006c0.656,4.189,1.036,8.422,1.551,12.635
			c0.33,2.693,0.302,5.505,2.946,7.338c0.52,0.36,0.576,1.39,0.847,2.11c-0.66,0.178-1.321,0.506-1.982,0.507
			c-2.638,0.004-3.585-1.537-4.104-4.046c-0.699-3.381-0.934-7.142-4.267-9.454c-1.027-0.713-1.943-1.671-2.69-2.681
			c-0.596-0.806-0.857-1.858-1.313-2.909c0.001,0-0.316,0.167-0.501,0.429c-1.427,2.015-2.842,4.038-4.224,6.084
			c-0.251,0.372-0.453,0.857-0.468,1.297c-0.129,3.864-0.232,7.73-0.295,11.596c-0.031,1.918,0.106,3.839,0.047,5.754
			c-0.052,1.687-2.053,2.159-5.605,1.651c-1.889-0.27-1.968-1.674-1.337-2.582c1.685-2.426,1.772-5.259,1.803-7.84
			c0.039-3.248-0.942-6.523-1.658-9.747c-0.086-0.393-1.293-0.84-1.916-0.759C185.411,180.021,182.218,179.615,179.698,177.173z"/>
		<path fill-rule="evenodd" clip-rule="evenodd" fill="#F9F9F9" d="M424.492,166.826c-8.207-6.995-17.488-5.561-26.98-4.971
			c2.572-1.712,4.678-3.396,7.037-4.566c1.193-0.592,2.885-0.506,4.285-0.295c4.814,0.726,9.584,1.746,14.404,2.43
			c1.678,0.238,3.533,0.123,5.16-0.343c6.865-1.967,12.949,0.164,18.795,3.399c5.014,2.775,9.711,6.136,15.531,7.229
			c1.699,0.319,1.629,1.446,0.924,3.012c-1.432,3.175-4.467,3.556-7.125,4.161c-3.818,0.872-7.811,1.24-11.342-1.442
			c0.203-0.44,0.383-0.836,0.646-1.413c-0.416,0.032-0.758-0.045-0.879,0.084c-1.176,1.259-2.176,2.726-3.5,3.794
			c-2.121,1.711-4.447,3.165-6.689,4.722c-0.107,0.074-0.273,0.064-0.373,0.144c-2.17,1.754-4.326,3.526-6.508,5.269
			c-0.76,0.609-1.615,1.104-2.361,1.727c-1.881,1.569-3.719,3.192-5.59,4.774c-0.623,0.527-1.281,1.018-1.955,1.479
			c-0.312,0.215-0.76,0.249-1.043,0.487c-1.688,1.42-3.148,3.598-5.068,4.128c-2.184,0.604-2.967,3.578-5.631,2.875
			c-0.16-0.043-0.5,0.235-0.621,0.442c-1.521,2.609-4.914,1.979-6.957,3.932c0.074-0.614,0.146-1.229,0.25-2.107
			c-1.529,1.087-2.91,2.068-4.291,3.049c-0.152-0.139-0.301-0.278-0.453-0.418c0.598-1.065,1.195-2.132,1.791-3.197
			c-0.111-0.092-0.225-0.182-0.336-0.273c-1.293,0.818-2.586,1.636-3.881,2.454c-0.148-0.137-0.299-0.272-0.449-0.408
			c0.68-1.009,1.359-2.018,2.348-3.485c-1.627,0.913-2.785,1.562-3.943,2.213c-0.098-0.113-0.195-0.225-0.295-0.338
			c0.217-0.343,0.398-0.715,0.652-1.025c3.648-4.432,7.295-8.864,10.963-13.278c1.281-1.539,2.676-2.986,3.926-4.549
			c1.291-1.613,2.822-3.161,3.639-5.008c2.824-6.398,8.199-10.034,13.846-13.451C422.967,167.727,423.52,167.403,424.492,166.826z"
			/>
		<path fill-rule="evenodd" clip-rule="evenodd" fill="#F9F9F9" d="M133.942,117.372c-2.365,1.737-4.908,1.519-7.397,1.42
			c-3.176-0.125-3.531,0.114-4.34,3.095c-0.258,0.952-0.673,1.882-1.147,2.75c-1.09,1.992-0.117,3.913,2.171,4.107
			c1.497,0.127,2.486,0.738,2.677,2.33c-4.112,1.442-7.14-0.84-10.202-2.745c-0.431-0.267-0.447-1.445-0.403-2.187
			c0.167-2.756,0.344-5.493-1.188-7.986c-0.138-0.226-0.296-0.444-0.479-0.632c-0.075-0.077-0.241-0.066-0.584-0.146
			c0.88,1.868-0.342,2.501-1.632,3.262c-2.468,1.456-4.85,3.058-7.266,4.602c-1.2,0.767-1.035,2.483,0.263,3.721
			c0.608,0.58,1.062,1.322,1.92,2.415c-1.881,0.133-3.134,0.355-4.358,0.251c-0.611-0.052-1.566-0.607-1.684-1.099
			c-0.421-1.755-0.641-3.574-0.769-5.381c-0.219-3.075,1.272-5.386,3.281-7.603c0.918-1.013,1.173-2.651,1.648-4.033
			c0.673-1.954,1.209-3.957,1.925-5.895c0.46-1.246,0.24-1.955-1.132-2.092c-3.573-0.355-7.143-0.875-10.725-0.979
			c-3.766-0.108-7.514-0.083-10.946-1.876c-0.577-0.302-0.884-1.12-1.315-1.7c0.682-0.266,1.486-0.911,2.024-0.736
			c3.843,1.247,7.67,0.509,11.533,0.266c2.772-0.175,5.577,0.146,8.368,0.217c2.128,0.053,4.373,0.509,6.362-0.003
			c5.323-1.371,10.452-0.632,15.653,0.489c2.467,0.532,4.996,0.916,7.514,1.044c7.262,0.371,14.552,1.504,21.786-0.128
			c2.31-0.521,4.525-1.457,6.861-2.229c-0.085-0.131,0.062,0.023,0.036,0.064c-2.23,3.456,0.946,5.993,1.57,8.949
			c0.417,1.974-0.992,4.301-3.064,4.399c-1.335,0.063-2.675,0.071-4.011,0.049c-2.305-0.039-3.063,0.781-3.776,2.943
			c-1.019,3.089,0.816,5.187,2.369,7.204c1.557,2.023,2.493,4.871,5.623,5.358c0.335,0.053,0.562,0.796,0.839,1.218
			c-0.415,0.266-0.812,0.722-1.248,0.765c-2.229,0.221-4.125-0.007-5.966-1.874c-2.886-2.927-6.141-5.558-9.521-7.911
			c-3.266-2.274-4.754-1.745-5.972,1.354c-0.784,1.998-1.844,3.888-2.821,5.91c0.745,0.427,1.137,0.552,1.383,0.814
			c0.363,0.389,0.623,0.874,0.927,1.319c-0.453,0.307-0.869,0.762-1.367,0.885c-0.631,0.156-1.329,0.024-1.998,0.049
			c-1.72,0.062-2.432-0.731-2.269-2.459c0.318-3.369,0.572-6.745,0.842-10.119C133.972,118.375,133.942,117.937,133.942,117.372z"/>
		<path fill-rule="evenodd" clip-rule="evenodd" fill="#F9F9F9" d="M287.762,244.03c0.297-0.541,0.574-1.094,0.896-1.619
			c0.336-0.552,0.713-1.078,1.072-1.615c-0.105-0.149-0.213-0.298-0.32-0.446c-1.301,0.771-2.602,1.544-3.902,2.315
			c-0.092-0.122-0.186-0.244-0.279-0.366c1.133-0.906,2.266-1.813,3.709-2.969c-2.273-0.54-3.688,1.258-5.623,1.058
			c1.178-0.631,2.357-1.263,3.566-1.91c0.328-4.743,4.002-8.926,9.398-9.384c2.324-0.197,4.709,0.103,6.994-0.265
			c2.252-0.361,4.566-0.981,6.59-2.01c6.785-3.451,13.682-4.242,20.645-0.969c4.637,2.18,7.609,6.215,10.041,10.612
			c1.033,1.869,2.025,3.768,2.918,5.706c1.32,2.862,3.578,4.548,6.451,5.634c3.807,1.438,7.602,2.917,11.344,4.516
			c1.201,0.513,2.297,1.368,3.291,2.238c1.164,1.02,2.309,2.23,1.635,3.985c-0.709,1.845-2.348,2.385-4.15,2.669
			c-2.953,0.466-5.553-0.656-8.109-1.797c-5.646-2.521-10.631-5.902-14.002-11.283c-0.584-0.935-1.348-1.519-2.42-0.42
			c-0.342,0.351-0.93,0.542-1.436,0.632c-1.115,0.198-1.723,0.581-1.262,1.869c0.447,1.249-0.246,1.649-1.416,1.738
			c-3.064,0.236-6.119,0.718-9.184,0.77c-2.082,0.035-4.174-0.488-6.889-0.845c2.82-3.02,6.104-2.646,9.447-2.475
			c-1.922-1.436-3.562-2.661-5.35-3.997c0.041,0.452,0.082,0.889,0.148,1.625c-1.248,0-2.551,0.244-3.723-0.046
			c-3.361-0.834-5.922,0.75-8.416,2.529c-1.029,0.733-1.852,1.752-2.781,2.626c-0.189,0.177-0.441,0.402-0.668,0.405
			c-2.369,0.03-4.742,0.019-7.113,0.019c-0.088-0.188-0.176-0.377-0.264-0.565c0.768-0.413,1.496-1.056,2.309-1.186
			c1.186-0.189,2.092-0.41,2.188-1.813c0.016-0.247,0.184-0.502,0.334-0.719c0.562-0.813,1.867-1.376,0.947-2.688
			c-1.07-1.524-2.096-3.071-4.217-3.341c-2.562-0.326-5.102-0.872-7.67-1.123c-0.77-0.075-1.742,0.346-2.377,0.85
			c-0.773,0.613-1.289,1.554-1.916,2.353C288.053,244.228,287.908,244.129,287.762,244.03z"/>
		<path fill-rule="evenodd" clip-rule="evenodd" fill="#F9F9F9" d="M296.461,259.656c-0.238-0.19-0.51-0.351-0.707-0.576
			c-0.275-0.317-0.771-0.864-0.686-0.995c0.252-0.388,0.814-0.934,1.131-0.862c1.857,0.421,4.037,0.536,5.439,1.62
			c2.982,2.306,5.672,5.033,8.242,7.811c1.184,1.279,2.115,2.125,4.023,1.916c1.297-0.142,2.766,0.325,4.006,0.867
			c1.824,0.797,3.506,1.92,5.264,2.874c2.199,1.191,2.375,3.312,0.285,4.848c-0.721,0.53-1.65,0.935-2.531,1.057
			c-1.842,0.254-2.551,1.222-2.416,2.992c0.109,1.466,0.146,2.938,0.275,4.401c0.455,5.107-0.5,7.437-4.518,10.731
			c-0.32-0.268-0.662-0.553-1.002-0.837c-0.213,0.102-0.426,0.204-0.639,0.307c0.846,2.395,1.645,4.807,2.555,7.176
			c0.504,1.306,1.297,2.5,1.781,3.811c0.744,2.022,1.35,3.997,3.914,4.534c0.656,0.138,1.115,1.22,1.664,1.867
			c-0.105,0.211-0.211,0.421-0.318,0.631c-2.15,0-4.301,0.037-6.449-0.048c-0.256-0.01-0.527-0.655-0.723-1.041
			c-1.746-3.45-3.469-6.913-5.229-10.358c-0.266-0.52-0.682-0.963-1.225-1.713c-1.291,2.12-2.207,4.294-3.717,5.914
			c-1.514,1.626-3.619,2.7-5.467,4.017c0.049,0.19,0.098,0.381,0.146,0.571c1.352-0.281,2.723-0.49,4.049-0.857
			c2.572-0.713,4.92-0.259,6.949,1.389c0.578,0.468,0.754,1.431,1.115,2.166c-0.715,0.248-1.426,0.703-2.143,0.71
			c-5.205,0.045-10.41-0.01-15.617-0.01c-1.551,0-3.426,0.401-1.949-2.494c-0.727,0.109-1.146,0.053-1.406,0.229
			c-3.453,2.353-6.766,1.896-9.447-1.495c-0.805-1.019-1.531-2.254-1.807-3.498c-0.451-2.024,0.773-2.895,2.721-2.132
			c1.047,0.41,2.061,0.906,3.297,1.456c-0.182-1.67-0.416-3.102-0.479-4.542c-0.365-8.348,2.727-15.062,9.893-19.493
			c1.963-1.213,4.488-1.827,6.82-2.056c3.451-0.338,5.385-2.28,6.727-5.1c0.277-0.583,0.219-1.657-0.152-2.159
			c-1.238-1.672-2.707-2.78-5.07-3.059c-4.943-0.583-8.668-3.345-10.914-7.849c-0.982-1.969-0.203-2.962,1.975-2.734
			c0.715,0.075,1.418,0.253,2.127,0.383C296.32,259.902,296.391,259.779,296.461,259.656z"/>
		<path fill-rule="evenodd" clip-rule="evenodd" fill="#F9F9F9" d="M72.626,226.457c1.747,0.413,2.867,0.678,3.986,0.942
			c-0.031,0.121-0.062,0.241-0.093,0.362c-2.563,0.201-5.126,0.403-7.69,0.604c-0.006,0.181-0.012,0.361-0.018,0.543
			c0.308,0.061,0.613,0.142,0.924,0.179c0.462,0.055,0.952,0.002,1.384,0.141c0.32,0.104,0.565,0.438,0.82,0.649
			c-4.234,0.461-8.365,0.911-12.916,1.407c0.715-0.573,1.131-0.908,1.907-1.53c-1.563,0.211-2.739,0.37-3.914,0.528
			c1.686-1.52,3.605-1.609,5.615-1.118c1.396,0.342,2.615,0.233,3.762-1.564c-1.554,0.146-2.713,0.254-3.87,0.362
			c-0.046-0.211-0.091-0.422-0.136-0.633c1.198-0.227,2.439-0.328,3.581-0.722c0.839-0.288,1.819-0.805,2.214-1.512
			c0.255-0.457-0.243-1.624-0.744-2.146c-0.801-0.835-1.793-1.705-2.863-2.025c-7.995-2.396-12.388-8.188-14.529-15.779
			c-1.056-3.745-1.315-7.742-1.681-11.649c-0.446-4.78-2.775-8.029-6.835-8.663c-1.373-0.215-2.832,0.122-4.447-0.016
			c3.072-0.696,3.734-3.436,5.25-5.501c1.555-2.121,5.391-2.216,7.608-0.116c1.64,1.552,3.167,3.536,3.939,5.626
			c2.043,5.525,5.263,9.879,10.595,12.508c2.032,1.002,4.197,1.744,6.202,2.794c5.202,2.726,10.409,5.453,15.495,8.387
			c2.854,1.646,5.472,3.703,8.188,5.568c-0.08,0.094-0.304,0.356-0.68,0.8c2.979,0.439,5.719,0.844,8.594,1.268
			c-0.251,0.87-0.408,1.415-0.622,2.154c2.736,1.449,5.471,2.899,8.205,4.349c-0.043,0.198-0.085,0.396-0.128,0.595
			c-0.764,0-1.588,0.19-2.279-0.034c-2.665-0.862-5.355-1.707-7.906-2.848c-2.208-0.988-4.31-1.427-6.748-0.999
			c-2.753,0.482-5.603,0.393-8.375,0.791c-2.63,0.378-5.398,0.668-7.755,1.757C75.084,222.648,74.115,224.705,72.626,226.457z
			 M72.167,222.96c-1.15,1.618-2.072,2.916-3.184,4.479C71.255,226.725,72.402,225.186,72.167,222.96z"/>
		<path fill-rule="evenodd" clip-rule="evenodd" fill="#F9F9F9" d="M179.949,399.958c0,7.601,0,15.2,0,22.9
			c-2.635,0-5.148,0-7.827,0c0-10.448,0-20.835,0-31.448c4.132,0,8.196-0.047,12.257,0.068c0.43,0.012,1.023,0.907,1.219,1.498
			c1.92,5.839,3.771,11.699,5.646,17.553c0.161,0.502,0.359,0.991,0.698,1.917c2.438-7.244,4.746-14.102,7.049-20.943
			c4.255,0,8.38,0,12.626,0c0,10.446,0,20.791,0,31.296c-2.569,0-5.145,0-7.913,0c0-7.697,0-15.451,0-23.206
			c-0.138-0.026-0.274-0.054-0.411-0.081c-0.24,0.655-0.496,1.306-0.716,1.968c-2.19,6.595-4.405,13.181-6.534,19.795
			c-0.416,1.292-1.006,1.841-2.41,1.715c-1.916-0.173-4.312,0.525-5.644-0.394c-1.234-0.853-1.363-3.333-1.936-5.11
			c-1.721-5.342-3.42-10.69-5.129-16.036c-0.173-0.543-0.359-1.082-0.54-1.623C180.24,399.87,180.094,399.914,179.949,399.958z"/>
		<path fill-rule="evenodd" clip-rule="evenodd" fill="#F9F9F9" d="M274.486,412.079c0-6.807,0-13.614,0-20.55
			c2.473,0,4.848,0,7.371,0c0,10.423,0,20.81,0,31.425c-3.201,0-6.33,0.073-9.447-0.068c-0.557-0.025-1.254-0.854-1.578-1.473
			c-3.066-5.86-6.066-11.757-9.086-17.643c-0.305-0.591-0.615-1.179-1.178-2.255c0,7.39,0,14.261,0,21.287c-2.516,0-4.937,0-7.49,0
			c0-10.439,0-20.83,0-31.397c3.341,0,6.542-0.072,9.736,0.07c0.547,0.024,1.232,0.872,1.551,1.495
			c2.975,5.834,5.883,11.702,8.814,17.558c0.289,0.574,0.613,1.129,0.92,1.692C274.229,412.174,274.357,412.126,274.486,412.079z"/>
		<path fill-rule="evenodd" clip-rule="evenodd" fill="#F9F9F9" d="M132.218,391.581c0,10.396,0,20.735,0,31.229
			c-2.647,0-5.28,0-8.168,0c0-4.396,0-8.778,0-13.285c-3.423,0-6.594,0-10.027,0c0,4.455,0,8.835,0,13.322c-2.835,0-5.41,0-8.166,0
			c0-10.405,0-20.788,0-31.3c2.621,0,5.203,0,8.084,0c0,3.892,0,7.79,0,11.811c3.466,0,6.636,0,10.039,0c0-3.931,0-7.777,0-11.777
			C126.833,391.581,129.458,391.581,132.218,391.581z"/>
		<path fill-rule="evenodd" clip-rule="evenodd" fill="#F9F9F9" d="M249.002,422.954c-2.675,0-5.331,0.057-7.98-0.056
			c-0.453-0.019-1.063-0.677-1.277-1.178c-0.603-1.408-0.932-2.939-1.587-4.317c-0.26-0.546-1.084-1.138-1.672-1.16
			c-3.073-0.115-6.153-0.017-9.23-0.075c-1.022-0.019-1.562,0.273-1.89,1.295c-0.589,1.837-1.34,3.621-2.028,5.441
			c-2.769,0-5.438,0-8.307,0c0.192-0.653,0.319-1.22,0.523-1.757c3.561-9.364,7.162-18.713,10.662-28.1
			c0.486-1.304,1.103-1.741,2.457-1.679c2.403,0.109,4.819-0.034,7.223,0.08c0.56,0.026,1.396,0.543,1.589,1.036
			c3.884,9.884,7.694,19.796,11.509,29.706C249.059,422.36,249.002,422.575,249.002,422.954z M235.756,410.167
			c-1.252-4.117-2.418-7.953-3.584-11.787c-0.146-0.005-0.29-0.01-0.437-0.015c-1.288,3.885-2.576,7.77-3.914,11.802
			C230.496,410.167,232.947,410.167,235.756,410.167z"/>
		<path fill-rule="evenodd" clip-rule="evenodd" fill="#F9F9F9" d="M157.816,391.496c2.681,0,5.266,0,7.97,0
			c0.054,0.529,0.139,0.977,0.14,1.424c0.008,5.953,0.054,11.905-0.009,17.857c-0.077,7.353-3.614,11.553-10.897,12.441
			c-2.723,0.333-5.635,0.068-8.327-0.526c-4.801-1.061-7.911-4.35-8.172-9.219c-0.388-7.254-0.101-14.543-0.101-21.945
			c2.684,0,5.318,0,8.219,0c0,0.777-0.002,1.489,0,2.201c0.015,5.752-0.032,11.505,0.069,17.255c0.063,3.544,1.5,5.564,4.044,6.163
			c3.04,0.716,5.565-0.688,6.303-3.713c0.375-1.54,0.484-3.172,0.505-4.765c0.069-5.55,0.046-11.101,0.065-16.651
			C157.625,391.897,157.71,391.776,157.816,391.496z"/>
		<path fill-rule="evenodd" clip-rule="evenodd" fill="#F9F9F9" d="M296.643,397.337c0,2.311,0,4.297,0,6.567
			c3.674,0,7.264,0.098,10.846-0.041c1.781-0.068,2.439,0.461,2.225,2.244c-0.133,1.111-0.023,2.252-0.023,3.621
			c-4.389,0-8.627,0-13,0c0,2.484,0,4.728,0,7.249c4.65,0,9.35,0,14.152,0c0,2.057,0,3.841,0,5.808c-7.436,0-14.885,0-22.494,0
			c0-10.342,0-20.729,0-31.241c7.301,0,14.553,0,21.941,0c0,1.94,0,3.775,0,5.793C305.721,397.337,301.264,397.337,296.643,397.337z
			"/>
		<path fill-rule="evenodd" clip-rule="evenodd" fill="#F9F9F9" d="M352.375,408.611c0.031-9.413,3.506-14.852,9.723-16.85
			c12.41-3.991,22.877,4.922,21.02,17.899c-1.645,11.495-12.496,17.311-22.852,12.162
			C354.15,418.783,352.479,413.264,352.375,408.611z M377.133,407.417c-0.668-2.406-1.072-4.939-2.072-7.21
			c-1.293-2.932-3.896-4.349-7.105-4.396c-3.291-0.049-5.914,1.354-7.391,4.304c-2.363,4.721-2.34,9.565,0.055,14.277
			c1.467,2.888,4.047,4.214,7.24,4.198c3.199-0.017,5.812-1.366,7.158-4.301C375.973,412.207,376.396,409.883,377.133,407.417z"/>
		<path fill-rule="evenodd" clip-rule="evenodd" fill="#F9F9F9" d="M35.17,391.533c2.044,0,3.947,0,6.095,0
			c0,4.217,0,8.329,0,12.548c4.299,0,8.355,0,12.634,0c0-4.08,0-8.188,0-12.478c2.17,0,4.13,0,6.262,0c0,10.325,0,20.708,0,31.227
			c-1.96,0-3.923,0-6.083,0c0-4.51,0-8.963,0-13.769c-2.823,0-5.464,0-8.104,0c-4.683,0-4.683,0-4.683,4.747
			c0,2.992,0,5.984,0,9.057c-2.181,0-4.087,0-6.12,0C35.17,412.429,35.17,402.092,35.17,391.533z"/>
		<path fill-rule="evenodd" clip-rule="evenodd" fill="#F9F9F9" d="M435.186,404.225c3.775,0,7.363,0,11.057,0
			c0,1.594,0,3.038,0,4.753c-3.609,0-7.24,0-11.018,0c0,3.096,0,5.924,0,9.046c4.061,0,8.094,0,12.199,0c0,1.741,0,3.191,0,4.792
			c-6.178,0-12.287,0-18.527,0c0-10.369,0-20.704,0-31.218c6.004,0,12.039,0,18.447,0c0,1.27,0.107,2.583-0.066,3.858
			c-0.051,0.363-0.91,0.862-1.412,0.877c-2.807,0.086-5.615,0.043-8.424,0.044c-0.717,0-1.432,0-2.256,0
			C435.186,399.049,435.186,401.49,435.186,404.225z"/>
		<path fill-rule="evenodd" clip-rule="evenodd" fill="#F9F9F9" d="M68.029,391.516c6.175,0,12.17,0,18.296,0c0,1.586,0,3.09,0,4.84
			c-3.996,0-7.982,0-12.099,0c0,2.683,0,5.122,0,7.759c3.633,0,7.215,0,10.97,0c0,1.677,0,3.162,0,4.948
			c-3.055,0-6.11,0.064-9.162-0.029c-1.445-0.044-2.082,0.321-1.973,1.889c0.126,1.799,0.102,3.616,0.007,5.419
			c-0.072,1.357,0.483,1.721,1.754,1.698c3.47-0.062,6.94-0.022,10.548-0.022c0,1.691,0,3.188,0,4.818c-6.089,0-12.141,0-18.341,0
			C68.029,412.423,68.029,402.083,68.029,391.516z"/>
		<path fill-rule="evenodd" clip-rule="evenodd" fill="#F9F9F9" d="M329.623,422.198c0.215-1.936,0.396-3.574,0.576-5.198
			c2.045,0.54,3.877,1.332,5.744,1.426c1.715,0.086,3.641-0.233,5.164-0.995c2.508-1.253,2.553-4.363,0.178-5.867
			c-1.619-1.023-3.465-1.7-5.238-2.463c-2.883-1.24-5.582-2.658-6.555-5.977c-1.818-6.195,1.971-11.497,8.893-12.074
			c2.49-0.208,5.041,0.303,7.562,0.504c1.34,0.106,1.838,0.814,1.559,2.151c-0.215,1.039-0.312,2.104-0.467,3.185
			c-1.688-0.348-3.299-0.89-4.93-0.954c-1.482-0.059-3.141,0.077-4.445,0.702c-2.658,1.271-2.732,4.871-0.168,6.31
			c2.025,1.136,4.271,1.87,6.387,2.855c4.703,2.194,6.502,5.892,5.305,10.785c-0.672,2.738-2.383,4.604-4.949,5.648
			C339.416,424.198,334.594,423.626,329.623,422.198z"/>
		<path fill-rule="evenodd" clip-rule="evenodd" fill="#F9F9F9" d="M410.568,397.306c-6.52-2.512-11.639-1.721-14.826,2.137
			c-3.119,3.775-3.473,10.338-0.781,14.517c2.893,4.49,7.598,5.578,15.793,3.522c0,1.675,0,3.282,0,5.031
			c-4.682,1.226-9.484,1.438-14.25-0.167c-7.129-2.4-10.807-8.771-9.809-16.834c1.455-11.759,12.613-17.893,24.332-13.202
			C410.881,393.897,410.73,395.543,410.568,397.306z"/>
		<path fill-rule="evenodd" clip-rule="evenodd" fill="#F9F9F9" d="M491.162,404.646c2.24-3.89,4.451-7.539,6.455-11.298
			c0.803-1.509,1.719-2.179,3.43-1.979c1.297,0.152,2.623,0.03,4.238,0.03c-0.459,0.853-0.744,1.431-1.072,1.984
			c-2.998,5.064-6.059,10.093-8.965,15.209c-0.654,1.15-1.033,2.592-1.092,3.919c-0.152,3.392-0.051,6.795-0.051,10.319
			c-2.162,0-4.127,0-6.312,0c0-3.606,0.066-7.137-0.041-10.661c-0.033-1.072-0.34-2.254-0.881-3.174
			c-3.389-5.759-6.879-11.457-10.58-17.579c2.482,0,4.645-0.078,6.791,0.062c0.465,0.03,0.99,0.784,1.297,1.315
			c1.912,3.296,3.77,6.625,5.648,9.94C490.354,403.31,490.701,403.87,491.162,404.646z"/>
		<path fill-rule="evenodd" clip-rule="evenodd" fill="#F9F9F9" d="M474.594,391.559c0.609,4.818,0.609,4.818-3.98,4.818
			c-1.582,0-3.164,0-4.898,0c0,8.929,0,17.599,0,26.428c-2.113,0-4.072,0-6.289,0c0-8.725,0-17.44,0-26.386
			c-3.088,0-5.926,0-8.904,0c0-1.725,0-3.222,0-4.86C458.52,391.559,466.5,391.559,474.594,391.559z"/>
		<path fill-rule="evenodd" clip-rule="evenodd" fill="#F9F9F9" d="M30.874,396.398c-2.996,0-5.851,0-8.971,0
			c0,8.913,0,17.635,0,26.459c-2.115,0-3.963,0-6.097,0c0-8.714,0-17.426,0-26.408c-3.171,0-6.07,0-9.092,0c0-1.77,0-3.268,0-4.897
			c8.031,0,16.023,0,24.159,0C30.874,393.079,30.874,394.582,30.874,396.398z"/>
		<path fill-rule="evenodd" clip-rule="evenodd" fill="#F9F9F9" d="M422.627,391.421c0,10.617,0,20.96,0,31.423
			c-2.01,0-3.91,0-5.98,0c-0.047-0.724-0.121-1.37-0.123-2.017c-0.006-9.101,0.033-18.201-0.039-27.301
			c-0.012-1.651,0.432-2.311,2.131-2.132C419.863,391.526,421.137,391.421,422.627,391.421z"/>
		<path fill-rule="evenodd" clip-rule="evenodd" fill="#F9F9F9" d="M419.449,349.127c-3.295-0.04-5.793-2.512-5.736-5.673
			c0.057-3.004,2.596-5.267,5.912-5.266c3.162,0.002,5.777,2.47,5.771,5.446C425.391,346.697,422.717,349.167,419.449,349.127z
			 M424.43,343.633c0.014-2.645-2.152-4.678-4.969-4.664c-2.691,0.013-4.809,2.016-4.852,4.587
			c-0.043,2.625,2.148,4.785,4.871,4.804C422.215,348.378,424.414,346.278,424.43,343.633z"/>
		<path fill-rule="evenodd" clip-rule="evenodd" fill="#F9F9F9" d="M29.279,99.575c1.066,1.283,1.982,2.386,3.042,3.662
			c-0.518,0.591-1.06,1.209-1.59,1.814C28.79,103.632,28.413,102.21,29.279,99.575z"/>
		<path fill-rule="evenodd" clip-rule="evenodd" fill="#F9F9F9" d="M420.828,344.036c0.189,0.375,0.643,1.262,1.094,2.149
			c-0.141,0.095-0.283,0.19-0.424,0.285c-0.797-0.933-1.592-1.866-2.73-3.2c-0.27,1.472-0.416,2.269-0.562,3.065
			c-0.145-0.002-0.289-0.003-0.436-0.005c0-1.877,0-3.754,0-6.153c1.254,0.376,2.525,0.668,3.676,1.213
			C421.592,341.46,421.115,342.848,420.828,344.036z"/>
	</g>
</g>
</svg>
