<?xml version="1.0" encoding="utf-8"?>
<!-- Generator: Adobe Illustrator 16.0.0, SVG Export Plug-In . SVG Version: 6.00 Build 0)  -->
<!DOCTYPE svg PUBLIC "-//W3C//DTD SVG 1.1//EN" "http://www.w3.org/Graphics/SVG/1.1/DTD/svg11.dtd">
<svg version="1.1" id="Layer_1" xmlns="http://www.w3.org/2000/svg" xmlns:xlink="http://www.w3.org/1999/xlink" x="0px" y="0px"
	 width="150px" height="68.558px" viewBox="0 0 150 68.558" enable-background="new 0 0 150 68.558" xml:space="preserve">
<g>
	<g>
		<path fill="#314752" d="M75.803,30.603c14.73-8.265,32.02-7.686,45.744,0.017C103.435,3.307,67.046-5.815,38.01,10.486
			C17.386,22.064,5.774,43.115,5.75,65.193c12.584-11.437,30.909-18.65,51.324-18.65c20.551,0,38.986,7.312,51.577,18.883h23.467
			c0-0.028,0-0.055,0.001-0.08c-0.012-0.049,7.499,0.043,11.931,0.08h3.173C141.221,40.35,100.88,24.604,75.803,30.603z"/>
		<path fill="#526E7D" d="M136.805,48.322c-15.103-14.569-42.299-22.194-61.002-17.719c14.73-8.265,32.02-7.686,45.744,0.017
			c-1.888-2.846-3.984-5.483-6.24-7.927c-14.823-4.663-31.86-5.089-44.582-0.834C50.746,28.544,14.397,46.94,5.95,65.006
			c12.577-11.329,30.819-18.463,51.125-18.463c12.716,0,24.615,2.806,34.833,7.676l39.156-5.09c-0.005-0.029-0.011-0.058-0.013-0.08
			C131.042,49.021,133.716,48.694,136.805,48.322z"/>
	</g>
</g>
<rect x="175.738" y="-37.276" fill="#F9F9FA" width="57.143" height="57.143"/>
<rect x="232.881" y="-37.276" fill="#DCDEDD" width="57.143" height="57.143"/>
<rect x="290.023" y="-37.276" fill="#E3EBEF" width="57.143" height="57.143"/>
<rect x="290.023" y="19.866" fill="#A9B0B5" width="57.143" height="57.143"/>
<rect x="290.023" y="77.397" fill="#1E303A" width="57.143" height="57.143"/>
<rect x="175.738" y="19.866" fill="#526E7D" width="57.143" height="57.143"/>
<rect x="232.881" y="19.866" fill="#314752" width="57.143" height="57.143"/>
</svg>
