<?xml version="1.0" encoding="utf-8"?>
<!-- Generator: Adobe Illustrator 16.0.0, SVG Export Plug-In . SVG Version: 6.00 Build 0)  -->
<!DOCTYPE svg PUBLIC "-//W3C//DTD SVG 1.1//EN" "http://www.w3.org/Graphics/SVG/1.1/DTD/svg11.dtd">
<svg version="1.1" id="marian-logo_x28_blue_x29__xA0_Image_copy"
	 xmlns="http://www.w3.org/2000/svg" xmlns:xlink="http://www.w3.org/1999/xlink" x="0px" y="0px" width="469px" height="263.5px"
	 viewBox="0 0 469 263.5" enable-background="new 0 0 469 263.5" xml:space="preserve">
<g>
	<g>
		<polygon fill="#F9F9F9" points="282.423,155.34 274.882,140.448 267.939,154.157 275.48,169.05 		"/>
		<polygon fill="#F9F9F9" points="272.678,174.584 265.137,159.691 257.845,174.092 265.386,188.983 		"/>
		<polygon fill="#F9F9F9" points="311.425,135.898 304.649,122.519 298.056,135.538 304.824,148.903 		"/>
		<polygon fill="#F9F9F9" points="302.019,154.432 295.254,141.072 288.028,155.34 294.785,168.683 		"/>
		<polygon fill="#F9F9F9" points="272.641,136.021 265.219,121.366 258.276,135.076 265.697,149.731 		"/>
		<polygon fill="#F9F9F9" points="291.979,174.211 285.226,160.874 278.283,174.584 285.029,187.904 		"/>
		<polygon fill="#F9F9F9" points="292.451,135.538 284.909,120.646 277.685,134.914 285.226,149.806 		"/>
		<polygon fill="#F9F9F9" points="233.784,135.434 226.073,120.205 218.275,135.604 225.987,150.834 		"/>
		<polygon fill="#F9F9F9" points="234.22,173.733 226.548,158.581 218.372,174.729 226.044,189.88 		"/>
		<polygon fill="#F9F9F9" points="224.306,154.155 216.593,138.925 208.417,155.07 216.13,170.302 		"/>
		<polygon fill="#F9F9F9" points="253.361,174.092 245.94,159.438 238.143,174.84 245.562,189.492 		"/>
		<polygon fill="#F9F9F9" points="214.449,173.623 206.735,158.392 198.744,174.171 206.458,189.404 		"/>
		<polygon fill="#F9F9F9" points="262.896,155.266 255.474,140.611 248.183,155.012 255.603,169.665 		"/>
		<polygon fill="#F9F9F9" points="253.232,136.185 245.56,121.032 238.268,135.434 245.94,150.585 		"/>
		<polygon fill="#F9F9F9" points="331.226,135.953 324.123,121.928 317.593,134.795 324.702,148.834 		"/>
		<polygon fill="#F9F9F9" points="311.943,174.029 304.819,159.962 297.586,174.213 304.718,188.297 		"/>
		<polygon fill="#F9F9F9" points="389.575,135.194 383.798,123.786 377.672,135.883 383.449,147.291 		"/>
		<polygon fill="#F9F9F9" points="408.728,135.681 402.951,124.274 397.421,135.194 403.197,146.601 		"/>
		<polygon fill="#F9F9F9" points="369.828,174.19 364.05,162.781 357.794,175.135 363.571,186.544 		"/>
		<polygon fill="#F9F9F9" points="389.227,174.19 383.449,162.783 377.673,174.19 383.449,185.597 		"/>
		<polygon fill="#F9F9F9" points="399.274,154.347 393.498,142.94 387.372,155.037 393.148,166.444 		"/>
		<polygon fill="#F9F9F9" points="379.526,155.037 373.749,143.629 367.973,155.035 373.75,166.444 		"/>
		<polygon fill="#F9F9F9" points="340.902,155.062 334.589,142.595 328.065,155.476 334.379,167.942 		"/>
		<polygon fill="#F9F9F9" points="331.016,174.584 324.702,162.116 318.109,175.136 324.423,187.604 		"/>
		<polygon fill="#F9F9F9" points="360.127,155.035 353.885,142.708 347.629,155.062 353.871,167.389 		"/>
		<polygon fill="#F9F9F9" points="321.339,155.476 314.226,141.429 307.625,154.434 314.746,168.495 		"/>
		<polygon fill="#F9F9F9" points="350.508,174.03 344.266,161.703 337.742,174.584 343.985,186.911 		"/>
		<polygon fill="#F9F9F9" points="350.521,136.066 344.208,123.6 337.952,135.953 344.266,148.42 		"/>
		<polygon fill="#F9F9F9" points="369.826,135.883 363.584,123.555 357.808,134.962 364.05,147.289 		"/>
		<polygon fill="#F9F9F9" points="97.776,135.436 89.273,118.645 80.371,136.224 88.874,153.014 		"/>
		<polygon fill="#F9F9F9" points="87.752,155.228 79.25,138.437 71.982,152.789 82.267,152.789 82.267,155.789 71.033,155.789 
			79.25,172.015 		"/>
		<polygon fill="#F9F9F9" points="70.767,159.689 70.767,188.766 78.129,174.229 		"/>
		<polygon fill="#F9F9F9" points="116.948,135.576 108.448,118.792 100.018,135.436 108.519,152.222 		"/>
		<polygon fill="#F9F9F9" points="117.021,173.437 108.519,156.648 99.616,174.228 108.118,191.016 		"/>
		<polygon fill="#F9F9F9" points="107.397,154.435 98.897,137.649 89.995,155.228 98.496,172.014 		"/>
		<polygon fill="#F9F9F9" points="97.375,174.228 88.874,157.44 80.372,174.229 88.873,191.016 		"/>
		<polygon fill="#F9F9F9" points="67.767,138.396 70.767,138.396 70.767,150.762 78.129,136.224 69.627,119.435 61.125,136.224 
			67.767,149.339 		"/>
		<polygon fill="#F9F9F9" points="67.767,161.112 61.125,174.229 67.767,187.343 		"/>
		<polygon fill="#F9F9F9" points="58.882,174.229 50.38,157.44 41.879,174.228 50.381,191.016 		"/>
		<polygon fill="#F9F9F9" points="67.767,155.789 55.426,155.789 55.426,152.789 67.272,152.789 60.004,138.437 51.501,155.228 
			60.003,172.015 67.767,156.686 		"/>
		<polygon fill="#F9F9F9" points="49.259,155.228 40.357,137.649 31.856,154.435 40.758,172.014 		"/>
		<polygon fill="#F9F9F9" points="58.883,136.224 49.981,118.645 41.478,135.436 50.38,153.014 		"/>
		<polygon fill="#F9F9F9" points="22.306,135.576 30.735,152.222 39.236,135.436 30.806,118.792 		"/>
		<polygon fill="#F9F9F9" points="136.114,135.732 127.613,118.943 119.189,135.576 127.691,152.365 		"/>
		<polygon fill="#F9F9F9" points="175.531,134.973 167.54,119.193 159.045,135.966 167.037,151.746 		"/>
		<polygon fill="#F9F9F9" points="194.979,135.175 186.885,119.193 178.894,134.973 186.987,150.955 		"/>
		<polygon fill="#F9F9F9" points="175.13,174.369 167.037,158.387 158.993,174.271 167.087,190.252 		"/>
		<polygon fill="#F9F9F9" points="185.306,154.275 177.212,138.294 168.718,155.066 176.812,171.049 		"/>
		<polygon fill="#F9F9F9" points="195.381,174.171 186.987,157.597 178.493,174.369 186.887,190.944 		"/>
		<polygon fill="#F9F9F9" points="205.054,155.07 196.66,138.496 188.669,154.275 197.062,170.851 		"/>
		<polygon fill="#F9F9F9" points="165.355,155.066 157.364,139.286 149.32,155.169 157.312,170.949 		"/>
		<polygon fill="#F9F9F9" points="126.57,154.578 118.069,137.79 109.64,154.435 118.141,171.223 		"/>
		<polygon fill="#F9F9F9" points="214.912,135.604 206.518,119.029 198.342,135.175 206.735,151.75 		"/>
		<polygon fill="#F9F9F9" points="145.958,155.169 137.235,137.945 128.812,154.578 137.535,171.802 		"/>
		<polygon fill="#F9F9F9" points="136.414,174.016 127.691,156.792 119.262,173.437 127.984,190.66 		"/>
		<polygon fill="#F9F9F9" points="155.682,135.966 146.96,118.742 138.917,134.625 147.639,151.849 		"/>
		<polygon fill="#F9F9F9" points="155.63,174.271 147.639,158.489 139.216,175.122 147.208,190.902 		"/>
		<polygon fill="#F9F9F9" points="243.699,155.012 236.026,139.86 228.229,155.261 235.901,170.413 		"/>
		<polygon fill="#F9F9F9" points="157.312,177.591 149.307,193.396 165.316,193.396 		"/>
		<polygon fill="#F9F9F9" points="146.086,193.116 138.095,177.336 129.962,193.396 145.944,193.396 		"/>
		<polygon fill="#F9F9F9" points="106.997,193.229 98.496,176.441 89.994,193.229 90.078,193.396 106.913,193.396 		"/>
		<polygon fill="#F9F9F9" points="126.863,192.873 118.141,175.65 109.239,193.229 109.324,193.396 126.598,193.396 		"/>
		<polygon fill="#F9F9F9" points="224.363,193.201 216.69,178.05 208.92,193.396 224.264,193.396 		"/>
		<polygon fill="#F9F9F9" points="176.812,177.689 168.857,193.396 184.766,193.396 		"/>
		<polygon fill="#F9F9F9" points="204.777,192.726 197.062,177.492 189.008,193.396 204.437,193.396 		"/>
		<polygon fill="#F9F9F9" points="49.26,193.229 40.758,176.441 32.257,193.229 32.341,193.396 49.176,193.396 		"/>
		<polygon fill="#F9F9F9" points="20.064,135.576 12.189,120.026 12.189,151.127 		"/>
		<polygon fill="#F9F9F9" points="12.189,158.03 12.189,188.843 19.992,173.437 		"/>
		<polygon fill="#F9F9F9" points="39.638,174.228 30.735,156.648 22.233,173.437 31.136,191.016 		"/>
		<polygon fill="#F9F9F9" points="87.751,193.229 79.25,176.442 70.748,193.229 70.833,193.396 87.667,193.396 		"/>
		<polygon fill="#F9F9F9" points="68.506,193.229 68.146,192.519 67.767,192.519 67.767,191.77 60.003,176.442 51.502,193.229 
			51.587,193.396 68.421,193.396 		"/>
		<polygon fill="#F9F9F9" points="243.882,192.812 236.462,178.16 228.748,193.396 243.586,193.396 		"/>
		<polygon fill="#F9F9F9" points="29.614,154.435 21.185,137.79 12.684,154.578 21.113,171.223 		"/>
		<polygon fill="#F9F9F9" points="447.874,155.299 452.445,164.327 452.6,164.023 452.6,146.381 452.5,146.185 		"/>
		<polygon fill="#F9F9F9" points="437.823,193.135 433.251,184.105 428.534,193.396 437.69,193.396 		"/>
		<polygon fill="#F9F9F9" points="398.947,193.387 393.148,181.937 387.372,193.343 387.399,193.396 398.942,193.396 		"/>
		<polygon fill="#F9F9F9" points="418.746,192.796 413.498,182.433 407.92,193.396 418.441,193.396 		"/>
		<polygon fill="#F9F9F9" points="448.905,193.396 452.6,193.396 452.6,186.119 		"/>
		<polygon fill="#F9F9F9" points="452.6,124.245 452.6,116.112 448.481,116.112 		"/>
		<polygon fill="#F9F9F9" points="30.015,193.229 21.113,175.65 12.189,193.271 12.189,193.396 29.93,193.396 		"/>
		<polygon fill="#F9F9F9" points="379.527,193.343 373.75,181.937 367.946,193.396 379.5,193.396 		"/>
		<polygon fill="#F9F9F9" points="294.78,179.741 287.85,193.396 301.696,193.396 		"/>
		<polygon fill="#F9F9F9" points="321.62,193.138 315.307,180.67 308.861,193.396 321.489,193.396 		"/>
		<polygon fill="#F9F9F9" points="409.02,173.591 403.197,162.093 397.071,174.19 402.88,185.659 		"/>
		<polygon fill="#F9F9F9" points="360.209,193.185 354.431,181.776 348.547,193.396 360.102,193.396 		"/>
		<polygon fill="#F9F9F9" points="334.379,181.225 328.216,193.396 340.543,193.396 		"/>
		<polygon fill="#F9F9F9" points="255.603,178.519 248.068,193.396 263.138,193.396 		"/>
		<polygon fill="#F9F9F9" points="275.48,180.118 268.756,193.396 282.205,193.396 		"/>
		<polygon fill="#F9F9F9" points="393.498,127.448 399.028,116.528 398.817,116.112 387.758,116.112 		"/>
		<polygon fill="#F9F9F9" points="373.749,128.137 379.838,116.112 367.659,116.112 		"/>
		<polygon fill="#F9F9F9" points="433.135,126.195 437.768,117.092 437.271,116.112 428.029,116.112 		"/>
		<polygon fill="#F9F9F9" points="413.211,126.828 418.289,116.8 417.94,116.112 407.785,116.112 		"/>
		<polygon fill="#F9F9F9" points="314.792,129.265 321.322,116.398 321.178,116.112 308.132,116.112 		"/>
		<polygon fill="#F9F9F9" points="334.589,129.312 340.845,116.958 340.416,116.112 327.904,116.112 		"/>
		<polygon fill="#F9F9F9" points="354.444,128.321 360.221,116.914 359.814,116.112 348.261,116.112 		"/>
		<polygon fill="#F9F9F9" points="437.782,155.294 432.557,144.975 427.467,154.978 432.699,165.309 		"/>
		<polygon fill="#F9F9F9" points="428.21,174.152 422.973,163.811 417.43,174.704 422.673,185.059 		"/>
		<polygon fill="#F9F9F9" points="428.079,136.133 422.211,124.546 417.134,134.573 422.989,146.136 		"/>
		<polygon fill="#F9F9F9" points="418.495,154.969 412.65,143.427 407.12,154.347 412.952,165.862 		"/>
		<polygon fill="#F9F9F9" points="447.396,174.276 442.823,165.248 437.739,175.263 442.312,184.291 		"/>
		<polygon fill="#F9F9F9" points="295.254,130.005 301.847,116.984 301.405,116.112 288.218,116.112 		"/>
		<polygon fill="#F9F9F9" points="442.245,125.934 437.613,135.037 442.833,145.345 447.46,136.23 		"/>
		<polygon fill="#F9F9F9" points="236.026,131.007 243.317,116.606 243.067,116.112 228.484,116.112 		"/>
		<polygon fill="#F9F9F9" points="137.796,132.411 145.839,116.529 145.628,116.112 129.542,116.112 		"/>
		<polygon fill="#F9F9F9" points="109.569,116.579 118.069,133.363 126.492,116.73 126.179,116.112 109.805,116.112 		"/>
		<polygon fill="#F9F9F9" points="275.442,130.487 282.668,116.22 282.613,116.112 268.163,116.112 		"/>
		<polygon fill="#F9F9F9" points="90.394,116.431 98.897,133.223 107.327,116.579 107.09,116.112 90.556,116.112 		"/>
		<polygon fill="#F9F9F9" points="31.927,116.579 40.356,133.223 48.86,116.431 48.698,116.112 32.164,116.112 		"/>
		<polygon fill="#F9F9F9" points="51.102,116.431 60.004,134.01 68.506,117.222 67.944,116.112 51.264,116.112 		"/>
		<polygon fill="#F9F9F9" points="70.748,117.222 79.25,134.01 88.152,116.431 87.99,116.112 71.31,116.112 		"/>
		<polygon fill="#F9F9F9" points="157.364,132.645 165.736,116.112 148.991,116.112 		"/>
		<polygon fill="#F9F9F9" points="216.593,132.283 224.392,116.885 224,116.112 208.404,116.112 		"/>
		<polygon fill="#F9F9F9" points="256.034,130.649 262.977,116.939 262.558,116.112 248.673,116.112 		"/>
		<polygon fill="#F9F9F9" points="21.185,133.363 29.685,116.579 29.449,116.112 12.449,116.112 		"/>
		<polygon fill="#F9F9F9" points="177.212,131.652 185.082,116.112 169.342,116.112 		"/>
		<polygon fill="#F9F9F9" points="196.66,131.854 204.632,116.112 188.688,116.112 		"/>
	</g>
	<g>
		<path fill-rule="evenodd" clip-rule="evenodd" fill="#F9F9F9" d="M124.502,9.75c0.243,3.448-0.91,5.326-4.818,4.939
			c-3.084-0.306-5.5,0.511-5.445,4.521c0.037,2.79-0.804,5.588-0.813,8.384c-0.075,20.996-0.056,41.992-0.015,62.988
			c0.004,1.791,0.262,3.603,0.602,5.366c0.525,2.714,0.686,5.738,4.619,5.931c4.43,0.217,8.788,0.166,10.848-4.692
			c6.043-14.245,12-28.527,17.893-42.836c3.359-8.158,6.42-16.441,9.891-24.551c0.55-1.285,2.481-2.596,3.902-2.755
			c2.436-0.272,4.21,0.987,5.23,3.679c7.184,18.949,14.539,37.835,21.864,56.731c1.337,3.447,2.724,6.879,4.197,10.271
			c2.087,4.804,10.337,6.919,14.036,3.492c0.797-0.738,1.077-2.361,1.081-3.579c0.058-19.657,0.021-39.315,0.034-58.974
			c0.002-3.222-1.602-4.588-4.707-5.145c-1.512-0.271-3.914-1.697-3.965-2.7c-0.099-1.955,1.261-2.692,3.953-2.628
			c11.442,0.275,22.904-0.356,34.346-0.248c7.019,0.066,13.702,1.687,18.877,7.076c5.716,5.953,6.069,15.978,0.415,21.94
			c-3.046,3.213-6.554,5.987-10.339,9.396c10.664,2.785,11.15,10.947,11.218,19.431c0.034,4.36,0.279,8.729,0.683,13.069
			c0.098,1.036,1.062,2.584,1.899,2.79c0.811,0.199,1.967-1.036,2.979-1.625c1.521-0.885,3.052-1.757,5.153-2.964
			c-0.163,6.702-4.762,11.723-10.282,12.547c-5.809,0.866-11.605-2.024-12.794-7.254c-1.302-5.726-2.306-11.665-2.296-17.51
			c0.02-11.078-1.918-17.37-16.617-16.224c-1.312,0.103-2.637,0.014-4.68,0.014c0,10.503-0.122,20.759,0.197,31
			c0.029,0.97,2.816,1.861,4.332,2.774c1.404,0.847,2.82,1.674,4.231,2.51c-1.465,0.905-2.921,2.581-4.396,2.597
			c-17.328,0.184-34.658,0.078-51.988,0.153c-3.164,0.014-4.733-0.928-3.979-4.239c2.672-0.648,5.18-1.257,8.338-2.022
			c-2.271-6.112-4.227-11.807-6.575-17.335c-0.48-1.132-2.415-2.283-3.715-2.324c-7.158-0.226-14.329-0.191-21.491-0.034
			c-1.287,0.028-3.174,0.7-3.727,1.675c-3.149,5.556-6.92,10.989-6.234,17.276c2.325,3.152,9.064-0.43,7.688,6.688
			c-19.266,0-38.537,0-57.81-0.006c-1.063-5.191-0.969-5.456,4.14-5.429c3.682,0.021,6.178-0.835,6.17-5.152
			c-0.034-21.987-0.016-43.976-0.715-66.189c-2.504,5.805-5.027,11.602-7.506,17.416c-7.24,16.978-14.396,33.99-21.815,50.888
			c-0.578,1.317-2.933,2.548-4.468,2.555c-1.482,0.007-3.75-1.272-4.34-2.585C52.425,86.909,47.357,74.838,42.193,62.81
			c-4.621-10.767-9.256-21.529-14.588-32.204c-0.074,1.545-0.211,3.09-0.213,4.634c-0.014,18.164-0.009,36.327-0.009,54.491
			c0,11.453,0,11.453,11.616,12.447c0.166,0.84,0.457,1.767,0.498,2.705c0.035,0.772-0.225,1.559-0.443,2.867
			c-9.627,0-19.09,0-28.553,0c0-2,0-4,0-6c8.469,0.312,9.959-1.127,10.115-9.775c0.016-0.832,0.003-1.665,0.003-2.497
			c0-21.811,0.001-43.621-0.001-65.431c0-9.38-0.807-10.12-10.117-9.297c0-1.667,0-3.333,0-5c9.334,0,18.666,0,28,0
			c1.641,4.407,3.099,8.893,4.954,13.207c7.821,18.184,15.762,36.316,23.711,54.588c0.408-0.443,1.019-0.842,1.255-1.398
			c6.496-15.303,13.037-30.587,19.383-45.952c2.777-6.728,5.145-13.624,7.697-20.444C105.168,9.75,114.836,9.75,124.502,9.75z
			 M221.794,63.58c12.379,0.994,18.713-1.104,21.747-7.974c2.684-6.079,2.752-12.944-1.762-17.834
			c-5.168-5.597-12.463-5.552-19.985-3.54C221.794,44.062,221.794,53.653,221.794,63.58z M169.264,77.723
			c-4.053-10.322-7.867-20.036-12.092-30.793c-4.543,10.776-8.676,20.576-12.984,30.793
			C152.615,77.723,160.215,77.723,169.264,77.723z"/>
		<path fill-rule="evenodd" clip-rule="evenodd" fill="#F9F9F9" d="M458.492,32.75c-5.119,0.34-7.525,2.535-7.455,8.199
			c0.254,20.479,0.12,40.963-0.104,61.442c-0.022,2.037-1.134,5.067-2.662,5.859c-2.676,1.389-5.7,0.729-7.716-2.378
			c-13.448-20.731-26.979-41.408-40.945-62.811c-0.474,1.904-1.152,3.354-1.145,4.802c0.088,15.768,0.147,31.538,0.513,47.302
			c0.162,6.991,0.775,7.295,8.021,8.057c0.981,2.701,0.547,4.362-2.872,4.354c-15.317-0.038-30.635,0.039-45.949-0.173
			c-1.34-0.019-2.654-1.837-4.96-3.545c10.092-1.921,10.084-1.918,6.998-10.009c-0.649-1.701-1.565-3.396-1.76-5.159
			c-0.687-6.246-4.657-6.828-9.813-6.527c-5.643,0.329-11.33,0.149-16.985-0.092c-3.386-0.146-5.273,1.303-6.384,4.315
			c-1.256,3.405-2.713,6.737-3.926,10.156c-1.318,3.713-0.537,6.126,4.05,6.045c2.93-0.052,4.139,1.312,2.722,4.984
			c-12.201,0-24.613,0.005-37.025-0.002c-3.999-0.002-8.021,0.207-11.984-0.175c-1.438-0.138-2.738-1.717-5.158-3.354
			c10.225-2.418,11.158-4.681,10.301-13.981c-0.763-8.26-0.318-16.634-0.354-24.958c-0.032-7.498-0.079-14.998,0.034-22.494
			c0.125-8.397,0.2-8.396-9.636-10.2c2.007-1.739,3.144-3.587,4.331-3.618c9.092-0.243,18.195-0.134,27.294-0.134
			c0.286,0.597,0.571,1.194,0.857,1.791c-1.284,0.92-2.507,2.511-3.862,2.635c-4.35,0.396-5.564,2.853-5.557,6.707
			c0.037,18.477-0.147,36.956,0.209,55.425c0.051,2.57,2.091,6.465,4.215,7.36c5.035,2.121,10.164-0.329,12.125-4.726
			c3.63-8.141,7.198-16.312,10.588-24.554c5.838-14.197,11.449-28.488,17.367-42.65c0.629-1.506,2.86-3.548,4.014-3.354
			c1.883,0.318,4.41,1.909,5.072,3.591c7.309,18.569,14.27,37.275,21.427,55.905c1.529,3.98,3.137,8.007,5.355,11.614
			c1.166,1.894,3.567,3.776,5.698,4.189c7.247,1.408,9.275-0.493,9.275-7.933c0-18.478-0.063-36.956-0.137-55.434
			c-0.013-3.269-0.829-5.862-4.911-6.128c-1.029-0.066-1.967-1.532-2.947-2.354c1.015-0.745,1.968-2.01,3.054-2.136
			c2.945-0.343,6.063,0.306,8.903-0.35c8.602-1.985,12.662,3.339,16.525,9.439c9.287,14.664,18.639,29.287,28.016,43.894
			c0.748,1.165,1.891,2.076,3.578,3.887c0-8.691,0-16.319,0-23.948c0-5.998,0.031-11.997-0.008-17.995
			c-0.059-9.088-0.079-9.088-10.694-11.238c2.159-1.734,3.347-3.509,4.596-3.554c6.596-0.237,13.207-0.038,19.812,0.009
			C458.492,30.083,458.492,31.417,458.492,32.75z M329.43,76.597c8.206,0,16.057,0,24.391,0
			c-3.855-9.812-7.596-19.329-11.647-29.638c-1.659,3.378-3.013,5.819-4.085,8.379C335.246,62.128,332.525,68.969,329.43,76.597z"/>
		<path fill-rule="evenodd" clip-rule="evenodd" fill="#F9F9F9" d="M241.492,253.75c0.654-1.207,1.176-3.35,1.986-3.466
			c4.258-0.608,4.031-3.494,4.027-6.566c-0.014-10.822,0.07-21.646,0.101-32.468c0.01-3.56,0.38-7.367-4.978-7.394
			c-0.383-0.002-1.186-1.191-1.058-1.423c0.344-0.623,1.036-1.352,1.681-1.45c1.466-0.226,2.988-0.156,4.484-0.104
			c8.227,0.283,16.46,0.456,24.674,0.952c5.109,0.31,8.809,3.353,9.816,8.193c1.266,6.087-1.637,10.742-7.301,13.882
			c-0.371,0.207-0.543,0.774-1.321,1.945c8.349,3.017,6.644,10.111,6.822,16.618c0.067,2.471,0.728,4.925,1.295,8.501
			c1.448-1.727,1.909-2.659,2.656-3.071c0.982-0.542,2.191-0.674,3.303-0.981c-0.194,1.068-0.167,2.247-0.634,3.179
			c-0.66,1.313-1.686,2.444-2.555,3.653c-3.666,0-7.334,0-11,0c-0.961-6.396-2.112-12.771-2.818-19.195
			c-0.474-4.308-2.718-6.461-6.768-6.876c-2.283-0.234-4.609-0.042-7.521-0.042c0,6.513-0.168,12.785,0.154,19.032
			c0.06,1.142,1.947,2.658,3.301,3.158c2.277,0.84,2.881,1.856,1.652,3.923C254.826,253.75,248.158,253.75,241.492,253.75z
			 M256.374,213.501c-0.001,11.021,0.034,11.067,7.772,10.36c4.699-0.429,8.753-5.464,8.441-10.482
			c-0.373-6.029-5.45-10.142-12.387-9.705c-6.759,0.426-2.693,5.812-3.812,8.833C256.279,212.8,256.374,213.168,256.374,213.501z"/>
		<path fill-rule="evenodd" clip-rule="evenodd" fill="#F9F9F9" d="M65.502,253.75c0.405-1.25,0.698-3.526,1.234-3.586
			c3.769-0.412,3.877-2.979,3.879-5.73c0.008-11.499-0.154-23.001,0.085-34.494c0.092-4.39-1.676-6.473-7.366-6.755
			c1.914-1.297,2.656-1.854,3.457-2.312c0.25-0.143,0.668,0.053,0.984-0.018c9.518-2.121,15.085,2.031,19.105,10.591
			c2.766,5.887,7.316,10.932,11.033,16.377c1.908,2.798,3.736,5.65,6.685,7.999c0-9.087,0.371-18.199-0.249-27.244
			c-0.164-2.391-3.386-4.571-5.609-7.356c5.129,0,10.279,0,15.949,0c-2.025,2.625-4.332,4.526-5.115,6.925
			c-0.84,2.568-0.206,5.605-0.283,8.437c-0.214,7.931-0.498,15.859-0.686,23.791c-0.105,4.457-0.073,8.917-0.104,13.376
			c-2,0-4,0-6,0c-8.926-13.914-17.852-27.829-26.777-41.743c-0.446,0.252-0.893,0.504-1.339,0.756
			c0,10.644-0.161,21.292,0.157,31.926c0.053,1.774,1.821,4.091,3.45,5.073c1.953,1.177,2.854,1.925,1.509,3.988
			C74.836,253.75,70.168,253.75,65.502,253.75z"/>
		<path fill-rule="evenodd" clip-rule="evenodd" fill="#F9F9F9" d="M194.502,253.75c1.185-1.646,2.369-3.292,3.555-4.938
			c0.518,0.215,1.035,0.43,1.553,0.644c0-14.139,0.154-28.281-0.211-42.411c-0.041-1.607-2.996-3.14-5.072-5.168
			c0.869-0.218,2.445-0.942,4.027-0.955c11.726-0.098,23.453-0.053,35.599-0.053c0,3.896,0,8.095,0,14.121
			c-1.634-1.757-3.042-2.572-3.308-3.665c-1.433-5.915-6.438-7.173-11.369-7.646c-2.431-0.232-5.023-0.438-7.309,0.193
			c-1.134,0.312-2.246,2.467-2.469,3.925c-0.397,2.605-0.113,5.314-0.114,7.98c-0.001,2.613,0,5.227,0,8.776
			c3.833,0,8.05,0.302,12.171-0.193c1.162-0.139,2.014-2.634,3.065-4.005c0.812-1.058,1.714-2.048,2.575-3.067
			c0.727,1.21,2,2.385,2.08,3.637c0.266,4.147,0.195,8.327,0.027,12.485c-0.036,0.896-1.016,1.753-1.562,2.628
			c-0.716-0.493-1.837-0.836-2.083-1.502c-2.385-6.469-8.1-6.441-13.438-6.742c-1.041-0.059-3.094,1.854-3.148,2.937
			c-0.308,6.103-0.148,12.229-0.148,18.145c14.324,3.879,19.99,1.628,23.498-8.843c3.27,1.364,4.145,7.136,2.07,13.717
			C221.168,253.75,207.836,253.75,194.502,253.75z"/>
		<path fill-rule="evenodd" clip-rule="evenodd" fill="#F9F9F9" d="M26.502,253.75c-0.084-0.301-0.072-0.769-0.266-0.879
			c-8.488-4.861-8.977-12.879-8.66-21.357c0.225-5.987-0.064-11.992,0.078-17.985c0.112-4.733,0.006-9.21-5.377-12.053
			c6.703,0,13.406,0,20.108,0c-8.872,3.235-5.725,10.582-5.946,16.509c-0.243,6.486-0.074,12.989-0.05,19.484
			c0.023,6.005,3.88,11.545,8.554,12.363c7.573,1.327,13.688-1.647,15.654-8.273c0.966-3.251,0.914-6.856,0.983-10.308
			c0.138-6.826-0.026-13.658,0.065-20.485c0.053-3.993-0.153-7.642-5.768-7.636c2.858-2.896,12.066-3.192,16.648-0.46
			c-7.758,0.938-6.145,6.407-6.165,11.065c-0.029,6.828-0.124,13.66,0.042,20.485c0.191,7.802-2.092,14.216-9.213,18.286
			c-0.352,0.201-0.465,0.819-0.689,1.243C39.836,253.75,33.168,253.75,26.502,253.75z"/>
		<path fill-rule="evenodd" clip-rule="evenodd" fill="#F9F9F9" d="M292.492,253.75c-0.292-3.592-0.778-7.183-0.779-10.774
			c-0.002-1.417,1.078-2.835,1.665-4.253c1.02,1.042,2.534,1.909,2.974,3.156c1.969,5.6,5.576,8.62,11.642,8.982
			c5.284,0.316,9.774-2.365,11.309-7.352c1.023-3.326-1.661-7.741-6.078-9.975c-5.489-2.774-11.12-5.305-16.437-8.377
			c-5.215-3.014-5.21-8.652-4.267-13.375c0.839-4.197,2.997-8.318,8.104-10.128c5.68-2.013,10.857-2.855,16.6-0.142
			c1.57,0.741,4.31-0.99,7.216-1.777c0,3.833,0.155,7.268-0.085,10.674c-0.084,1.188-1.145,2.308-1.76,3.458
			c-0.959-0.97-2.297-1.77-2.815-2.936c-3.02-6.791-6.356-8.57-13.52-7.521c-4.505,0.66-6,4.268-6.523,7.479
			c-0.335,2.057,1.696,5.423,3.651,6.731c3.818,2.558,8.158,4.689,12.582,5.923c13.346,3.722,14.738,20.838,3.289,28.465
			c-0.676,0.45-1.182,1.154-1.768,1.74C309.158,253.75,300.826,253.75,292.492,253.75z"/>
		<path fill-rule="evenodd" clip-rule="evenodd" fill="#F9F9F9" d="M417.492,253.75c0.787-1.241,1.477-3.46,2.379-3.55
			c3.539-0.354,3.382-2.53,3.834-5.181c2.197-12.897-5.708-22.116-11.464-32.046c-2.358-4.068-5.703-7.565-8.999-11.842
			c7.458,0,14.272,0,21.601,0c-5.01,6.87-5,6.864-0.457,14.31c1.03,1.688,1.895,3.48,2.968,5.139
			c0.964,1.489,2.111,2.86,3.894,5.239c3.852-7.014,7.424-13.518,11.374-20.71c-2.143-0.117-3.265,0.136-3.97-0.295
			c-0.927-0.565-1.525-1.67-2.265-2.542c0.822-0.641,1.655-1.844,2.465-1.828c4.411,0.085,8.817,0.47,13.47,0.768
			c-0.145,0.966-0.028,1.973-0.363,2.156c-8.177,4.483-9.642,13.679-14.541,20.438c-5.841,8.057-3.589,16.95-4.031,25.074
			c1.926,2.072,7.227-0.59,5.106,4.87C431.492,253.75,424.492,253.75,417.492,253.75z"/>
		<path fill-rule="evenodd" clip-rule="evenodd" fill="#F9F9F9" d="M163.502,253.75c-0.034-1.153,0.25-2.433-0.15-3.441
			c-5.41-13.654-10.816-27.312-16.48-40.862c-1.137-2.719-3.348-4.987-5.443-8.012c6.451,0,13.259,0,20.121,0
			c-0.004-0.074,0.115,0.412,0.01,0.467c-5.714,2.965-4.192,7.026-2.301,11.718c3.438,8.528,6.318,17.281,9.91,27.267
			c2.814-6.94,5.193-12.583,7.388-18.296c1.46-3.801,2.683-7.695,3.966-11.562c1.75-5.271,1.133-6.523-3.912-8.165
			c2.027-2.537,11.239-2.932,15.949-0.399c-6.221,2.644-7.061,8.52-9.047,13.731c-4.533,11.899-9.146,23.767-13.702,35.657
			c-0.225,0.586-0.21,1.264-0.308,1.898C167.502,253.75,165.502,253.75,163.502,253.75z"/>
		<path fill-rule="evenodd" clip-rule="evenodd" fill="#F9F9F9" d="M369.492,253.75c-0.67-3.575-0.67-3.575,4.958-4.221
			c0-15.139,0-30.328,0-45.509c-7.249-0.224-10.183,1.685-12.936,7.827c-0.539,1.202-1.771,2.095-3.628,4.202
			c0-5.91,0-10.16,0-15.03c14.368,0,28.795,0,44.102,0c-0.23,4.66-0.449,9.074-0.668,13.488c-0.61,0.145-1.221,0.288-1.831,0.433
			c-0.904-1.499-2.4-2.921-2.606-4.51c-0.733-5.668-5.805-5.055-9.285-6.543c-0.436-0.187-3.052,2.523-3.076,3.918
			c-0.239,13.791-0.145,27.589-0.145,40.904c1.54,2.391,7.74-0.931,5.115,5.04C382.825,253.75,376.159,253.75,369.492,253.75z"/>
		<path fill-rule="evenodd" clip-rule="evenodd" fill="#F9F9F9" d="M332.492,253.75c-0.655-3.856,1.656-4.443,5.071-3.74
			c0-14.114,0.218-27.734-0.21-41.335c-0.073-2.308-2.919-4.527-4.984-7.512c7.096,0,13.838,0,21.967,0
			c-1.496,1.381-2.295,2.035-2.994,2.782c-1.352,1.446-3.757,2.92-3.789,4.425c-0.297,13.601-0.174,27.209-0.174,40.301
			c1.484,2.482,7.621-0.771,5.113,5.079C345.826,253.75,339.158,253.75,332.492,253.75z"/>
		<path fill-rule="evenodd" clip-rule="evenodd" fill="#F9F9F9" d="M118.502,253.75c0.115-1.134,0.23-2.268,0.379-3.721
			c5.379,0.818,5.91-2.301,5.808-6.554c-0.222-9.133-0.003-18.276-0.093-27.414c-0.053-5.287,1.865-11.502-6.884-13.202
			c0.381-0.465,0.762-0.93,1.143-1.395c6.892,0,13.782,0,22.052,0c-1.744,1.631-3.027,3.417-3.541,3.218
			c-4.375-1.692-3.598,2.992-3.615,3.767c-0.304,13.52-0.219,27.048-0.219,40.574c0.652-0.194,1.305-0.389,1.957-0.583
			c1.338,1.77,2.676,3.54,4.014,5.31C132.502,253.75,125.502,253.75,118.502,253.75z"/>
	</g>
</g>
<rect x="-239.428" y="-106.855" fill="#B0C19F" width="57.143" height="57.143"/>
<rect x="-182.285" y="-106.855" fill="#A0B091" width="57.143" height="57.143"/>
<rect x="-125.143" y="-106.855" fill="#909F84" width="57.143" height="57.143"/>
<rect x="-239.428" y="-49.712" fill="#D5E7BF" width="57.143" height="57.143"/>
<rect x="-239.428" y="269.227" fill="#C1D2AF" width="57.143" height="57.143"/>
<rect x="-182.285" y="-49.712" fill="#C2D3AE" width="57.143" height="57.143"/>
<rect x="-125.143" y="-49.713" fill="#808E76" width="57.143" height="57.143"/>
<rect x="-68" y="-49.713" fill="#707D68" width="57.143" height="57.143"/>
<rect x="-239.428" y="31.741" fill="#F9F9F9" width="57.143" height="57.142"/>
<rect x="-239.428" y="189.359" fill="#E1E2E3" width="57.143" height="57.143"/>
<rect x="-182.285" y="31.741" fill="#DCDEDC" width="57.143" height="57.142"/>
<rect x="-125.143" y="31.741" fill="#DFEBEE" width="57.143" height="57.142"/>
<rect x="-125.143" y="88.883" fill="#A6B0B4" width="57.143" height="57.142"/>
<rect x="-68" y="88.883" fill="#939DA1" width="57.143" height="57.142"/>
<rect x="-125.143" y="146.414" fill="#173139" width="57.143" height="57.143"/>
<rect x="-239.428" y="88.883" fill="#496F7C" width="57.143" height="57.142"/>
<rect x="-182.285" y="88.883" fill="#2A4751" width="57.143" height="57.142"/>
</svg>
