<?xml version="1.0" encoding="utf-8"?>
<!-- Generator: Adobe Illustrator 16.0.0, SVG Export Plug-In . SVG Version: 6.00 Build 0)  -->
<!DOCTYPE svg PUBLIC "-//W3C//DTD SVG 1.1//EN" "http://www.w3.org/Graphics/SVG/1.1/DTD/svg11.dtd">
<svg version="1.1" xmlns="http://www.w3.org/2000/svg" xmlns:xlink="http://www.w3.org/1999/xlink" x="0px" y="0px" width="500px"
	 height="410.49px" viewBox="0 0 500 410.49" enable-background="new 0 0 500 410.49" xml:space="preserve">
<g id="Layer_1">
	<rect x="-248.858" y="41.062" fill="#B3C29D" width="57.143" height="57.143"/>
	<rect x="-191.716" y="41.062" fill="#A3B190" width="57.143" height="57.143"/>
	<rect x="-134.573" y="41.062" fill="#92A082" width="57.143" height="57.143"/>
	<rect x="-248.858" y="98.205" fill="#D8E8BC" width="57.143" height="57.143"/>
	<rect x="-191.716" y="98.205" fill="#C5D4AB" width="57.143" height="57.143"/>
	<rect x="-134.573" y="98.205" fill="#828F74" width="57.143" height="57.143"/>
	<rect x="-77.431" y="98.205" fill="#727E66" width="57.143" height="57.143"/>
	<rect x="-248.858" y="179.659" fill="#F9F9FA" width="57.143" height="57.143"/>
	<rect x="-191.716" y="179.659" fill="#DCDEDD" width="57.143" height="57.143"/>
	<rect x="-134.573" y="179.659" fill="#E3EBEF" width="57.143" height="57.143"/>
	<rect x="-134.573" y="236.801" fill="#A9B0B5" width="57.143" height="57.143"/>
	<rect x="-134.573" y="294.332" fill="#1E303A" width="57.143" height="57.143"/>
	<rect x="-248.858" y="236.801" fill="#526E7D" width="57.143" height="57.143"/>
	<rect x="-191.716" y="236.801" fill="#314752" width="57.143" height="57.143"/>
	<rect x="-330.524" y="535.931" fill="#526E7D" width="310.236" height="131.496"/>
	<rect x="-312.021" y="545.774" fill="#E3EBEF" width="273.229" height="111.811"/>
	<rect x="-122.866" y="635.192" fill="#435C69" width="33.464" height="13.317"/>
	<rect x="-261.41" y="635.192" fill="#435C69" width="33.464" height="13.317"/>
	<rect x="-245.474" y="631.85" fill="#526E7D" width="140.135" height="13.317"/>
	<g>
		<path fill="#526E7D" d="M-175.406,660.348c-26.406,0-47.89-26.318-47.89-58.669s21.483-58.669,47.89-58.669
			s47.89,26.318,47.89,58.669S-149,660.348-175.406,660.348z"/>
		<path fill="#E3EBEF" d="M-175.406,545.51c25.068,0,45.39,25.148,45.39,56.169s-20.322,56.169-45.39,56.169
			s-45.39-25.148-45.39-56.169S-200.474,545.51-175.406,545.51 M-175.406,540.51c-13.664,0-26.443,6.502-35.984,18.31
			c-9.29,11.495-14.405,26.717-14.405,42.859s5.116,31.364,14.405,42.859c9.541,11.808,22.32,18.31,35.984,18.31
			s26.443-6.502,35.984-18.31c9.29-11.495,14.405-26.717,14.405-42.859s-5.116-31.364-14.405-42.859
			C-148.963,547.012-161.742,540.51-175.406,540.51L-175.406,540.51z"/>
	</g>
	<g>
		<path fill="#E3EBEF" d="M-175.406,652.675c-22.829,0-41.402-22.877-41.402-50.996s18.573-50.996,41.402-50.996
			s41.402,22.877,41.402,50.996S-152.577,652.675-175.406,652.675z"/>
		<path fill="#435C69" d="M-175.406,551.683c22.313,0,40.402,22.385,40.402,49.996s-18.089,49.996-40.402,49.996
			s-40.402-22.385-40.402-49.996S-197.719,551.683-175.406,551.683 M-175.406,549.683c-23.38,0-42.402,23.325-42.402,51.996
			s19.021,51.996,42.402,51.996s42.402-23.325,42.402-51.996S-152.026,549.683-175.406,549.683L-175.406,549.683z"/>
	</g>
	<circle fill="#526E7D" cx="-307.582" cy="558.75" r="19.452"/>
	<circle fill="#E3EBEF" cx="-307.582" cy="558.75" r="14.33"/>
	<ellipse fill="#526E7D" cx="-310.715" cy="646.657" rx="11.196" ry="14.842"/>
	<ellipse fill="#E3EBEF" cx="-310.715" cy="646.657" rx="8.248" ry="10.934"/>
	<ellipse fill="#526E7D" cx="-40.097" cy="646.657" rx="11.196" ry="14.842"/>
	<ellipse fill="#E3EBEF" cx="-40.098" cy="646.657" rx="8.248" ry="10.934"/>
	<circle fill="#526E7D" cx="-43.624" cy="558.75" r="19.452"/>
	<circle fill="#E3EBEF" cx="-43.624" cy="558.75" r="14.33"/>
	<g>
		<g>
			<polygon fill="#526E7D" points="-260.128,583.912 -257.04,582.18 -254.638,584.781 -251.166,584.088 -249.685,587.305 
				-246.169,587.719 -245.754,591.236 -242.539,592.717 -243.23,596.189 -240.63,598.591 -242.361,601.679 -240.63,604.767 
				-243.23,607.169 -242.539,610.641 -245.754,612.123 -246.169,615.639 -249.685,616.053 -251.166,619.27 -254.638,618.578 
				-257.04,621.178 -260.128,619.447 -263.217,621.178 -265.619,618.578 -269.091,619.27 -270.572,616.053 -274.088,615.639 
				-274.503,612.123 -277.718,610.641 -277.026,607.169 -279.627,604.767 -277.896,601.679 -279.627,598.591 -277.026,596.189 
				-277.718,592.717 -274.503,591.236 -274.088,587.719 -270.572,587.305 -269.091,584.088 -265.619,584.781 -263.217,582.18 			"/>
			<path fill="#526E7D" d="M-256.961,621.679l-3.167-1.775l-3.167,1.775l-2.464-2.667l-3.561,0.71l-1.519-3.299l-3.606-0.426
				l-0.426-3.606l-3.298-1.52l0.71-3.561l-2.668-2.465l1.775-3.167l-1.775-3.167l2.668-2.465l-0.71-3.561l3.298-1.52l0.426-3.606
				l3.606-0.426l1.519-3.299l3.561,0.71l2.464-2.667l3.167,1.775l3.167-1.775l2.464,2.667l3.561-0.71l1.519,3.299l3.606,0.426
				l0.426,3.606l3.298,1.52l-0.71,3.561l2.668,2.465l-1.775,3.167l1.775,3.167l-2.668,2.465l0.71,3.561l-3.298,1.52l-0.426,3.606
				l-3.606,0.426l-1.519,3.299l-3.561-0.71L-256.961,621.679z M-260.128,618.99l3.009,1.687l2.34-2.533l3.383,0.674l1.443-3.134
				l3.426-0.403l0.404-3.426l3.133-1.443l-0.674-3.382l2.534-2.341l-1.687-3.009l1.687-3.009l-2.534-2.341l0.674-3.382l-3.133-1.443
				l-0.404-3.426l-3.426-0.403l-1.443-3.134l-3.383,0.674l-2.34-2.533l-3.009,1.687l-3.009-1.687l-2.34,2.533l-3.383-0.674
				l-1.443,3.134l-3.426,0.403l-0.404,3.426l-3.133,1.443l0.674,3.382l-2.534,2.341l1.687,3.009l-1.687,3.009l2.534,2.341
				l-0.674,3.382l3.133,1.443l0.404,3.426l3.426,0.403l1.443,3.134l3.383-0.674l2.34,2.533L-260.128,618.99z"/>
		</g>
		<g>
			<circle fill="#E3EBEF" cx="-260.128" cy="601.679" r="15.79"/>
			<path fill="#526E7D" d="M-260.128,617.868c-8.927,0-16.189-7.262-16.189-16.188s7.262-16.188,16.189-16.188
				s16.189,7.262,16.189,16.188S-251.202,617.868-260.128,617.868z M-260.128,586.288c-8.487,0-15.392,6.904-15.392,15.392
				s6.905,15.392,15.392,15.392s15.392-6.904,15.392-15.392S-251.642,586.288-260.128,586.288z"/>
		</g>
		<g>
			<path fill="#526E7D" d="M-260.128,612.822c-6.144,0-11.142-4.999-11.142-11.143s4.999-11.143,11.142-11.143
				s11.142,4.999,11.142,11.143S-253.985,612.822-260.128,612.822z M-260.128,592.131c-5.265,0-9.548,4.283-9.548,9.548
				s4.283,9.548,9.548,9.548s9.548-4.283,9.548-9.548S-254.864,592.131-260.128,592.131z"/>
		</g>
		<g>
			<path fill="#526E7D" d="M-260.128,614.601c-7.125,0-12.922-5.796-12.922-12.922s5.797-12.922,12.922-12.922
				s12.922,5.796,12.922,12.922S-253.003,614.601-260.128,614.601z M-260.128,589.554c-6.686,0-12.125,5.439-12.125,12.125
				s5.439,12.125,12.125,12.125s12.125-5.439,12.125-12.125S-253.443,589.554-260.128,589.554z"/>
		</g>
	</g>
	<g>
		<g>
			<polygon fill="#526E7D" points="-87.532,583.912 -84.443,582.18 -82.042,584.781 -78.57,584.088 -77.089,587.305 
				-73.573,587.719 -73.157,591.236 -69.942,592.717 -70.635,596.189 -68.033,598.591 -69.765,601.679 -68.033,604.767 
				-70.635,607.169 -69.942,610.641 -73.157,612.123 -73.573,615.639 -77.089,616.053 -78.57,619.27 -82.042,618.578 
				-84.443,621.178 -87.532,619.447 -90.621,621.178 -93.022,618.578 -96.494,619.27 -97.976,616.053 -101.491,615.639 
				-101.907,612.123 -105.122,610.641 -104.43,607.169 -107.031,604.767 -105.3,601.679 -107.031,598.591 -104.43,596.189 
				-105.122,592.717 -101.907,591.236 -101.491,587.719 -97.976,587.305 -96.494,584.088 -93.022,584.781 -90.621,582.18 			"/>
			<path fill="#526E7D" d="M-84.364,621.679l-3.168-1.775l-3.168,1.775l-2.464-2.667l-3.561,0.71l-1.52-3.299l-3.606-0.426
				l-0.427-3.606l-3.297-1.52l0.71-3.561l-2.668-2.465l1.775-3.167l-1.775-3.167l2.668-2.465l-0.71-3.561l3.297-1.52l0.427-3.606
				l3.606-0.426l1.52-3.299l3.561,0.71l2.464-2.667l3.168,1.775l3.168-1.775l2.464,2.667l3.561-0.71l1.52,3.299l3.606,0.426
				l0.427,3.606l3.298,1.52l-0.711,3.561l2.668,2.465l-1.775,3.167l1.775,3.167l-2.668,2.465l0.711,3.561l-3.298,1.52l-0.427,3.606
				l-3.606,0.426l-1.52,3.299l-3.561-0.71L-84.364,621.679z M-87.532,618.99l3.009,1.687l2.341-2.533l3.382,0.674l1.443-3.134
				l3.426-0.403l0.404-3.426l3.133-1.443l-0.675-3.382l2.534-2.341l-1.687-3.009l1.687-3.009l-2.534-2.341l0.675-3.382l-3.133-1.443
				l-0.404-3.426l-3.426-0.403l-1.443-3.134l-3.382,0.674l-2.341-2.533l-3.009,1.687l-3.009-1.687l-2.341,2.533l-3.382-0.674
				l-1.443,3.134l-3.426,0.403l-0.404,3.426l-3.133,1.443l0.675,3.382l-2.534,2.341l1.687,3.009l-1.687,3.009l2.534,2.341
				l-0.675,3.382l3.133,1.443l0.404,3.426l3.426,0.403l1.443,3.134l3.382-0.674l2.341,2.533L-87.532,618.99z"/>
		</g>
		<g>
			<circle fill="#E3EBEF" cx="-87.532" cy="601.679" r="15.79"/>
			<path fill="#526E7D" d="M-87.532,617.868c-8.927,0-16.188-7.262-16.188-16.188s7.262-16.188,16.188-16.188
				s16.188,7.262,16.188,16.188S-78.605,617.868-87.532,617.868z M-87.532,586.288c-8.487,0-15.392,6.904-15.392,15.392
				s6.904,15.392,15.392,15.392s15.392-6.904,15.392-15.392S-79.045,586.288-87.532,586.288z"/>
		</g>
		<g>
			<path fill="#526E7D" d="M-87.532,612.822c-6.144,0-11.143-4.999-11.143-11.143s4.999-11.143,11.143-11.143
				s11.143,4.999,11.143,11.143S-81.389,612.822-87.532,612.822z M-87.532,592.131c-5.265,0-9.548,4.283-9.548,9.548
				s4.283,9.548,9.548,9.548s9.548-4.283,9.548-9.548S-82.268,592.131-87.532,592.131z"/>
		</g>
		<g>
			<path fill="#526E7D" d="M-87.532,614.601c-7.126,0-12.922-5.796-12.922-12.922s5.796-12.922,12.922-12.922
				s12.922,5.796,12.922,12.922S-80.406,614.601-87.532,614.601z M-87.532,589.554c-6.686,0-12.125,5.439-12.125,12.125
				s5.439,12.125,12.125,12.125s12.125-5.439,12.125-12.125S-80.847,589.554-87.532,589.554z"/>
		</g>
	</g>
	<path fill="#435C69" d="M-175.406,651.675c11.399,0,21.688-5.852,29.034-15.249l-1.197-7.479c-0.174-1.086-1.167-2.267-2.208-2.624
		l-8.949-3.072c-1.041-0.357-2.02-1.505-2.177-2.55s-1.012-2.199-1.9-2.565s-1.749-1.555-1.912-2.643l-0.262-1.746
		c-0.163-1.088,0.601-2.041,1.698-2.118c0,0,1.255-0.088,3.155-0.848s2.388-6.898,2.388-6.898c0.087-1.097,0.895-2.512,1.794-3.146
		l1.859-1.308c0.9-0.634,1.764-1.536,1.921-2.007c0.156-0.471,0.693-1.657,1.192-2.638l0.275-0.54c0.5-0.98,0.908-2.228,0.908-2.771
		c0-0.545-0.415-1.789-0.922-2.765l-5.756-11.08c-0.507-0.976-1.559-2.411-2.336-3.188l-8.193-8.193
		c-0.778-0.777-2.304-1.551-3.391-1.718l-8.399-1.293c-1.087-0.167-2.703,0.228-3.591,0.876l-1.711,1.251
		c-0.888,0.648-2.213,1.308-2.945,1.465s-1.975,0.913-2.763,1.681l-4.546,4.43c-0.788,0.768-1.561,2.208-1.718,3.201
		c-0.157,0.992-0.627,2.019-1.045,2.28c-0.418,0.262-0.76,1.373-0.76,2.471s-0.576,2.687-1.28,3.531l-3.141,3.769
		c-0.704,0.845-0.653,2.182,0.113,2.972l3.485,3.59c0.766,0.79,2.198,1.838,3.182,2.33l0.223,0.111
		c0.983,0.492,1.91,1.786,2.059,2.876l0.029,0.218c0.149,1.09,1.147,2.184,2.219,2.432l0.521,0.12
		c-1.9,10.262-13.897,17.926-13.897,17.926c-0.927,0.593-2.449,1.554-3.381,2.137l-2.689,1.682
		c-0.262,0.163-0.471,0.385-0.634,0.635C-204.25,640.96-190.841,651.675-175.406,651.675z"/>
	<g>
		<path fill="#E3EBEF" d="M-175.406,553.683c21.175,0,38.402,21.531,38.402,47.996s-17.227,47.996-38.402,47.996
			s-38.402-21.531-38.402-47.996S-196.581,553.683-175.406,553.683 M-175.406,551.683c-22.313,0-40.402,22.385-40.402,49.996
			s18.089,49.996,40.402,49.996s40.402-22.385,40.402-49.996S-153.093,551.683-175.406,551.683L-175.406,551.683z"/>
	</g>
</g>
<g id="Layer_6">
	<g>
		<g>
			<path fill="#C5D4AB" d="M249.999,399.507c-3.958,0-7.729-0.972-10.618-2.736L97.136,309.872
				c-5.859-3.579-10.448-11.761-10.448-18.626V119.455c0-6.866,4.589-15.048,10.448-18.627L239.38,13.93
				c2.89-1.765,6.661-2.737,10.619-2.737c3.959,0,7.73,0.972,10.62,2.738l142.246,86.908c5.858,3.58,10.447,11.761,10.447,18.627
				v171.767c0,6.865-4.589,15.047-10.447,18.627l-142.247,86.909C257.729,398.535,253.958,399.507,249.999,399.507
				C249.999,399.507,249.999,399.507,249.999,399.507z"/>
			<path fill="#828F74" d="M249.999,15.193c3.094,0,6.188,0.717,8.534,2.151l142.246,86.908c4.693,2.868,8.533,9.714,8.533,15.214
				v171.767c0,5.5-3.84,12.346-8.533,15.214l-142.246,86.909c-2.347,1.435-5.44,2.151-8.534,2.151c-3.093,0-6.187-0.717-8.534-2.15
				L99.222,306.458c-4.693-2.867-8.534-9.713-8.534-15.213V119.455c0-5.5,3.84-12.346,8.534-15.213l142.244-86.898
				C243.812,15.91,246.906,15.193,249.999,15.193 M249.999,7.193c-4.684,0-9.195,1.18-12.704,3.323L95.051,97.415
				c-7.048,4.306-12.363,13.781-12.363,22.04v171.791c0,8.259,5.315,17.734,12.363,22.04l142.244,86.898
				c3.509,2.143,8.021,3.323,12.704,3.323c4.685,0,9.197-1.181,12.706-3.325l142.245-86.908
				c7.048-4.308,12.362-13.783,12.362-22.041V119.466c0-8.259-5.314-17.734-12.362-22.041L262.704,10.517
				C259.196,8.374,254.684,7.193,249.999,7.193L249.999,7.193z"/>
		</g>
		<g>
			<path fill="#D8E8BC" d="M249.993,15.193c-3.091,0.001-6.182,0.718-8.527,2.15L99.222,104.242
				c-4.693,2.867-8.534,9.713-8.534,15.213v171.791c0,5.5,3.84,12.346,8.534,15.213l142.244,86.898
				c2.346,1.433,5.437,2.149,8.527,2.15V15.193z"/>
		</g>
		<path fill="none" stroke="#F9FAF9" stroke-width="2" stroke-miterlimit="10" d="M393.682,115.733L251.584,28.918
			c-0.189-0.072-0.762-0.226-1.584-0.226c-0.823,0-1.396,0.154-1.585,0.226L106.26,115.762c-0.775,0.568-1.99,2.735-2.074,3.763
			l0.002,171.72c0.082,0.957,1.297,3.124,2.13,3.73l142.095,86.806c0.188,0.071,0.762,0.226,1.585,0.226s1.396-0.154,1.583-0.226
			l142.158-86.854c0.773-0.568,1.99-2.736,2.074-3.765l-0.002-171.697C395.73,118.508,394.516,116.34,393.682,115.733z"/>
	</g>
</g>
<g id="Layer_2" display="none">
	<g display="inline">
		<path fill="#314752" d="M356.483,240.655c0,5.5-4.195,11.627-9.323,13.616l-87.795,51.835c-5.128,1.989-13.52,1.99-18.647,0.003
			l-87.886-51.841c-5.128-1.987-9.324-8.113-9.324-13.613v-67.628c0-5.5,4.5-10,10-10h192.976c5.5,0,10,4.5,10,10V240.655z"/>
		<g>
			<defs>
				<polygon id="SVGID_1_" points="332.679,262.821 327.679,265.773 327.679,207.472 332.679,207.472 				"/>
			</defs>
			<use xlink:href="#SVGID_1_"  overflow="visible" fill="#1E303A"/>
			<clipPath id="SVGID_2_">
				<use xlink:href="#SVGID_1_"  overflow="visible"/>
			</clipPath>
		</g>
		<polygon fill="#283C47" points="67.412,163.884 67.412,158.507 72.251,158.507 		"/>
		<polygon fill="#283C47" points="432.588,158.182 432.588,163.712 428.502,164.839 		"/>
		<path fill="#1E303A" d="M241.665,271.827c4.937,2.423,13.008,2.406,17.936-0.037l96.883-54.888v-39.771c0-5.5-4.5-10-10-10
			H153.508c-5.5,0-10,4.5-10,10v39.685L241.665,271.827z"/>
		<path fill="#283C47" d="M428.89,159.282c4.93,2.439,4.932,6.434,0.004,8.877l-169.293,83.957
			c-4.928,2.443-12.999,2.46-17.936,0.037L71.116,168.456c-4.938-2.423-4.939-6.392-0.004-8.82l170.771-84.013
			c4.935-2.428,13.006-2.419,17.936,0.02L428.89,159.282z"/>
		<path fill="#526E7D" d="M428.89,153.745c4.93,2.439,4.932,6.434,0.004,8.877l-169.293,83.957
			c-4.928,2.443-12.999,2.46-17.936,0.037L71.116,162.919c-4.938-2.423-4.939-6.392-0.004-8.82l170.771-84.013
			c4.935-2.428,13.006-2.419,17.936,0.02L428.89,153.745z"/>
		
			<polyline fill="none" stroke="#1E303A" stroke-width="2" stroke-linecap="round" stroke-linejoin="round" stroke-miterlimit="10" points="
			254.507,153.124 343.773,205.033 343.773,217.496 		"/>
		
			<polyline fill="none" stroke="#A9B0B5" stroke-width="5" stroke-linecap="round" stroke-linejoin="round" stroke-miterlimit="10" points="
			255.097,150.947 347.301,203.085 347.301,321.026 		"/>
	</g>
</g>
<g id="Layer_3">
	<g>
		<polygon opacity="0.4" fill="#828F74" points="152.197,332.712 177.546,348.198 419.313,277.729 419.313,255.342 		"/>
		<g>
			<g>
				<polygon fill="#526E7D" points="458.774,250.971 105.591,352.958 14.214,224.569 367.396,122.583 				"/>
				<polygon fill="#E3EBEF" points="430.87,247.446 119.815,337.265 42.118,228.096 353.172,138.275 				"/>
				<polygon fill="#435C69" points="366.946,255.22 328.85,266.221 319.596,253.219 357.693,242.217 				"/>
				<polygon fill="#435C69" points="171.127,311.766 209.224,300.765 199.968,287.763 161.872,298.764 				"/>
				<polygon fill="#526E7D" points="346.482,257.198 186.948,303.264 177.692,290.263 337.226,244.195 				"/>
				<g>
					<path fill="#526E7D" d="M277.263,295.054c-30.062,8.679-72.806-9.955-95.288-41.542
						c-22.481-31.584-16.312-64.344,13.749-73.024c30.062-8.681,72.809,9.952,95.29,41.539
						C313.495,253.611,307.326,286.373,277.263,295.054z"/>
					<path fill="#E3EBEF" d="M197.461,182.93c28.54-8.242,69.148,9.632,90.706,39.92c21.555,30.287,15.896,61.52-12.641,69.763
						c-28.537,8.24-69.149-9.634-90.706-39.919C163.265,222.406,168.924,191.171,197.461,182.93 M193.987,178.049
						c-15.554,4.49-25.585,15.04-28.242,29.706c-2.586,14.276,2.167,30.819,13.384,46.581
						c11.217,15.763,27.619,28.942,46.183,37.111c19.066,8.392,38.133,10.54,53.689,6.047c15.555-4.493,25.584-15.04,28.24-29.708
						c2.588-14.274-2.164-30.819-13.382-46.58c-11.218-15.761-27.62-28.943-46.184-37.111
						C228.61,175.703,209.542,173.555,193.987,178.049L193.987,178.049z"/>
				</g>
				<g>
					<path fill="#E3EBEF" d="M271.933,287.561c-25.992,7.504-63.032-8.724-82.572-36.18c-19.541-27.454-14.294-55.897,11.696-63.402
						c25.989-7.504,63.029,8.725,82.57,36.181C303.168,251.614,297.919,280.056,271.933,287.561z"/>
					<path fill="#435C69" d="M201.75,188.956c25.402-7.335,61.552,8.574,80.739,35.533c19.188,26.959,14.148,54.761-11.254,62.098
						c-25.399,7.334-61.55-8.574-80.736-35.534C171.311,224.094,176.351,196.291,201.75,188.956 M200.363,187.003
						c-26.618,7.687-32.064,36.715-12.141,64.708c19.924,27.992,57.786,44.514,84.404,36.827
						c26.617-7.686,32.062-36.716,12.141-64.707C264.841,195.836,226.979,179.316,200.363,187.003L200.363,187.003z"/>
				</g>
				<path fill="#526E7D" d="M78.334,232.914c7.465,10.487,3.603,21.855-8.628,25.387c-12.229,3.532-28.195-2.108-35.659-12.598
					c-7.467-10.488-3.604-21.856,8.626-25.387C54.904,216.784,70.869,222.425,78.334,232.914z"/>
				<path fill="#E3EBEF" d="M72.503,234.598c5.499,7.727,2.654,16.1-6.356,18.699c-9.009,2.604-20.772-1.553-26.27-9.277
					c-5.5-7.728-2.656-16.101,6.354-18.702C55.242,222.714,67.004,226.872,72.503,234.598z"/>
				<path fill="#526E7D" d="M126.455,322.485c5.696,8.003,4.607,16.14-2.433,18.173c-7.039,2.033-17.363-2.809-23.058-10.81
					c-5.697-8.002-4.608-16.14,2.431-18.173C110.434,309.642,120.759,314.482,126.455,322.485z"/>
				<path fill="#E3EBEF" d="M123.099,323.455c4.196,5.896,3.394,11.891-1.793,13.387c-5.186,1.498-12.79-2.066-16.986-7.963
					c-4.198-5.897-3.395-11.891,1.79-13.387C111.295,313.993,118.901,317.558,123.099,323.455z"/>
				<path fill="#526E7D" d="M409.044,240.884c5.695,8.002,16.02,12.844,23.06,10.812c7.037-2.034,8.127-10.17,2.432-18.173
					c-5.698-8.005-16.022-12.845-23.062-10.812C404.436,224.745,403.346,232.879,409.044,240.884z"/>
				<path fill="#E3EBEF" d="M412.398,239.917c4.194,5.894,11.802,9.459,16.987,7.963c5.188-1.499,5.987-7.492,1.792-13.387
					c-4.195-5.897-11.802-9.463-16.986-7.966C409.006,228.025,408.202,234.02,412.398,239.917z"/>
				<path fill="#526E7D" d="M378.834,146.139c7.465,10.488,3.602,21.855-8.63,25.387c-12.231,3.532-28.196-2.107-35.661-12.597
					c-7.465-10.49-3.604-21.855,8.628-25.388C355.401,130.011,371.366,135.649,378.834,146.139z"/>
				<path fill="#E3EBEF" d="M373.001,147.822c5.501,7.728,2.654,16.1-6.354,18.702c-9.009,2.604-20.772-1.553-26.273-9.281
					c-5.498-7.726-2.655-16.1,6.356-18.701C355.741,135.941,367.503,140.096,373.001,147.822z"/>
				<g>
					<g>
						<polygon fill="#526E7D" points="127.696,248.274 130.01,245.57 134.552,247.318 138.022,245.5 141.944,248.155 
							146.234,247.404 149.151,250.702 153.84,251.089 155.466,254.708 160.095,256.199 160.27,259.78 164.386,262.227 
							163.096,265.428 166.294,268.589 163.665,271.092 165.636,274.664 161.921,276.225 162.471,279.849 158.038,280.315 
							157.109,283.646 152.39,282.969 150.078,285.676 145.535,283.925 142.064,285.745 138.143,283.09 133.853,283.841 
							130.936,280.543 126.246,280.155 124.622,276.537 119.993,275.047 119.816,271.463 115.699,269.018 116.991,265.816 
							113.79,262.655 116.422,260.152 114.451,256.583 118.167,255.022 117.617,251.393 122.049,250.928 122.977,247.6 						"/>
						<path fill="#526E7D" d="M157.548,284.109l-4.84-0.693l-2.373,2.775l-4.659-1.794l-3.56,1.865l-4.021-2.723l-4.402,0.77
							l-2.991-3.38l-4.811-0.4l-1.666-3.71l-4.75-1.53l-0.18-3.675l-4.222-2.508l1.324-3.284l-3.283-3.243l2.699-2.566l-2.021-3.662
							l3.811-1.601l-0.563-3.722l4.546-0.478l0.954-3.414l4.838,0.691l2.373-2.773l4.658,1.793l3.561-1.861l4.021,2.72l4.403-0.771
							l2.989,3.381l4.812,0.399l1.665,3.711l4.75,1.529l0.179,3.676l4.223,2.51l-1.325,3.282l3.283,3.241l-2.699,2.569l2.021,3.662
							l-3.81,1.602l0.563,3.72l-4.547,0.479L157.548,284.109z M152.072,282.524l4.598,0.655l0.904-3.24l4.318-0.454l-0.535-3.535
							l3.62-1.521l-1.921-3.476l2.564-2.441l-3.117-3.078l1.257-3.118l-4.011-2.384l-0.169-3.492l-4.513-1.452l-1.581-3.524
							l-4.57-0.38l-2.84-3.213l-4.18,0.734l-3.82-2.585l-3.383,1.769l-4.425-1.703l-2.253,2.635l-4.597-0.655l-0.903,3.242
							l-4.32,0.454l0.536,3.534l-3.621,1.521l1.921,3.475l-2.565,2.441l3.119,3.08l-1.258,3.116l4.01,2.384l0.17,3.494l4.513,1.452
							l1.582,3.522l4.571,0.379l2.839,3.214l4.182-0.731l3.82,2.585l3.383-1.77l4.424,1.703L152.072,282.524z"/>
					</g>
					<g>
						<path fill="#E3EBEF" d="M158.02,260.43c6.059,8.516,2.924,17.743-7.004,20.609s-22.89-1.714-28.948-10.225
							c-6.06-8.515-2.924-17.742,7.004-20.608C138.999,247.339,151.959,251.919,158.02,260.43z"/>
						<path fill="#526E7D" d="M151.293,281.427c-10.163,2.937-23.478-1.768-29.679-10.482c-6.204-8.718-2.982-18.194,7.18-21.128
							c10.161-2.935,23.475,1.767,29.679,10.484C164.677,269.015,161.455,278.494,151.293,281.427z M129.349,250.595
							c-9.663,2.789-12.725,11.8-6.827,20.088c5.897,8.286,18.556,12.757,28.217,9.967c9.662-2.789,12.725-11.801,6.827-20.088
							C151.67,252.276,139.009,247.804,129.349,250.595z"/>
					</g>
					<g>
						<path fill="#526E7D" d="M147.786,276.501c-6.993,2.02-16.157-1.218-20.426-7.217c-4.271-5.998-2.053-12.521,4.94-14.542
							c6.995-2.019,16.159,1.218,20.428,7.218C156.997,267.958,154.782,274.483,147.786,276.501z M133.408,256.301
							c-5.993,1.73-7.894,7.319-4.234,12.459c3.658,5.142,11.511,7.915,17.504,6.186c5.993-1.732,7.892-7.323,4.235-12.461
							C147.254,257.342,139.401,254.569,133.408,256.301z"/>
					</g>
					<g>
						<path fill="#526E7D" d="M149.022,278.239c-8.111,2.342-18.738-1.413-23.689-8.37c-4.952-6.956-2.381-14.521,5.73-16.863
							c8.112-2.342,18.738,1.413,23.69,8.371C159.706,268.333,157.134,275.896,149.022,278.239z M131.618,253.784
							c-7.611,2.197-10.023,9.296-5.377,15.824s14.617,10.05,22.229,7.852c7.612-2.197,10.023-9.296,5.377-15.822
							C149.201,255.109,139.229,251.584,131.618,253.784z"/>
					</g>
				</g>
				<g>
					<g>
						<polygon fill="#526E7D" points="324.185,191.534 326.499,188.829 331.038,190.578 334.512,188.761 338.433,191.414 
							342.724,190.663 345.643,193.96 350.328,194.35 351.952,197.967 356.584,199.458 356.761,203.041 360.876,205.488 
							359.584,208.687 362.785,211.851 360.156,214.354 362.125,217.923 358.41,219.484 358.958,223.113 354.524,223.578 
							353.599,226.907 348.88,226.229 346.566,228.937 342.025,227.188 338.555,229.003 334.634,226.352 330.341,227.103 
							327.424,223.805 322.735,223.416 321.112,219.798 316.479,218.309 316.306,214.723 312.188,212.279 313.48,209.077 
							310.281,205.914 312.91,203.412 310.94,199.842 314.656,198.28 314.104,194.655 318.541,194.189 319.468,190.86 						"/>
						<path fill="#526E7D" d="M354.037,227.369l-4.841-0.691l-2.371,2.774l-4.658-1.793l-3.562,1.862l-4.02-2.722l-4.402,0.772
							l-2.993-3.383l-4.809-0.398l-1.665-3.711l-4.75-1.528l-0.181-3.677l-4.221-2.509l1.324-3.283l-3.282-3.244l2.696-2.569
							l-2.02-3.659l3.808-1.602l-0.56-3.722l4.544-0.476l0.952-3.415l4.84,0.691l2.374-2.773l4.658,1.794l3.561-1.864l4.023,2.722
							l4.4-0.771l2.991,3.381l4.81,0.4l1.665,3.709l4.751,1.53l0.18,3.676l4.222,2.508l-1.325,3.284l3.285,3.244l-2.699,2.566
							l2.02,3.662l-3.809,1.602l0.562,3.721l-4.546,0.479L354.037,227.369z M348.562,225.784l4.596,0.658l0.906-3.242l4.317-0.455
							l-0.533-3.532l3.618-1.522l-1.919-3.476l2.562-2.439l-3.117-3.081l1.257-3.119l-4.01-2.383l-0.17-3.493l-4.514-1.452
							l-1.583-3.523l-4.566-0.38l-2.843-3.211l-4.179,0.731l-3.82-2.585l-3.384,1.769l-4.428-1.703l-2.25,2.635l-4.596-0.656
							l-0.906,3.243l-4.318,0.454l0.534,3.535l-3.619,1.518l1.92,3.479l-2.562,2.439l3.119,3.083l-1.259,3.116l4.01,2.383
							l0.17,3.493l4.513,1.452l1.581,3.523l4.569,0.381l2.84,3.212l4.182-0.733l3.82,2.587l3.382-1.771l4.427,1.703L348.562,225.784
							z"/>
					</g>
					<g>
						<path fill="#E3EBEF" d="M354.509,203.691c6.06,8.514,2.926,17.741-7.004,20.608c-9.928,2.868-22.89-1.713-28.947-10.226
							c-6.06-8.514-2.926-17.741,7.004-20.609C335.488,190.6,348.448,195.178,354.509,203.691z"/>
						<path fill="#526E7D" d="M347.784,224.688c-10.164,2.936-23.477-1.767-29.681-10.484c-6.204-8.714-2.985-18.193,7.179-21.126
							c10.165-2.935,23.476,1.767,29.681,10.484C361.165,212.276,357.945,221.755,347.784,224.688z M325.839,193.855
							c-9.664,2.789-12.728,11.799-6.828,20.086c5.898,8.288,18.556,12.76,28.219,9.969c9.662-2.79,12.725-11.8,6.826-20.088
							C348.159,195.536,335.5,191.065,325.839,193.855z"/>
					</g>
					<g>
						<path fill="#526E7D" d="M344.273,219.761c-6.992,2.021-16.156-1.218-20.426-7.215c-4.271-5.999-2.054-12.524,4.94-14.544
							c6.995-2.019,16.16,1.22,20.431,7.217C353.487,211.219,351.271,217.742,344.273,219.761z M329.898,199.561
							c-5.994,1.731-7.894,7.321-4.235,12.461s11.512,7.914,17.505,6.183s7.894-7.321,4.235-12.46
							C343.742,200.604,335.891,197.829,329.898,199.561z"/>
					</g>
					<g>
						<path fill="#526E7D" d="M345.513,221.499c-8.112,2.344-18.74-1.41-23.689-8.367c-4.954-6.959-2.382-14.523,5.729-16.867
							c8.116-2.34,18.74,1.412,23.691,8.37C356.194,211.592,353.624,219.158,345.513,221.499z M328.106,197.044
							c-7.611,2.198-10.022,9.297-5.377,15.824c4.646,6.528,14.617,10.051,22.229,7.854c7.613-2.198,10.024-9.297,5.377-15.826
							C345.691,198.369,335.718,194.846,328.106,197.044z"/>
					</g>
				</g>
				<path fill="#435C69" d="M271.235,286.586c12.977-3.749,20.625-12.844,22.458-24.436l-6.558-6.908
					c-0.955-1.004-2.904-1.828-4.339-1.837l-12.323-0.057c-1.432-0.006-3.345-0.808-4.25-1.773
					c-0.903-0.971-2.679-1.816-3.945-1.881c-1.266-0.066-3.071-0.943-4.013-1.951l-1.512-1.62c-0.94-1.009-0.732-2.189,0.464-2.627
					c0,0,1.364-0.498,2.998-1.864c1.64-1.365-2.073-7.521-2.073-7.521c-0.664-1.099-0.724-2.745-0.144-3.661l1.208-1.886
					c0.585-0.914,0.942-2.081,0.794-2.592c-0.15-0.512-0.363-1.846-0.476-2.969l-0.063-0.616c-0.111-1.123-0.516-2.475-0.894-3.004
					c-0.377-0.532-1.716-1.611-2.969-2.397l-14.255-8.925c-1.254-0.786-3.449-1.841-4.873-2.345l-15.022-5.306
					c-1.427-0.505-3.701-0.758-5.054-0.563l-10.461,1.497c-1.353,0.194-2.917,1.113-3.48,2.038l-1.078,1.783
					c-0.561,0.926-1.611,2.004-2.335,2.398c-0.721,0.395-1.614,1.542-1.977,2.549l-2.098,5.82c-0.363,1.009-0.242,2.668,0.271,3.69
					c0.511,1.02,0.689,2.176,0.394,2.569c-0.295,0.394,0.089,1.591,0.852,2.663c0.763,1.071,1.211,2.812,0.997,3.868l-0.957,4.711
					c-0.215,1.058,0.773,2.344,2.194,2.864l6.46,2.36c1.423,0.52,3.781,1.07,5.241,1.229l0.332,0.036
					c1.462,0.154,3.417,1.114,4.344,2.131l0.184,0.202c0.927,1.015,2.824,1.755,4.217,1.645l0.678-0.053
					c4.967,10.642-3.364,22.068-3.364,22.068c-0.645,0.883-1.709,2.321-2.367,3.197l-1.893,2.527
					c-0.185,0.245-0.268,0.531-0.279,0.829C230.954,285.605,253.665,291.66,271.235,286.586z"/>
				<path fill="#E3EBEF" d="M203.141,190.908c24.107-6.961,58.68,8.397,77.071,34.237c18.391,25.84,13.742,52.527-10.366,59.486
					c-24.105,6.961-58.678-8.396-77.07-34.236C174.386,224.556,179.035,197.869,203.141,190.908 M201.75,188.956
					c-25.399,7.335-30.439,35.138-11.251,62.096c19.187,26.96,55.337,42.868,80.736,35.534
					c25.402-7.337,30.442-35.139,11.254-62.098C263.303,197.53,227.153,181.621,201.75,188.956L201.75,188.956z"/>
			</g>
			<polygon opacity="0.2" fill="#526E7D" points="38.383,217.59 117.668,328.989 446.682,233.981 367.396,122.583 			"/>
			<g>
				<polygon fill="#526E7D" points="472.278,218.549 119.096,320.537 27.719,192.148 380.902,90.162 				"/>
				<polygon fill="#E3EBEF" points="444.374,215.024 133.321,304.844 55.624,195.675 366.679,105.855 				"/>
				<polygon fill="#435C69" points="380.451,222.799 342.354,233.8 333.101,220.798 371.197,209.796 				"/>
				<polygon fill="#435C69" points="184.632,279.344 222.729,268.343 213.474,255.342 175.378,266.344 				"/>
				<polygon fill="#526E7D" points="359.986,224.777 200.453,270.843 191.199,257.843 350.733,211.774 				"/>
				<g>
					<path fill="#526E7D" d="M290.769,262.633c-30.062,8.68-72.807-9.953-95.288-41.541c-22.481-31.585-16.312-64.344,13.749-73.024
						c30.062-8.681,72.808,9.951,95.289,41.537C326.999,221.19,320.831,253.951,290.769,262.633z"/>
					<path fill="#E3EBEF" d="M210.967,150.509c28.54-8.242,69.149,9.632,90.706,39.918c21.555,30.29,15.896,61.522-12.643,69.765
						c-28.536,8.24-69.147-9.634-90.703-39.919C176.771,189.984,182.43,158.749,210.967,150.509 M207.492,145.627
						c-15.554,4.492-25.584,15.04-28.241,29.706c-2.587,14.276,2.166,30.82,13.384,46.583c11.217,15.762,27.619,28.94,46.183,37.111
						c19.066,8.391,38.135,10.539,53.689,6.046s25.586-15.04,28.242-29.707c2.587-14.275-2.166-30.821-13.384-46.583
						c-11.217-15.76-27.618-28.94-46.183-37.109C242.115,143.282,223.048,141.134,207.492,145.627L207.492,145.627z"/>
				</g>
				<g>
					<path fill="#E3EBEF" d="M285.437,255.14c-25.989,7.505-63.031-8.724-82.571-36.18c-19.541-27.456-14.294-55.897,11.697-63.401
						c25.99-7.506,63.03,8.725,82.569,36.179C316.673,219.193,311.426,247.635,285.437,255.14z"/>
					<path fill="#435C69" d="M215.257,156.535c25.401-7.336,61.55,8.573,80.738,35.531c19.187,26.961,14.148,54.762-11.253,62.099
						c-25.401,7.334-61.551-8.573-80.738-35.533C184.817,191.673,189.857,163.869,215.257,156.535 M213.869,154.582
						c-26.618,7.687-32.064,36.715-12.141,64.708c19.924,27.992,57.787,44.514,84.406,36.826
						c26.614-7.686,32.062-36.713,12.14-64.707C278.349,163.416,240.485,146.896,213.869,154.582L213.869,154.582z"/>
				</g>
				<path fill="#526E7D" d="M91.84,200.493c7.466,10.486,3.603,21.855-8.628,25.385c-12.229,3.532-28.196-2.108-35.66-12.597
					c-7.466-10.49-3.604-21.857,8.626-25.387C68.409,184.362,84.375,190.004,91.84,200.493z"/>
				<path fill="#E3EBEF" d="M86.009,202.177c5.499,7.726,2.653,16.099-6.356,18.701c-9.01,2.602-20.772-1.554-26.27-9.279
					c-5.5-7.728-2.656-16.1,6.354-18.702C68.747,190.294,80.51,194.45,86.009,202.177z"/>
				<path fill="#526E7D" d="M139.961,290.065c5.696,8.001,4.607,16.138-2.434,18.173c-7.039,2.032-17.363-2.81-23.058-10.812
					c-5.697-8.002-4.608-16.139,2.43-18.172C123.939,277.223,134.265,282.061,139.961,290.065z"/>
				<path fill="#E3EBEF" d="M136.605,291.033c4.195,5.897,3.394,11.892-1.793,13.39c-5.185,1.497-12.79-2.069-16.987-7.965
					c-4.197-5.897-3.395-11.892,1.791-13.387C124.802,281.571,132.407,285.137,136.605,291.033z"/>
				<path fill="#526E7D" d="M422.55,208.463c5.695,8.003,16.018,12.843,23.06,10.812c7.038-2.034,8.129-10.17,2.431-18.174
					c-5.696-8.003-16.02-12.843-23.061-10.812C417.941,192.321,416.852,200.458,422.55,208.463z"/>
				<path fill="#E3EBEF" d="M425.906,207.494c4.193,5.896,11.802,9.461,16.987,7.965c5.185-1.5,5.987-7.492,1.79-13.387
					c-4.196-5.897-11.801-9.463-16.987-7.966C422.512,195.604,421.709,201.597,425.906,207.494z"/>
				<path fill="#526E7D" d="M392.338,113.718c7.465,10.489,3.603,21.854-8.626,25.387c-12.231,3.532-28.198-2.108-35.661-12.597
					c-7.468-10.489-3.604-21.854,8.626-25.388C368.906,97.589,384.873,103.229,392.338,113.718z"/>
				<path fill="#E3EBEF" d="M386.507,115.4c5.499,7.729,2.655,16.102-6.353,18.702c-9.011,2.604-20.775-1.552-26.272-9.279
					c-5.501-7.727-2.655-16.101,6.355-18.701C369.247,103.52,381.009,107.675,386.507,115.4z"/>
				<g>
					<g>
						<polygon fill="#526E7D" points="141.202,215.853 143.516,213.149 148.058,214.896 151.528,213.081 155.449,215.734 
							159.74,214.983 162.656,218.28 167.346,218.668 168.972,222.286 173.602,223.777 173.776,227.358 177.892,229.806 
							176.602,233.007 179.8,236.167 177.171,238.67 179.142,242.243 175.426,243.803 175.976,247.428 171.543,247.894 
							170.616,251.224 165.896,250.547 163.583,253.254 159.041,251.503 155.571,253.323 151.648,250.669 147.358,251.42 
							144.442,248.123 139.751,247.735 138.128,244.117 133.498,242.627 133.322,239.043 129.205,236.597 130.497,233.394 
							127.296,230.234 129.928,227.731 127.957,224.161 131.672,222.6 131.123,218.971 135.555,218.506 136.483,215.177 						"/>
						<path fill="#526E7D" d="M171.053,251.689l-4.84-0.693l-2.372,2.774l-4.66-1.793l-3.56,1.864l-4.021-2.723l-4.402,0.771
							l-2.991-3.384l-4.81-0.398l-1.666-3.71l-4.75-1.53l-0.179-3.674l-4.223-2.51l1.324-3.282l-3.282-3.243l2.699-2.567
							l-2.021-3.662l3.81-1.602l-0.563-3.722l4.547-0.478l0.954-3.414l4.838,0.691l2.373-2.772l4.658,1.795l3.562-1.863l4.021,2.72
							l4.402-0.771l2.989,3.381l4.812,0.398l1.666,3.712l4.75,1.528l0.179,3.676l4.223,2.51l-1.325,3.283l3.284,3.241l-2.7,2.568
							l2.021,3.662l-3.81,1.603l0.564,3.72l-4.548,0.479L171.053,251.689z M165.578,250.102l4.598,0.656l0.904-3.24l4.318-0.453
							l-0.535-3.535l3.621-1.521l-1.921-3.477l2.564-2.439l-3.117-3.08l1.257-3.118l-4.011-2.384l-0.169-3.492l-4.512-1.452
							l-1.581-3.524l-4.571-0.38l-2.84-3.212l-4.18,0.733l-3.821-2.584l-3.383,1.769l-4.425-1.703l-2.253,2.635l-4.597-0.656
							l-0.904,3.242l-4.319,0.454l0.536,3.534l-3.621,1.521l1.921,3.476l-2.565,2.441l3.119,3.081l-1.258,3.117l4.01,2.382
							l0.17,3.495l4.513,1.452l1.582,3.521l4.57,0.38l2.84,3.213l4.181-0.732l3.821,2.586l3.383-1.77l4.424,1.702L165.578,250.102z"
							/>
					</g>
					<g>
						<path fill="#E3EBEF" d="M171.526,228.009c6.06,8.515,2.925,17.743-7.004,20.609c-9.928,2.866-22.889-1.714-28.949-10.226
							c-6.06-8.513-2.924-17.742,7.004-20.608C152.505,214.918,165.465,219.498,171.526,228.009z"/>
						<path fill="#526E7D" d="M164.799,249.006c-10.163,2.936-23.478-1.767-29.68-10.482c-6.204-8.718-2.982-18.195,7.181-21.129
							c10.16-2.934,23.475,1.767,29.678,10.485C178.183,236.594,174.961,246.073,164.799,249.006z M142.854,218.173
							c-9.663,2.789-12.726,11.8-6.827,20.089c5.898,8.286,18.556,12.758,28.218,9.967c9.662-2.789,12.726-11.801,6.827-20.089
							C165.175,219.854,152.515,215.383,142.854,218.173z"/>
					</g>
					<g>
						<path fill="#526E7D" d="M161.292,244.08c-6.994,2.021-16.157-1.218-20.426-7.215c-4.271-5.998-2.053-12.523,4.941-14.543
							c6.995-2.02,16.159,1.218,20.428,7.217C170.502,235.538,168.288,242.061,161.292,244.08z M146.914,223.879
							c-5.993,1.731-7.894,7.32-4.235,12.461c3.658,5.14,11.511,7.914,17.505,6.184c5.993-1.732,7.892-7.321,4.234-12.461
							C160.76,224.921,152.907,222.147,146.914,223.879z"/>
					</g>
					<g>
						<path fill="#526E7D" d="M162.528,245.818c-8.111,2.343-18.738-1.413-23.69-8.37c-4.952-6.955-2.38-14.521,5.731-16.864
							c8.112-2.342,18.738,1.414,23.689,8.371C173.211,235.911,170.64,243.476,162.528,245.818z M145.123,221.362
							c-7.611,2.198-10.023,9.297-5.377,15.825c4.646,6.529,14.618,10.049,22.229,7.853c7.612-2.198,10.023-9.298,5.377-15.824
							C162.707,222.687,152.734,219.163,145.123,221.362z"/>
					</g>
				</g>
				<g>
					<g>
						<polygon fill="#526E7D" points="337.691,159.112 340.006,156.407 344.545,158.158 348.019,156.339 351.94,158.994 
							356.229,158.242 359.147,161.54 363.835,161.93 365.458,165.546 370.092,167.036 370.266,170.621 374.383,173.066 
							373.09,176.266 376.292,179.43 373.662,181.933 375.63,185.502 371.917,187.063 372.466,190.69 368.032,191.154 
							367.105,194.483 362.385,193.809 360.071,196.516 355.532,194.767 352.061,196.583 348.14,193.93 343.846,194.682 
							340.93,191.384 336.24,190.993 334.617,187.377 329.986,185.887 329.811,182.302 325.694,179.857 326.987,176.654 
							323.785,173.494 326.415,170.99 324.445,167.42 328.162,165.86 327.611,162.234 332.046,161.768 332.973,158.439 						"/>
						<path fill="#526E7D" d="M367.543,194.948l-4.843-0.693l-2.371,2.775l-4.657-1.794l-3.561,1.863l-4.02-2.721l-4.404,0.771
							l-2.991-3.383l-4.811-0.398l-1.666-3.711l-4.747-1.528l-0.183-3.676l-4.221-2.51l1.323-3.283l-3.282-3.242l2.698-2.568
							l-2.018-3.661l3.807-1.602l-0.562-3.721l4.548-0.477l0.951-3.413l4.839,0.689l2.375-2.773l4.657,1.795l3.561-1.864
							l4.021,2.722l4.402-0.771l2.991,3.381l4.811,0.399l1.666,3.71l4.748,1.53l0.18,3.676l4.223,2.509l-1.325,3.283l3.284,3.242
							l-2.698,2.568l2.021,3.662l-3.81,1.601l0.562,3.72l-4.548,0.479L367.543,194.948z M362.067,193.361l4.598,0.658l0.903-3.243
							l4.32-0.452l-0.536-3.534l3.618-1.521l-1.919-3.478l2.565-2.438l-3.12-3.081l1.26-3.119l-4.01-2.382l-0.172-3.494
							l-4.514-1.451l-1.581-3.523l-4.567-0.379l-2.842-3.213l-4.181,0.732l-3.82-2.586l-3.382,1.771l-4.427-1.703l-2.251,2.635
							l-4.599-0.657l-0.903,3.244l-4.318,0.453l0.533,3.536l-3.619,1.518l1.921,3.478l-2.565,2.439l3.12,3.081l-1.26,3.117
							l4.012,2.383l0.169,3.493l4.515,1.452l1.581,3.524l4.569,0.379l2.841,3.212l4.181-0.732l3.819,2.586l3.382-1.771l4.425,1.704
							L362.067,193.361z"/>
					</g>
					<g>
						<path fill="#E3EBEF" d="M368.015,171.271c6.058,8.514,2.925,17.741-7.003,20.608s-22.889-1.715-28.949-10.226
							c-6.06-8.514-2.924-17.742,7.003-20.608C348.993,158.179,361.956,162.757,368.015,171.271z"/>
						<path fill="#526E7D" d="M361.288,192.266c-10.163,2.937-23.475-1.767-29.681-10.482c-6.201-8.715-2.982-18.192,7.182-21.127
							c10.163-2.935,23.477,1.768,29.679,10.483C374.671,179.854,371.45,189.333,361.288,192.266z M339.343,161.435
							c-9.662,2.79-12.724,11.8-6.825,20.087c5.896,8.287,18.556,12.758,28.218,9.968c9.661-2.79,12.723-11.8,6.824-20.087
							C361.664,163.115,349.004,158.644,339.343,161.435z"/>
					</g>
					<g>
						<path fill="#526E7D" d="M357.781,187.34c-6.995,2.021-16.159-1.217-20.427-7.215c-4.271-5.999-2.053-12.523,4.939-14.544
							c6.995-2.018,16.162,1.221,20.429,7.218C366.991,178.797,364.775,185.321,357.781,187.34z M343.402,167.14
							c-5.993,1.73-7.891,7.321-4.232,12.46c3.655,5.141,11.511,7.914,17.505,6.184c5.991-1.731,7.891-7.321,4.234-12.46
							C357.25,168.182,349.397,165.409,343.402,167.14z"/>
					</g>
					<g>
						<path fill="#526E7D" d="M359.019,189.077c-8.112,2.343-18.739-1.41-23.69-8.367c-4.953-6.959-2.382-14.523,5.73-16.865
							c8.114-2.342,18.737,1.411,23.69,8.37C369.7,179.172,367.131,186.735,359.019,189.077z M341.61,164.622
							c-7.607,2.198-10.021,9.297-5.377,15.825c4.646,6.527,14.619,10.051,22.231,7.853c7.612-2.197,10.024-9.297,5.377-15.824
							C359.195,165.948,349.223,162.425,341.61,164.622z"/>
					</g>
				</g>
				<path fill="#435C69" d="M284.742,254.166c12.978-3.75,20.626-12.843,22.457-24.435l-6.56-6.909
					c-0.953-1.004-2.904-1.828-4.338-1.837l-12.321-0.057c-1.432-0.006-3.347-0.807-4.251-1.773
					c-0.905-0.972-2.679-1.816-3.946-1.881c-1.265-0.066-3.069-0.943-4.014-1.951l-1.508-1.62c-0.944-1.009-0.736-2.189,0.46-2.627
					c0,0,1.368-0.497,3.002-1.863c1.636-1.366-2.075-7.522-2.075-7.522c-0.664-1.099-0.726-2.746-0.143-3.661l1.206-1.888
					c0.585-0.912,0.943-2.08,0.793-2.591c-0.149-0.511-0.36-1.846-0.476-2.968l-0.063-0.616c-0.109-1.122-0.513-2.476-0.89-3.004
					c-0.377-0.533-1.717-1.611-2.971-2.396l-14.255-8.927c-1.256-0.786-3.449-1.841-4.874-2.343l-15.022-5.308
					c-1.426-0.504-3.7-0.758-5.054-0.563l-10.46,1.499c-1.353,0.194-2.917,1.111-3.481,2.036l-1.078,1.784
					c-0.562,0.925-1.611,2.004-2.335,2.397c-0.722,0.395-1.613,1.541-1.977,2.549l-2.098,5.82c-0.363,1.008-0.242,2.669,0.271,3.69
					c0.511,1.02,0.689,2.177,0.394,2.569c-0.294,0.394,0.089,1.591,0.852,2.663c0.762,1.071,1.211,2.812,0.997,3.868l-0.957,4.712
					c-0.215,1.057,0.772,2.344,2.194,2.864l6.461,2.359c1.422,0.521,3.781,1.072,5.241,1.23l0.333,0.036
					c1.461,0.155,3.417,1.115,4.343,2.131l0.185,0.202c0.927,1.015,2.823,1.755,4.216,1.645l0.678-0.053
					c4.967,10.642-3.363,22.068-3.363,22.068c-0.646,0.882-1.71,2.321-2.366,3.197l-1.894,2.526
					c-0.185,0.245-0.267,0.531-0.279,0.829C244.46,253.184,267.169,259.239,284.742,254.166z"/>
				<path fill="#E3EBEF" d="M216.646,158.488c24.107-6.961,58.682,8.397,77.071,34.236c18.392,25.84,13.741,52.526-10.365,59.486
					c-24.106,6.963-58.68-8.397-77.071-34.236C187.891,192.136,192.542,165.449,216.646,158.488 M215.257,156.535
					c-25.399,7.334-30.44,35.138-11.252,62.097c19.187,26.96,55.336,42.867,80.738,35.533c25.401-7.337,30.439-35.138,11.253-62.099
					C276.807,165.108,240.658,149.199,215.257,156.535L215.257,156.535z"/>
			</g>
			<polygon opacity="0.2" fill="#526E7D" points="51.889,185.17 131.174,296.568 460.188,201.559 380.902,90.162 			"/>
			<g>
				<polygon fill="#526E7D" points="485.786,186.128 132.603,288.115 41.225,159.727 394.407,57.741 				"/>
				<polygon fill="#E3EBEF" points="457.881,182.603 146.827,272.423 69.129,163.254 380.184,73.434 				"/>
				<polygon fill="#435C69" points="393.958,190.378 355.86,201.378 346.607,188.377 384.704,177.375 				"/>
				<polygon fill="#435C69" points="198.139,246.923 236.236,235.922 226.979,222.921 188.884,233.922 				"/>
				<polygon fill="#526E7D" points="373.493,192.355 213.958,238.422 204.704,225.421 364.238,179.352 				"/>
				<g>
					<path fill="#526E7D" d="M304.273,230.212c-30.061,8.679-72.806-9.953-95.287-41.542c-22.481-31.584-16.312-64.344,13.75-73.023
						c30.062-8.68,72.81,9.951,95.291,41.538C340.506,188.769,334.337,221.53,304.273,230.212z"/>
					<path fill="#E3EBEF" d="M224.473,118.088c28.54-8.243,69.147,9.632,90.706,39.919c21.554,30.287,15.896,61.521-12.642,69.765
						c-28.537,8.24-69.148-9.635-90.705-39.922C190.276,157.563,195.936,126.328,224.473,118.088 M220.999,113.207
						c-15.555,4.49-25.585,15.039-28.242,29.705c-2.586,14.276,2.167,30.819,13.384,46.581
						c11.216,15.763,27.619,28.942,46.182,37.113c19.067,8.391,38.134,10.539,53.69,6.047c15.555-4.493,25.585-15.041,28.241-29.709
						c2.588-14.275-2.165-30.819-13.384-46.58c-11.217-15.761-27.618-28.941-46.184-37.11
						C255.621,110.861,236.554,108.713,220.999,113.207L220.999,113.207z"/>
				</g>
				<g>
					<path fill="#E3EBEF" d="M298.943,222.719c-25.992,7.506-63.032-8.724-82.571-36.18c-19.541-27.454-14.294-55.897,11.696-63.4
						c25.99-7.506,63.031,8.724,82.571,36.18C330.181,186.771,324.932,215.214,298.943,222.719z"/>
					<path fill="#435C69" d="M228.762,124.114c25.402-7.335,61.551,8.574,80.74,35.532c19.188,26.959,14.147,54.761-11.255,62.098
						c-25.399,7.335-61.55-8.573-80.736-35.535C198.322,159.253,203.363,131.449,228.762,124.114 M227.374,122.161
						c-26.618,7.687-32.064,36.714-12.141,64.707c19.923,27.994,57.785,44.516,84.404,36.829
						c26.618-7.687,32.062-36.716,12.141-64.708C291.854,130.994,253.991,114.476,227.374,122.161L227.374,122.161z"/>
				</g>
				<path fill="#526E7D" d="M105.346,168.071c7.465,10.487,3.603,21.855-8.628,25.387c-12.229,3.531-28.195-2.109-35.66-12.598
					c-7.466-10.489-3.604-21.856,8.626-25.387C81.915,151.941,97.88,157.582,105.346,168.071z"/>
				<path fill="#E3EBEF" d="M99.515,169.756c5.5,7.727,2.654,16.099-6.356,18.7c-9.009,2.602-20.772-1.554-26.27-9.278
					c-5.5-7.728-2.655-16.101,6.354-18.703C82.253,157.872,94.015,162.028,99.515,169.756z"/>
				<path fill="#526E7D" d="M153.466,257.643c5.696,8.002,4.607,16.139-2.433,18.173c-7.04,2.032-17.363-2.81-23.058-10.811
					c-5.697-8.003-4.609-16.14,2.431-18.172C137.445,244.801,147.771,249.639,153.466,257.643z"/>
				<path fill="#E3EBEF" d="M150.111,258.612c4.195,5.897,3.394,11.891-1.793,13.388c-5.186,1.498-12.79-2.068-16.986-7.964
					c-4.198-5.897-3.395-11.891,1.79-13.386C138.307,249.15,145.913,252.716,150.111,258.612z"/>
				<path fill="#526E7D" d="M436.055,176.042c5.696,8.002,16.02,12.844,23.061,10.81c7.038-2.033,8.127-10.168,2.431-18.171
					c-5.696-8.005-16.021-12.845-23.061-10.812C431.446,159.901,430.356,168.036,436.055,176.042z"/>
				<path fill="#E3EBEF" d="M439.41,175.073c4.195,5.895,11.802,9.459,16.988,7.963c5.187-1.498,5.987-7.492,1.79-13.387
					c-4.194-5.896-11.802-9.462-16.985-7.965C436.017,163.182,435.214,169.177,439.41,175.073z"/>
				<path fill="#526E7D" d="M405.846,81.297c7.465,10.489,3.602,21.855-8.63,25.387c-12.231,3.532-28.195-2.107-35.661-12.597
					c-7.465-10.49-3.604-21.855,8.628-25.389C382.413,65.169,398.378,70.808,405.846,81.297z"/>
				<path fill="#E3EBEF" d="M400.013,82.98c5.5,7.728,2.654,16.1-6.354,18.701c-9.009,2.604-20.772-1.553-26.272-9.28
					c-5.499-7.727-2.654-16.1,6.355-18.701C382.753,71.099,394.514,75.254,400.013,82.98z"/>
				<g>
					<g>
						<polygon fill="#526E7D" points="154.708,183.431 157.022,180.727 161.563,182.476 165.034,180.657 168.956,183.312 
							173.246,182.562 176.162,185.858 180.852,186.247 182.478,189.864 187.107,191.355 187.282,194.938 191.397,197.385 
							190.107,200.586 193.306,203.747 190.677,206.25 192.647,209.822 188.933,211.382 189.482,215.007 185.049,215.473 
							184.121,218.803 179.402,218.126 177.089,220.833 172.547,219.082 169.076,220.901 165.154,218.248 160.864,219 
							157.948,215.702 153.257,215.314 151.633,211.696 147.004,210.207 146.827,206.623 142.71,204.176 144.002,200.974 
							140.802,197.812 143.434,195.31 141.462,191.74 145.178,190.18 144.628,186.551 149.061,186.086 149.988,182.757 						"/>
						<path fill="#526E7D" d="M184.559,219.268l-4.84-0.693l-2.372,2.773l-4.66-1.793l-3.56,1.864l-4.021-2.723l-4.402,0.771
							l-2.992-3.382l-4.81-0.4l-1.666-3.708l-4.75-1.531l-0.179-3.674l-4.223-2.509l1.324-3.283l-3.283-3.243l2.7-2.566
							l-2.021-3.663l3.81-1.601l-0.563-3.723l4.546-0.477l0.954-3.414l4.838,0.691l2.373-2.774l4.659,1.794l3.561-1.862l4.021,2.72
							l4.403-0.77l2.989,3.381l4.812,0.398l1.665,3.712l4.75,1.529l0.179,3.675l4.223,2.511l-1.324,3.282l3.283,3.241l-2.699,2.569
							l2.021,3.662l-3.81,1.603l0.564,3.72l-4.548,0.479L184.559,219.268z M179.084,217.681l4.597,0.656l0.905-3.24l4.318-0.453
							l-0.535-3.534l3.621-1.522l-1.922-3.476l2.564-2.44l-3.117-3.08l1.257-3.117l-4.011-2.384l-0.169-3.493l-4.513-1.452
							l-1.581-3.524l-4.57-0.379l-2.84-3.213l-4.18,0.733l-3.821-2.585l-3.383,1.77l-4.425-1.704l-2.253,2.636l-4.597-0.655
							l-0.903,3.241l-4.319,0.454l0.536,3.535l-3.621,1.52l1.921,3.476l-2.565,2.442l3.12,3.08l-1.258,3.116l4.011,2.383l0.17,3.495
							l4.512,1.452l1.582,3.521l4.57,0.38l2.84,3.212l4.181-0.732l3.821,2.586l3.382-1.769l4.424,1.702L179.084,217.681z"/>
					</g>
					<g>
						<path fill="#E3EBEF" d="M185.032,195.588c6.059,8.515,2.924,17.744-7.004,20.61c-9.928,2.865-22.89-1.714-28.949-10.226
							c-6.06-8.513-2.924-17.742,7.004-20.608C166.01,182.497,178.971,187.076,185.032,195.588z"/>
						<path fill="#526E7D" d="M178.305,216.585c-10.163,2.936-23.479-1.767-29.68-10.482c-6.204-8.718-2.982-18.196,7.181-21.13
							c10.16-2.934,23.475,1.768,29.679,10.485C191.688,204.174,188.466,213.652,178.305,216.585z M156.36,185.752
							c-9.663,2.789-12.725,11.801-6.827,20.089c5.897,8.287,18.556,12.757,28.217,9.967c9.662-2.789,12.726-11.8,6.828-20.089
							C178.681,187.434,166.021,182.962,156.36,185.752z"/>
					</g>
					<g>
						<path fill="#526E7D" d="M174.797,211.659c-6.993,2.021-16.156-1.217-20.426-7.215c-4.271-5.998-2.053-12.523,4.941-14.543
							c6.995-2.02,16.159,1.218,20.428,7.217C184.008,203.116,181.793,209.64,174.797,211.659z M160.419,191.458
							c-5.993,1.73-7.894,7.32-4.234,12.46c3.658,5.141,11.511,7.916,17.505,6.185c5.993-1.732,7.892-7.322,4.235-12.46
							C174.266,192.5,166.413,189.727,160.419,191.458z"/>
					</g>
					<g>
						<path fill="#526E7D" d="M176.034,213.397c-8.111,2.343-18.738-1.413-23.689-8.371c-4.952-6.955-2.381-14.521,5.73-16.863
							c8.112-2.343,18.738,1.413,23.69,8.37C186.717,203.49,184.145,211.055,176.034,213.397z M158.629,188.94
							c-7.611,2.198-10.023,9.298-5.377,15.826c4.646,6.529,14.618,10.049,22.229,7.852c7.611-2.198,10.023-9.297,5.377-15.825
							C176.212,190.266,166.24,186.742,158.629,188.94z"/>
					</g>
				</g>
				<g>
					<g>
						<polygon fill="#526E7D" points="351.195,126.691 353.511,123.987 358.05,125.736 361.522,123.919 365.445,126.572 
							369.734,125.821 372.653,129.119 377.34,129.508 378.963,133.125 383.596,134.615 383.771,138.199 387.888,140.646 
							386.595,143.845 389.796,147.009 387.167,149.511 389.137,153.082 385.423,154.642 385.971,158.27 381.537,158.734 
							380.609,162.062 375.891,161.387 373.579,164.095 369.037,162.346 365.565,164.161 361.646,161.509 357.354,162.26 
							354.435,158.963 349.747,158.573 348.123,154.956 343.491,153.466 343.316,149.881 339.2,147.437 340.492,144.234 
							337.292,141.073 339.922,138.57 337.952,134.999 341.667,133.438 341.117,129.813 345.553,129.347 346.479,126.018 						"/>
						<path fill="#526E7D" d="M381.048,162.526l-4.84-0.691l-2.371,2.773l-4.659-1.792l-3.562,1.862l-4.02-2.722l-4.402,0.771
							l-2.993-3.383l-4.809-0.397l-1.664-3.711l-4.751-1.529l-0.18-3.677l-4.222-2.508l1.325-3.283l-3.283-3.243l2.696-2.569
							l-2.019-3.659l3.809-1.603l-0.562-3.721l4.545-0.476l0.951-3.415l4.841,0.691l2.373-2.773l4.659,1.794l3.56-1.864l4.024,2.721
							l4.399-0.77l2.991,3.381l4.811,0.399l1.666,3.711l4.75,1.529l0.18,3.676l4.221,2.508l-1.323,3.283l3.283,3.244l-2.699,2.566
							l2.021,3.662l-3.81,1.601l0.563,3.721l-4.546,0.479L381.048,162.526z M375.574,160.941l4.596,0.657l0.905-3.242l4.318-0.454
							l-0.534-3.532l3.618-1.521l-1.919-3.477l2.563-2.44l-3.117-3.08l1.258-3.118l-4.011-2.384l-0.171-3.492l-4.512-1.452
							l-1.584-3.523l-4.567-0.38l-2.842-3.212l-4.18,0.732l-3.819-2.585l-3.384,1.769l-4.427-1.703l-2.252,2.635l-4.596-0.656
							l-0.906,3.243l-4.317,0.454l0.533,3.535l-3.619,1.518l1.921,3.479l-2.562,2.438l3.118,3.082l-1.259,3.116l4.011,2.384
							l0.17,3.493l4.513,1.452l1.581,3.523l4.569,0.38l2.84,3.212l4.181-0.732l3.82,2.586l3.382-1.771l4.428,1.704L375.574,160.941z
							"/>
					</g>
					<g>
						<path fill="#E3EBEF" d="M381.521,138.849c6.059,8.515,2.925,17.741-7.004,20.608c-9.928,2.867-22.89-1.713-28.948-10.225
							c-6.059-8.515-2.926-17.742,7.005-20.609C362.5,125.758,375.461,130.336,381.521,138.849z"/>
						<path fill="#526E7D" d="M374.796,159.846c-10.164,2.935-23.477-1.768-29.682-10.483c-6.203-8.716-2.984-18.193,7.179-21.127
							c10.167-2.935,23.477,1.767,29.682,10.483C388.176,147.433,384.957,156.913,374.796,159.846z M352.85,129.014
							c-9.664,2.789-12.727,11.8-6.828,20.086c5.898,8.288,18.556,12.759,28.22,9.969c9.661-2.79,12.725-11.8,6.826-20.088
							C375.171,130.694,362.512,126.224,352.85,129.014z"/>
					</g>
					<g>
						<path fill="#526E7D" d="M371.286,154.919c-6.993,2.02-16.157-1.217-20.427-7.215c-4.271-5.999-2.053-12.523,4.94-14.544
							c6.994-2.019,16.16,1.22,20.43,7.217C380.499,146.377,378.283,152.899,371.286,154.919z M356.909,134.718
							c-5.992,1.731-7.893,7.321-4.234,12.462s11.512,7.913,17.505,6.183s7.894-7.321,4.234-12.461
							C370.755,135.761,362.902,132.987,356.909,134.718z"/>
					</g>
					<g>
						<path fill="#526E7D" d="M372.523,156.656c-8.112,2.343-18.739-1.41-23.688-8.368c-4.953-6.958-2.382-14.521,5.729-16.865
							c8.116-2.34,18.739,1.412,23.691,8.37C383.206,146.75,380.636,154.314,372.523,156.656z M355.117,132.202
							c-7.609,2.198-10.021,9.296-5.377,15.824c4.647,6.526,14.617,10.05,22.229,7.853c7.612-2.199,10.023-9.298,5.377-15.825
							C372.702,133.527,362.729,130.004,355.117,132.202z"/>
					</g>
				</g>
				<path fill="#435C69" d="M298.247,221.745c12.978-3.75,20.626-12.844,22.457-24.436l-6.558-6.908
					c-0.954-1.005-2.904-1.828-4.339-1.838l-12.322-0.056c-1.433-0.007-3.346-0.808-4.25-1.773
					c-0.903-0.972-2.678-1.816-3.946-1.881c-1.266-0.066-3.071-0.943-4.013-1.952l-1.51-1.62c-0.942-1.008-0.734-2.189,0.463-2.626
					c0,0,1.365-0.498,2.999-1.865c1.638-1.364-2.073-7.521-2.073-7.521c-0.665-1.099-0.726-2.744-0.145-3.66l1.208-1.887
					c0.585-0.914,0.942-2.081,0.793-2.592c-0.148-0.511-0.363-1.846-0.475-2.968l-0.063-0.616c-0.112-1.123-0.516-2.476-0.894-3.004
					c-0.377-0.533-1.716-1.611-2.969-2.397l-14.255-8.925c-1.255-0.786-3.449-1.842-4.873-2.345l-15.023-5.306
					c-1.426-0.505-3.699-0.758-5.054-0.563l-10.46,1.497c-1.353,0.194-2.917,1.113-3.48,2.037l-1.078,1.783
					c-0.561,0.927-1.61,2.004-2.335,2.398c-0.721,0.395-1.613,1.542-1.976,2.548l-2.099,5.821c-0.363,1.008-0.242,2.668,0.271,3.689
					c0.511,1.021,0.689,2.177,0.394,2.57c-0.295,0.394,0.088,1.592,0.851,2.663c0.763,1.072,1.211,2.812,0.997,3.869l-0.957,4.71
					c-0.215,1.057,0.773,2.344,2.194,2.864l6.461,2.359c1.423,0.521,3.781,1.071,5.241,1.23l0.332,0.036
					c1.462,0.154,3.417,1.114,4.343,2.13l0.185,0.203c0.927,1.014,2.823,1.755,4.216,1.645l0.678-0.053
					c4.967,10.642-3.363,22.068-3.363,22.068c-0.646,0.883-1.71,2.321-2.367,3.197l-1.893,2.527
					c-0.186,0.246-0.268,0.531-0.279,0.829C257.965,220.764,280.676,226.819,298.247,221.745z"/>
				<path fill="#E3EBEF" d="M230.153,126.066c24.107-6.961,58.68,8.397,77.07,34.236c18.391,25.84,13.743,52.528-10.365,59.487
					c-24.105,6.963-58.679-8.397-77.07-34.237C201.397,159.714,206.047,133.027,230.153,126.066 M228.762,124.114
					c-25.399,7.335-30.44,35.139-11.251,62.096c19.186,26.961,55.337,42.87,80.736,35.535c25.402-7.337,30.442-35.139,11.255-62.098
					C290.313,132.688,254.164,116.779,228.762,124.114L228.762,124.114z"/>
			</g>
		</g>
	</g>
</g>
<g id="Layer_4" display="none">
	<g display="inline">
		<rect x="68.105" y="114.497" opacity="0.4" fill="#A9B0B5" width="371" height="196.127"/>
		<rect x="60.895" y="107.287" fill="#E3EBEF" width="371" height="196.127"/>
		<g>
			<path fill="#A9B0B5" d="M431.895,107.287v196.127h-371V107.287H431.895 M435.895,103.287h-4h-371h-4v4v196.127v4h4h371h4v-4
				V107.287V103.287L435.895,103.287z"/>
		</g>
		<g>
			<line fill="none" stroke="#A9B0B5" stroke-miterlimit="10" x1="431.895" y1="124.19" x2="60.895" y2="124.19"/>
			<line fill="none" stroke="#A9B0B5" stroke-miterlimit="10" x1="431.895" y1="147.379" x2="60.895" y2="147.379"/>
			<line fill="none" stroke="#A9B0B5" stroke-miterlimit="10" x1="431.895" y1="170.567" x2="60.895" y2="170.567"/>
			<line fill="none" stroke="#A9B0B5" stroke-miterlimit="10" x1="431.895" y1="193.756" x2="60.895" y2="193.756"/>
			<line fill="none" stroke="#A9B0B5" stroke-miterlimit="10" x1="431.895" y1="216.944" x2="60.895" y2="216.944"/>
			<line fill="none" stroke="#A9B0B5" stroke-miterlimit="10" x1="431.895" y1="240.133" x2="60.895" y2="240.133"/>
			<line fill="none" stroke="#A9B0B5" stroke-miterlimit="10" x1="431.895" y1="263.321" x2="60.895" y2="263.321"/>
			<line fill="none" stroke="#A9B0B5" stroke-miterlimit="10" x1="431.895" y1="286.51" x2="60.895" y2="286.51"/>
		</g>
		<g>
			<line fill="none" stroke="#A9B0B5" stroke-miterlimit="10" x1="84.083" y1="107.287" x2="84.083" y2="303.414"/>
			<line fill="none" stroke="#A9B0B5" stroke-miterlimit="10" x1="107.271" y1="107.287" x2="107.271" y2="303.414"/>
			<line fill="none" stroke="#A9B0B5" stroke-miterlimit="10" x1="130.458" y1="107.287" x2="130.458" y2="303.414"/>
			<line fill="none" stroke="#A9B0B5" stroke-miterlimit="10" x1="153.646" y1="107.287" x2="153.646" y2="303.414"/>
			<line fill="none" stroke="#A9B0B5" stroke-miterlimit="10" x1="176.833" y1="107.287" x2="176.833" y2="303.414"/>
			<line fill="none" stroke="#A9B0B5" stroke-miterlimit="10" x1="200.021" y1="107.287" x2="200.021" y2="303.414"/>
			<line fill="none" stroke="#A9B0B5" stroke-miterlimit="10" x1="223.209" y1="107.287" x2="223.209" y2="303.414"/>
			<line fill="none" stroke="#A9B0B5" stroke-miterlimit="10" x1="246.397" y1="107.287" x2="246.397" y2="303.414"/>
			<line fill="none" stroke="#A9B0B5" stroke-miterlimit="10" x1="269.586" y1="107.287" x2="269.586" y2="303.414"/>
			<line fill="none" stroke="#A9B0B5" stroke-miterlimit="10" x1="292.773" y1="107.287" x2="292.773" y2="303.414"/>
			<line fill="none" stroke="#A9B0B5" stroke-miterlimit="10" x1="315.961" y1="107.287" x2="315.961" y2="303.414"/>
			<line fill="none" stroke="#A9B0B5" stroke-miterlimit="10" x1="339.15" y1="107.287" x2="339.15" y2="303.414"/>
			<line fill="none" stroke="#A9B0B5" stroke-miterlimit="10" x1="362.338" y1="107.287" x2="362.338" y2="303.414"/>
			<line fill="none" stroke="#A9B0B5" stroke-miterlimit="10" x1="385.525" y1="107.287" x2="385.525" y2="303.414"/>
			<line fill="none" stroke="#A9B0B5" stroke-miterlimit="10" x1="408.715" y1="107.287" x2="408.715" y2="303.414"/>
		</g>
		
			<polyline fill="none" stroke="#526E7D" stroke-width="10" stroke-linecap="round" stroke-linejoin="round" stroke-miterlimit="10" points="
			84.083,286.51 153.646,240.133 200.021,263.322 269.586,193.756 315.961,240.133 408.715,124.19 		"/>
		
			<polyline fill="none" stroke="#526E7D" stroke-width="10" stroke-linecap="round" stroke-linejoin="round" stroke-miterlimit="10" points="
			390.275,125.229 409.363,123.675 410.914,142.763 		"/>
		
			<circle fill="#F9FAF9" stroke="#1E303A" stroke-width="7" stroke-linecap="round" stroke-linejoin="round" stroke-miterlimit="10" cx="315.961" cy="240.133" r="12.934"/>
		
			<circle fill="#F9FAF9" stroke="#1E303A" stroke-width="7" stroke-linecap="round" stroke-linejoin="round" stroke-miterlimit="10" cx="269.586" cy="195.284" r="12.934"/>
		
			<circle fill="#F9FAF9" stroke="#1E303A" stroke-width="7" stroke-linecap="round" stroke-linejoin="round" stroke-miterlimit="10" cx="153.646" cy="240.133" r="12.934"/>
		
			<circle fill="#F9FAF9" stroke="#1E303A" stroke-width="7" stroke-linecap="round" stroke-linejoin="round" stroke-miterlimit="10" cx="200.021" cy="263.321" r="12.934"/>
	</g>
</g>
<g id="Layer_5" display="none">
	<g display="inline">
		<rect x="202.51" y="50.567" opacity="0.2" fill="#73797D" width="171.256" height="230.936"/>
		<rect x="192.196" y="54.527" fill="#D0D8DC" width="177.61" height="237.794"/>
		<rect x="192.196" y="74.313" opacity="0.2" fill="#73797D" width="158.397" height="218.642"/>
		<rect x="167.741" y="78.982" fill="#D5DEE2" width="177.61" height="237.794"/>
		<rect x="167.741" y="98.33" opacity="0.2" fill="#73797D" width="158.397" height="218.642"/>
		<rect x="143.286" y="103.437" fill="#DBE3E7" width="177.61" height="237.794"/>
		<g>
			<polygon opacity="0.2" fill="#73797D" points="301.201,341.071 143.446,341.071 143.446,123.131 261.493,123.131 
				301.201,162.841 			"/>
			<polygon fill="#E3EBEF" points="296.441,365.686 118.831,365.686 118.831,127.892 256.732,127.892 296.441,167.602 			"/>
			<polygon fill="#CED6DA" points="256.732,167.602 296.441,167.602 256.732,127.892 			"/>
			
				<line fill="none" stroke="#526E7D" stroke-width="6.2971" stroke-linecap="round" stroke-miterlimit="10" x1="133.181" y1="155.357" x2="174.185" y2="155.357"/>
			
				<line fill="none" stroke="#526E7D" stroke-width="6.2971" stroke-linecap="round" stroke-miterlimit="10" x1="133.181" y1="166.496" x2="174.185" y2="166.496"/>
			
				<line fill="none" stroke="#526E7D" stroke-width="6.2971" stroke-linecap="round" stroke-miterlimit="10" x1="133.181" y1="177.634" x2="174.185" y2="177.634"/>
			
				<line fill="none" stroke="#526E7D" stroke-width="6.2971" stroke-linecap="round" stroke-miterlimit="10" x1="133.181" y1="202.885" x2="248.555" y2="202.885"/>
			
				<line fill="none" stroke="#526E7D" stroke-width="6.2971" stroke-linecap="round" stroke-miterlimit="10" x1="133.181" y1="214.364" x2="214.518" y2="214.364"/>
			
				<line fill="none" stroke="#A9B0B5" stroke-width="3.1486" stroke-linecap="round" stroke-miterlimit="10" x1="133.181" y1="230.986" x2="274.28" y2="230.986"/>
			
				<line fill="none" stroke="#A9B0B5" stroke-width="3.1486" stroke-linecap="round" stroke-miterlimit="10" x1="133.181" y1="240.089" x2="274.28" y2="240.089"/>
			
				<line fill="none" stroke="#A9B0B5" stroke-width="3.1486" stroke-linecap="round" stroke-miterlimit="10" x1="133.181" y1="249.193" x2="274.28" y2="249.193"/>
			
				<line fill="none" stroke="#A9B0B5" stroke-width="3.1486" stroke-linecap="round" stroke-miterlimit="10" x1="133.181" y1="258.296" x2="274.28" y2="258.296"/>
			
				<line fill="none" stroke="#A9B0B5" stroke-width="3.1486" stroke-linecap="round" stroke-miterlimit="10" x1="133.181" y1="267.4" x2="274.28" y2="267.4"/>
			
				<line fill="none" stroke="#A9B0B5" stroke-width="3.1486" stroke-linecap="round" stroke-miterlimit="10" x1="133.181" y1="276.502" x2="190.868" y2="276.502"/>
			
				<line fill="none" stroke="#A9B0B5" stroke-width="3.1486" stroke-linecap="round" stroke-miterlimit="10" x1="133.181" y1="294.709" x2="274.28" y2="294.709"/>
			
				<line fill="none" stroke="#A9B0B5" stroke-width="3.1486" stroke-linecap="round" stroke-miterlimit="10" x1="133.181" y1="303.813" x2="274.28" y2="303.813"/>
			
				<line fill="none" stroke="#A9B0B5" stroke-width="3.1486" stroke-linecap="round" stroke-miterlimit="10" x1="133.181" y1="312.917" x2="274.28" y2="312.917"/>
			
				<line fill="none" stroke="#A9B0B5" stroke-width="3.1486" stroke-linecap="round" stroke-miterlimit="10" x1="133.181" y1="322.02" x2="274.28" y2="322.02"/>
			
				<line fill="none" stroke="#A9B0B5" stroke-width="3.1486" stroke-linecap="round" stroke-miterlimit="10" x1="133.181" y1="331.124" x2="231.932" y2="331.124"/>
			<polygon opacity="0.2" fill="#73797D" points="256.732,167.602 296.441,173.22 296.441,167.602 			"/>
		</g>
	</g>
</g>
<g id="Layer_7" display="none">
	<g display="inline">
		<polygon fill="#CED6DA" points="323.318,315.718 243.746,269.774 243.746,49.507 323.318,95.447 		"/>
		<polygon fill="#435C69" points="292.451,297.896 274.612,287.596 274.612,67.327 292.451,77.626 		"/>
		<polygon fill="#A9B0B5" points="323.318,315.718 402.892,269.774 402.892,49.507 323.318,95.447 		"/>
		<polygon fill="#314752" points="354.186,297.896 372.024,287.596 372.024,67.327 354.186,77.626 		"/>
		<polygon fill="#E3EBEF" points="323.318,95.447 402.892,49.507 323.318,3.565 243.746,49.507 		"/>
		<polygon fill="#526E7D" points="354.186,77.626 372.024,67.327 292.451,21.385 274.612,31.686 		"/>
		<polygon fill="#526E7D" points="292.452,77.626 274.613,67.327 354.187,21.385 372.024,31.686 		"/>
		<g>
			<path fill="#1E303A" d="M376.376,56.661c0.515,0.927,0.108,1.946-0.903,2.264l-8.598,2.703c-1.012,0.318-2.676,0.349-3.698,0.069
				l-33.582-9.202c-1.022-0.28-1.004-0.652,0.042-0.827l38.328-6.41c1.046-0.175,2.322,0.44,2.837,1.368L376.376,56.661z"/>
		</g>
		<path fill="#314752" d="M324.388,47.49c0.3-2.58,3.115-5.369,6.254-6.197l45.074-11.895c3.141-0.827,5.578,1.149,5.416,4.392
			l-0.987,19.891c-0.161,3.243-2.929,5.549-6.146,5.124l-44.302-5.852C326.478,52.528,324.088,50.07,324.388,47.49z"/>
		<g>
			<path fill="#1E303A" d="M272.014,53.897c-0.563,0.898-0.212,1.937,0.781,2.308l8.443,3.153c0.993,0.371,2.653,0.49,3.689,0.265
				l34.023-7.411c1.036-0.226,1.037-0.598,0.002-0.829l-37.937-8.43c-1.035-0.23-2.343,0.316-2.905,1.215L272.014,53.897z"/>
		</g>
		<g>
			<path fill="#314752" d="M324.414,47.491c-0.163-2.592-2.826-5.526-5.918-6.52l-44.38-14.262c-3.092-0.994-5.63,0.85-5.641,4.098
				l-0.067,19.915c-0.011,3.248,2.629,5.696,5.866,5.442l44.551-3.498C322.062,52.411,324.577,50.083,324.414,47.491z"/>
		</g>
		<polygon opacity="0.5" fill="#73797D" points="327.092,55.02 312.177,89.014 312.177,112.264 307.904,105.206 305.875,81.958 
			323.32,53.572 		"/>
		<polygon opacity="0.5" fill="#73797D" points="322.253,54.454 330.76,91.152 331.712,125.335 335.002,120.432 339.265,86.218 
			325.876,53.572 		"/>
		<path fill="#233640" d="M324.388,47.49c-0.3,2.58,2.09,5.038,5.309,5.463l3.876,0.512c1.756-1.568,2.85-3.767,2.85-6.204
			c0-2.654-1.299-5.029-3.34-6.611l-2.44,0.643C327.503,42.121,324.688,44.91,324.388,47.49z"/>
		<ellipse fill="#283C47" cx="324.211" cy="47.261" rx="9.33" ry="8.626"/>
		<path fill="#283C47" d="M324.117,42.778l-8.036-2.582c-2.407,1.56-3.981,4.142-3.981,7.065c0,2.208,0.897,4.22,2.372,5.747
			l10.239-0.804L324.117,42.778z"/>
		<path fill="#314752" d="M314.881,47.261c0,1.522,0.428,2.951,1.177,4.192c1.254,0.581,2.67,0.908,4.167,0.908
			c5.15,0,9.33-3.861,9.33-8.625c0-1.521-0.428-2.951-1.178-4.191c-1.253-0.58-2.666-0.91-4.167-0.91
			C319.059,38.635,314.881,42.497,314.881,47.261z"/>
		<polygon fill="#283C47" points="327.735,52.694 346.684,81.958 346.684,125.335 339.394,112.264 333.541,125.335 333.541,89.014 
			323.318,52.694 		"/>
		<polygon opacity="0.5" fill="#73797D" points="345.23,120.064 345.23,125.335 337.611,113.921 339.265,109.129 		"/>
		<polygon fill="#314752" points="346.663,81.925 333.541,89.54 333.541,125.335 339.394,112.264 346.684,125.335 346.684,81.958 		
			"/>
		<polygon fill="#283C47" points="325.876,53.572 309.857,87.675 309.857,112.264 302.738,104.106 295.911,112.264 295.911,79.624 
			321.599,52.516 		"/>
		<polygon opacity="0.5" fill="#73797D" points="297.755,107.419 297.755,112.264 305.875,103.63 300.708,98.563 		"/>
		<polygon fill="#314752" points="295.911,79.624 295.911,112.264 302.738,104.106 309.857,112.264 309.857,87.675 309.857,87.675 
			295.911,79.624 		"/>
		<polygon opacity="0.5" fill="#73797D" points="323.318,315.718 243.746,269.774 243.746,164.5 323.318,210.44 		"/>
	</g>
	<g display="inline">
		<polygon fill="#CED6DA" points="198.838,387.119 88.136,323.206 88.136,212.504 198.838,276.417 		"/>
		<polygon fill="#435C69" points="155.896,362.326 131.079,347.998 131.079,237.295 155.896,251.625 		"/>
		<polygon fill="#A9B0B5" points="198.838,387.119 309.54,323.206 309.54,212.504 198.838,276.417 		"/>
		<polygon fill="#314752" points="241.781,362.326 266.599,347.998 266.599,237.295 241.781,251.625 		"/>
		<polygon fill="#E3EBEF" points="198.838,276.417 309.54,212.504 198.838,148.59 88.136,212.504 		"/>
		<polygon fill="#526E7D" points="241.781,251.625 266.599,237.295 155.896,173.382 131.079,187.711 		"/>
		<polygon fill="#526E7D" points="155.896,251.625 131.081,237.295 241.783,173.382 266.599,187.711 		"/>
		<g>
			<path fill="#1E303A" d="M272.652,222.457c0.717,1.29,0.151,2.707-1.256,3.149l-11.96,3.761c-1.407,0.442-3.723,0.485-5.146,0.096
				l-46.721-12.801c-1.423-0.39-1.396-0.908,0.059-1.151l53.324-8.916c1.455-0.242,3.231,0.613,3.948,1.902L272.652,222.457z"/>
		</g>
		<path fill="#314752" d="M200.327,209.698c0.418-3.588,4.333-7.468,8.702-8.621l62.706-16.545c4.369-1.153,7.76,1.597,7.534,6.109
			l-1.373,27.672c-0.226,4.511-4.073,7.718-8.554,7.128l-61.63-8.141C203.232,216.708,199.909,213.289,200.327,209.698z"/>
		<g>
			<path fill="#1E303A" d="M127.465,218.612c-0.783,1.25-0.294,2.695,1.088,3.211l11.743,4.388c1.382,0.516,3.692,0.682,5.133,0.368
				l47.332-10.31c1.441-0.313,1.442-0.832,0.002-1.152L139.99,203.39c-1.44-0.32-3.259,0.441-4.042,1.691L127.465,218.612z"/>
		</g>
		<g>
			<path fill="#314752" d="M200.363,209.7c-0.228-3.606-3.932-7.687-8.233-9.069l-61.742-19.843
				c-4.301-1.382-7.832,1.183-7.847,5.701l-0.092,27.708c-0.015,4.518,3.658,7.925,8.161,7.57l61.977-4.867
				C197.091,216.545,200.59,213.306,200.363,209.7z"/>
		</g>
		<polygon opacity="0.5" fill="#73797D" points="204.088,220.174 183.337,267.468 183.337,299.81 177.395,289.992 174.571,257.649 
			198.839,218.161 		"/>
		<polygon opacity="0.5" fill="#73797D" points="197.355,219.387 209.19,270.44 210.517,317.999 215.093,311.176 221.023,263.576 
			202.399,218.161 		"/>
		<path fill="#233640" d="M200.327,209.698c-0.418,3.591,2.905,7.01,7.385,7.603l5.39,0.713c2.445-2.186,3.966-5.244,3.966-8.633
			c0-3.694-1.806-6.995-4.646-9.198l-3.394,0.895C204.66,202.23,200.745,206.109,200.327,209.698z"/>
		<ellipse fill="#283C47" cx="200.081" cy="209.38" rx="12.979" ry="12"/>
		<path fill="#283C47" d="M199.95,203.144l-11.18-3.592c-3.349,2.17-5.539,5.763-5.539,9.829c0,3.071,1.249,5.871,3.3,7.994
			l14.244-1.118L199.95,203.144z"/>
		<path fill="#314752" d="M187.102,209.38c0,2.117,0.594,4.106,1.635,5.832c1.745,0.809,3.713,1.265,5.797,1.265
			c7.168,0,12.98-5.374,12.98-12c0-2.117-0.596-4.106-1.637-5.832c-1.745-0.808-3.712-1.266-5.796-1.266
			C192.912,197.379,187.102,202.753,187.102,209.38z"/>
		<polygon fill="#283C47" points="204.983,216.939 231.345,257.649 231.345,317.999 221.202,299.811 213.061,317.999 
			213.061,267.468 198.838,216.939 		"/>
		<polygon opacity="0.5" fill="#73797D" points="229.32,310.663 229.32,317.999 218.723,302.118 221.023,295.451 		"/>
		<polygon fill="#314752" points="231.317,257.605 213.061,268.198 213.061,317.999 221.202,299.811 231.345,317.999 
			231.345,257.649 		"/>
		<polygon fill="#283C47" points="202.399,218.161 180.11,265.606 180.11,299.81 170.208,288.464 160.712,299.81 160.712,254.403 
			196.447,216.692 		"/>
		<polygon opacity="0.5" fill="#73797D" points="163.276,293.073 163.276,299.811 174.571,287.799 167.384,280.75 		"/>
		<polygon fill="#314752" points="160.712,254.403 160.712,299.81 170.208,288.464 180.11,299.81 180.11,265.606 180.11,265.606 
			160.712,254.403 		"/>
	</g>
</g>
<g id="Layer_8" display="none">
	<g display="inline">
		<g>
			<polygon fill="#526E7D" points="444.2,316.595 55.8,316.595 87.8,272.547 415.2,272.547 			"/>
			<polygon fill="#1E303A" points="127.625,292.641 143.295,272.547 117.6,272.591 115.653,291.667 			"/>
			<polygon fill="#1E303A" points="197.604,292.641 213.274,272.547 187.579,272.591 185.633,291.667 			"/>
			<polygon fill="#1E303A" points="267.584,292.641 283.254,272.547 257.559,272.591 255.613,291.667 			"/>
			<polygon fill="#1E303A" points="337.563,292.641 353.233,272.547 327.538,272.591 325.592,291.667 			"/>
			<polygon fill="#1E303A" points="418.868,278.119 415.209,272.561 397.518,272.591 395.571,291.667 407.543,292.641 			"/>
			<rect x="55.8" y="316.595" fill="#1E303A" width="388.4" height="12.255"/>
		</g>
		<g>
			<g>
				<rect x="102.438" y="197.159" fill="#E3EBEF" width="21.518" height="96.003"/>
				<polygon opacity="0.3" fill="#A9B0B5" points="123.956,203.614 123.956,197.159 102.438,197.159 102.438,200.386 
					102.438,203.614 102.438,286.706 102.438,290.858 102.438,293.162 123.956,293.162 123.956,286.706 108.18,286.706 
					108.18,203.614 				"/>
				<path fill="#F9F9FA" d="M130.772,195.921c0,1.696-1.388,3.084-3.084,3.084H98.705c-1.696,0-3.084-1.388-3.084-3.084v-1.258
					c0-1.696,1.388-3.084,3.084-3.084h28.984c1.696,0,3.084,1.388,3.084,3.084V195.921z"/>
				<g>
					<path fill="#F9F9FA" d="M130.772,295.2c0,1.696-1.388,3.084-3.084,3.084H98.705c-1.696,0-3.084-1.388-3.084-3.084v-1.258
						c0-1.696,1.388-3.084,3.084-3.084h28.984c1.696,0,3.084,1.388,3.084,3.084V295.2z"/>
				</g>
				<path opacity="0.5" fill="#A9B0B5" d="M130.513,193.436c-0.477-1.089-1.564-1.857-2.824-1.857H98.705
					c-1.26,0-2.348,0.768-2.824,1.857H130.513z"/>
			</g>
			<g>
				<rect x="171.637" y="197.158" fill="#E3EBEF" width="21.518" height="96.003"/>
				<polygon opacity="0.3" fill="#A9B0B5" points="193.155,203.613 193.155,197.158 171.637,197.158 171.637,200.386 
					171.637,203.613 171.637,286.706 171.637,290.858 171.637,293.162 193.155,293.162 193.155,286.706 177.379,286.706 
					177.379,203.613 				"/>
				<path fill="#F9F9FA" d="M199.972,195.921c0,1.696-1.387,3.083-3.083,3.083h-28.984c-1.696,0-3.083-1.388-3.083-3.083v-1.259
					c0-1.696,1.388-3.083,3.083-3.083h28.984c1.696,0,3.083,1.387,3.083,3.083V195.921z"/>
				<g>
					<path fill="#F9F9FA" d="M199.972,295.2c0,1.696-1.388,3.084-3.084,3.084h-28.983c-1.696,0-3.084-1.388-3.084-3.084v-1.258
						c0-1.696,1.388-3.084,3.084-3.084h28.983c1.696,0,3.084,1.388,3.084,3.084V295.2z"/>
				</g>
				<path opacity="0.5" fill="#A9B0B5" d="M199.712,193.435c-0.477-1.089-1.564-1.856-2.824-1.856h-28.984
					c-1.26,0-2.347,0.767-2.824,1.856H199.712z"/>
			</g>
			<g>
				<rect x="240.835" y="197.158" fill="#E3EBEF" width="21.518" height="96.003"/>
				<polygon opacity="0.3" fill="#A9B0B5" points="262.354,203.613 262.354,197.158 240.835,197.158 240.835,200.386 
					240.835,203.613 240.835,286.706 240.835,290.858 240.835,293.162 262.354,293.162 262.354,286.706 246.578,286.706 
					246.578,203.613 				"/>
				<path fill="#F9F9FA" d="M269.171,195.921c0,1.696-1.388,3.083-3.084,3.083h-28.984c-1.696,0-3.084-1.388-3.084-3.083v-1.259
					c0-1.696,1.388-3.083,3.084-3.083h28.984c1.696,0,3.084,1.387,3.084,3.083V195.921z"/>
				<g>
					<path fill="#F9F9FA" d="M269.171,295.2c0,1.696-1.388,3.084-3.084,3.084h-28.984c-1.696,0-3.084-1.388-3.084-3.084v-1.258
						c0-1.696,1.388-3.084,3.084-3.084h28.984c1.696,0,3.084,1.388,3.084,3.084V295.2z"/>
				</g>
				<path opacity="0.5" fill="#A9B0B5" d="M268.912,193.435c-0.478-1.089-1.564-1.856-2.825-1.856h-28.984
					c-1.261,0-2.348,0.767-2.825,1.856H268.912z"/>
			</g>
			<g>
				<rect x="310.035" y="197.158" fill="#E3EBEF" width="21.518" height="96.003"/>
				<polygon opacity="0.3" fill="#A9B0B5" points="331.553,203.613 331.553,197.158 310.035,197.158 310.035,200.386 
					310.035,203.613 310.035,286.706 310.035,290.858 310.035,293.162 331.553,293.162 331.553,286.706 315.777,286.706 
					315.777,203.613 				"/>
				<path fill="#F9F9FA" d="M338.37,195.921c0,1.696-1.388,3.083-3.083,3.083h-28.984c-1.697,0-3.084-1.388-3.084-3.083v-1.259
					c0-1.696,1.387-3.083,3.084-3.083h28.984c1.695,0,3.083,1.387,3.083,3.083V195.921z"/>
				<g>
					<path fill="#F9F9FA" d="M338.37,295.2c0,1.696-1.388,3.084-3.084,3.084h-28.983c-1.696,0-3.084-1.388-3.084-3.084v-1.258
						c0-1.696,1.388-3.084,3.084-3.084h28.983c1.696,0,3.084,1.388,3.084,3.084V295.2z"/>
				</g>
				<path opacity="0.5" fill="#A9B0B5" d="M338.111,193.435c-0.478-1.089-1.564-1.856-2.824-1.856h-28.984
					c-1.261,0-2.349,0.767-2.825,1.856H338.111z"/>
			</g>
			<g>
				<rect x="379.234" y="197.158" fill="#E3EBEF" width="21.518" height="96.003"/>
				<polygon opacity="0.3" fill="#A9B0B5" points="400.752,203.613 400.752,197.158 379.234,197.158 379.234,200.386 
					379.234,203.613 379.234,286.706 379.234,290.858 379.234,293.162 400.752,293.162 400.752,286.706 384.977,286.706 
					384.977,203.613 				"/>
				<path fill="#F9F9FA" d="M407.569,195.921c0,1.696-1.388,3.083-3.083,3.083h-28.984c-1.697,0-3.084-1.388-3.084-3.083v-1.259
					c0-1.696,1.387-3.083,3.084-3.083h28.984c1.695,0,3.083,1.387,3.083,3.083V195.921z"/>
				<g>
					<path fill="#F9F9FA" d="M407.569,295.2c0,1.696-1.388,3.084-3.084,3.084h-28.983c-1.696,0-3.084-1.388-3.084-3.084v-1.258
						c0-1.696,1.388-3.084,3.084-3.084h28.983c1.696,0,3.084,1.388,3.084,3.084V295.2z"/>
				</g>
				<path opacity="0.5" fill="#A9B0B5" d="M407.311,193.435c-0.478-1.089-1.564-1.856-2.824-1.856h-28.984
					c-1.261,0-2.349,0.767-2.825,1.856H407.311z"/>
			</g>
		</g>
		<g>
			<polygon fill="#E3EBEF" points="58.053,183.973 250.462,60.274 442.039,183.973 			"/>
			<path fill="#526E7D" d="M250.453,69.196l166.145,107.277H83.588L250.453,69.196 M250.471,51.352L32.519,191.473h434.963
				L250.471,51.352L250.471,51.352z"/>
		</g>
		<polygon fill="#314752" points="83.099,176.634 250.471,69.023 254.308,71.5 91.032,176.634 		"/>
		<circle fill="#DCDEDD" cx="259.194" cy="135.966" r="29.473"/>
		<circle fill="#F9F9FA" cx="254.308" cy="135.966" r="29.473"/>
	</g>
</g>
</svg>
