<?xml version="1.0" encoding="utf-8"?>
<!-- Generator: Adobe Illustrator 16.0.0, SVG Export Plug-In . SVG Version: 6.00 Build 0)  -->
<!DOCTYPE svg PUBLIC "-//W3C//DTD SVG 1.1//EN" "http://www.w3.org/Graphics/SVG/1.1/DTD/svg11.dtd">
<svg version="1.1" id="concordia-logo_x28_blue_x29__xA0_Image_1_"
	 xmlns="http://www.w3.org/2000/svg" xmlns:xlink="http://www.w3.org/1999/xlink" x="0px" y="0px" width="512px" height="511px"
	 viewBox="0 0 512 511" enable-background="new 0 0 512 511" xml:space="preserve">
<rect x="-341.428" fill="#B0C19F" width="57.143" height="57.143"/>
<rect x="-284.285" fill="#A0B091" width="57.143" height="57.143"/>
<rect x="-227.143" fill="#909F84" width="57.143" height="57.143"/>
<rect x="-341.428" y="57.143" fill="#D5E7BF" width="57.143" height="57.143"/>
<rect x="-341.428" y="376.082" fill="#C1D2AF" width="57.143" height="57.143"/>
<rect x="-284.285" y="57.143" fill="#C2D3AE" width="57.143" height="57.143"/>
<rect x="-227.143" y="57.142" fill="#808E76" width="57.143" height="57.143"/>
<rect x="-170" y="57.142" fill="#707D68" width="57.143" height="57.143"/>
<rect x="-341.428" y="138.596" fill="#F9F9F9" width="57.143" height="57.142"/>
<rect x="-341.428" y="296.215" fill="#E1E2E3" width="57.143" height="57.143"/>
<rect x="-284.285" y="138.596" fill="#DCDEDC" width="57.143" height="57.142"/>
<rect x="-227.143" y="138.596" fill="#DFEBEE" width="57.143" height="57.142"/>
<rect x="-227.143" y="195.738" fill="#A6B0B4" width="57.143" height="57.143"/>
<rect x="-170" y="195.738" fill="#939DA1" width="57.143" height="57.143"/>
<rect x="-227.143" y="253.27" fill="#173139" width="57.143" height="57.143"/>
<rect x="-341.428" y="195.738" fill="#496F7C" width="57.143" height="57.143"/>
<rect x="-284.285" y="195.738" fill="#2A4751" width="57.143" height="57.143"/>
<g>
	<path fill-rule="evenodd" clip-rule="evenodd" fill="#F9F9F9" d="M-751.527,133.696c12.703-31.996,25.952-63.789,37.857-96.075
		c5.082-13.784,16.095-20.734,26.656-28.565c1.859-1.381,6.504-1.065,8.6,0.345c5.225,3.505,9.617,8.229,14.575,12.172
		c1.552,1.234,3.851,1.529,5.808,2.255c0.18-2.289,1.051-4.795,0.403-6.816c-1.608-5.03-3.74-9.917-5.973-14.715
		c-2.92-6.276-0.804-10.901,4.521-14.304c4.453-2.846,9.321-5.042,13.777-7.885c1.475-0.938,2.243-2.989,3.333-4.531
		c-1.711-0.811-3.44-2.354-5.13-2.315c-11.7,0.284-23.394,0.948-35.09,1.35c-1.777,0.063-3.578-0.576-5.261-1.419
		c14.663-2.893,18.214-12.006,9.926-26.534c5.628-7.153,12.621-11.606,22.212-11.391c7.193,0.163,14.404,0.248,21.592-0.032
		c6.264-0.245,7.564,2.519,5.514,7.815c-2.197,5.672-4.688,11.238-6.623,16.993c-0.629,1.872,0.078,4.197,0.174,6.316
		c1.961-0.609,4.533-0.622,5.793-1.914c18.428-18.889,19.721-18.885,39.274,0.058c1.311,1.27,3.871,1.257,5.846,1.839
		c0.104-2.119,0.824-4.446,0.191-6.321c-1.936-5.758-4.326-11.374-6.666-16.991c-2.281-5.475-0.875-7.825,5.352-7.799
		c35.454,0.144,70.913-0.025,106.37,0.15c10.186,0.049,14.443,6.52,10.74,16.078c-13.127,33.85-26.435,67.631-39.678,101.436
		c-3.383,8.633-7.119,17.143-10.042,25.918c-1.374,4.128-3.4,5.391-7.449,5.209c-14.089-0.638-28.188-1.197-42.287-1.445
		c-2.529-0.046-5.085,1.531-7.628,2.356c1.872,1.863,3.737,3.724,5.625,5.574c0.177,0.17,0.486,0.203,0.724,0.319
		c18.608,9.271,19.577,12.233,11.654,31.253c-1.422,3.418-1.109,7.558-1.596,11.36c3.104-2.062,6.306-4.005,9.287-6.231
		c4.56-3.405,8.966-7.005,14.201-11.126c1.623,22.496-14.936,34.156-43.489,31.064c3.138-1.693,5.229-2.495,6.89-3.824
		c1.447-1.164,2.408-2.93,3.587-4.428c-1.668-0.871-3.327-2.498-5.001-2.512c-24.188-0.15-48.382-0.13-72.57,0.051
		c-1.689,0.014-3.366,1.609-5.049,2.477c1.188,1.496,2.165,3.26,3.621,4.434c1.582,1.268,3.61,1.998,7.468,4.022
		c-4.544,0.267-6.973,0.527-9.405,0.527c-29.057,0.026-58.119,0.233-87.17-0.202c-5.176-0.076-10.31-2.865-15.463-4.402
		C-751.527,140.094-751.527,136.891-751.527,133.696z M-710.502,132.327c0.842,0.801,1.685,1.602,2.528,2.402
		c2.66-1.888,5.531-3.528,7.94-5.69c16.821-15.092,17.068-15.34,34.346,0.494c0.386,0.358,0.595,1.036,1.028,1.199
		c2.392,0.911,4.833,1.712,7.255,2.552c-0.245-2.318,0.105-4.908-0.823-6.907c-10.586-22.711-10.173-23.915,12.279-35.928
		c1.709-0.911,2.63-3.295,3.92-4.993c-2.171-0.912-4.343-2.573-6.521-2.58c-5.019-0.02-10.052,1.205-15.065,1.134
		c-18.286-0.275-36.562-0.964-54.844-1.218c-1.912-0.033-3.849,1.765-5.769,2.708c1.322,1.68,2.344,3.796,4.03,4.936
		c3.28,2.201,7.087,3.621,10.405,5.781c9.499,6.193,10.146,8.171,6.254,18.757C-705.689,120.823-708.168,126.546-710.502,132.327z
		 M-491.005-25.196c-2.708-1.002-3.201-1.344-3.696-1.348c-25.242-0.152-50.485-0.321-75.727-0.293
		c-1.481,0-2.966,1.641-4.447,2.517c1.38,1.563,2.454,3.74,4.184,4.597c21.588,10.674,22.66,13.907,12.221,35.894
		c-0.99,2.083-0.121,5.049-0.115,7.601c2.331-1.068,5.243-1.578,6.904-3.294c16.109-16.608,20.595-16.632,36.481-0.14
		c1.677,1.742,4.521,2.357,6.826,3.497c-0.006-2.598,0.829-5.576-0.146-7.729c-10.42-22.977-10.043-24.165,12.24-35.845
		C-494.422-20.713-493.189-22.881-491.005-25.196z M-636.631,74.797c0.489,0.678,0.978,1.354,1.468,2.03
		c2.41-1.08,5.125-1.77,7.162-3.338c4.203-3.23,8.066-6.909,12.033-10.444c4.58-4.083,9.142-3.73,13.624,0.064
		c3.844,3.269,7.43,6.869,11.459,9.877c1.982,1.484,4.718,1.966,7.109,2.903c-0.07-2.304,0.388-4.792-0.322-6.888
		c-1.523-4.505-3.542-8.855-5.544-13.178c-3.128-6.765-1.179-11.847,4.96-15.555c5.618-3.399,11.314-6.667,18.936-11.14
		c-3.523-1.793-5.791-4.034-7.783-3.803c-23.882,2.741-47.716,2.79-71.583-0.116c-1.648-0.201-3.537,1.565-5.311,2.422
		c1.158,1.757,1.943,4.075,3.555,5.163c3.494,2.359,7.602,3.802,11.114,6.136c9.31,6.192,9.804,7.836,6,18.363
		C-631.881,63.195-634.33,68.97-636.631,74.797z M-524.176-41.19c0.049-7.845-3.641-13.383-9.148-13.725
		c-5.529-0.348-10.315,6-10.279,13.637c0.033,7.377,4.3,13.175,9.766,13.269C-528.286-27.917-524.229-33.458-524.176-41.19z
		 M-524.188,68.117c0.037-7.917-3.731-13.138-9.517-13.191c-5.855-0.052-9.854,5.183-9.898,12.97
		c-0.05,7.917,3.767,13.061,9.678,13.054C-527.747,80.95-524.225,76.308-524.188,68.117z M-619.254,121.76
		c0,7.592,4.111,13.341,9.607,13.432c5.31,0.084,10.101-6.1,10.128-13.08c0.026-7.613-4.717-14.045-10.19-13.811
		C-615.215,108.542-619.254,114.232-619.254,121.76z M-599.526,10.708c-0.08-6.979-4.963-13.135-10.247-12.924
		c-5.564,0.222-9.504,5.883-9.426,13.542c0.078,7.583,4.199,13.315,9.617,13.372C-604.132,24.756-599.438,18.222-599.526,10.708z
		 M-673.147,68.957c0.163-6.94-4.313-13.197-9.721-13.6c-5.462-0.397-10.045,5.266-10.339,12.781
		c-0.279,7.245,4.574,14.142,9.946,14.114C-678.17,82.239-673.312,75.845-673.147,68.957z"/>
	<g>
		<path fill-rule="evenodd" clip-rule="evenodd" fill="#F9F9F9" d="M-418.856,283.805c-1.924,2.889-3.966,5.705-5.752,8.676
			c-6.264,10.439-12.501,20.895-18.589,31.439c-0.967,1.674-1.523,3.82-1.553,5.756c-0.149,10.434-0.067,20.869-0.067,31.309
			c0,0.961,0,1.918,0,3.02c-4.679,0-9.064,0-13.719,0c-0.078-1.441-0.217-2.799-0.217-4.15c-0.02-10.039,0.114-20.084-0.105-30.123
			c-0.053-2.4-0.803-5.031-2.001-7.113c-5.442-9.473-11.314-18.699-16.715-28.193c-2.816-4.945-6.664-7.656-12.49-7.859
			c0,4.826,0,9.67,0,14.736c-1.291,0-2.693,0-4.425,0c0-1.166,0.058-2.322-0.01-3.471c-0.274-4.635-3.785-8.055-8.371-8.107
			c-3.795-0.045-7.595-0.01-11.604-0.01c0,24.844,0,49.428,0,74.426c-4.396,0-8.588,0.092-12.772-0.113
			c-0.533-0.031-1.403-1.641-1.413-2.521c-0.101-9.549-0.062-19.1-0.062-28.648c0-14.271,0-28.537,0-43.541
			c-4.804,0.309-9.491,0.217-14.025,1.014c-3.747,0.664-5.127,4.148-5.343,7.541c-0.223,3.516-2.055,3.352-4.41,2.918
			c0-6.021,0-11.889,0-18.164c1.414,0,2.554,0,3.693,0c25.696,0,51.393,0.057,77.091-0.08c2.875-0.018,4.352,0.902,5.697,3.328
			c5.352,9.623,10.901,19.129,16.397,28.674c0.462,0.809,1.043,1.553,1.701,2.523c5.709-9.639,11.57-18.84,16.682-28.441
			c2.486-4.672,5.332-7.045,10.612-6.02c0.572,0.111,1.18,0.016,1.77,0.016C-418.856,283.016-418.856,283.41-418.856,283.805z"/>
		<path fill-rule="evenodd" clip-rule="evenodd" fill="#F9F9F9" d="M-750.333,281.443c3.274,1.121,6.631,2.062,9.814,3.404
			c6.817,2.861,10.891,8.439,13.093,15.143c3.693,11.248,4.016,22.854,2.641,34.578c-0.861,7.352-2.438,14.361-7.069,20.387
			c-4.034,5.236-9.434,7.838-15.781,9.348c-6.915,1.645-13.723,1.357-20.397-0.277c-9.916-2.424-16.638-8.881-19.417-18.688
			c-4.149-14.629-4.179-29.496,0.019-44.08c2.919-10.158,9.732-16.85,20.586-18.719c1.004-0.174,1.947-0.725,2.918-1.096
			C-759.396,281.443-754.868,281.443-750.333,281.443z M-737.874,326.094c-0.51-7.631-0.812-13.113-1.25-18.584
			c-0.899-11.066-6.136-17.502-16.363-19.201c-5.525-0.916-10.603,0.818-14.325,5.393c-3.924,4.82-5.356,10.688-5.79,16.568
			c-0.774,10.441-1.01,20.902,0.962,31.342c1.914,10.121,7.987,16.297,17.21,16.797c10.194,0.549,15.334-5.723,17.013-13.492
			C-738.942,338.078-738.508,331.014-737.874,326.094z"/>
		<path fill-rule="evenodd" clip-rule="evenodd" fill="#F9F9F9" d="M-815.921,281.443c2.675,0.447,5.357,0.836,8.012,1.369
			c1.231,0.246,2.409,0.764,3.654,1.18c0,3.08,0,6.096,0,9.424c-2.904-1.049-5.582-2.08-8.309-2.986
			c-5.217-1.73-10.517-2.789-16.075-1.947c-5.703,0.863-9.56,6.562-8.257,12.314c1.256,5.529,5.241,8.686,9.776,11.316
			c6.241,3.625,12.81,6.75,18.778,10.775c12.574,8.486,12.786,24.146,4.779,33.518c-3.856,4.518-9.151,6.473-14.853,7.84
			c-7.574,1.812-15.018,0.932-22.5-0.115c-2.308-0.324-4.568-0.986-6.852-1.482c-1.794-0.385-2.573-1.326-2.434-3.293
			c0.188-2.615,0.049-5.256,0.049-7.623c5.462,2.029,10.654,4.402,16.099,5.857c5.198,1.391,10.747,1.738,15.762-0.869
			c6.66-3.467,7.958-13.699,2.77-19.668c-3.852-4.428-9.141-6.688-14.046-9.572c-4.996-2.941-10.126-5.814-14.579-9.467
			c-5.938-4.869-7.833-11.652-6.606-19.217c1.245-7.664,5.789-12.541,13.016-15.047c2.337-0.807,4.693-1.543,7.045-2.307
			C-825.769,281.443-820.844,281.443-815.921,281.443z"/>
		<path fill-rule="evenodd" clip-rule="evenodd" fill="#F9F9F9" d="M-674.112,281.443c3.438,1.174,7.049,1.988,10.271,3.602
			c6.02,3.018,9.737,7.848,10.006,15.289c-4.673,0-9.169,0.059-13.661-0.07c-0.591-0.02-1.553-0.934-1.674-1.562
			c-0.995-5.283-3.827-8.969-9.15-10.117c-7.006-1.508-12.997,0.33-16.989,6.602c-3.034,4.77-4.227,10.156-4.861,15.76
			c-0.914,8.068-0.625,16.076,0.644,24.045c1.024,6.41,2.914,12.527,7.501,17.465c4.463,4.805,10.084,6.092,16.412,5.971
			c6.944-0.133,13.166-2.139,18.877-5.98c0.212-0.139,0.554-0.088,1.247-0.184c0,2.578,0.148,5.072-0.097,7.529
			c-0.067,0.656-1.274,1.502-2.097,1.723c-10.222,2.697-20.373,4.924-31.192,2.975c-14.618-2.633-21.792-13.162-24.292-25.199
			c-1.942-9.332-2.227-18.738-1.005-28.096c1.216-9.285,3.885-18.264,12.243-23.871c3.202-2.152,7.155-3.191,10.771-4.73
			c0.948-0.4,1.909-0.77,2.866-1.148C-683.566,281.443-678.84,281.443-674.112,281.443z"/>
		<path fill-rule="evenodd" clip-rule="evenodd" fill="#F9F9F9" d="M-626.253,281.443c-0.066,2.438-0.188,4.879-0.192,7.316
			c-0.015,23.52-0.006,47.039-0.019,70.562c0,1.543-0.164,3.092-0.26,4.729c-4.685,0-9.089,0-13.72,0
			c-0.097-1.141-0.26-2.195-0.26-3.252c-0.015-20.566-0.004-41.139-0.024-61.707c0-1.664-0.125-3.336-0.269-4.998
			c-0.336-3.832-1.76-5.184-5.698-5.559c-1.159-0.111-2.313-0.352-3.477-0.436c-1.611-0.117-2.577-0.68-2.385-2.533
			c0.198-1.857,1.481-1.662,2.785-1.785c6.048-0.564,12.088-1.209,18.129-1.848c0.234-0.025,0.442-0.324,0.663-0.49
			C-629.401,281.443-627.825,281.443-626.253,281.443z"/>
		<path fill-rule="evenodd" clip-rule="evenodd" fill="#F9F9F9" d="M-561.597,345.613c1.317,0,2.452,0,3.511,0
			c0,6.236,0,12.271,0,18.547c-4.593,0-8.814,0-13.038,0c-10.727,0-21.46-0.098-32.188,0.066c-2.755,0.039-3.482-0.793-3.471-3.471
			c0.085-22.346,0.048-44.691,0.022-67.037c-0.004-4.268-1.558-5.885-5.86-6.389c-0.861-0.1-1.713-0.367-2.554-0.598
			c-2.779-0.764-2.779-0.771-2.091-4.109c0.898,0,1.855,0,2.816,0c17.129,0,34.257,0.074,51.384-0.07
			c2.985-0.027,3.684,1.02,3.592,3.736c-0.163,4.992-0.044,9.998-0.044,15.119c-1.475,0-2.711,0-3.837,0
			c-0.695-2.588-1.071-5.221-2.12-7.547c-1.192-2.643-3.669-4.057-6.596-4.113c-5.503-0.111-11.013,0.053-16.519-0.082
			c-2.232-0.053-3.259,0.928-3.674,2.922c-0.097,0.479-0.254,0.963-0.254,1.445c-0.02,7.865-0.016,15.727-0.016,23.975
			c5.834,0,11.521,0.359,17.144-0.135c3.39-0.299,5.241-3.268,5.73-6.582c0.308-2.084,1.361-2.596,3.174-2.496
			c2.294,0.121,1.602,1.867,1.611,3.084c0.058,6.891,0.005,13.783,0.048,20.674c0.01,1.549-0.096,2.611-2.135,2.635
			c-1.866,0.023-2.295-0.77-2.49-2.404c-0.688-5.66-2.544-7.424-8.295-7.633c-4.79-0.17-9.593-0.031-14.781-0.031
			c0,3.025,0,5.842,0,8.664c0,5.805-0.034,11.611,0.01,17.422c0.037,4.93,1,5.867,5.755,5.871c5.313,0,10.628,0.004,15.944-0.004
			c4.65-0.008,6.594-1.512,7.886-6.146C-562.453,349.229-562.069,347.512-561.597,345.613z"/>
	</g>
	<g>
		<path fill-rule="evenodd" clip-rule="evenodd" fill="#F9F9F9" d="M-739.998,180.689c-0.092,1.657-0.259,3.314-0.262,4.972
			c-0.02,15.649-0.094,31.3,0.036,46.949c0.039,4.486,0.355,9.026,1.137,13.436c1.328,7.513,6.227,11.914,15.666,11.667
			c6.028-0.156,11.802-1.092,14.578-7.127c1.54-3.348,2.375-7.299,2.441-10.996c0.325-18.104,0.283-36.21,0.384-54.314
			c0.006-1.063,0.113-2.125,0.177-3.25c3.212,0,6.222,0,9.543,0c0,1.206,0,2.264,0,3.317c-0.002,15.061,0.214,30.125-0.11,45.176
			c-0.137,6.304-0.85,12.719-2.321,18.841c-1.975,8.227-8.508,12.385-16.458,14.096c-6.84,1.473-13.577,1.459-20.417,0.002
			c-8.57-1.828-14.745-6.338-17.288-15.313c-1.021-3.605-1.236-7.523-1.279-11.306c-0.147-12.694-0.054-25.394-0.054-38.09
			c0-0.493,0.008-0.983-0.017-1.476c-0.409-7.969-0.697-8.286-8.555-9.571c-0.481-0.078-0.942-0.359-1.42-0.379
			c-1.658-0.072-2.472-1.044-1.954-2.475c0.28-0.775,1.465-1.622,2.327-1.728c5.93-0.726,11.883-1.251,17.824-1.878
			c0.447-0.047,0.864-0.362,1.294-0.554C-743.15,180.689-741.574,180.689-739.998,180.689z"/>
		<path fill-rule="evenodd" clip-rule="evenodd" fill="#F9F9F9" d="M-550.328,180.689c2.443,0.426,4.899,0.794,7.325,1.298
			c1.241,0.258,2.428,0.764,3.765,1.196c0,3.021,0,6.04,0,9.445c-2.9-1.058-5.622-2.156-8.411-3.046
			c-4.938-1.574-9.942-2.339-15.203-2.009c-8.288,0.521-11.459,10.737-7.106,16.663c2.094,2.855,5.176,5.187,8.219,7.105
			c6.018,3.795,12.561,6.781,18.446,10.754c10.769,7.268,13.363,20.595,6.521,31.485c-3.604,5.743-9.416,8.153-15.609,9.805
			c-7.866,2.1-15.773,1.137-23.65-0.02c-2.208-0.324-4.375-0.941-6.56-1.439c-1.656-0.381-2.437-1.291-2.326-3.133
			c0.158-2.623,0.041-5.265,0.041-8.089c4.068,1.75,7.765,3.545,11.605,4.942c5.979,2.172,12.073,2.756,18.366,1.026
			c7.905-2.176,10.013-14.542,4.443-20.489c-4.556-4.864-10.471-7.446-16.097-10.537c-5.718-3.146-11.286-6.354-15.464-11.608
			c-6.584-8.277-5.745-26.276,9.463-31.041c2.484-0.778,4.973-1.539,7.46-2.31C-560.176,180.689-555.251,180.689-550.328,180.689z"
			/>
		<path fill-rule="evenodd" clip-rule="evenodd" fill="#F9F9F9" d="M-594.645,180.689c0,27.437,0,54.872,0,82.512
			c-4.517,0-8.889,0-13.619,0c-0.095-1.283-0.275-2.607-0.275-3.93c-0.021-17.51,0.001-35.022-0.024-52.535
			c-0.009-4.225-0.313-8.455-0.192-12.675c0.112-3.931-1.312-5.45-6.044-6.271c-1.151-0.201-2.432-0.077-3.442-0.551
			c-0.929-0.435-1.578-1.473-2.353-2.245c0.898-0.647,1.739-1.747,2.701-1.867c5.927-0.744,11.88-1.258,17.82-1.883
			c0.446-0.048,0.864-0.364,1.295-0.557C-597.401,180.689-596.021,180.689-594.645,180.689z"/>
		<path fill-rule="evenodd" clip-rule="evenodd" fill="#F9F9F9" d="M-480.845,246.441c3.131-8.911,6.095-17.353,9.065-25.793
			c4.333-12.294,8.646-24.596,13.057-36.86c0.278-0.778,1.306-1.809,2.011-1.829c5.099-0.157,10.2-0.084,15.673-0.084
			c0,1.482,0,2.728,0,3.974c0,24.616-0.048,49.236,0.063,73.853c0.014,2.963-0.722,4.061-3.786,3.764
			c-2.918-0.281-5.885-0.059-9.256-0.059c0-22.47,0-44.809,0-67.147c-0.254-0.043-0.515-0.085-0.768-0.127
			c-1.648,4.491-3.347,8.965-4.938,13.476c-4.21,11.925-8.379,23.864-12.55,35.802c-1.826,5.232-3.655,10.46-5.398,15.719
			c-0.537,1.617-1.345,2.311-3.165,2.324c-6.759,0.045-6.78,0.123-9.058-6.33c-7.06-20.013-14.098-40.032-21.151-60.046
			c-0.062-0.175-0.228-0.313-0.678-0.905c0,22.548,0,44.661,0,67.004c-2.917,0-5.51,0-8.378,0c-0.042-0.891-0.127-1.836-0.129-2.781
			c-0.005-20.78-0.003-41.555-0.005-62.334c0-0.982,0.089-1.987-0.072-2.948c-0.911-5.446-0.036-7.476-7.94-8.601
			c-1.232-0.174-2.406-0.78-3.653-1.204c0-1.113,0-2.15,0-3.431c8.896,0,17.642-0.03,26.388,0.068
			c0.615,0.006,1.541,0.854,1.778,1.507c2.839,7.771,5.566,15.586,8.338,23.38c4.466,12.555,8.938,25.102,13.427,37.648
			C-481.779,245.012-481.406,245.477-480.845,246.441z"/>
		<path fill-rule="evenodd" clip-rule="evenodd" fill="#F9F9F9" d="M-760.223,263.402c-3.901,0-7.738,0.148-11.546-0.113
			c-0.839-0.059-1.931-1.449-2.304-2.449c-2.521-6.748-4.841-13.573-7.349-20.33c-0.291-0.785-1.336-1.825-2.044-1.833
			c-9.44-0.12-18.88-0.083-28.302-0.083c-3.001,8.312-5.943,16.457-8.917,24.693c-2.586,0-5.12,0-8.303,0
			c1.066-3.195,1.984-6.178,3.052-9.108c7.135-19.569,14.306-39.124,21.441-58.692c0.469-1.283,0.789-2.629,1.093-3.966
			c0.562-2.474-0.699-4.332-3.251-4.924c-1.787-0.414-3.567-0.856-5.383-1.295c0-1.165,0-2.128,0-3.42
			c7.317,0,14.575-0.038,21.831,0.072c0.585,0.008,1.441,0.937,1.687,1.609c4.021,11.067,7.936,22.17,11.931,33.245
			c3.732,10.337,7.523,20.654,11.3,30.977c1.672,4.571,3.394,9.123,5.041,13.699C-760.066,261.986-760.223,262.613-760.223,263.402z
			 M-784.702,231.435c-4.236-10.863-8.325-21.352-12.641-32.418c-4.1,11.245-7.929,21.741-11.822,32.418
			C-800.952,231.435-793.089,231.435-784.702,231.435z"/>
		<path fill-rule="evenodd" clip-rule="evenodd" fill="#F9F9F9" d="M-625.28,200.679c-1.22,0-2.38,0-3.519,0
			c-0.448-2.182-0.746-4.304-1.334-6.343c-0.937-3.253-3.453-4.821-6.597-5.328c-1.831-0.293-3.73-0.194-5.599-0.221
			c-2.062-0.03-4.125-0.008-6.699-0.008c0,1.248,0,2.37,0,3.492c0,22.447,0.001,44.893,0,67.339
			c-0.002,3.791-0.007,3.795-3.902,3.795c-3.323,0.002-6.646,0-10.181,0c0-24.846,0-49.422,0-74.799
			c-4.958,0.267-9.751,0.09-14.37,0.903c-4.203,0.744-5.012,4.745-5.759,8.353c-0.135,0.649-0.121,1.334-0.188,2.164
			c-1.455,0-2.77,0-3.892,0c0-6.098,0-12.017,0-18.033c20.879,0,41.227,0,62.04,0C-625.28,188.186-625.28,194.311-625.28,200.679z"
			/>
	</g>
</g>
<g>
	<g>
		<g>
			<path fill-rule="evenodd" clip-rule="evenodd" fill="#F9F9F9" d="M447,139.81c2.272,2.259,4.592,4.472,6.807,6.786
				c12.489,13.049,19.169,28.896,21.818,46.509c3.095,20.561,2.38,40.912-4.802,60.679c-3.266,8.992-8.161,17.056-15.177,23.617
				c-1.541,1.439-4.057,2.573-6.135,2.589c-23.771,0.178-47.545,0.187-71.318-0.007c-2.222-0.02-4.851-1.248-6.575-2.741
				c-10.28-8.892-17.328-20.097-21.815-32.813c-7.545-21.384-8.647-43.271-3.974-65.419c3.304-15.646,10.687-28.962,23.2-39.199
				C395.02,139.81,421.011,139.81,447,139.81z"/>
			<path fill-rule="evenodd" clip-rule="evenodd" fill="#F9F9F9" d="M208.656,139.81c-0.735,22.126,10.934,37.846,26.57,51.545
				c8.211,7.194,16.507,14.303,24.472,21.763c6.306,5.904,11.465,12.75,13.514,21.404c6.225,26.302-13.422,46.072-40.134,40.43
				c-15.495-3.272-23.584-12.572-24.793-28.48c-0.14-1.839-0.347-3.673-0.523-5.51c-0.447-0.111-0.893-0.222-1.339-0.334
				c-0.561,1.225-1.542,2.425-1.615,3.678c-0.537,9.274-1.188,18.562-1.113,27.84c0.021,2.551,2.381,5.084,3.626,7.541
				c-6.365,0-13.825,0-21.546,0c-0.102-1.237-0.278-2.377-0.278-3.518c-0.012-44.866-0.008-89.731,0-134.596
				c0-0.588,0.081-1.176,0.124-1.764C193.298,139.81,200.978,139.81,208.656,139.81z"/>
			<path fill-rule="evenodd" clip-rule="evenodd" fill="#F9F9F9" d="M119.166,139.81c-13.749,30.629-27.494,61.259-41.25,91.884
				c-3.236,7.205-6.506,14.393-10.086,22.308c-1.06-1.958-1.786-3.152-2.375-4.411c-16.5-35.21-32.992-70.424-49.456-105.65
				c-0.611-1.308-0.93-2.75-1.385-4.131C49.465,139.81,84.315,139.81,119.166,139.81z"/>
			<path fill-rule="evenodd" clip-rule="evenodd" fill="#F9F9F9" d="M307.893,139.81c-0.04,42.229-0.082,84.458-0.121,126.688
				c-0.004,4.262,0,8.524,0,13.191c-14.643,0-28.989,0-43.887,0c0.657-0.604,0.973-1.047,1.403-1.263
				c25.731-12.907,31.978-47.755,17.746-70.632c-6.573-10.565-15.682-18.72-25.027-26.704c-7.74-6.611-15.369-13.365-22.799-20.321
				c-6.059-5.672-10.206-12.578-11.489-20.959C251.777,139.81,279.835,139.81,307.893,139.81z"/>
			<path fill-rule="evenodd" clip-rule="evenodd" fill="#F9F9F9" d="M179.417,139.81c0,46.584,0,93.169,0,139.67
				c-11.178,2.104-19.356-2.487-21.812-13.175c-2.003-8.721-2.825-17.74-3.786-26.668c-3.453-32.106-6.739-64.23-10.104-96.345
				c-0.123-1.17-0.413-2.322-0.625-3.482C155.198,139.81,167.308,139.81,179.417,139.81z"/>
			<path fill-rule="evenodd" clip-rule="evenodd" fill="#F9F9F9" d="M352.194,139.81c-0.369,0.598-0.63,1.306-1.12,1.777
				c-39.816,38.359-37.523,101.377-3.973,136.712c0.273,0.289,0.404,0.712,0.818,1.461c-11.851,0-23.396,0-35.344,0
				c-0.129-1.002-0.396-2.111-0.396-3.221c-0.02-44.99-0.014-89.98-0.006-134.969c0-0.587,0.098-1.174,0.147-1.761
				C325.613,139.81,338.903,139.81,352.194,139.81z"/>
			<path fill-rule="evenodd" clip-rule="evenodd" fill="#F9F9F9" d="M497.505,139.81c0,14.46,0,28.921,0,43.381
				c-5.041-16.891-13.419-31.586-26.581-43.381C479.784,139.81,488.645,139.81,497.505,139.81z"/>
			<path fill-rule="evenodd" clip-rule="evenodd" fill="#F9F9F9" d="M126.729,150.511c0.679,7.122,1.39,14.241,2.031,21.365
				c2.923,32.471,5.828,64.943,8.731,97.417c0.118,1.32,0.203,2.649,0.221,3.977c0.074,5.633-1.049,6.812-6.67,6.818
				c-18.893,0.021-37.787,0.009-56.68,0.009c-2.191,0-4.383,0-7.442,0c19.823-43.696,39.353-86.745,58.881-129.792
				C126.11,150.374,126.419,150.442,126.729,150.511z"/>
			<path fill-rule="evenodd" clip-rule="evenodd" fill="#F9F9F9" d="M59.412,279.828c-14.818,0-29.489,0-44.49,0
				c0-31.118,0-62.168,0-93.463C29.747,217.511,44.514,248.532,59.412,279.828z"/>
			<path fill-rule="evenodd" clip-rule="evenodd" fill="#F9F9F9" d="M497.089,231.241c0,16.052,0,32.102,0,48.502
				c-8.96,0-17.712,0-27.451,0C483.731,265.862,492.299,249.575,497.089,231.241z"/>
		</g>
	</g>
	<g>
		<path fill="#F9F9F9" d="M20.7,298.118l9.583,22.139l9.619-22.139l5.351,27.876h-3.008l-3.393-17.839h-0.07l-8.5,18.922
			l-8.464-18.922h-0.07l-3.393,17.839h-3.008L20.7,298.118z"/>
		<path fill="#F9F9F9" d="M56.725,325.994h-2.938v-26.372h2.938V325.994z"/>
		<path fill="#F9F9F9" d="M70.121,323.265h7.274v2.729H67.183v-26.372h2.938V323.265z"/>
		<path fill="#F9F9F9" d="M90.517,319.383l8.534-21.126l8.534,21.126l6.925-19.761h3.183l-10.108,27.735l-8.534-21.23l-8.534,21.23
			l-10.108-27.735h3.183L90.517,319.383z"/>
		<path fill="#F9F9F9" d="M126.337,318.509l-3.183,7.485h-3.218l12.171-27.632l11.857,27.632h-3.253l-3.113-7.485H126.337z
			 M132.038,305.217l-4.512,10.563h8.919L132.038,305.217z"/>
		<path fill="#F9F9F9" d="M154.807,315.325c0,1.959-0.069,4.198,1.154,5.877c1.154,1.609,3.393,2.518,5.316,2.518
			c1.889,0,3.953-0.874,5.176-2.343c1.399-1.679,1.294-3.987,1.294-6.052v-15.703h2.938v16.508c0,2.869-0.21,5.142-2.308,7.31
			c-1.819,1.959-4.442,3.008-7.101,3.008c-2.483,0-5.037-0.943-6.82-2.692c-2.309-2.203-2.588-4.617-2.588-7.625v-16.508h2.938
			V315.325z"/>
		<path fill="#F9F9F9" d="M195.169,299.622h3.952l-12.381,12.276l12.801,14.096h-4.057l-10.808-12.102l-0.734,0.733v11.368h-2.938
			v-26.372h2.938v11.297L195.169,299.622z"/>
		<path fill="#F9F9F9" d="M207.481,299.622h13.675v2.728h-10.737v7.834h10.422v2.729h-10.422v10.353h10.737v2.729h-13.675V299.622z"
			/>
		<path fill="#F9F9F9" d="M231.264,299.622h13.675v2.728h-10.737v7.834h10.422v2.729h-10.422v10.353h10.737v2.729h-13.675V299.622z"
			/>
		<path fill="#F9F9F9" d="M282.889,304.764c-1.05-1.819-2.309-2.869-4.547-2.869c-2.344,0-4.372,1.68-4.372,4.093
			c0,2.273,2.344,3.322,4.127,4.127l1.749,0.771c3.428,1.504,6.33,3.217,6.33,7.413c0,4.617-3.707,8.149-8.289,8.149
			c-4.231,0-7.38-2.728-8.219-6.82l2.867-0.803c0.385,2.692,2.449,4.896,5.282,4.896s5.421-2.168,5.421-5.142
			c0-3.078-2.414-4.127-4.862-5.247l-1.608-0.699c-3.078-1.397-5.736-2.973-5.736-6.75c0-4.092,3.463-6.715,7.38-6.715
			c2.938,0,5.421,1.504,6.82,4.093L282.889,304.764z"/>
		<path fill="#F9F9F9" d="M293.207,299.622h3.392l6.716,11.752l6.715-11.752h3.393l-8.639,15.038v11.334h-2.938V314.66
			L293.207,299.622z"/>
		<path fill="#F9F9F9" d="M324.858,298.118l9.584,22.139l9.618-22.139l5.351,27.876h-3.008l-3.392-17.839h-0.071l-8.498,18.922
			l-8.464-18.922h-0.07l-3.393,17.839h-3.008L324.858,298.118z"/>
		<path fill="#F9F9F9" d="M360.814,325.994h-2.939v-26.372h4.338c2.273,0,4.616,0.069,6.541,1.398
			c1.959,1.363,2.973,3.672,2.973,6.016c0,2.134-0.875,4.302-2.518,5.667c-1.784,1.468-4.059,1.748-6.262,1.748h-2.133V325.994z
			 M360.814,311.724h1.958c3.253,0,6.016-0.979,6.016-4.757c0-4.303-3.463-4.617-6.89-4.617h-1.084V311.724z"/>
		<path fill="#F9F9F9" d="M397.153,310.323v-10.701h2.938v26.372h-2.938v-12.941h-13.501v12.941h-2.938v-26.372h2.938v10.701
			H397.153z"/>
		<path fill="#F9F9F9" d="M436.816,312.842c0,7.59-6.226,13.605-13.746,13.605c-7.52,0-13.746-6.016-13.746-13.605
			c0-7.554,6.227-13.675,13.746-13.675C430.591,299.167,436.816,305.288,436.816,312.842z M412.263,312.807
			c0,5.946,4.827,10.913,10.808,10.913s10.808-4.967,10.808-10.913c0-5.98-4.756-10.912-10.808-10.912
			C417.021,301.895,412.263,306.826,412.263,312.807z"/>
		<path fill="#F9F9F9" d="M446.085,298.502l20.565,21.546v-20.426h2.938v27.561l-20.565-21.511v20.322h-2.938V298.502z"/>
		<path fill="#F9F9F9" d="M477.808,299.622h3.392l6.717,11.752l6.714-11.752h3.394l-8.639,15.038v11.334h-2.938V314.66
			L477.808,299.622z"/>
	</g>
	<g>
		<path fill="#F9F9F9" d="M13.977,357.408c0-3.712,1.36-6.899,4.082-9.564c2.71-2.663,5.966-3.996,9.769-3.996
			c3.757,0,6.979,1.343,9.667,4.03c2.698,2.688,4.047,5.915,4.047,9.683c0,3.792-1.355,7.009-4.064,9.649
			c-2.722,2.653-6.006,3.98-9.854,3.98c-3.404,0-6.461-1.179-9.17-3.535C15.468,365.047,13.977,361.633,13.977,357.408z
			 M17.99,357.45c0,2.912,0.979,5.308,2.938,7.184c1.947,1.877,4.195,2.815,6.746,2.815c2.767,0,5.1-0.955,7.001-2.866
			c1.901-1.935,2.853-4.288,2.853-7.063c0-2.811-0.94-5.164-2.818-7.064c-1.867-1.912-4.178-2.867-6.933-2.867
			c-2.745,0-5.061,0.955-6.951,2.867C18.935,352.343,17.99,354.674,17.99,357.45z"/>
		<path fill="#F9F9F9" d="M90.243,359.475l8.164,11.236h-4.867l-7.532-10.793H85.29v10.793h-3.979v-26.368h4.662
			c3.484,0,6,0.654,7.549,1.964c1.708,1.457,2.562,3.382,2.562,5.773c0,1.867-0.535,3.472-1.605,4.816
			C93.408,358.239,91.996,359.1,90.243,359.475z M85.29,356.451h1.264c3.769,0,5.653-1.439,5.653-4.321
			c0-2.697-1.833-4.048-5.5-4.048H85.29V356.451z"/>
		<path fill="#F9F9F9" d="M156.022,345.751v4.706c-2.3-1.925-4.679-2.887-7.138-2.887c-2.71,0-4.993,0.975-6.849,2.921
			c-1.868,1.935-2.801,4.304-2.801,7.104c0,2.767,0.933,5.102,2.801,7.001c1.867,1.902,4.156,2.853,6.865,2.853
			c1.4,0,2.59-0.227,3.569-0.682c0.547-0.229,1.113-0.537,1.699-0.923c0.586-0.388,1.204-0.854,1.853-1.401v4.807
			c-2.277,1.293-4.668,1.94-7.172,1.94c-3.769,0-6.985-1.315-9.649-3.945c-2.653-2.653-3.979-5.853-3.979-9.598
			c0-3.359,1.11-6.354,3.331-8.983c2.732-3.223,6.268-4.834,10.605-4.834C151.525,343.83,153.813,344.471,156.022,345.751z"/>
		<path fill="#F9F9F9" d="M200.523,354.658h11.374v-10.315h3.979v26.368h-3.979v-12.312h-11.374v12.312h-3.979v-26.368h3.979
			V354.658z"/>
		<path fill="#F9F9F9" d="M271.513,348.082H260.94v6.338h10.265v3.739H260.94v8.812h10.572v3.739h-14.551v-26.368h14.551V348.082z"
			/>
		<path fill="#F9F9F9" d="M326.413,348.254l-3.229,1.912c-0.603-1.047-1.177-1.73-1.724-2.049c-0.569-0.363-1.305-0.547-2.203-0.547
			c-1.105,0-2.021,0.313-2.749,0.941c-0.729,0.614-1.094,1.39-1.094,2.324c0,1.287,0.957,2.324,2.869,3.109l2.63,1.076
			c2.141,0.867,3.705,1.923,4.697,3.171c0.99,1.248,1.484,2.777,1.484,4.589c0,2.427-0.808,4.433-2.424,6.016
			c-1.629,1.596-3.65,2.394-6.063,2.394c-2.288,0-4.179-0.682-5.67-2.042c-1.469-1.36-2.385-3.271-2.75-5.729l4.03-0.888
			c0.183,1.549,0.502,2.618,0.957,3.21c0.82,1.139,2.016,1.708,3.586,1.708c1.241,0,2.272-0.416,3.092-1.244
			c0.819-0.831,1.229-1.883,1.229-3.158c0-0.513-0.071-0.981-0.213-1.407c-0.143-0.428-0.365-0.82-0.666-1.179
			c-0.303-0.358-0.692-0.693-1.17-1.007c-0.479-0.312-1.048-0.611-1.708-0.896l-2.545-1.058c-3.609-1.524-5.414-3.754-5.414-6.69
			c0-1.978,0.758-3.634,2.272-4.965c1.514-1.343,3.398-2.015,5.651-2.015C322.332,343.83,324.706,345.305,326.413,348.254z"/>
		<path fill="#F9F9F9" d="M374.432,348.082v22.629h-3.979v-22.629h-6.062v-3.739h16.088v3.739H374.432z"/>
		<path fill="#F9F9F9" d="M427.729,359.475l8.163,11.236h-4.868l-7.531-10.793h-0.716v10.793h-3.98v-26.368h4.664
			c3.483,0,5.999,0.654,7.548,1.964c1.707,1.457,2.562,3.382,2.562,5.773c0,1.867-0.536,3.472-1.605,4.816
			C430.895,358.239,429.482,359.1,427.729,359.475z M422.776,356.451h1.263c3.77,0,5.654-1.439,5.654-4.321
			c0-2.697-1.835-4.048-5.5-4.048h-1.417V356.451z"/>
		<path fill="#F9F9F9" d="M490.11,364.308h-11.289l-2.938,6.403h-4.286l13.048-28.024l12.587,28.024h-4.354L490.11,364.308z
			 M488.486,360.566l-3.911-8.966l-4.098,8.966H488.486z"/>
	</g>
</g>
</svg>
