<?xml version="1.0" encoding="utf-8"?>
<!-- Generator: Adobe Illustrator 16.0.0, SVG Export Plug-In . SVG Version: 6.00 Build 0)  -->
<!DOCTYPE svg PUBLIC "-//W3C//DTD SVG 1.1//EN" "http://www.w3.org/Graphics/SVG/1.1/DTD/svg11.dtd">
<svg version="1.1" id="concordia-logo_x28_blue_x29__xA0_Image_1_"
	 xmlns="http://www.w3.org/2000/svg" xmlns:xlink="http://www.w3.org/1999/xlink" x="0px" y="0px" width="512px" height="511px"
	 viewBox="0 0 512 511" enable-background="new 0 0 512 511" xml:space="preserve">
<rect x="-341.428" fill="#B0C19F" width="57.143" height="57.143"/>
<rect x="-284.285" fill="#A0B091" width="57.143" height="57.143"/>
<rect x="-227.143" fill="#909F84" width="57.143" height="57.143"/>
<rect x="-341.428" y="57.143" fill="#D5E7BF" width="57.143" height="57.143"/>
<rect x="-341.428" y="376.082" fill="#C1D2AF" width="57.143" height="57.143"/>
<rect x="-284.285" y="57.143" fill="#C2D3AE" width="57.143" height="57.143"/>
<rect x="-227.143" y="57.142" fill="#808E76" width="57.143" height="57.143"/>
<rect x="-170" y="57.142" fill="#707D68" width="57.143" height="57.143"/>
<rect x="-341.428" y="138.596" fill="#F9F9F9" width="57.143" height="57.142"/>
<rect x="-341.428" y="296.215" fill="#E1E2E3" width="57.143" height="57.143"/>
<rect x="-284.285" y="138.596" fill="#DCDEDC" width="57.143" height="57.142"/>
<rect x="-227.143" y="138.596" fill="#DFEBEE" width="57.143" height="57.142"/>
<rect x="-227.143" y="195.738" fill="#A6B0B4" width="57.143" height="57.143"/>
<rect x="-170" y="195.738" fill="#939DA1" width="57.143" height="57.143"/>
<rect x="-227.143" y="253.27" fill="#173139" width="57.143" height="57.143"/>
<rect x="-341.428" y="195.738" fill="#496F7C" width="57.143" height="57.143"/>
<rect x="-284.285" y="195.738" fill="#2A4751" width="57.143" height="57.143"/>
<g>
	<path fill-rule="evenodd" clip-rule="evenodd" fill="#F9F9F9" d="M-751.527,133.696c12.703-31.996,25.952-63.789,37.857-96.075
		c5.082-13.784,16.095-20.734,26.656-28.565c1.859-1.381,6.504-1.065,8.6,0.345c5.225,3.505,9.617,8.229,14.575,12.172
		c1.552,1.234,3.851,1.529,5.808,2.255c0.18-2.289,1.051-4.795,0.403-6.816c-1.608-5.03-3.74-9.917-5.973-14.715
		c-2.92-6.276-0.804-10.901,4.521-14.304c4.453-2.846,9.321-5.042,13.777-7.885c1.475-0.938,2.243-2.989,3.333-4.531
		c-1.711-0.811-3.44-2.354-5.13-2.315c-11.7,0.284-23.394,0.948-35.09,1.35c-1.777,0.063-3.578-0.576-5.261-1.419
		c14.663-2.893,18.214-12.006,9.926-26.534c5.628-7.153,12.621-11.606,22.212-11.391c7.193,0.163,14.404,0.248,21.592-0.032
		c6.264-0.245,7.564,2.519,5.514,7.815c-2.197,5.672-4.688,11.238-6.623,16.993c-0.629,1.872,0.078,4.197,0.174,6.316
		c1.961-0.609,4.533-0.622,5.793-1.914c18.428-18.889,19.721-18.885,39.274,0.058c1.311,1.27,3.871,1.257,5.846,1.839
		c0.104-2.119,0.824-4.446,0.191-6.321c-1.936-5.758-4.326-11.374-6.666-16.991c-2.281-5.475-0.875-7.825,5.352-7.799
		c35.454,0.144,70.913-0.025,106.37,0.15c10.186,0.049,14.443,6.52,10.74,16.078c-13.127,33.85-26.435,67.631-39.678,101.436
		c-3.383,8.633-7.119,17.143-10.042,25.918c-1.374,4.128-3.4,5.391-7.449,5.209c-14.089-0.638-28.188-1.197-42.287-1.445
		c-2.529-0.046-5.085,1.531-7.628,2.356c1.872,1.863,3.737,3.724,5.625,5.574c0.177,0.17,0.486,0.203,0.724,0.319
		c18.608,9.271,19.577,12.233,11.654,31.253c-1.422,3.418-1.109,7.558-1.596,11.36c3.104-2.062,6.306-4.005,9.287-6.231
		c4.56-3.405,8.966-7.005,14.201-11.126c1.623,22.496-14.936,34.156-43.489,31.064c3.138-1.693,5.229-2.495,6.89-3.824
		c1.447-1.164,2.408-2.93,3.587-4.428c-1.668-0.871-3.327-2.498-5.001-2.512c-24.188-0.15-48.382-0.13-72.57,0.051
		c-1.689,0.014-3.366,1.609-5.049,2.477c1.188,1.496,2.165,3.26,3.621,4.434c1.582,1.268,3.61,1.998,7.468,4.022
		c-4.544,0.267-6.973,0.527-9.405,0.527c-29.057,0.026-58.119,0.233-87.17-0.202c-5.176-0.076-10.31-2.865-15.463-4.402
		C-751.527,140.094-751.527,136.891-751.527,133.696z M-710.502,132.327c0.842,0.801,1.685,1.602,2.528,2.402
		c2.66-1.888,5.531-3.528,7.94-5.69c16.821-15.092,17.068-15.34,34.346,0.494c0.386,0.358,0.595,1.036,1.028,1.199
		c2.392,0.911,4.833,1.712,7.255,2.552c-0.245-2.318,0.105-4.908-0.823-6.907c-10.586-22.711-10.173-23.915,12.279-35.928
		c1.709-0.911,2.63-3.295,3.92-4.993c-2.171-0.912-4.343-2.573-6.521-2.58c-5.019-0.02-10.052,1.205-15.065,1.134
		c-18.286-0.275-36.562-0.964-54.844-1.218c-1.912-0.033-3.849,1.765-5.769,2.708c1.322,1.68,2.344,3.796,4.03,4.936
		c3.28,2.201,7.087,3.621,10.405,5.781c9.499,6.193,10.146,8.171,6.254,18.757C-705.689,120.823-708.168,126.546-710.502,132.327z
		 M-491.005-25.196c-2.708-1.002-3.201-1.344-3.696-1.348c-25.242-0.152-50.485-0.321-75.727-0.293
		c-1.481,0-2.966,1.641-4.447,2.517c1.38,1.563,2.454,3.74,4.184,4.597c21.588,10.674,22.66,13.907,12.221,35.894
		c-0.99,2.083-0.121,5.049-0.115,7.601c2.331-1.068,5.243-1.578,6.904-3.294c16.109-16.608,20.595-16.632,36.481-0.14
		c1.677,1.742,4.521,2.357,6.826,3.497c-0.006-2.598,0.829-5.576-0.146-7.729c-10.42-22.977-10.043-24.165,12.24-35.845
		C-494.422-20.713-493.189-22.881-491.005-25.196z M-636.631,74.797c0.489,0.678,0.978,1.354,1.468,2.03
		c2.41-1.08,5.125-1.77,7.162-3.338c4.203-3.23,8.066-6.909,12.033-10.444c4.58-4.083,9.142-3.73,13.624,0.064
		c3.844,3.269,7.43,6.869,11.459,9.877c1.982,1.484,4.718,1.966,7.109,2.903c-0.07-2.304,0.388-4.792-0.322-6.888
		c-1.523-4.505-3.542-8.855-5.544-13.178c-3.128-6.765-1.179-11.847,4.96-15.555c5.618-3.399,11.314-6.667,18.936-11.14
		c-3.523-1.793-5.791-4.034-7.783-3.803c-23.882,2.741-47.716,2.79-71.583-0.116c-1.648-0.201-3.537,1.565-5.311,2.422
		c1.158,1.757,1.943,4.075,3.555,5.163c3.494,2.359,7.602,3.802,11.114,6.136c9.31,6.192,9.804,7.836,6,18.363
		C-631.881,63.195-634.33,68.97-636.631,74.797z M-524.176-41.19c0.049-7.845-3.641-13.383-9.148-13.725
		c-5.529-0.348-10.315,6-10.279,13.637c0.033,7.377,4.3,13.175,9.766,13.269C-528.286-27.917-524.229-33.458-524.176-41.19z
		 M-524.188,68.117c0.037-7.917-3.731-13.138-9.517-13.191c-5.855-0.052-9.854,5.183-9.898,12.97
		c-0.05,7.917,3.767,13.061,9.678,13.054C-527.747,80.95-524.225,76.308-524.188,68.117z M-619.254,121.76
		c0,7.592,4.111,13.341,9.607,13.432c5.31,0.084,10.101-6.1,10.128-13.08c0.026-7.613-4.717-14.045-10.19-13.811
		C-615.215,108.542-619.254,114.232-619.254,121.76z M-599.526,10.708c-0.08-6.979-4.963-13.135-10.247-12.924
		c-5.564,0.222-9.504,5.883-9.426,13.542c0.078,7.583,4.199,13.315,9.617,13.372C-604.132,24.756-599.438,18.222-599.526,10.708z
		 M-673.147,68.957c0.163-6.94-4.313-13.197-9.721-13.6c-5.462-0.397-10.045,5.266-10.339,12.781
		c-0.279,7.245,4.574,14.142,9.946,14.114C-678.17,82.239-673.312,75.845-673.147,68.957z"/>
	<g>
		<path fill-rule="evenodd" clip-rule="evenodd" fill="#F9F9F9" d="M-418.856,283.805c-1.924,2.889-3.966,5.705-5.752,8.676
			c-6.264,10.439-12.501,20.895-18.589,31.439c-0.967,1.674-1.523,3.82-1.553,5.756c-0.149,10.434-0.067,20.869-0.067,31.309
			c0,0.961,0,1.918,0,3.02c-4.679,0-9.064,0-13.719,0c-0.078-1.441-0.217-2.799-0.217-4.15c-0.02-10.039,0.114-20.084-0.105-30.123
			c-0.053-2.4-0.803-5.031-2.001-7.113c-5.442-9.473-11.314-18.699-16.715-28.193c-2.816-4.945-6.664-7.656-12.49-7.859
			c0,4.826,0,9.67,0,14.736c-1.291,0-2.693,0-4.425,0c0-1.166,0.058-2.322-0.01-3.471c-0.274-4.635-3.785-8.055-8.371-8.107
			c-3.795-0.045-7.595-0.01-11.604-0.01c0,24.844,0,49.428,0,74.426c-4.396,0-8.588,0.092-12.772-0.113
			c-0.533-0.031-1.403-1.641-1.413-2.521c-0.101-9.549-0.062-19.1-0.062-28.648c0-14.271,0-28.537,0-43.541
			c-4.804,0.309-9.491,0.217-14.025,1.014c-3.747,0.664-5.127,4.148-5.343,7.541c-0.223,3.516-2.055,3.352-4.41,2.918
			c0-6.021,0-11.889,0-18.164c1.414,0,2.554,0,3.693,0c25.696,0,51.393,0.057,77.091-0.08c2.875-0.018,4.352,0.902,5.697,3.328
			c5.352,9.623,10.901,19.129,16.397,28.674c0.462,0.809,1.043,1.553,1.701,2.523c5.709-9.639,11.57-18.84,16.682-28.441
			c2.486-4.672,5.332-7.045,10.612-6.02c0.572,0.111,1.18,0.016,1.77,0.016C-418.856,283.016-418.856,283.41-418.856,283.805z"/>
		<path fill-rule="evenodd" clip-rule="evenodd" fill="#F9F9F9" d="M-750.333,281.443c3.274,1.121,6.631,2.062,9.814,3.404
			c6.817,2.861,10.891,8.439,13.093,15.143c3.693,11.248,4.016,22.854,2.641,34.578c-0.861,7.352-2.438,14.361-7.069,20.387
			c-4.034,5.236-9.434,7.838-15.781,9.348c-6.915,1.645-13.723,1.357-20.397-0.277c-9.916-2.424-16.638-8.881-19.417-18.688
			c-4.149-14.629-4.179-29.496,0.019-44.08c2.919-10.158,9.732-16.85,20.586-18.719c1.004-0.174,1.947-0.725,2.918-1.096
			C-759.396,281.443-754.868,281.443-750.333,281.443z M-737.874,326.094c-0.51-7.631-0.812-13.113-1.25-18.584
			c-0.899-11.066-6.136-17.502-16.363-19.201c-5.525-0.916-10.603,0.818-14.325,5.393c-3.924,4.82-5.356,10.688-5.79,16.568
			c-0.774,10.441-1.01,20.902,0.962,31.342c1.914,10.121,7.987,16.297,17.21,16.797c10.194,0.549,15.334-5.723,17.013-13.492
			C-738.942,338.078-738.508,331.014-737.874,326.094z"/>
		<path fill-rule="evenodd" clip-rule="evenodd" fill="#F9F9F9" d="M-815.921,281.443c2.675,0.447,5.357,0.836,8.012,1.369
			c1.231,0.246,2.409,0.764,3.654,1.18c0,3.08,0,6.096,0,9.424c-2.904-1.049-5.582-2.08-8.309-2.986
			c-5.217-1.73-10.517-2.789-16.075-1.947c-5.703,0.863-9.56,6.562-8.257,12.314c1.256,5.529,5.241,8.686,9.776,11.316
			c6.241,3.625,12.81,6.75,18.778,10.775c12.574,8.486,12.786,24.146,4.779,33.518c-3.856,4.518-9.151,6.473-14.853,7.84
			c-7.574,1.812-15.018,0.932-22.5-0.115c-2.308-0.324-4.568-0.986-6.852-1.482c-1.794-0.385-2.573-1.326-2.434-3.293
			c0.188-2.615,0.049-5.256,0.049-7.623c5.462,2.029,10.654,4.402,16.099,5.857c5.198,1.391,10.747,1.738,15.762-0.869
			c6.66-3.467,7.958-13.699,2.77-19.668c-3.852-4.428-9.141-6.688-14.046-9.572c-4.996-2.941-10.126-5.814-14.579-9.467
			c-5.938-4.869-7.833-11.652-6.606-19.217c1.245-7.664,5.789-12.541,13.016-15.047c2.337-0.807,4.693-1.543,7.045-2.307
			C-825.769,281.443-820.844,281.443-815.921,281.443z"/>
		<path fill-rule="evenodd" clip-rule="evenodd" fill="#F9F9F9" d="M-674.112,281.443c3.438,1.174,7.049,1.988,10.271,3.602
			c6.02,3.018,9.737,7.848,10.006,15.289c-4.673,0-9.169,0.059-13.661-0.07c-0.591-0.02-1.553-0.934-1.674-1.562
			c-0.995-5.283-3.827-8.969-9.15-10.117c-7.006-1.508-12.997,0.33-16.989,6.602c-3.034,4.77-4.227,10.156-4.861,15.76
			c-0.914,8.068-0.625,16.076,0.644,24.045c1.024,6.41,2.914,12.527,7.501,17.465c4.463,4.805,10.084,6.092,16.412,5.971
			c6.944-0.133,13.166-2.139,18.877-5.98c0.212-0.139,0.554-0.088,1.247-0.184c0,2.578,0.148,5.072-0.097,7.529
			c-0.067,0.656-1.274,1.502-2.097,1.723c-10.222,2.697-20.373,4.924-31.192,2.975c-14.618-2.633-21.792-13.162-24.292-25.199
			c-1.942-9.332-2.227-18.738-1.005-28.096c1.216-9.285,3.885-18.264,12.243-23.871c3.202-2.152,7.155-3.191,10.771-4.73
			c0.948-0.4,1.909-0.77,2.866-1.148C-683.566,281.443-678.84,281.443-674.112,281.443z"/>
		<path fill-rule="evenodd" clip-rule="evenodd" fill="#F9F9F9" d="M-626.253,281.443c-0.066,2.438-0.188,4.879-0.192,7.316
			c-0.015,23.52-0.006,47.039-0.019,70.562c0,1.543-0.164,3.092-0.26,4.729c-4.685,0-9.089,0-13.72,0
			c-0.097-1.141-0.26-2.195-0.26-3.252c-0.015-20.566-0.004-41.139-0.024-61.707c0-1.664-0.125-3.336-0.269-4.998
			c-0.336-3.832-1.76-5.184-5.698-5.559c-1.159-0.111-2.313-0.352-3.477-0.436c-1.611-0.117-2.577-0.68-2.385-2.533
			c0.198-1.857,1.481-1.662,2.785-1.785c6.048-0.564,12.088-1.209,18.129-1.848c0.234-0.025,0.442-0.324,0.663-0.49
			C-629.401,281.443-627.825,281.443-626.253,281.443z"/>
		<path fill-rule="evenodd" clip-rule="evenodd" fill="#F9F9F9" d="M-561.597,345.613c1.317,0,2.452,0,3.511,0
			c0,6.236,0,12.271,0,18.547c-4.593,0-8.814,0-13.038,0c-10.727,0-21.46-0.098-32.188,0.066c-2.755,0.039-3.482-0.793-3.471-3.471
			c0.085-22.346,0.048-44.691,0.022-67.037c-0.004-4.268-1.558-5.885-5.86-6.389c-0.861-0.1-1.713-0.367-2.554-0.598
			c-2.779-0.764-2.779-0.771-2.091-4.109c0.898,0,1.855,0,2.816,0c17.129,0,34.257,0.074,51.384-0.07
			c2.985-0.027,3.684,1.02,3.592,3.736c-0.163,4.992-0.044,9.998-0.044,15.119c-1.475,0-2.711,0-3.837,0
			c-0.695-2.588-1.071-5.221-2.12-7.547c-1.192-2.643-3.669-4.057-6.596-4.113c-5.503-0.111-11.013,0.053-16.519-0.082
			c-2.232-0.053-3.259,0.928-3.674,2.922c-0.097,0.479-0.254,0.963-0.254,1.445c-0.02,7.865-0.016,15.727-0.016,23.975
			c5.834,0,11.521,0.359,17.144-0.135c3.39-0.299,5.241-3.268,5.73-6.582c0.308-2.084,1.361-2.596,3.174-2.496
			c2.294,0.121,1.602,1.867,1.611,3.084c0.058,6.891,0.005,13.783,0.048,20.674c0.01,1.549-0.096,2.611-2.135,2.635
			c-1.866,0.023-2.295-0.77-2.49-2.404c-0.688-5.66-2.544-7.424-8.295-7.633c-4.79-0.17-9.593-0.031-14.781-0.031
			c0,3.025,0,5.842,0,8.664c0,5.805-0.034,11.611,0.01,17.422c0.037,4.93,1,5.867,5.755,5.871c5.313,0,10.628,0.004,15.944-0.004
			c4.65-0.008,6.594-1.512,7.886-6.146C-562.453,349.229-562.069,347.512-561.597,345.613z"/>
	</g>
	<g>
		<path fill-rule="evenodd" clip-rule="evenodd" fill="#F9F9F9" d="M-739.998,180.689c-0.092,1.657-0.259,3.314-0.262,4.972
			c-0.02,15.649-0.094,31.3,0.036,46.949c0.039,4.486,0.355,9.026,1.137,13.436c1.328,7.513,6.227,11.914,15.666,11.667
			c6.028-0.156,11.802-1.092,14.578-7.127c1.54-3.348,2.375-7.299,2.441-10.996c0.325-18.104,0.283-36.21,0.384-54.314
			c0.006-1.063,0.113-2.125,0.177-3.25c3.212,0,6.222,0,9.543,0c0,1.206,0,2.264,0,3.317c-0.002,15.061,0.214,30.125-0.11,45.176
			c-0.137,6.304-0.85,12.719-2.321,18.841c-1.975,8.227-8.508,12.385-16.458,14.096c-6.84,1.473-13.577,1.459-20.417,0.002
			c-8.57-1.828-14.745-6.338-17.288-15.313c-1.021-3.605-1.236-7.523-1.279-11.306c-0.147-12.694-0.054-25.394-0.054-38.09
			c0-0.493,0.008-0.983-0.017-1.476c-0.409-7.969-0.697-8.286-8.555-9.571c-0.481-0.078-0.942-0.359-1.42-0.379
			c-1.658-0.072-2.472-1.044-1.954-2.475c0.28-0.775,1.465-1.622,2.327-1.728c5.93-0.726,11.883-1.251,17.824-1.878
			c0.447-0.047,0.864-0.362,1.294-0.554C-743.15,180.689-741.574,180.689-739.998,180.689z"/>
		<path fill-rule="evenodd" clip-rule="evenodd" fill="#F9F9F9" d="M-550.328,180.689c2.443,0.426,4.899,0.794,7.325,1.298
			c1.241,0.258,2.428,0.764,3.765,1.196c0,3.021,0,6.04,0,9.445c-2.9-1.058-5.622-2.156-8.411-3.046
			c-4.938-1.574-9.942-2.339-15.203-2.009c-8.288,0.521-11.459,10.737-7.106,16.663c2.094,2.855,5.176,5.187,8.219,7.105
			c6.018,3.795,12.561,6.781,18.446,10.754c10.769,7.268,13.363,20.595,6.521,31.485c-3.604,5.743-9.416,8.153-15.609,9.805
			c-7.866,2.1-15.773,1.137-23.65-0.02c-2.208-0.324-4.375-0.941-6.56-1.439c-1.656-0.381-2.437-1.291-2.326-3.133
			c0.158-2.623,0.041-5.265,0.041-8.089c4.068,1.75,7.765,3.545,11.605,4.942c5.979,2.172,12.073,2.756,18.366,1.026
			c7.905-2.176,10.013-14.542,4.443-20.489c-4.556-4.864-10.471-7.446-16.097-10.537c-5.718-3.146-11.286-6.354-15.464-11.608
			c-6.584-8.277-5.745-26.276,9.463-31.041c2.484-0.778,4.973-1.539,7.46-2.31C-560.176,180.689-555.251,180.689-550.328,180.689z"
			/>
		<path fill-rule="evenodd" clip-rule="evenodd" fill="#F9F9F9" d="M-594.645,180.689c0,27.437,0,54.872,0,82.512
			c-4.517,0-8.889,0-13.619,0c-0.095-1.283-0.275-2.607-0.275-3.93c-0.021-17.51,0.001-35.022-0.024-52.535
			c-0.009-4.225-0.313-8.455-0.192-12.675c0.112-3.931-1.312-5.45-6.044-6.271c-1.151-0.201-2.432-0.077-3.442-0.551
			c-0.929-0.435-1.578-1.473-2.353-2.245c0.898-0.647,1.739-1.747,2.701-1.867c5.927-0.744,11.88-1.258,17.82-1.883
			c0.446-0.048,0.864-0.364,1.295-0.557C-597.401,180.689-596.021,180.689-594.645,180.689z"/>
		<path fill-rule="evenodd" clip-rule="evenodd" fill="#F9F9F9" d="M-480.845,246.441c3.131-8.911,6.095-17.353,9.065-25.793
			c4.333-12.294,8.646-24.596,13.057-36.86c0.278-0.778,1.306-1.809,2.011-1.829c5.099-0.157,10.2-0.084,15.673-0.084
			c0,1.482,0,2.728,0,3.974c0,24.616-0.048,49.236,0.063,73.853c0.014,2.963-0.722,4.061-3.786,3.764
			c-2.918-0.281-5.885-0.059-9.256-0.059c0-22.47,0-44.809,0-67.147c-0.254-0.043-0.515-0.085-0.768-0.127
			c-1.648,4.491-3.347,8.965-4.938,13.476c-4.21,11.925-8.379,23.864-12.55,35.802c-1.826,5.232-3.655,10.46-5.398,15.719
			c-0.537,1.617-1.345,2.311-3.165,2.324c-6.759,0.045-6.78,0.123-9.058-6.33c-7.06-20.013-14.098-40.032-21.151-60.046
			c-0.062-0.175-0.228-0.313-0.678-0.905c0,22.548,0,44.661,0,67.004c-2.917,0-5.51,0-8.378,0c-0.042-0.891-0.127-1.836-0.129-2.781
			c-0.005-20.78-0.003-41.555-0.005-62.334c0-0.982,0.089-1.987-0.072-2.948c-0.911-5.446-0.036-7.476-7.94-8.601
			c-1.232-0.174-2.406-0.78-3.653-1.204c0-1.113,0-2.15,0-3.431c8.896,0,17.642-0.03,26.388,0.068
			c0.615,0.006,1.541,0.854,1.778,1.507c2.839,7.771,5.566,15.586,8.338,23.38c4.466,12.555,8.938,25.102,13.427,37.648
			C-481.779,245.012-481.406,245.477-480.845,246.441z"/>
		<path fill-rule="evenodd" clip-rule="evenodd" fill="#F9F9F9" d="M-760.223,263.402c-3.901,0-7.738,0.148-11.546-0.113
			c-0.839-0.059-1.931-1.449-2.304-2.449c-2.521-6.748-4.841-13.573-7.349-20.33c-0.291-0.785-1.336-1.825-2.044-1.833
			c-9.44-0.12-18.88-0.083-28.302-0.083c-3.001,8.312-5.943,16.457-8.917,24.693c-2.586,0-5.12,0-8.303,0
			c1.066-3.195,1.984-6.178,3.052-9.108c7.135-19.569,14.306-39.124,21.441-58.692c0.469-1.283,0.789-2.629,1.093-3.966
			c0.562-2.474-0.699-4.332-3.251-4.924c-1.787-0.414-3.567-0.856-5.383-1.295c0-1.165,0-2.128,0-3.42
			c7.317,0,14.575-0.038,21.831,0.072c0.585,0.008,1.441,0.937,1.687,1.609c4.021,11.067,7.936,22.17,11.931,33.245
			c3.732,10.337,7.523,20.654,11.3,30.977c1.672,4.571,3.394,9.123,5.041,13.699C-760.066,261.986-760.223,262.613-760.223,263.402z
			 M-784.702,231.435c-4.236-10.863-8.325-21.352-12.641-32.418c-4.1,11.245-7.929,21.741-11.822,32.418
			C-800.952,231.435-793.089,231.435-784.702,231.435z"/>
		<path fill-rule="evenodd" clip-rule="evenodd" fill="#F9F9F9" d="M-625.28,200.679c-1.22,0-2.38,0-3.519,0
			c-0.448-2.182-0.746-4.304-1.334-6.343c-0.937-3.253-3.453-4.821-6.597-5.328c-1.831-0.293-3.73-0.194-5.599-0.221
			c-2.062-0.03-4.125-0.008-6.699-0.008c0,1.248,0,2.37,0,3.492c0,22.447,0.001,44.893,0,67.339
			c-0.002,3.791-0.007,3.795-3.902,3.795c-3.323,0.002-6.646,0-10.181,0c0-24.846,0-49.422,0-74.799
			c-4.958,0.267-9.751,0.09-14.37,0.903c-4.203,0.744-5.012,4.745-5.759,8.353c-0.135,0.649-0.121,1.334-0.188,2.164
			c-1.455,0-2.77,0-3.892,0c0-6.098,0-12.017,0-18.033c20.879,0,41.227,0,62.04,0C-625.28,188.186-625.28,194.311-625.28,200.679z"
			/>
	</g>
</g>
<g>
	<path fill-rule="evenodd" clip-rule="evenodd" fill="#F9F9F9" d="M143.752,150.937c0.2,1.769-0.637,2.681-2.131,3.698
		c-1.954,1.331-3.656,3.185-5.094,5.094c-4.342,5.765-7.53,12.224-10.479,18.768c-9.72,21.565-19.319,43.184-28.964,64.783
		c-0.931,2.085-1.944,4.139-2.752,6.271c-0.497,1.31-1.468,0.886-2.355,1.016c-0.943,0.138-1.146-0.471-1.4-1.135
		c-4.509-11.735-9.026-23.468-13.542-35.201c-0.188-0.49-0.393-0.973-0.705-1.744c-1.104,2.226-2.077,4.175-3.038,6.131
		c-5.054,10.291-10.136,20.566-15.115,30.893c-0.628,1.305-1.537,0.932-2.466,1.054c-0.924,0.121-1.138-0.478-1.421-1.134
		c-12.242-28.409-24.479-56.82-36.769-85.208c-1.065-2.459-2.365-4.839-3.779-7.117c-1.066-1.719-2.662-2.975-4.742-3.423
		c0-0.897,0-1.794,0-2.745c1.372,0,2.744,0,4.116,0c1.444,0.141,2.891,0.419,4.333,0.396c4.137-0.066,8.272-0.255,12.409-0.396
		c1.281,0,2.562,0,3.842,0c0.09,2.308,0.09,2.308-1.933,3.005c-2.461,0.848-3.196,2.062-2.516,4.617
		c0.469,1.759,1.116,3.481,1.817,5.166c8.544,20.534,17.112,41.059,25.676,61.585c1.027,2.46,2.064,4.917,3.185,7.587
		c0.308-0.572,0.508-0.918,0.685-1.277c3.958-8.077,7.887-16.169,11.897-24.22c0.562-1.129,0.624-2.02,0.122-3.181
		c-3.408-7.877-6.741-15.787-10.099-23.685c-3.017-7.098-6.039-14.194-9.047-21.296c-1.091-2.577-2.813-4.444-5.581-5.245
		c-2.308-0.667-2.3-0.694-2.406-3.056c1.372,0,2.744,0,4.116,0c1.538,0.142,3.078,0.421,4.613,0.398
		c4.227-0.065,8.452-0.256,12.677-0.398c1.464,0,2.928,0,4.392,0c-0.052,0.771,0.176,1.79-0.229,2.246
		c-0.45,0.506-1.482,0.484-2.253,0.717c-2.375,0.719-3.153,1.887-2.713,4.125c0.149,0.76,0.332,1.524,0.61,2.244
		c4.167,10.772,8.355,21.538,12.534,32.306c0.067,0.172,0.085,0.362,0.135,0.588c0.332-0.391,0.408-0.451,0.445-0.53
		c4.508-9.642,9.089-19.25,13.45-28.959c0.804-1.79,0.873-3.97,0.99-5.988c0.092-1.577-0.849-2.917-2.386-3.328
		c-1.89-0.506-2.69-1.525-2.468-3.422c1.189,0,2.378,0,3.568,0c1.537,0.159,3.077,0.47,4.61,0.444
		c3.313-0.056,6.624-0.286,9.936-0.444c1.189,0,2.378,0,3.568,0c0.024,0.227,0.105,0.465,0.061,0.677
		c-0.145,0.708,0.513,1.725-0.782,2.004c-1.996,0.43-3.714,1.471-4.939,3.026c-1.997,2.533-4.155,5.051-5.577,7.908
		c-5.797,11.656-11.35,23.434-16.945,35.19c-0.249,0.522-0.221,1.351,0.008,1.899c4.077,9.736,8.205,19.45,12.329,29.166
		c0.125,0.293,0.326,0.555,0.577,0.975c0.255-0.531,0.419-0.854,0.567-1.185c9.336-20.93,18.709-41.844,27.954-62.814
		c1.011-2.294,1.521-4.883,1.849-7.389c0.536-4.089-0.622-5.628-4.573-6.591c-1.011-0.247-1.415-0.638-1.276-1.638
		c0.056-0.405,0.054-0.818,0.079-1.227c1.281,0,2.561,0,3.842,0c1.58,0.159,3.164,0.473,4.741,0.446
		c3.544-0.059,7.085-0.287,10.628-0.446C141.008,150.937,142.379,150.937,143.752,150.937z"/>
	<path fill-rule="evenodd" clip-rule="evenodd" fill="#F9F9F9" d="M503,264.007c-0.823,0.271-1.649,0.532-2.468,0.815
		c-2.301,0.795-3.435,2.461-3.562,4.849c-0.046,0.867-0.05,1.738-0.05,2.606c-0.004,17.747-0.003,35.494-0.003,53.241
		c0,0.542,0,1.087,0,1.688c-1.189,0.337-2.051,0.236-2.964-0.72c-14.74-15.446-29.523-30.853-44.297-46.268
		c-0.613-0.641-1.225-1.286-2.14-1.784c0,0.479,0,0.962,0,1.444c0.014,11.982,0.018,23.968,0.052,35.949
		c0.005,1.367,0.142,2.738,0.299,4.099c0.345,2.966,1.929,4.896,4.908,5.49c1.155,0.229,1.414,0.797,1.058,1.815
		c-9.998,0-19.967,0-29.949,0c-0.364-0.956-0.085-1.588,0.774-2.18c2.635-1.815,2.789-2.374,1.702-5.378
		c-1.181-3.268-2.425-6.516-3.572-9.794c-0.312-0.896-0.771-1.15-1.693-1.146c-7.776,0.038-15.552,0.033-23.327,0.004
		c-0.849-0.004-1.313,0.19-1.583,1.068c-0.99,3.223-2.292,6.369-3.037,9.644c-0.779,3.431-0.085,4.321,3.027,6.023
		c0.461,0.253,0.646,1.01,1.091,1.758c-8.358,0-16.242,0-24.205,0c0-0.484-0.205-1.175,0.036-1.416
		c0.974-0.967,0.296-1.664-0.26-2.35c-5.359-6.604-10.706-13.218-16.125-19.772c-2.262-2.736-5.182-4.394-9.002-4.746
		c0,0.554,0,0.994,0,1.434c0,6.54-0.01,13.082,0.014,19.621c0.004,0.815,0.1,1.652,0.311,2.437c0.527,1.959,1.783,3.151,3.935,3.335
		c0,0.505,0,0.984,0,1.456c-5.291,0-10.524,0-15.912,0c-0.021-0.396-0.048-0.869-0.073-1.318c3.185-0.896,4.349-2.347,4.334-5.666
		c-0.058-13.262-0.151-26.521-0.265-39.784c-0.033-3.973-0.06-7.955-0.306-11.92c-0.175-2.829-1.18-3.806-3.992-4.396
		c-1.15-0.241-0.856-0.915-0.786-1.704c3.316-0.129,6.593-0.229,9.866-0.393c5.254-0.259,10.508-0.536,15.705,0.585
		c5.823,1.255,11.023,3.599,13.995,9.121c3.269,6.075,4,15.391-4.304,21.803c-2.632,2.033-5.572,3.436-8.975,4.427
		c1.141,1.367,2.168,2.615,3.217,3.849c5.747,6.758,11.491,13.519,17.263,20.255c0.648,0.757,1.475,1.36,2.206,2.046
		c0.597,0.559,1.23,0.498,1.642-0.107c1.066-1.567,2.303-3.091,3.006-4.822c3.663-9.012,7.181-18.081,10.75-27.134
		c3.901-9.894,7.806-19.788,11.701-29.685c0.234-0.594,0.344-1.15,1.241-1.152c0.928-0.002,0.996,0.605,1.202,1.188
		c6.525,18.49,13.051,36.981,19.577,55.472c0.828,2.35,1.761,4.628,3.911,6.138c2.075,1.456,4.28,0.931,5.245-1.47
		c0.479-1.192,0.65-2.573,0.676-3.875c0.082-4.161,0.03-8.324,0.03-12.485c0-13.997,0-27.993,0-41.99c0-0.543,0-1.088,0-1.682
		c1.25-0.362,2.104-0.114,3.014,0.871c9.433,10.204,18.896,20.38,28.407,30.511c5.664,6.032,11.429,11.971,17.141,17.959
		c0.439,0.46,0.823,0.972,1.482,1.753c0.096-0.771,0.173-1.099,0.172-1.427c-0.014-11.708,0.004-23.418-0.087-35.125
		c-0.02-2.455-0.377-4.916-0.703-7.357c-0.396-2.957-2.089-4.835-5.067-5.343c-1.27-0.214-1.441-0.833-1.082-2.012
		c5.59,0,11.195,0,16.8,0C503,262.91,503,263.458,503,264.007z M348.094,281.048c-0.128,0-0.256,0-0.384,0
		c0,4.574,0.006,9.146-0.006,13.718c-0.002,0.63-0.011,1.171,0.811,1.305c6.429,1.055,12.262-0.033,16.763-5.097
		c4.206-4.73,4.697-13.133,1.222-18.941c-3.566-5.961-9.174-7.724-15.722-7.319c-2.206,0.137-2.647,0.605-2.669,2.774
		C348.062,272.008,348.094,276.527,348.094,281.048z M398.112,304.818c7.752,0,15.305,0,22.993,0
		c-3.589-10.019-7.129-19.899-10.81-30.174C406.143,284.933,402.151,294.815,398.112,304.818z"/>
	<path fill-rule="evenodd" clip-rule="evenodd" fill="#F9F9F9" d="M117.131,360.062c-1.888-0.266-3.768-0.661-5.666-0.772
		c-3.694-0.215-7.398-0.373-11.098-0.373c-9.6-0.002-19.199,0.073-28.799,0.161c-4.662,0.04-9.322,0.174-13.983,0.264
		c-0.493,0.009-0.986,0.002-1.57,0.002c0-0.887,0-1.633,0-2.361c4.549-0.976,6.367-3.396,6.372-8.482
		c0.011-13.126,0.055-26.254-0.013-39.38c-0.05-9.646-0.206-19.292-0.427-28.937c-0.064-2.778-0.419-5.559-0.818-8.314
		c-0.692-4.767-1.833-5.937-6.649-7.183c0-0.715,0-1.457,0-2.096c8.42,0,16.797,0,25.276,0c0,0.545,0,1.253,0,1.997
		c-0.09,0.052-0.198,0.152-0.319,0.172c-3.285,0.527-5.22,2.22-5.671,5.572c-0.382,2.839-0.381,5.735-0.436,8.61
		c-0.256,13.392-0.654,26.783-0.647,40.175c0.005,11.424,0.494,22.848,0.772,34.272c0.004,0.172,0.049,0.346,0.097,0.672
		c0.518,0,1.006,0,1.494,0c8.645,0,17.29,0.04,25.934-0.029c2.088-0.018,4.208-0.236,6.254-0.652
		c4.749-0.965,8.048-3.917,10.372-8.062c0.465-0.831,0.905-1.677,1.41-2.615c0.711,0.222,1.387,0.434,2.207,0.692
		c-1.195,5.624-2.369,11.145-3.543,16.668C117.497,360.062,117.314,360.062,117.131,360.062z"/>
	<path fill-rule="evenodd" clip-rule="evenodd" fill="#F9F9F9" d="M503,184.968c-5.545,1.72-6.083,2.447-6.083,8.228
		c0,17.792,0,35.583,0,53.375c0,0.541,0,1.081,0,1.611c-1.455,0.498-2.338-0.062-3.28-1.054
		c-9.52-10.001-19.091-19.952-28.642-29.922c-5.407-5.645-10.807-11.297-16.199-16.957c-0.312-0.328-0.53-0.748-0.793-1.124
		c-0.116,0.071-0.232,0.142-0.348,0.213c-0.046,0.285-0.132,0.57-0.132,0.855c0.006,12.577,0.012,25.154,0.047,37.731
		c0.004,1.091,0.171,2.188,0.323,3.271c0.397,2.812,2,4.563,4.782,5.118c1.186,0.235,1.532,0.803,1.193,1.847
		c-5.568,0-11.118,0-16.72,0c-0.239-0.867-0.167-1.476,1.007-1.839c3.762-1.164,4.706-2.544,4.707-6.506
		c0.004-18.203,0.002-36.406,0.002-54.609c0-0.544,0-1.088,0-1.667c1.219-0.417,2.106-0.27,2.957,0.728
		c12.377,14.521,26.1,27.783,39.121,41.701c2.217,2.371,4.48,4.698,6.694,7.072c0.392,0.421,0.639,0.978,0.953,1.472
		c0.164-0.128,0.328-0.256,0.493-0.383c0.02-0.436,0.059-0.871,0.059-1.307c-0.018-11.205,0.008-22.41-0.092-33.613
		c-0.024-2.821-0.361-5.649-0.714-8.453c-0.378-2.992-2.067-4.938-5.117-5.464c-1.185-0.204-1.391-0.792-0.993-1.97
		c5.567,0,11.17,0,16.773,0C503,183.87,503,184.419,503,184.968z"/>
	<path fill-rule="evenodd" clip-rule="evenodd" fill="#F9F9F9" d="M147.104,262.573c5.438,0,10.854,0,16.352,0
		c0.295,0.869,0.155,1.418-1.032,1.713c-1.994,0.496-2.625,2.183-2.75,3.989c-0.165,2.367-0.176,4.748-0.19,7.125
		c-0.051,9.146-0.08,18.291-0.113,27.438c-0.021,5.668-0.046,11.339-0.054,17.01c-0.005,3.873,1.275,5.352,5.177,5.975
		c0.03,0.243,0.085,0.507,0.091,0.771c0.004,0.217-0.048,0.433-0.074,0.639c-4.561,0-9.052,0-13.303,0
		c0.226-2.361,0.455-4.746,0.684-7.132c-0.138-0.058-0.276-0.116-0.414-0.174c-1.128,0.732-2.253,1.47-3.385,2.195
		c-4.655,2.984-9.504,5.574-15.099,6.173c-7.923,0.845-15.171-0.689-20.746-6.895c-3.871-4.306-5.458-9.574-5.539-15.261
		c-0.168-11.84-0.207-23.681-0.297-35.522c-0.002-0.184,0.002-0.366-0.001-0.548c-0.073-3.766-1.158-5.172-4.803-6.144
		c0-0.454,0-0.932,0-1.352c5.661,0,11.305,0,17.042,0c0,0.357,0,0.831,0,1.298c-3.728,1.302-4.279,2.128-4.308,6.211
		c-0.082,11.703-0.196,23.406-0.26,35.112c-0.02,3.721,0.811,7.265,2.753,10.47c2.794,4.607,6.997,7.25,12.273,7.817
		c6.656,0.715,12.892-0.835,18.564-4.456c0.728-0.464,1.396-1.031,2.051-1.599c1.64-1.425,2.355-3.066,2.176-5.405
		c-0.307-4.002-0.139-8.04-0.153-12.062c-0.038-9.879-0.05-19.757-0.117-29.634c-0.008-1.172-0.171-2.376-0.483-3.506
		c-0.391-1.414-1.39-2.388-2.9-2.575C147.086,264.099,146.768,263.562,147.104,262.573z"/>
	<path fill-rule="evenodd" clip-rule="evenodd" fill="#F9F9F9" d="M237.327,325.845c0,0.561,0,0.965,0,1.38
		c-4.643,0-9.233,0-13.941,0c-0.216-0.682-0.291-1.173,0.659-1.731c0.911-0.535,1.763-1.487,2.185-2.454
		c0.474-1.088,0.594-2.398,0.598-3.611c0.04-11.847,0.105-23.694-0.012-35.538c-0.056-5.523-0.389-11.049-0.807-16.56
		c-0.195-2.577-1.061-3.183-3.533-3.401c-0.046-0.229-0.12-0.479-0.14-0.734c-0.018-0.219,0.025-0.442,0.038-0.619
		c5.292,0,10.526,0,15.886,0c0.241,0.771,0.272,1.421-0.982,1.676c-1.884,0.382-2.667,1.867-2.896,3.584
		c-0.205,1.532-0.212,3.101-0.218,4.65c-0.021,6.263-0.009,12.525-0.009,18.919c13.918,0,27.926,0,42.141,0
		c0-0.455,0.005-0.939,0-1.425c-0.069-6.903-0.111-13.807-0.223-20.71c-0.039-2.426-0.642-4.543-3.479-5.206
		c-0.354-0.081-0.534-0.9-0.854-1.488c5.62,0,10.89,0,16.23,0c0,0.371,0,0.807,0,1.233c-2.967,0.658-3.455,1-3.773,4.104
		c-0.387,3.769-0.627,7.567-0.651,11.355c-0.091,13.4-0.079,26.801-0.052,40.201c0.003,1.256,0.187,2.591,0.656,3.739
		c0.365,0.894,1.176,1.793,2.024,2.249c0.93,0.498,0.996,0.984,0.764,1.767c-4.633,0-9.224,0-13.881,0
		c-0.293-0.769-0.255-1.302,0.729-1.744c0.686-0.311,1.388-0.999,1.671-1.687c0.457-1.114,0.794-2.365,0.804-3.562
		c0.068-7.821,0.02-15.643,0.053-23.464c0.004-1.021-0.206-1.432-1.352-1.428c-13.219,0.04-26.437,0.024-39.655,0.029
		c-0.358,0-0.715,0.047-1.213,0.083c-0.033,0.524-0.089,1.007-0.09,1.489c-0.005,7.594-0.012,15.186,0.008,22.779
		c0.002,0.861,0.089,1.737,0.261,2.584C234.621,324.02,235.484,325.353,237.327,325.845z"/>
	<path fill-rule="evenodd" clip-rule="evenodd" fill="#F9F9F9" d="M328.813,248.161c-5.614,0-11.123,0-16.688,0
		c-0.419-1.087,0.083-1.576,1.215-1.926c3.367-1.04,4.239-2.226,4.437-5.709c0.037-0.639,0.062-1.279,0.062-1.918
		c0.004-17.792,0.004-35.583,0.004-53.375c0-0.583,0-1.167,0-1.718c1.337-0.424,2.164-0.075,3.027,0.853
		c10.581,11.381,21.193,22.734,31.828,34.065c4.632,4.934,9.338,9.793,13.992,14.706c0.333,0.352,0.506,0.856,0.752,1.29
		c0.183-0.127,0.363-0.254,0.545-0.381c0.023-0.473,0.069-0.945,0.069-1.418c0.005-10.291,0.055-20.582-0.025-30.872
		c-0.026-3.465-0.301-6.936-0.62-10.389c-0.305-3.297-1.965-5.562-5.431-6.121c-1.214-0.195-1.118-0.925-0.897-1.74
		c5.587,0,11.091,0,16.695,0c0.272,0.868,0.226,1.467-0.962,1.813c-3.963,1.157-4.967,2.533-4.99,6.734
		c-0.033,5.9-0.01,11.8-0.01,17.701c0,12.257,0,24.515,0,36.772c0,0.543,0,1.086,0,1.678c-1.277,0.359-2.144,0.063-3.05-0.887
		c-14.859-15.584-29.76-31.128-44.644-46.688c-0.44-0.459-0.804-0.991-1.204-1.488c-0.133,0.063-0.266,0.126-0.398,0.189
		c-0.035,0.366-0.1,0.732-0.1,1.098c-0.004,11.663-0.022,23.326,0.015,34.989c0.007,1.867,0.213,3.739,0.406,5.6
		c0.299,2.89,1.905,4.637,4.742,5.312C328.968,246.662,328.954,246.72,328.813,248.161z"/>
	<path fill-rule="evenodd" clip-rule="evenodd" fill="#F9F9F9" d="M279.374,182.235c19.064-0.006,33.32,14.315,33.324,33.475
		c0.004,19.447-14.177,33.748-33.462,33.745c-19.066-0.003-33.103-14.404-33.091-33.951
		C246.156,196.535,260.433,182.241,279.374,182.235z M254.854,216.561c0.09,1.34,0.142,3.402,0.392,5.44
		c0.233,1.899,0.59,3.793,1.042,5.654c2.68,11.042,9.398,17.418,20.118,18.621c10.974,1.232,20.587-3.163,24.912-14.857
		c3.197-8.642,3.307-17.528,1.415-26.462c-1.098-5.187-3.237-9.892-7.084-13.675c-4.354-4.283-9.737-5.868-15.702-6.109
		c-9.606-0.389-17.561,4.361-21.619,13.06C255.721,203.819,254.965,209.766,254.854,216.561z"/>
	<path fill-rule="evenodd" clip-rule="evenodd" fill="#F9F9F9" d="M332.083,327.62c-13.646-1.081-27.132-0.328-40.603-0.55
		c-0.801-0.014-1.674,0.107-1.269-1.177c0.086-0.049,0.159-0.118,0.241-0.132c3.811-0.597,4.816-1.763,4.817-5.633
		c0.003-12.44,0.075-24.881-0.036-37.32c-0.042-4.789-0.381-9.584-0.819-14.354c-0.275-2.988-1.247-3.729-4.177-4.027
		c0-0.493,0-1,0-1.668c0.582,0,1.119,0,1.656,0c11.389,0,22.776,0.002,34.165-0.005c1.363,0,2.739,0.101,3.721-1.244
		c0.223-0.306,0.996-0.21,1.628-0.316c0,3.819,0,7.497,0,11.643c-0.741-0.409-1.554-0.578-1.691-0.979
		c-1.347-3.931-4.528-5.4-8.183-5.621c-5.742-0.347-11.512-0.23-17.27-0.342c-1.098-0.022-0.987,0.764-1.026,1.396
		c-0.207,3.283-0.47,6.568-0.527,9.854c-0.088,5.027-0.023,10.055-0.023,15.122c0.188,0.061,0.355,0.159,0.521,0.159
		c5.898-0.016,11.799,0,17.695-0.09c2.646-0.04,4.616-1.206,5.612-3.835c0.168-0.446,0.979-0.652,1.701-1.097
		c0,4.532,0,8.579,0,12.727c-0.803,0.283-1.481,0.357-1.891-0.824c-0.753-2.178-2.451-3.353-4.678-3.436
		c-4.612-0.169-9.229-0.172-13.845-0.228c-1.679-0.02-3.357-0.004-5.098-0.004c0,9.451,0,18.721,0,28.144
		c0.46,0.02,0.898,0.058,1.336,0.058c6.037,0.005,12.074,0,18.112,0.005c4.207,0.002,7.443-1.66,9.339-5.525
		c0.439-0.894,0.972-0.961,1.918-0.463C332.968,321.118,332.517,324.433,332.083,327.62z"/>
	<path fill-rule="evenodd" clip-rule="evenodd" fill="#F9F9F9" d="M244.608,185.468c0.308,3.032,0.634,6.24,0.961,9.46
		c-1.118,0.368-1.689,0.073-2.251-0.928c-1.924-3.425-4.986-5.58-8.608-6.861c-9.295-3.288-18.286-2.704-26.622,2.794
		c-6.007,3.961-9.2,9.908-10.679,16.803c-3.048,14.213,1.438,25.765,12.697,34.715c5.252,4.175,11.408,5.608,18.053,4.893
		c1.903-0.205,3.815-0.447,5.68-0.866c5.193-1.167,9.247-4.024,12.154-8.656c0.438,0.219,0.814,0.408,1.262,0.632
		c-1.039,3.024-2.028,5.957-3.076,8.87c-0.11,0.306-0.534,0.626-0.868,0.706c-11.021,2.625-22.085,3.844-33.128,0.264
		c-14.035-4.55-22.421-16.284-22.465-31.039c-0.027-8.967,2.504-16.96,8.808-23.509c5.403-5.614,12.183-8.566,19.765-9.896
		c7.744-1.358,15.299-0.387,22.773,1.728c0.923,0.262,1.847,0.548,2.789,0.709C242.67,185.426,243.515,185.404,244.608,185.468z"/>
	<path fill-rule="evenodd" clip-rule="evenodd" fill="#F9F9F9" d="M203,327.231c-6.608,0-13.121,0-19.644,0
		c-0.348-1.025-0.116-1.664,1.066-1.81c0.492-0.06,0.968-0.261,1.443-0.424c2.891-0.987,3.728-2.12,3.713-5.144
		c-0.084-17.327-0.179-34.652-0.274-51.977c-0.001-0.357-0.052-0.713-0.073-0.989c-0.114-0.099-0.148-0.154-0.181-0.154
		c-5.295,0.02-10.597-0.105-15.884,0.125c-3.033,0.13-4.945,2.148-5.926,4.974c-0.331,0.954-0.768,1.563-2.199,1.001
		c0-3.708,0-7.587,0-11.465c6.182,1.782,12.708,0.965,19.152,1.215c6.479,0.251,12.977,0.067,19.466,0.022
		c3.747-0.026,7.497-0.071,11.236-0.274c1.985-0.107,3.951-0.569,5.924-0.875c0.299-0.047,0.595-0.116,0.68-0.132
		c0,3.734,0.012,7.419-0.03,11.102c-0.002,0.215-0.448,0.602-0.679,0.595c-0.39-0.014-0.898-0.172-1.127-0.456
		c-0.331-0.408-0.456-0.984-0.669-1.487c-1.154-2.725-3.305-4.21-6.163-4.306c-5.023-0.172-10.055-0.101-15.083-0.123
		c-0.124,0-0.248,0.083-0.444,0.154c-0.022,0.391-0.064,0.793-0.065,1.192c-0.03,6.218-0.045,12.436-0.08,18.651
		c-0.06,10.698-0.138,21.395-0.193,32.09c-0.023,4.525,0.666,5.421,4.993,6.688C203.246,325.802,203.246,325.802,203,327.231z"/>
	<path fill-rule="evenodd" clip-rule="evenodd" fill="#F9F9F9" d="M380.953,236.852c0.585,0.36,1.341,0.55,1.541,0.991
		c2.358,5.234,6.823,7.378,12.085,8.351c2.825,0.522,5.652,0.401,8.419-0.396c4.324-1.245,7.405-3.858,8.273-8.411
		c0.962-5.038-0.144-9.614-4.566-12.613c-2.572-1.744-5.571-2.896-8.451-4.145c-3.264-1.416-6.68-2.49-9.909-3.975
		c-12.956-5.957-10.912-23.647-3.389-29.41c4.613-3.532,9.858-4.92,15.505-4.965c2.771-0.022,5.549,0.405,8.321,0.651
		c2.001,0.178,3.996,0.431,5.999,0.575c0.707,0.051,1.097,0.167,1.088,0.993c-0.031,3.098-0.012,6.197-0.012,9.439
		c-0.72,0.244-1.311,0.087-1.808-1.029c-1.847-4.149-5.37-6.236-9.603-7.197c-4.859-1.104-9.596-0.678-13.833,2.127
		c-7.016,4.645-6.997,15.291,0.142,20.319c2.502,1.764,5.439,2.947,8.254,4.226c3.073,1.395,6.313,2.431,9.342,3.908
		c7.631,3.72,10.487,9.203,9.494,17.752c-0.842,7.26-5.77,12.724-13.148,14.604c-5.497,1.401-10.982,0.837-16.449-0.135
		c-2.152-0.383-4.271-0.966-6.388-1.523c-0.348-0.092-0.863-0.52-0.868-0.802C380.929,243.232,380.953,240.273,380.953,236.852z"/>
	<path fill-rule="evenodd" clip-rule="evenodd" fill="#F9F9F9" d="M182.393,183.66c0,3.447,0,6.812,0,10.235
		c-0.923,0.344-1.432-0.006-1.86-1.009c-1.375-3.221-3.963-5.196-7.14-6.422c-4.102-1.583-8.297-1.731-12.496-0.42
		c-4.787,1.494-8.069,4.506-8.784,9.642c-0.699,5.026,0.82,9.305,4.982,12.444c3.407,2.57,7.424,3.871,11.329,5.411
		c2.121,0.836,4.245,1.685,6.3,2.667c8.54,4.082,11.413,10.913,8.952,20.665c-1.735,6.875-7.672,11.436-15.216,12.323
		c-6.94,0.815-13.65-0.396-20.29-2.236c-0.309-0.085-0.753-0.484-0.758-0.743c-0.054-2.96-0.035-5.92-0.035-9.224
		c0.501,0.237,1.369,0.357,1.556,0.78c1.967,4.435,5.566,6.764,10.046,7.972c3.98,1.073,7.962,1.081,11.851-0.407
		c4.169-1.594,6.643-4.628,7.116-9.09c0.509-4.795-0.775-9.068-5.029-11.667c-3.048-1.862-6.495-3.079-9.784-4.537
		c-3.292-1.459-6.76-2.593-9.884-4.345c-6.053-3.394-8.152-9.044-7.724-15.671c0.641-9.906,6.854-16.009,17.337-17.48
		c4.833-0.679,9.568-0.055,14.324,0.631C178.806,183.414,180.447,183.486,182.393,183.66z"/>
	<path fill-rule="evenodd" clip-rule="evenodd" fill="#F9F9F9" d="M419.581,184.897c0-0.354-0.012-0.625,0.004-0.893
		c0.01-0.174,0.062-0.346,0.088-0.492c5.604,0,11.156,0,16.868,0c0.021,0.37,0.047,0.84,0.071,1.29
		c-3.564,0.972-4.584,2.282-4.62,5.96c-0.077,8.002-0.123,16.004-0.196,24.006c-0.08,8.641-0.179,17.282-0.266,25.923
		c-0.003,0.273,0.021,0.548,0.043,0.821c0.253,3.064,1.241,4.338,4.155,5.292c0,0.458,0,0.938,0,1.353c-5.018,0-9.974,0-15.011,0
		c0-0.391,0-0.87,0-1.338c2.77-1.079,3.925-2.601,3.905-5.608c-0.073-11.567-0.219-23.134-0.328-34.701
		c-0.051-5.259-0.079-10.518-0.117-15.776c-0.002-0.229,0.004-0.458-0.006-0.687C424.04,186.944,422.769,185.479,419.581,184.897z"
		/>
	<path fill-rule="evenodd" clip-rule="evenodd" fill="#F9F9F9" d="M125.602,184.897c0-0.524,0-0.965,0-1.385
		c5.62,0,11.169,0,16.886,0c0.023,0.363,0.054,0.833,0.083,1.282c-3.73,1.057-4.599,2.266-4.639,6.367
		c-0.071,7.265-0.142,14.53-0.205,21.796c-0.081,9.322-0.173,18.644-0.207,27.966c-0.004,1.026,0.099,2.2,0.598,3.041
		c0.587,0.99,1.535,1.959,2.56,2.442c0.97,0.458,1.27,0.844,0.981,1.75c-5.008,0-10,0-15.052,0c-0.207-0.816-0.132-1.345,0.96-1.726
		c2.266-0.789,2.95-2.803,2.957-4.95c0.024-7.084-0.06-14.168-0.115-21.251c-0.051-6.488-0.112-12.977-0.182-19.466
		c-0.039-3.655-0.021-7.313-0.183-10.963C129.908,186.716,128.748,185.534,125.602,184.897z"/>
	<path fill-rule="evenodd" clip-rule="evenodd" fill="#F9F9F9" d="M200.4,358.988c-5.805,0.009-9.051-3.969-7.738-9.51
		c0.558-2.358,1.972-4.099,4.305-4.706c1.638-0.427,3.449-0.646,5.112-0.424c4.22,0.561,6.484,3.719,6.132,8.103
		C207.883,356.531,204.958,358.979,200.4,358.988z M194.972,351.524c0.448,1.445,0.674,2.975,1.367,4.255
		c1.737,3.2,6.164,3.229,7.948,0.064c1.565-2.778,1.559-5.722-0.012-8.494c-1.803-3.183-6.177-3.142-7.941,0.076
		C195.675,348.625,195.443,350.062,194.972,351.524z"/>
	<path fill-rule="evenodd" clip-rule="evenodd" fill="#F9F9F9" d="M437.33,353.562c1.339,0,2.49,0,3.36,0
		c-0.103,1.139-0.295,2.218-0.268,3.292c0.02,0.866-0.187,1.322-1.068,1.567c-3.099,0.869-6.137,0.898-9.062-0.573
		c-2.945-1.481-4.193-3.951-3.918-7.196c0.257-3.038,2.023-4.912,4.807-5.872c2.442-0.842,4.926-0.739,7.427-0.179
		c1.416,0.317,0.859,1.345,1.051,2.457c-0.524-0.226-0.905-0.29-1.148-0.51c-2.938-2.635-7.329-1.71-8.828,1.879
		c-1.939,4.639,0.832,9.626,5.463,9.69c0.924,0.014,1.988-0.295,2.742-0.811C438.527,356.864,438.122,354.695,437.33,353.562z"/>
	<path fill-rule="evenodd" clip-rule="evenodd" fill="#F9F9F9" d="M377.883,344.524c0,0.771,0,1.662,0,2.705
		c-0.937-0.604-1.739-1.394-2.688-1.657c-1.012-0.281-2.162-0.062-3.361-0.062c0,1.818,0,3.526,0,5.416
		c1.836-0.109,3.782,0.699,5.496-1.358c0,1.52,0,2.676,0,3.835c-1.391-2.312-3.559-1.172-5.51-1.438c0,1.926,0,3.726,0,5.689
		c2.265-0.186,4.691,0.853,6.485-1.535c0.13,0.083,0.259,0.163,0.388,0.244c-0.188,0.844-0.374,1.686-0.531,2.394
		c-3.337,0-6.478,0-9.617,0c1.373-1.092,0.989-2.513,0.976-3.803c-0.027-2.835-0.067-5.669-0.196-8.499
		c-0.026-0.599-0.45-1.177-0.757-1.93C371.556,344.524,374.632,344.524,377.883,344.524z"/>
	<path fill-rule="evenodd" clip-rule="evenodd" fill="#F9F9F9" d="M498.011,356.353c-0.206,0.843-0.41,1.685-0.576,2.363
		c-3.329,0-6.492,0-9.376,0c0.264-1.021,0.671-1.894,0.681-2.771c0.036-3.058-0.03-6.12-0.144-9.175
		c-0.026-0.69-0.398-1.367-0.665-2.221c2.895,0,5.999,0,9.2,0c0,0.695,0,1.626,0,2.66c-0.93-0.589-1.743-1.375-2.7-1.639
		c-1.017-0.281-2.168-0.062-3.376-0.062c0,1.798,0,3.506,0,5.394c1.856-0.034,3.812,0.67,5.559-1.267c0,1.48,0,2.617,0,3.755
		c-1.458-2.296-3.605-1.211-5.591-1.372c0,1.907,0,3.668,0,5.602c2.296-0.116,4.735,0.885,6.571-1.514
		C497.732,356.188,497.871,356.271,498.011,356.353z"/>
	<path fill-rule="evenodd" clip-rule="evenodd" fill="#F9F9F9" d="M144.913,347.886c-0.425-0.319-0.819-0.482-1.007-0.779
		c-1.063-1.666-2.671-2.166-4.491-2.053c-1.963,0.125-3.321,1.216-4.005,3.051c-0.812,2.178-0.813,4.392,0.021,6.564
		c1.395,3.63,6.657,4.798,8.969,1.711c0.1-0.137,0.245-0.237,0.382-0.366c0.603,1.016,0.214,2.481-0.696,2.653
		c-2.4,0.455-4.805,0.587-7.163-0.246c-3.399-1.201-5.32-4.295-4.868-7.812c0.453-3.52,3.095-6.108,6.658-6.363
		c1.307-0.091,2.652-0.004,3.949,0.201C145.09,344.828,145.145,344.979,144.913,347.886z"/>
	<path fill-rule="evenodd" clip-rule="evenodd" fill="#F9F9F9" d="M255.296,344.527c1.145,0,2.57,0,4.273,0
		c-1.693,1.234-1.149,2.888-1.198,4.357c-0.096,2.863-0.028,5.732-0.028,8.757c2.495-0.147,5.09,0.798,6.961-1.923
		c0.859,1.237-0.229,2.142-0.291,3.068c-3.394,0-6.67,0-9.945,0c1.346-0.897,0.997-2.195,1.002-3.37
		c0.011-2.698,0.064-5.398-0.03-8.092C256.008,346.426,255.579,345.541,255.296,344.527z"/>
	<path fill-rule="evenodd" clip-rule="evenodd" fill="#F9F9F9" d="M321.703,358.736c-3.546,0-6.84,0-10.134,0
		c1.257-0.793,1.219-1.914,1.202-3.078c-0.035-2.51-0.024-5.025-0.006-7.538c0.011-1.319,0.145-2.662-1.219-3.587
		c1.456,0,2.911,0,4.104,0c-0.229,1.03-0.632,2.06-0.659,3.101c-0.087,3.274-0.031,6.555-0.031,10.01
		c2.486-0.163,5.071,0.805,6.934-1.909C322.854,356.947,321.54,357.827,321.703,358.736z"/>
</g>
</svg>
